<svg width="242" height="161" viewBox="0 0 242 161" fill="none" xmlns="http://www.w3.org/2000/svg">
<g clip-path="url(#clip0_8449_6413)">
<path d="M168.334 90.777H168.627C168.961 90.777 169.243 90.6567 169.243 90.3441C169.243 90.1223 169.08 89.8994 168.627 89.8994C168.495 89.8994 168.404 89.9112 168.334 89.9194V90.777ZM168.334 92.1772H167.929V89.6493C168.142 89.6175 168.343 89.588 168.646 89.588C169.031 89.588 169.282 89.6682 169.435 89.7802C169.586 89.8899 169.667 90.0622 169.667 90.3028C169.667 90.6355 169.445 90.8384 169.171 90.9174V90.9386C169.394 90.9776 169.545 91.1793 169.597 91.552C169.656 91.946 169.718 92.097 169.758 92.1772H169.335C169.273 92.097 169.213 91.8646 169.162 91.5332C169.102 91.2099 168.939 91.0908 168.617 91.0908H168.334V92.1772ZM168.757 88.9427C167.758 88.9427 166.939 89.7991 166.939 90.8584C166.939 91.9366 167.758 92.7824 168.768 92.7824C169.778 92.7918 170.587 91.9366 170.587 90.8679C170.587 89.7991 169.778 88.9427 168.768 88.9427H168.757ZM168.768 88.59C170.011 88.59 171 89.5974 171 90.8584C171 92.1371 170.011 93.1339 168.757 93.1339C167.515 93.1339 166.505 92.1371 166.505 90.8584C166.505 89.5974 167.515 88.59 168.757 88.59H168.768ZM150.765 67.3296H150.484C151.139 66.5864 151.687 65.7017 152.099 64.7155H153.027C152.45 65.7312 151.68 66.6171 150.765 67.3296ZM149.906 67.9229L149.904 67.9241C149.904 67.9241 149.904 67.9229 149.906 67.9229ZM140.801 67.9229L140.802 67.9241C140.802 67.9229 140.802 67.9229 140.801 67.9229ZM137.679 64.7155H138.605C139.018 65.7017 139.568 66.5864 140.225 67.3296H139.942C139.028 66.6171 138.255 65.7312 137.679 64.7155ZM139.938 53.469H140.226C139.737 54.021 139.301 54.6533 138.94 55.3575L138.932 55.3564L138.805 55.623L138.678 55.8907L138.687 55.8943C138.657 55.9568 138.629 56.0193 138.603 56.083H137.679C137.834 55.8117 137.999 55.5451 138.18 55.2915C138.682 54.5943 139.275 53.9833 139.938 53.469ZM149.906 52.8768L149.904 52.8756C149.904 52.8756 149.906 52.8756 149.906 52.8768ZM153.027 56.083H152.099C151.687 55.0957 151.139 54.2121 150.484 53.469H150.765C151.68 54.1826 152.45 55.0697 153.027 56.083ZM152.948 60.6954H154.158C154.117 61.9151 153.828 63.077 153.334 64.1245H152.329C152.7 63.0676 152.916 61.908 152.948 60.6954ZM149.403 64.1245C149.61 63.0723 149.729 61.9151 149.747 60.6954H152.351C152.319 61.9151 152.09 63.077 151.701 64.1245H149.403ZM148.02 67.9229H148.996C148.47 68.324 147.904 68.6402 147.299 68.8596C147.553 68.5965 147.794 68.2815 148.02 67.9229ZM142.687 67.9229C142.91 68.2815 143.151 68.5965 143.407 68.8596C142.806 68.6402 142.234 68.324 141.712 67.9229H142.687ZM138.352 60.6954H140.96C140.977 61.9151 141.099 63.0723 141.306 64.1245H139.006C138.615 63.077 138.385 61.9151 138.352 60.6954ZM137.758 60.1032H136.552C136.589 58.9047 136.87 57.7451 137.373 56.6764H138.376C137.999 57.7545 137.792 58.9177 137.758 60.1032ZM141.311 56.6764C141.099 57.7534 140.978 58.9177 140.96 60.1032H138.356C138.388 58.9118 138.609 57.7475 139.006 56.6764H141.311ZM148.02 52.8768C147.794 52.517 147.553 52.202 147.299 51.939C147.904 52.1596 148.47 52.4757 148.996 52.8768H148.02ZM145.649 60.1032V56.6764H148.785C149.004 57.7286 149.13 58.8893 149.151 60.1032H145.649ZM145.649 64.1245V60.6954H149.151C149.13 61.908 149.004 63.0723 148.785 64.1245H145.649ZM145.649 67.3296V64.7155H148.648C148.396 65.7253 148.061 66.6136 147.666 67.3296H145.649ZM145.649 67.9229H147.298C146.807 68.6189 146.245 69.0648 145.649 69.1769V67.9229ZM145.056 67.9229V69.1769C144.461 69.0648 143.899 68.6189 143.407 67.9229H145.056ZM145.056 64.7155V67.3296H143.04C142.646 66.6136 142.309 65.7253 142.056 64.7155H145.056ZM145.056 60.6954V64.1245H141.921C141.703 63.0723 141.573 61.908 141.557 60.6954H145.056ZM145.056 56.6764V60.1032H141.557C141.573 58.9153 141.696 57.7498 141.917 56.6764H145.056ZM147.666 53.469C148.061 54.1862 148.396 55.0756 148.648 56.083H145.649V53.469H147.666ZM145.649 52.8768V51.6228C146.245 51.7337 146.807 52.1784 147.298 52.8768H145.649ZM145.056 51.624V52.8768H143.402C143.907 52.1714 144.471 51.7337 145.056 51.624ZM142.69 52.8768H141.729C142.249 52.4804 142.808 52.1702 143.395 51.952C143.145 52.2103 142.91 52.5205 142.69 52.8768ZM142.104 55.8719C142.35 54.9329 142.67 54.1272 143.032 53.469H145.056V56.083H142.05C142.069 56.0122 142.084 55.9391 142.104 55.8719ZM152.351 60.1032H149.747C149.729 58.8823 149.61 57.7262 149.403 56.6764H151.701C152.09 57.7227 152.319 58.8823 152.351 60.1032ZM154.158 60.1032H152.948C152.916 58.8893 152.7 57.7321 152.329 56.6764H153.334C153.828 57.7227 154.117 58.8823 154.158 60.1032ZM151.456 56.083H149.272C149.039 55.0933 148.727 54.2109 148.351 53.469H149.667C150.393 54.1826 151.003 55.0709 151.456 56.083ZM139.342 55.8754C139.791 54.9352 140.37 54.1272 141.044 53.469H142.362C142.074 54.0375 141.822 54.697 141.609 55.4366L141.606 55.4342L141.528 55.7197L141.454 56.0075H141.46C141.454 56.0323 141.447 56.0582 141.44 56.083H139.249C139.281 56.0146 139.309 55.945 139.342 55.8754ZM136.55 60.6954H137.757C137.79 61.908 138.006 63.0676 138.376 64.1245H137.373C136.88 63.077 136.587 61.9151 136.55 60.6954ZM139.248 64.7155H141.431C141.667 65.7052 141.98 66.5888 142.357 67.3296H141.035C140.315 66.6159 139.705 65.7312 139.248 64.7155ZM149.667 67.3296H148.351C148.727 66.5888 149.039 65.7052 149.272 64.7155H151.456C151.003 65.7312 150.393 66.6159 149.667 67.3296ZM154.76 60.3993C154.76 55.5074 150.986 51.4801 146.188 51.0578C145.913 51.0189 145.636 51 145.352 51C145.087 51 144.826 51.0212 144.566 51.0554C141.932 51.2772 139.493 52.6043 137.877 54.7099L137.871 54.704L137.697 54.9447L137.525 55.1865L137.533 55.1936C136.499 56.7377 135.946 58.5284 135.946 60.3993C135.946 65.2912 139.72 69.3196 144.517 69.7419C144.792 69.7797 145.072 69.7997 145.352 69.7997C145.636 69.7997 145.913 69.7797 146.188 69.7419C150.986 69.3196 154.76 65.2912 154.76 60.3993ZM165.407 88.9816H70.3088V93.2141H165.407V88.9816ZM120.367 53.1962L123.672 59.9543L127.082 53.1962H131.391L125.494 63.6123V69.2993H121.265V63.4106L115.513 53.1962H120.367ZM99.8338 53.1962H104.456L107.888 64.8616L111.507 53.1962H115.671L110.167 69.2993H105.169L99.8338 53.1962ZM96.2252 63.0991L94.2782 56.341H94.2155L92.1254 63.0991H96.2252ZM91.8935 53.1961H96.9988L102.96 69.2992H98.2325L97.1857 66.0647H91.1401L90.1145 69.2992H85.9319L91.8935 53.1961ZM70.309 53.1962H76.0837L81.1877 65.1954L81.1475 53.1962H84.8073V69.2993H79.1591L73.9486 56.787L73.9912 69.2993H70.309V53.1962ZM154.385 71.0081H158.631V83.9439H165.41V87.1124H154.385V71.0081ZM147.208 80.9106L145.262 74.1549H145.199L143.107 80.9106H147.208ZM142.877 71.0077H147.982L153.945 87.1131H149.216L148.17 83.8774H142.124L141.1 87.1131H136.914L142.877 71.0077ZM127.689 77.9228H129.258C130.179 77.9228 130.639 77.9228 130.994 77.7895C131.915 77.4769 132.103 76.473 132.103 75.9599C132.103 73.9757 130.471 73.9757 129.258 73.9757H127.689V77.9228ZM123.484 71.0078H130.471C133.191 71.0078 134.217 71.1871 135.117 72.1674C135.576 72.6593 136.162 73.5522 136.162 75.291C136.162 77.0534 135.493 77.8107 134.781 78.279C133.82 78.9266 132.898 79.0375 132.479 79.1047V79.1932C135.409 79.284 135.576 80.6666 135.911 83.1403C136.058 84.2349 136.267 85.9737 136.623 87.1132H132.082C131.831 86.1306 131.725 84.9038 131.58 83.4764C131.391 81.536 131.33 80.8211 129.446 80.8211H127.689V87.1132H123.484V71.0078ZM110.867 71.0528H122.207V74.1317H115.011V77.4759H121.789V80.5547H115.011V83.9886H122.375V87.1123H110.867V71.0528ZM99.1315 84.0116H100.931C103.713 83.988 105.491 82.7188 105.491 78.9711C105.491 74.0862 102.06 74.0862 100.784 74.0862L99.1315 74.0627V84.0116ZM94.8424 71.0086H101.224C103.022 71.0086 105.408 71.208 106.976 72.3463C109.215 73.9754 109.821 76.6283 109.821 79.0159C109.821 82.5843 108.755 85.216 105.701 86.4877C104.152 87.1129 102.311 87.1129 101.265 87.1129H94.8424V71.0086ZM82.0808 71.0528H93.4197V74.1317H86.2232V77.4759H93.0009V80.5547H86.2232V83.9886H93.5865V87.1123H82.0808V71.0528ZM70.3094 71.0528H80.9989V74.1541H74.4731V77.9006H80.54V80.9995H74.4731V87.1123H70.3094V71.0528ZM157.36 99.8823H159.279V101.321L159.315 101.359C159.919 100.28 160.968 99.6157 162.176 99.6157C164.168 99.6157 165.431 100.753 165.431 102.952V109.678H163.402V103.52C163.368 101.986 162.799 101.321 161.608 101.321C160.257 101.321 159.387 102.457 159.387 103.899V109.678H157.36V99.8823ZM154.267 104.771C154.267 103.084 153.467 101.322 151.654 101.322C149.842 101.322 149.042 103.084 149.042 104.771C149.042 106.477 149.842 108.238 151.654 108.238C153.467 108.238 154.267 106.477 154.267 104.771ZM147.016 104.771C147.016 101.777 148.705 99.6162 151.654 99.6162C154.605 99.6162 156.293 101.777 156.293 104.771C156.293 107.785 154.605 109.943 151.654 109.943C148.705 109.943 147.016 107.785 147.016 104.771ZM143.834 99.8826H145.859V109.678H143.834V99.8826ZM143.834 96.1491H145.859V98.1957H143.834V96.1491ZM134.023 99.8823H135.942V101.321L135.978 101.359C136.582 100.28 137.632 99.6157 138.84 99.6157C140.83 99.6157 142.092 100.753 142.092 102.952V109.678H140.066V103.52C140.03 101.986 139.461 101.321 138.27 101.321C136.919 101.321 136.048 102.457 136.048 103.899V109.678H134.023V99.8823ZM121.954 96.1489H124.176V104.032C124.176 105.85 124.282 107.953 127.162 107.953C130.043 107.953 130.148 105.85 130.148 104.032V96.1489H132.37V104.809C132.37 108.276 130.29 109.999 127.162 109.999C124.034 109.999 121.954 108.276 121.954 104.809V96.1489ZM111.361 99.8823H112.89V96.9439H114.915V99.8823H116.746V101.493H114.915V106.722C114.915 107.612 114.986 108.067 115.893 108.067C116.177 108.067 116.462 108.067 116.746 107.991V109.658C116.303 109.697 115.874 109.772 115.431 109.772C113.317 109.772 112.924 108.899 112.89 107.272V101.493H111.361V99.8823ZM108.499 99.8826H110.524V109.678H108.499V99.8826ZM108.499 96.1491H110.524V98.1957H108.499V96.1491ZM102.154 108.238C103.966 108.238 104.731 106.477 104.731 104.771C104.731 102.61 103.753 101.322 102.189 101.322C100.287 101.322 99.6106 103.122 99.6106 104.885C99.6106 106.572 100.394 108.238 102.154 108.238ZM106.685 109.678H104.767V108.352H104.731C104.198 109.47 103.043 109.943 101.888 109.943C98.9896 109.943 97.5856 107.651 97.5856 104.714C97.5856 101.17 99.5586 99.6165 101.567 99.6165C102.722 99.6165 104.001 100.071 104.624 101.15H104.66V96.1495H106.685V109.678ZM94.9018 103.917C94.8308 102.553 93.9591 101.322 92.5905 101.322C91.1864 101.322 90.2271 102.457 90.1739 103.917H94.9018ZM90.1739 105.34C90.1739 106.873 90.9558 108.238 92.6437 108.238C93.8171 108.238 94.528 107.689 94.884 106.608H96.8026C96.3591 108.75 94.6534 109.944 92.6437 109.944C89.7646 109.944 88.1477 107.803 88.1477 104.791C88.1477 102.004 89.8533 99.6161 92.5905 99.6161C95.4873 99.6161 97.2651 102.402 96.928 105.34H90.1739ZM82.7794 99.8823H84.6802V101.777H84.7181C84.9487 100.734 86.1564 99.6157 87.402 99.6157C87.8633 99.6157 87.9875 99.6547 88.1649 99.6735V101.759C87.8799 101.721 87.5782 101.662 87.2932 101.662C85.908 101.662 84.8044 102.857 84.8044 105.016V109.678H82.7794V99.8823ZM79.2429 100.451C78.8703 98.8962 77.9275 97.7614 76.0787 97.7614C73.3605 97.7614 72.2214 100.318 72.2214 102.913C72.2214 105.509 73.3605 108.067 76.0787 108.067C78.0517 108.067 79.1364 106.495 79.3138 104.524H81.482C81.3046 107.766 79.1542 110 76.0787 110C72.2758 110 70 106.78 70 102.913C70 99.0472 72.2758 95.8268 76.0787 95.8268C78.9412 95.8468 81.1981 97.5337 81.4643 100.451H79.2429Z" fill="#E1E7ED"/>
</g>
<defs>
<clipPath id="clip0_8449_6413">
<rect width="101" height="59" fill="white" transform="translate(70 51)"/>
</clipPath>
</defs>
</svg>
