<svg width="242" height="161" viewBox="0 0 242 161" fill="none" xmlns="http://www.w3.org/2000/svg">
<g clip-path="url(#clip0_8449_6415)">
<path d="M159.899 92.436H165.365V82.4018C165.365 80.1122 166.697 78.4924 168.66 78.4924C170.553 78.4924 171.534 79.8302 171.534 81.732V92.436H177V80.6763C177 76.6964 174.618 73.8798 170.762 73.8798C168.309 73.8798 166.592 74.9356 165.295 76.8726H165.19V74.4086H159.899V92.436ZM149.175 73.9151C143.463 73.9151 139.642 78.0341 139.642 83.4575C139.642 88.8457 143.461 93 149.175 93C154.889 93 158.708 88.8457 158.708 83.4575C158.708 78.036 154.889 73.9151 149.175 73.9151ZM149.14 88.9496C146.547 88.9496 145.18 86.7676 145.18 83.4575C145.18 80.1122 146.547 77.9655 149.14 77.9655C151.733 77.9655 153.169 80.1141 153.169 83.4575C153.171 86.7676 151.734 88.9496 149.14 88.9496ZM124.083 92.436H139.433V88.1054H130.742V87.9996L139.047 78.6334V74.4086H124.083V78.7392H132.493V78.845L124.083 88.2817V92.436ZM117.072 92.436H122.574V74.4086H117.072V92.436ZM104.317 92.436H109.783V84.1626C109.783 80.3942 112.027 78.7392 115.46 79.1975H115.565V74.4439C115.285 74.3381 114.969 74.3029 114.444 74.3029C112.306 74.3029 110.869 75.2881 109.643 77.4014H109.538V74.4086H104.317V92.436ZM94.2574 88.9867C91.84 88.9867 90.3681 87.4022 90.0874 84.9734H103.018C103.054 81.0993 102.038 78.0007 99.8993 76.0655C98.3923 74.6573 96.3941 73.8817 93.8714 73.8817C88.4752 73.8817 84.7244 78.0007 84.7244 83.3889C84.7244 88.8104 88.2997 92.9666 94.2223 92.9666C96.4661 92.9666 98.2519 92.3673 99.7238 91.3468C101.301 90.2558 102.422 88.6713 102.738 87.0868H97.4818C96.9574 88.2817 95.8696 88.9867 94.2574 88.9867ZM93.9785 77.8245C95.9065 77.8245 97.2381 79.268 97.4486 81.3813H90.1243C90.5435 79.2327 91.6996 77.8245 93.9785 77.8245ZM117.072 68H122.574V72.8946H117.072V68Z" fill="#E1E7ED"/>
<path d="M66 74.4082L72.8035 92.2129C72.8552 92.3483 72.9845 92.4374 73.1285 92.4374H78.6485C78.5045 92.4374 78.3752 92.3483 78.3235 92.2129L71.52 74.4082H66Z" fill="url(#paint0_radial_8449_6415)"/>
<path d="M85.7769 74.4082L78.9734 92.2129C78.9217 92.3483 78.7925 92.4374 78.6484 92.4374H73.1284C73.2725 92.4374 73.4017 92.3483 73.4534 92.2129L80.2569 74.4082H85.7769Z" fill="#E1E7ED"/>
</g>
<defs>
<radialGradient id="paint0_radial_8449_6415" cx="0" cy="0" r="1" gradientUnits="userSpaceOnUse" gradientTransform="translate(75.7896 86.2218) rotate(-90) scale(8.55346 7.72363)">
<stop stop-color="white"/>
<stop offset="1" stop-color="#E1E7ED"/>
</radialGradient>
<clipPath id="clip0_8449_6415">
<rect width="111" height="25" fill="white" transform="translate(66 68)"/>
</clipPath>
</defs>
</svg>
