<svg width="242" height="161" viewBox="0 0 242 161" fill="none" xmlns="http://www.w3.org/2000/svg">
<g clip-path="url(#clip0_8449_6417)">
<path d="M217.946 89.6141H223.093V77.0959H223.145L232.824 89.6141H240.805V72.3858H235.651V84.904H235.604L225.926 72.3858H217.944M197.048 80.0739C197.048 77.9354 197.562 76.6229 200.279 76.6229H206.311C209.028 76.6229 209.541 77.9354 209.541 80.0739V81.926C209.541 84.4243 209.028 85.377 206.59 85.377H199.999C197.562 85.377 197.048 84.4243 197.048 81.926V80.0739ZM191.758 83.5716C191.758 88.6148 194.52 89.8007 199.161 89.8007H207.429C212.07 89.8007 214.832 88.6148 214.832 83.5716V78.435C214.832 73.3851 212.07 72.1992 207.429 72.1992H199.161C194.52 72.1992 191.758 73.3851 191.758 78.435M170.243 76.6695H177.484V89.6141H182.638V76.6695H189.879V72.3858H170.243M147.402 89.6141H152.557V85.1372H160.656C162.261 85.1372 162.768 85.7368 162.768 87.5422V89.6141H167.923V86.6828C167.923 83.8514 166.649 83.1652 165.115 82.8787V82.8323C167.481 82.2593 167.994 80.9069 167.994 78.5951V77.5025C167.994 74.4113 166.922 72.386 162.957 72.386H147.402V89.6141ZM152.557 76.6695H160.61C162.235 76.6695 162.976 76.956 162.976 78.475V79.0479C162.976 80.2871 162.469 80.8601 161.078 80.8601H152.557M122.755 83.4716C122.755 87.7554 124.913 89.8007 129.651 89.8007H137.029C141.767 89.8007 143.925 87.7554 143.925 83.4716V72.3858H138.771V82.3324C138.771 84.5176 138.004 85.377 135.891 85.377H130.789C128.676 85.377 127.909 84.5176 127.909 82.3324V72.3858H122.755M103.262 76.5296H112.381C113.337 76.5296 113.889 76.8828 113.889 77.8821C113.889 78.8614 113.337 79.2145 112.381 79.2145H103.262V76.5296ZM103.262 82.7854H112.498C113.61 82.7854 114.357 83.0452 114.357 84.2111C114.357 85.2105 113.61 85.4703 112.498 85.4703H103.262V82.7854ZM98.1074 89.6141H114.52C117.464 89.6141 119.648 88.828 119.648 85.0439C119.648 82.4523 118.809 81.2131 116.561 80.9267V80.86C117.997 80.427 119.044 79.8607 119.044 76.9093C119.044 73.5316 117.048 72.3857 112.94 72.3857H98.1074M89.1961 89.6141H94.344V72.3858H89.1961V89.6141ZM69.9955 89.6141H86.7327V85.1905H75.1499V72.3858H69.9955M51.0744 89.6141H67.8115V85.1905H56.2287V72.3858H51.0744M36.6382 76.3831L39.9791 82.852H33.3882L36.6382 76.3831ZM24.1909 89.6141H29.9498L31.4578 86.5629H41.9031L43.5085 89.6141H49.2349L39.9986 72.3858H33.2907M1.19434 89.6141H6.34876V83.0919H17.21V89.6141H22.3645V72.3858H17.21V78.5283H6.34876V72.3858H1.19434" fill="#E1E7ED"/>
</g>
<defs>
<clipPath id="clip0_8449_6417">
<rect width="240" height="18" fill="white" transform="translate(1 72)"/>
</clipPath>
</defs>
</svg>
