<svg width="242" height="161" viewBox="0 0 242 161" fill="none" xmlns="http://www.w3.org/2000/svg">
<path d="M9.01401 79.3516H6.40625V83.069H9.01401V79.3516Z" fill="#E1E7ED"/>
<path d="M13.1827 79.9297H9.48438V82.5033H13.1827V79.9297Z" fill="#E1E7ED"/>
<path d="M16.3031 79.3516H13.6953V83.069H16.3031V79.3516Z" fill="#E1E7ED"/>
<path d="M12.6781 72.0923C12.6781 71.3774 12.1091 70.7578 11.3979 70.7578C10.6867 70.7578 10.0703 71.3774 10.0703 72.1399V79.3841H12.6781V72.0923Z" fill="#E1E7ED"/>
<path d="M12.6781 90.2364C12.6781 90.9513 12.1091 91.5708 11.3979 91.6185C10.6867 91.6185 10.0703 90.9989 10.0703 90.2364V82.9922H12.6781V90.2364Z" fill="#E1E7ED"/>
<path d="M9.01401 72.0802C9.06142 71.3653 8.49246 70.7457 7.78125 70.6981C7.07004 70.6504 6.45366 71.2223 6.40625 71.9372C6.40625 71.9849 6.40625 72.0325 6.40625 72.0802V75.7023H9.01401V72.0802Z" fill="#E1E7ED"/>
<path d="M16.3031 72.0923C16.3031 71.3774 15.7341 70.7578 15.0229 70.7578C14.3117 70.7578 13.6953 71.3297 13.6953 72.0446V75.6667H16.3031V72.0923Z" fill="#E1E7ED"/>
<path d="M9.01401 90.2229C9.06142 90.9378 8.49246 91.5573 7.78125 91.605C7.07004 91.6527 6.45366 91.0807 6.40625 90.3659C6.40625 90.3182 6.40625 90.2705 6.40625 90.2229V86.6484H9.01401V90.2229Z" fill="#E1E7ED"/>
<path d="M16.3031 90.2377C16.3031 90.9526 15.7341 91.5722 15.0229 91.5722C14.3117 91.5722 13.6953 91.0003 13.6953 90.2854V86.7109H16.3031V90.2377Z" fill="#E1E7ED"/>
<path d="M2.4444 78.8508H9.60388V76.2296H2.4444C1.73319 76.1819 1.11681 76.7062 1.06939 77.4687C1.02198 78.1836 1.54353 78.8032 2.30215 78.8508C2.30215 78.8508 2.34957 78.8508 2.4444 78.8508Z" fill="#E1E7ED"/>
<path d="M2.4444 86.1399H9.60388V83.5186H2.4444C1.73319 83.471 1.11681 83.9952 1.06939 84.7578C1.02198 85.4727 1.54353 86.0922 2.30215 86.1399C2.30215 86.1399 2.34957 86.1399 2.4444 86.1399Z" fill="#E1E7ED"/>
<path d="M20.2923 86.1399H13.1328V83.5186H20.2923C21.0035 83.471 21.6199 83.9952 21.6673 84.7101C21.7147 85.425 21.1932 86.0446 20.482 86.0922C20.4345 86.1399 20.3397 86.1399 20.2923 86.1399Z" fill="#E1E7ED"/>
<path d="M2.4254 82.4914H5.93403V79.8702H2.37799C1.66678 79.8225 1.0504 80.3468 1.00299 81.1093C0.955572 81.8242 1.47713 82.4438 2.23575 82.4914C2.23575 82.4914 2.33058 82.4914 2.4254 82.4914Z" fill="#E1E7ED"/>
<path d="M20.3172 82.4915H16.8086V79.8702H20.3172C21.0284 79.8225 21.6448 80.3468 21.6922 81.0617C21.7396 81.7766 21.2181 82.3961 20.5069 82.4438C20.4595 82.4438 20.412 82.4438 20.3646 82.4438H20.3172" fill="#E1E7ED"/>
<path d="M20.2923 78.8508H13.1328V76.2296H20.2923C21.0035 76.1819 21.6199 76.7062 21.6673 77.421C21.7147 78.1359 21.1932 78.7555 20.482 78.8032C20.4345 78.8508 20.3397 78.8508 20.2923 78.8508Z" fill="#E1E7ED"/>
<path d="M141.054 90.3662L140.248 90.2708C139.157 90.1279 139.11 89.7942 139.11 87.6019V82.4547C139.11 80.3101 138.067 78.499 135.175 78.499C133.657 78.5467 132.187 79.1186 131.05 80.1194C130.955 80.0718 130.907 79.7858 130.907 79.5475V73.0659C130.907 71.7314 130.955 70.2063 131.002 69.2531C130.955 69.1578 130.812 69.0625 130.718 69.0625C129.675 69.5868 128.537 70.0157 127.399 70.3493C127.256 70.5399 127.256 70.7782 127.399 70.9689L127.683 71.1595C128.584 71.7314 128.631 71.9221 128.631 73.6854V87.6019C128.631 88.1738 128.631 88.7457 128.584 89.3177C128.252 90.2232 127.351 90.1279 126.687 90.1279C123.937 90.0802 123.606 88.5075 123.606 86.6964V80.9296C123.606 80.2624 123.653 80.1671 124.175 80.1671H126.498C126.83 79.7858 126.782 79.2139 126.45 78.8803H124.175C123.653 78.8803 123.606 78.8326 123.606 78.3084V75.7824C123.463 75.5441 122.989 75.6871 122.894 75.7824C122.515 76.4973 122.231 77.9271 121.662 78.5943C121.093 79.0233 120.476 79.3569 119.812 79.4999C119.67 79.7382 119.718 80.0241 119.86 80.2147H120.713C121.33 80.2147 121.377 80.2624 121.377 81.1203V88.1738C121.377 89.27 122.515 91.0334 125.218 91.081H129.817C130.907 91.081 131.761 91.1287 132.662 91.1764C132.899 91.081 132.946 90.4615 132.709 90.3662L132.045 90.2708C130.955 90.1279 130.907 89.7942 130.907 87.6019V82.4071C130.907 81.3109 131.002 81.1679 131.571 80.6913C132.235 80.1194 133.088 79.8335 133.942 79.8811C135.886 79.8811 136.834 81.2156 136.834 83.1696V87.5543C136.834 89.7466 136.787 90.0325 135.649 90.2232L135.032 90.3185C134.843 90.5568 134.843 90.9381 135.08 91.1287C135.886 91.081 136.834 91.0334 137.925 91.0334C139.062 91.0334 139.868 91.081 141.006 91.1287C141.196 90.9381 141.243 90.5568 141.054 90.3662Z" fill="#E1E7ED"/>
<path d="M119.121 90.3787L118.41 90.2833C117.319 90.1404 117.272 89.8067 117.272 87.6144V73.2213C117.272 71.8869 117.319 70.3618 117.367 69.4563C117.319 69.3609 117.177 69.2656 117.082 69.2656C116.039 69.7899 114.949 70.2188 113.811 70.5524C113.669 70.7431 113.669 70.9814 113.811 71.172L114.095 71.3626C114.996 71.8869 115.044 72.0775 115.044 73.8886V87.6621C115.044 89.8544 114.569 90.188 113.906 90.331C113.716 90.3787 113.526 90.3786 113.337 90.4263C112.862 90.474 112.341 90.4263 111.867 90.331C110.065 90.045 109.875 89.0442 109.875 87.5191L110.065 82.2289C110.16 79.9413 109.117 78.6545 106.936 78.6545C104.755 78.6545 101.294 80.7992 101.294 82.4196C101.294 82.6102 101.436 82.8008 101.625 82.8485C101.673 82.8485 101.673 82.8485 101.72 82.8485C102.337 82.8008 102.953 82.6102 103.427 82.2766C103.664 82.086 103.712 81.7523 103.712 81.2281C103.759 80.2749 104.802 79.846 105.656 79.846C107.552 79.846 107.884 81.3711 107.884 82.5149V83.6587C107.931 84.04 107.694 84.3736 107.362 84.5166C106.13 84.8502 104.944 85.2791 103.806 85.8034C101.957 86.6136 101.246 87.5668 101.246 88.7582C101.246 89.5684 101.578 90.331 102.194 90.9029C102.811 91.3795 103.569 91.6178 104.328 91.6178C105.087 91.5701 105.845 91.2842 106.509 90.8552C106.888 90.6169 107.268 90.3787 107.694 90.2357C107.884 90.2357 108.026 90.474 108.263 90.6646C108.785 91.1412 109.449 91.3318 110.16 91.2842H113.289L116.229 91.2365C117.272 91.2365 119.169 91.3318 119.169 91.3318C119.311 90.9982 119.311 90.6169 119.121 90.3787ZM107.647 87.9004C107.742 88.4246 107.6 88.9489 107.268 89.3302C106.746 89.7591 106.082 90.045 105.419 90.0927C104.423 90.1404 103.569 89.3778 103.522 88.377C103.522 88.3293 103.522 88.2816 103.522 88.2816C103.569 86.7089 104.375 86.4229 106.177 85.7557C106.604 85.5651 107.031 85.4698 107.457 85.4221C107.647 85.4221 107.742 85.6604 107.742 85.994L107.647 87.9004Z" fill="#E1E7ED"/>
<path d="M41.3497 78.4638C41.3497 76.5574 41.3023 73.0306 40.7808 72.1251C40.4015 71.6962 39.8325 71.4579 39.2635 71.4579L38.5049 71.4102C38.3153 71.1719 38.3627 70.8859 38.5523 70.6953C39.7377 70.743 40.8282 70.7906 42.0609 70.7906C43.3411 70.7906 44.1946 70.743 45.2851 70.6953C45.5222 70.8859 45.5222 71.2196 45.3325 71.4102L44.5739 71.4579C43.9575 71.4102 43.3885 71.6962 43.0566 72.1727C42.6299 73.2212 42.6299 76.7004 42.6299 78.4638V81.9429C42.6299 84.6118 42.2032 87.4237 40.4963 89.2824C38.9316 90.8075 36.8454 91.6177 34.6644 91.5224C32.6256 91.6654 30.5868 91.0458 28.9273 89.8543C27.3152 88.5199 26.5566 86.2799 26.5566 82.6101V75.3659C26.5566 72.1727 26.5092 71.6485 24.7075 71.5055L23.9489 71.4579C23.7592 71.3149 23.8066 70.7906 23.9963 70.743C25.5135 70.7906 26.5566 70.8383 27.7894 70.8383C29.0221 70.8383 30.0652 70.7906 31.5351 70.743C31.7247 70.8383 31.7721 71.3625 31.5825 71.4579L30.8239 71.5055C29.0696 71.6485 28.9747 72.1727 28.9747 75.3659V81.9905C28.9747 86.9471 30.492 90.1879 35.1859 90.1879C39.5954 90.1879 41.3023 86.6611 41.3023 82.0382L41.3497 78.4638Z" fill="#E1E7ED"/>
<path d="M56.4839 86.4616C56.4839 89.7024 56.5314 90.1313 58.333 90.322L59.3288 90.4173C59.5184 90.5603 59.4709 91.0845 59.2813 91.1798C57.527 91.1322 56.4839 91.0845 55.2985 91.0845C54.1132 91.0845 53.0226 91.1322 51.0313 91.1798C50.8416 90.9892 50.7942 90.6079 51.0313 90.4173L52.1218 90.322C53.8761 90.179 54.0183 89.7024 54.0183 86.4616V72.7357C54.0183 71.7825 54.0183 71.7825 53.1175 71.7825H51.458C50.1304 71.7825 48.4709 71.8302 47.7123 72.5451C47.0959 73.117 46.6218 73.8795 46.3373 74.6898C46.0528 74.8327 45.721 74.7374 45.5312 74.4515C46.0055 72.974 46.4322 71.4489 46.6693 69.8762C46.8589 69.7809 47.0486 69.7809 47.2383 69.8762C47.4279 70.8294 48.4236 70.8294 49.846 70.8294H62.1735C63.833 70.8294 64.0701 70.7817 64.5442 69.9715C64.6864 69.9238 65.0183 69.9238 65.1132 70.0668C64.7813 71.5919 64.5917 73.1647 64.639 74.7374C64.4494 74.9757 64.0702 74.9757 63.833 74.7851C63.7382 74.0225 63.5486 72.8787 63.0745 72.5451C61.984 71.9255 60.7511 71.6872 59.5183 71.7825H57.3848C56.4839 71.7825 56.4839 71.8302 56.4839 72.831V86.4616Z" fill="#E1E7ED"/>
<path d="M72.743 81.1327C71.2732 81.1327 71.2258 81.1803 71.2258 82.0859V86.4229C71.2258 89.6637 71.368 90.0926 73.0749 90.2832L73.9758 90.3786C74.1655 90.5215 74.1181 91.0458 73.9284 91.1411C72.2689 91.0935 71.2258 91.0458 70.0405 91.0458C68.7129 91.0458 67.7172 91.0935 66.4844 91.1411C66.2948 90.9505 66.2474 90.6169 66.437 90.3786L66.9586 90.2832C68.6655 89.9973 68.7129 89.6637 68.7129 86.4229V75.3659C68.7129 72.1251 68.4758 71.6008 66.9111 71.5055L66.1051 71.4579C65.9155 71.3149 65.9629 70.7906 66.1525 70.6953C67.6698 70.743 68.6655 70.7906 69.993 70.7906C71.1784 70.7906 72.2215 70.743 73.5491 70.6953C73.7387 70.7906 73.7862 71.3625 73.5965 71.4579L73.0275 71.5055C71.2732 71.6962 71.1784 72.1727 71.1784 75.3659V78.8927C71.1784 79.8459 71.2258 79.8459 72.6956 79.8459H81.4198C82.8896 79.8459 82.937 79.7982 82.937 78.8927V75.3659C82.937 72.1251 82.8896 71.6962 81.0879 71.5055L80.5189 71.4579C80.3293 71.3149 80.3767 70.7906 80.5663 70.6953C81.9887 70.743 83.0319 70.7906 84.2646 70.7906C85.4974 70.7906 86.4931 70.743 87.8681 70.6953C88.0577 70.7906 88.1051 71.3625 87.9155 71.4579L87.2517 71.5055C85.4974 71.6962 85.4025 72.1727 85.4025 75.3659V86.4229C85.4025 89.6637 85.45 90.0449 87.2517 90.2832L88.0103 90.3786C88.2 90.5215 88.1525 91.0458 87.9629 91.1411C86.4931 91.0935 85.45 91.0458 84.2646 91.0458C83.0793 91.0458 81.8939 91.0935 80.5663 91.1411C80.3767 90.9505 80.3293 90.6169 80.5189 90.3786L81.0879 90.2832C82.937 89.9973 82.937 89.6637 82.937 86.4229V82.0859C82.937 81.1803 82.8896 81.1327 81.4198 81.1327H72.743Z" fill="#E1E7ED"/>
<path d="M91.3871 83.1862C90.5811 83.1862 90.5811 83.2339 90.5811 84.0441C90.5811 87.1419 92.3828 89.8109 95.6544 89.8109C96.7923 89.8109 97.8354 89.2389 98.4518 88.2858C98.6415 88.1904 98.8785 88.3334 98.9734 88.5241C98.9734 88.5717 99.0208 88.6194 99.0208 88.667C98.0725 90.4304 96.2234 91.5266 94.232 91.5266C92.5251 91.5742 90.8656 90.8594 89.8225 89.4772C88.969 88.3334 88.4949 86.9036 88.5423 85.4739C88.4949 81.6611 91.0078 78.5156 94.6587 78.5156C97.2665 78.5156 98.9734 80.3267 98.9734 82.1854C98.9734 82.4713 98.9259 82.7096 98.8311 82.9956C98.7363 83.1862 98.3096 83.1862 97.0294 83.1862H91.3871ZM93.3311 82.2807C95.607 82.2807 96.2708 82.1377 96.5078 81.9947C96.6027 81.9471 96.6975 81.8041 96.6975 81.4228C96.6975 80.565 96.1285 79.5165 94.3268 79.5165C92.5725 79.5165 90.9604 81.1845 90.913 82.1854C90.913 82.233 90.913 82.3284 91.1501 82.3284L93.3311 82.2807Z" fill="#E1E7ED"/>
<path d="M135.242 70.954C135.242 69.8579 136.143 69 137.186 69C138.277 69 139.13 69.9055 139.13 70.954C139.13 72.0502 138.229 72.9081 137.186 72.9081C136.665 72.9081 136.19 72.7174 135.811 72.3361C135.479 71.9549 135.242 71.4783 135.242 70.954ZM138.798 70.954C138.798 70.0485 138.087 69.3336 137.186 69.3336C136.285 69.3336 135.574 70.0485 135.574 70.954C135.574 71.8596 136.285 72.5744 137.186 72.5744C138.087 72.5744 138.798 71.8596 138.798 70.954ZM136.807 71.097V72.0978H136.428V69.8102H137.186C137.613 69.8102 138.04 69.9055 138.04 70.4298C138.04 70.7157 137.85 70.954 137.565 70.954C137.897 71.0017 137.897 71.1447 137.945 71.383C137.945 71.6213 137.992 71.8119 138.087 72.0502H137.613C137.565 71.9072 137.565 71.7642 137.518 71.6213C137.471 71.4306 137.471 71.24 137.376 71.1447C137.281 71.0493 137.186 71.0493 137.044 71.0493L136.807 71.097ZM137.186 70.7157C137.518 70.7157 137.613 70.5728 137.613 70.3821C137.613 70.1915 137.518 70.1438 137.234 70.1438H136.807V70.7157H137.186Z" fill="#E1E7ED"/>
<path d="M153.485 81.1327C152.015 81.1327 151.968 81.1803 151.968 82.0859V86.4229C151.968 89.6637 152.11 90.0926 153.817 90.2832L154.718 90.3786C154.908 90.5215 154.86 91.0458 154.671 91.1411C153.011 91.0935 151.968 91.0458 150.783 91.0458C149.455 91.0458 148.412 91.0935 147.227 91.1411C147.037 90.9505 146.99 90.6169 147.179 90.3786L147.701 90.2832C149.408 89.9973 149.455 89.6637 149.455 86.4229V75.3659C149.455 72.1251 149.218 71.6008 147.653 71.5055L146.847 71.4579C146.658 71.3149 146.705 70.7906 146.895 70.6953C148.412 70.743 149.408 70.7906 150.735 70.7906C151.921 70.7906 152.964 70.743 154.291 70.6953C154.481 70.7906 154.528 71.3625 154.339 71.4579L153.77 71.5055C152.015 71.6962 151.921 72.1727 151.921 75.3659V78.8927C151.921 79.8459 151.968 79.8459 153.438 79.8459H162.162C163.632 79.8459 163.679 79.7982 163.679 78.8927V75.3659C163.679 72.1251 163.632 71.6962 161.83 71.5055L161.261 71.4579C161.071 71.3149 161.119 70.7906 161.309 70.6953C162.731 70.743 163.774 70.7906 165.007 70.7906C166.24 70.7906 167.235 70.743 168.61 70.6953C168.8 70.7906 168.847 71.3625 168.658 71.4579L167.994 71.5055C166.24 71.6962 166.145 72.1727 166.145 75.3659V86.4229C166.145 89.6637 166.192 90.045 167.994 90.2832L168.705 90.3786C168.895 90.5215 168.847 91.0458 168.658 91.1411C167.188 91.0935 166.145 91.0458 164.959 91.0458C163.774 91.0458 162.589 91.0935 161.261 91.1411C161.071 90.9505 161.024 90.6169 161.214 90.3786L161.783 90.2832C163.632 89.9973 163.632 89.6637 163.632 86.4229V82.0859C163.632 81.1803 163.584 81.1327 162.115 81.1327H153.485Z" fill="#E1E7ED"/>
<path d="M181.358 84.8393C181.547 88.3184 178.892 91.2733 175.478 91.4163C175.289 91.4163 175.099 91.4163 174.909 91.4163C171.59 91.5592 168.746 88.938 168.651 85.6018C168.651 85.4589 168.651 85.2682 168.651 85.1253C168.556 81.5508 171.353 78.5959 174.909 78.5006C175.004 78.5006 175.099 78.5006 175.194 78.5006C178.56 78.453 181.358 81.1695 181.405 84.5533C181.358 84.6487 181.358 84.744 181.358 84.8393ZM174.767 79.4061C172.728 79.4061 171.259 81.3125 171.259 84.744C171.259 87.5559 172.491 90.5584 175.194 90.5584C177.896 90.5584 178.703 87.7465 178.703 85.3635C178.703 82.7423 177.707 79.4061 174.767 79.4061Z" fill="#E1E7ED"/>
<path d="M210.896 80.2001C210.374 80.2001 210.327 80.2954 210.327 80.915V86.6818C210.327 88.4452 210.564 90.1132 212.555 90.1132C212.84 90.1132 213.124 90.0656 213.361 89.9703C213.646 89.8749 214.025 89.5413 214.12 89.5413C214.357 89.5413 214.499 89.8749 214.404 90.0656C213.598 90.9711 212.413 91.4954 211.18 91.4954C208.572 91.4954 208.003 90.0179 208.003 88.1592V81.1056C208.003 80.2954 207.956 80.2001 207.34 80.2001H206.486C206.296 80.0571 206.249 79.7712 206.391 79.5329C207.103 79.3423 207.766 79.0086 208.335 78.5797C208.857 78.0555 209.284 77.4359 209.615 76.7687C209.758 76.721 210.137 76.721 210.279 76.9116V78.2938C210.279 78.8657 210.327 78.8657 210.848 78.8657H214.262C214.594 79.2469 214.594 79.7712 214.309 80.1525H210.896V80.2001Z" fill="#E1E7ED"/>
<path d="M227.408 84.8393C227.598 88.3184 224.943 91.2733 221.482 91.4163C221.292 91.4163 221.102 91.4163 220.96 91.4163C217.641 91.5593 214.844 88.938 214.702 85.6019C214.702 85.4589 214.702 85.2682 214.702 85.1253C214.607 81.5508 217.404 78.5959 220.913 78.5006C221.008 78.5006 221.102 78.5006 221.197 78.5006C224.564 78.453 227.361 81.1219 227.408 84.5534C227.408 84.601 227.408 84.744 227.408 84.8393ZM220.818 79.4062C218.779 79.4062 217.309 81.3125 217.309 84.744C217.309 87.5559 218.542 90.5584 221.245 90.5584C223.947 90.5584 224.753 87.7465 224.753 85.3636C224.753 82.7423 223.758 79.4062 220.818 79.4062Z" fill="#E1E7ED"/>
<path d="M229.535 82.1706C229.535 80.9791 229.535 80.8361 228.729 80.2642L228.444 80.0736C228.302 79.8829 228.349 79.6923 228.491 79.5017C229.582 79.1204 230.578 78.5961 231.526 77.9766C231.668 77.9766 231.81 78.0719 231.858 78.2149C231.81 78.9297 231.81 79.3587 231.81 79.6446C231.81 79.8353 231.953 79.9783 232.142 79.9783C232.142 79.9783 232.142 79.9783 232.19 79.9783C233.47 79.0727 234.94 78.5008 236.504 78.4055C239.017 78.4055 240.06 80.1689 240.06 82.2182V87.5084C240.06 89.7007 240.108 90.0343 241.198 90.1773L241.862 90.2726C242.052 90.5109 242.052 90.8446 241.815 91.0352C240.914 90.9875 240.013 90.9399 238.97 90.9399C237.927 90.9399 236.931 90.9875 236.125 91.0352C235.888 90.8446 235.888 90.5109 236.078 90.2726L236.647 90.1773C237.785 89.9867 237.785 89.7007 237.785 87.5084V82.9331C237.785 81.1697 236.979 79.8829 234.94 79.8829C233.944 79.8353 232.996 80.2165 232.332 80.9791C231.953 81.5033 231.763 82.1706 231.858 82.8378V87.5561C231.858 89.7484 231.905 90.0343 233.043 90.225L233.612 90.3203C233.802 90.5586 233.802 90.8922 233.565 91.0828C232.759 91.0352 231.858 90.9875 230.767 90.9875C229.677 90.9875 228.729 91.0352 227.922 91.0828C227.685 90.8922 227.685 90.5586 227.875 90.3203L228.539 90.225C229.677 90.082 229.677 89.7484 229.677 87.5561L229.535 82.1706Z" fill="#E1E7ED"/>
<path d="M185.771 86.5067C185.771 88.6038 186.293 90.0335 188.616 90.0335C189.517 90.0335 190.37 89.6999 191.081 89.128C191.555 88.6514 191.793 87.9842 191.698 87.3646V82.3127C191.698 80.311 191.461 80.2634 190.56 79.8821L190.18 79.7391C189.991 79.5962 189.991 79.3579 190.133 79.1672C190.18 79.1196 190.18 79.1196 190.228 79.0719C191.461 79.0719 192.646 78.8813 193.784 78.5C193.926 78.5477 194.021 78.5953 194.068 78.7383C194.021 79.3102 193.974 80.2634 193.974 81.4072V86.5544C193.974 88.985 194.068 89.9382 194.922 89.9382C195.301 89.9382 195.728 89.8906 196.107 89.7952C196.297 89.9382 196.297 90.5578 196.06 90.7008C194.685 90.8914 193.357 91.2727 192.077 91.8446C191.935 91.8446 191.793 91.7493 191.698 91.6063V90.3195C191.698 90.0335 191.603 89.8906 191.413 89.8906C190.18 90.8437 188.711 91.368 187.193 91.511C184.491 91.511 183.495 90.1765 183.495 87.6506V82.5034C183.495 80.597 183.495 80.3111 182.594 79.8821L182.215 79.7391C182.025 79.5485 182.073 79.2625 182.215 79.1196C182.215 79.1196 182.262 79.1196 182.262 79.0719C183.353 79.0719 184.491 78.8813 185.534 78.5C185.724 78.5477 185.818 78.5953 185.818 78.7383C185.724 79.6438 185.724 80.5017 185.724 81.4072L185.771 86.5067Z" fill="#E1E7ED"/>
<path d="M204.544 79.0172C204.828 79.8274 205.018 80.6376 205.018 81.4955C204.828 81.7338 204.496 81.7815 204.259 81.5908C203.928 80.3517 202.837 79.4462 201.557 79.3508C200.561 79.2555 199.708 80.0181 199.613 81.0189C199.613 81.0666 199.613 81.1619 199.613 81.2095C199.613 82.4487 200.893 83.1159 201.936 83.7831C203.548 84.6887 205.065 85.7372 205.065 87.9295C205.065 90.2648 202.932 91.4086 200.656 91.4086C199.471 91.5039 198.333 91.1703 197.384 90.5031C197.1 89.5022 196.958 88.4537 197.005 87.4052C197.195 87.2146 197.479 87.2146 197.716 87.3576C198.238 89.0257 199.234 90.5031 200.94 90.5031C201.984 90.5984 202.884 89.8359 202.979 88.7874C202.979 88.692 202.979 88.5967 202.979 88.5491C202.979 87.1193 201.746 86.3567 200.656 85.7372C198.902 84.7363 197.621 83.6402 197.621 81.9721C197.621 79.7321 199.471 78.4453 201.794 78.4453C202.742 78.4453 203.69 78.6359 204.544 79.0172Z" fill="#E1E7ED"/>
</svg>
