<svg width="242" height="161" viewBox="0 0 242 161" fill="none" xmlns="http://www.w3.org/2000/svg">
<g clip-path="url(#clip0_8449_6449)">
<path d="M61.3815 90.3826L56.6156 77.4957C56.5339 77.3 56.4809 77.09 56.4617 76.8752C56.4652 76.7273 56.5001 76.584 56.5625 76.4504C56.625 76.3167 56.7115 76.1927 56.8222 76.0925C56.9328 75.9924 57.0626 75.911 57.2021 75.8587C57.3462 75.806 57.4956 75.7821 57.6494 75.787C58.2553 75.787 58.6497 76.1688 58.8324 76.7273L62.776 88.1775L66.7581 76.6986C66.9409 76.164 67.3112 75.787 67.9123 75.787H68.0372C68.3161 75.7835 68.5855 75.8729 68.8067 76.0398C69.028 76.2023 69.1818 76.436 69.2491 76.6985L73.1928 88.1774L77.2036 76.6651C77.2612 76.4168 77.4008 76.1925 77.6028 76.0303C77.8098 75.8678 78.0645 75.7819 78.3242 75.7774C78.4732 75.7774 78.6222 75.8017 78.7618 75.854C78.9014 75.9018 79.0264 75.9829 79.1322 76.083C79.2428 76.1786 79.3245 76.2977 79.3869 76.4314C79.4445 76.565 79.4784 76.7081 79.4832 76.8513C79.4658 77.0612 79.4159 77.2666 79.3342 77.4671L74.5298 90.3826C74.2894 91.0604 73.8036 91.4136 73.2553 91.4136H73.1639C72.5579 91.4136 72.101 91.0604 71.8894 90.3826L67.9747 79.2665L64.0215 90.3826C63.81 91.0604 63.3578 91.4136 62.747 91.4136H62.6895C62.1124 91.4171 61.622 91.0652 61.3815 90.3826ZM88.8952 91.5377C84.5813 91.5377 81.0609 88.3255 81.0609 83.605V83.5431C81.0609 79.1519 84.2495 75.6104 88.5922 75.6104C93.2379 75.6104 95.8831 79.2952 95.8831 83.3378C95.8831 83.6194 95.7626 83.8915 95.556 84.092C95.3491 84.2925 95.0703 84.4068 94.7769 84.4068H83.4271C83.7639 87.7097 86.1636 89.5711 88.9578 89.5711C90.6458 89.5815 92.2713 88.9458 93.4784 87.8003C93.6225 87.6666 93.8054 87.5807 93.9978 87.5475C94.1901 87.5129 94.3874 87.5371 94.5701 87.6095C94.753 87.686 94.9069 87.8101 95.0126 87.9723C95.1232 88.1298 95.1808 88.3158 95.1808 88.5068C95.1808 88.6499 95.1424 88.7884 95.08 88.9125C95.0175 89.0414 94.9309 89.156 94.8154 89.2467C94.0459 90.0009 93.1226 90.5975 92.103 90.9889C91.0834 91.385 89.9917 91.5711 88.8952 91.5377ZM93.5409 82.7173C93.3005 79.9442 91.6605 77.5339 88.5297 77.5339C85.798 77.5339 83.7349 79.7485 83.4271 82.7268L93.5409 82.7173ZM98.9465 70.6513C98.9361 70.4986 98.9605 70.3458 99.0187 70.2027C99.0718 70.0548 99.1583 69.9259 99.269 69.8113C99.3747 69.7015 99.5094 69.6107 99.6537 69.5536C99.7979 69.4916 99.9567 69.458 100.115 69.458C100.274 69.458 100.433 69.4926 100.577 69.5536C100.721 69.6107 100.856 69.7015 100.962 69.8113C101.072 69.9259 101.159 70.0548 101.212 70.2027C101.27 70.3457 101.294 70.4984 101.284 70.6513V78.9992C102.564 77.1712 104.415 75.6104 107.301 75.6104C111.061 75.6104 114.798 78.498 114.798 83.5144V83.5764C114.798 88.5594 111.095 91.509 107.301 91.509C104.381 91.509 102.501 89.9769 101.284 88.2635V90.1822C101.288 90.3301 101.26 90.478 101.203 90.6165C101.15 90.7595 101.063 90.8839 100.957 90.9936C100.847 91.0985 100.722 91.1844 100.577 91.2419C100.438 91.2991 100.284 91.3327 100.13 91.3327C99.8174 91.3327 99.5145 91.2086 99.2933 90.9939C99.0721 90.7792 98.9471 90.4879 98.9471 90.1825L98.9465 70.6513ZM112.403 83.605V83.5431C112.403 79.9443 109.854 77.6581 106.891 77.6581C103.977 77.6581 101.212 80.0445 101.212 83.5287V83.5859C101.212 87.1226 103.967 89.4757 106.891 89.4757C109.926 89.4757 112.403 87.2898 112.403 83.605ZM121.935 83.6328V83.5756C121.935 79.2656 125.397 75.6048 129.981 75.6048C132.13 75.5701 134.208 76.3685 135.752 77.8195C135.867 77.9244 135.958 78.0484 136.021 78.187C136.084 78.3255 136.117 78.4734 136.117 78.6261C136.114 78.9125 135.997 79.1845 135.79 79.3897C135.579 79.5903 135.3 79.7046 135.002 79.7094C134.727 79.706 134.458 79.6093 134.247 79.4421C133.121 78.435 131.842 77.614 129.962 77.614C126.773 77.614 124.344 80.2343 124.344 83.499V83.561C124.344 86.8639 126.821 89.489 130.115 89.489C131.905 89.489 133.333 88.6872 134.487 87.6181C134.574 87.5225 134.675 87.4511 134.79 87.4033C134.906 87.3506 135.03 87.3223 135.156 87.3223C135.434 87.3326 135.699 87.4417 135.896 87.6371C136.093 87.8279 136.209 88.0858 136.218 88.353C136.215 88.6204 136.103 88.8733 135.915 89.0594C134.424 90.5056 132.635 91.5127 129.99 91.5127C128.927 91.5093 127.879 91.3077 126.898 90.9113C125.917 90.5104 125.027 89.9329 124.277 89.1978C123.527 88.4676 122.935 87.5989 122.531 86.6443C122.132 85.6897 121.93 84.6638 121.935 83.6328ZM138.209 83.6328V83.5756C138.199 81.4659 139.056 79.4375 140.585 77.9435C142.114 76.4449 144.192 75.6 146.366 75.5953C148.535 75.5849 150.622 76.4162 152.161 77.9006C153.7 79.385 154.57 81.4039 154.58 83.5136V83.5756C154.583 84.6256 154.378 85.6661 153.964 86.635C153.551 87.6039 152.945 88.4869 152.18 89.2267C151.415 89.9713 150.506 90.5536 149.506 90.9545C148.501 91.3506 147.433 91.5463 146.351 91.5368C145.279 91.5506 144.216 91.3553 143.22 90.9593C142.225 90.5679 141.326 89.9856 140.566 89.2505C139.806 88.5155 139.209 87.6373 138.805 86.6731C138.397 85.709 138.195 84.6733 138.209 83.6328ZM152.18 83.6328V83.5756C152.18 80.2966 149.66 77.6142 146.351 77.6142C142.946 77.6142 140.609 80.2919 140.609 83.5041V83.5612C140.609 86.8354 143.091 89.494 146.399 89.494C149.809 89.5044 152.18 86.8498 152.18 83.6328ZM157.6 76.9363C157.597 76.6357 157.716 76.3445 157.932 76.1297C158.148 75.915 158.442 75.791 158.749 75.7862C158.908 75.7827 159.062 75.8104 159.206 75.8672C159.35 75.9243 159.485 76.0102 159.596 76.1155C159.707 76.2253 159.793 76.3493 159.851 76.4926C159.908 76.6311 159.937 76.7839 159.937 76.9365V78.4972C160.971 76.9937 162.366 75.6096 165.011 75.6096C167.56 75.6096 169.2 76.946 170.051 78.6452C171.172 76.9651 172.845 75.6096 175.577 75.6096C179.189 75.6096 181.406 77.9674 181.406 81.7428V90.1814C181.406 90.482 181.285 90.7684 181.064 90.9832C180.843 91.198 180.55 91.3175 180.237 91.3175C179.929 91.3175 179.631 91.1983 179.41 90.9832C179.194 90.7685 179.069 90.4821 179.069 90.1814V82.2774C179.069 79.3325 177.549 77.6715 175 77.6715C172.634 77.6715 170.686 79.385 170.686 82.3919V90.1814C170.686 90.482 170.561 90.7684 170.345 90.9832C170.124 91.198 169.83 91.3175 169.518 91.3175C169.21 91.3175 168.912 91.1983 168.69 90.9832C168.474 90.7685 168.349 90.4821 168.349 90.1814V82.2154C168.349 79.3563 166.801 77.6668 164.309 77.6668C161.818 77.6668 159.938 79.6714 159.938 82.4827V90.1814C159.941 90.3293 159.92 90.482 159.861 90.6205C159.808 90.7591 159.721 90.8879 159.616 90.9976C159.505 91.1025 159.375 91.1884 159.231 91.2459C159.091 91.3031 158.937 91.3318 158.784 91.3318C158.625 91.3318 158.471 91.3076 158.327 91.2507C158.183 91.1936 158.052 91.1077 157.942 90.9979C157.831 90.893 157.745 90.7641 157.682 90.6256C157.624 90.4826 157.596 90.3344 157.601 90.1818L157.6 76.9363Z" fill="#F2F2F2"/>
<path d="M118.4 91.3377C119.367 91.3377 120.151 90.5741 120.151 89.6338C120.151 88.6983 119.367 87.9346 118.4 87.9346C117.433 87.9346 116.649 88.6983 116.649 89.6338C116.649 90.5741 117.433 91.3377 118.4 91.3377Z" fill="#E60030"/>
<path d="M183.123 77.2667C183.123 76.9709 183.199 76.6844 183.354 76.4266C183.503 76.1689 183.719 75.9541 183.984 75.811C184.383 75.6011 184.844 75.5532 185.277 75.6724C185.705 75.787 186.076 76.0638 186.302 76.4409C186.528 76.8179 186.595 77.2666 186.489 77.6866C186.383 78.1114 186.114 78.4789 185.734 78.7127C185.47 78.8655 185.167 78.9417 184.854 78.9417C184.546 78.9417 184.243 78.8655 183.974 78.7127C183.714 78.5648 183.498 78.35 183.349 78.0971C183.2 77.8443 183.123 77.5578 183.123 77.2667ZM183.368 77.2667C183.364 77.5195 183.43 77.7678 183.565 77.9874C183.695 78.2118 183.883 78.3931 184.109 78.522C184.335 78.6459 184.59 78.7128 184.854 78.7128C185.114 78.7128 185.373 78.6459 185.599 78.5171C185.826 78.3882 186.018 78.2067 186.148 77.9825C186.282 77.7629 186.35 77.51 186.35 77.257C186.353 77.0042 186.282 76.7512 186.148 76.5364C186.018 76.3119 185.83 76.1259 185.599 75.997C185.373 75.8681 185.114 75.8013 184.849 75.8013C184.59 75.8013 184.335 75.8681 184.109 75.997C183.878 76.1258 183.69 76.3073 183.555 76.5316C183.426 76.756 183.358 77.0089 183.368 77.2667ZM185.556 76.8562C185.556 76.9709 185.521 77.0807 185.46 77.1759C185.393 77.2667 185.297 77.338 185.186 77.3809L185.734 78.2639H185.349L184.868 77.4621H184.561V78.2639H184.219V76.2784H184.82C185.018 76.2645 185.21 76.3165 185.374 76.4214C185.436 76.4786 185.484 76.5455 185.518 76.622C185.546 76.6985 185.561 76.7844 185.556 76.8655L185.556 76.8562ZM184.556 77.1949H184.806C184.912 77.1984 185.018 77.1672 185.104 77.0993C185.139 77.0751 185.167 77.0374 185.186 76.9944C185.207 76.9563 185.214 76.9134 185.214 76.8656C185.217 76.8226 185.21 76.7748 185.196 76.7319C185.175 76.6938 185.153 76.6553 185.115 76.6269C185.023 76.5698 184.913 76.5459 184.802 76.5508H184.557L184.556 77.1949Z" fill="#E1E7ED"/>
</g>
<defs>
<clipPath id="clip0_8449_6449">
<rect width="131" height="23" fill="white" transform="translate(56 69)"/>
</clipPath>
</defs>
</svg>
