<svg width="242" height="161" viewBox="0 0 242 161" fill="none" xmlns="http://www.w3.org/2000/svg">
<path d="M93.044 92.8622C90.2642 92.2066 88.4022 91.2625 86.7238 89.6103C84.0489 86.9878 82.7114 83.2376 83.0523 79.2776C83.7604 70.5709 90.4478 65.8504 100.151 67.2403C101.725 67.4501 103.482 67.8435 104.085 68.132L105.16 68.6303L104.635 70.2824C104.111 72.0133 103.77 72.2231 102.983 71.3577C102.721 71.043 101.777 70.4398 100.912 69.9677C99.4429 69.2072 99.1545 69.1548 96.7155 69.1548C94.2242 69.1548 94.0144 69.2072 92.4146 70.0726C90.1593 71.279 88.9267 72.8787 88.0351 75.7372C87.4057 77.7303 87.3532 78.2286 87.4843 80.7724C87.6679 84.8373 88.7169 87.3025 91.0772 89.1907C92.3097 90.161 92.8867 90.397 95.0109 90.7904C97.9481 91.3149 101.777 90.2659 103.849 88.3777C104.635 87.6434 105.055 87.9843 104.845 89.1644C104.557 90.6855 104.242 91.0527 102.695 91.7345C99.7576 93.0458 95.7977 93.4916 93.044 92.8622Z" fill="#E1E7ED"/>
<path d="M110.09 79.9857V67.4502H112.188H114.286V80.012V92.5475H112.188L110.09 92.5213V79.9857Z" fill="#E1E7ED"/>
<path d="M120.843 79.9083V67.3203L126.743 67.4514C131.044 67.5563 132.827 67.6875 133.299 67.9497C136.368 69.6281 137.364 72.0146 136.237 75.0042C135.738 76.263 134.165 78.0726 133.273 78.3348C132.434 78.6233 132.722 79.174 133.955 79.6198C135.397 80.1706 137.102 81.849 137.522 83.134C138.046 84.7599 137.653 87.1726 136.604 88.7724C134.689 91.6309 132.25 92.4439 125.432 92.4963L120.843 92.5226V79.9083ZM130.546 90.0312C131.883 89.4018 132.67 88.5626 133.168 87.1464C133.64 85.7827 133.667 84.7862 133.247 83.3962C132.67 81.4294 130.362 80.3017 126.953 80.3017H125.17V85.4156V90.5294H127.346C128.867 90.5294 129.811 90.3721 130.546 90.0312ZM129.733 77.653C131.385 77.0498 132.382 76.027 132.775 74.5322C133.614 71.3852 130.965 69.1298 126.691 69.3396L125.039 69.4183L124.855 70.5984C124.776 71.2541 124.671 73.2209 124.671 75.0042L124.645 78.2037H126.481C127.661 78.2037 128.789 78.0201 129.733 77.653Z" fill="#E1E7ED"/>
<path d="M147.33 91.9956C147.435 91.6809 147.566 86.567 147.645 80.5877L147.802 69.7305L145.599 69.9141C144.393 69.9928 142.557 70.1501 141.534 70.2288L139.672 70.3862V68.9438V67.5014L144.288 67.3965C146.832 67.344 151.185 67.3703 153.965 67.3965L159 67.5014V68.9175V70.3337L156.85 70.2026C155.643 70.1239 153.939 69.9928 153.021 69.9141L151.369 69.783L151.447 81.1384L151.526 92.4938L149.349 92.5201C147.251 92.5201 147.173 92.4938 147.33 91.9956Z" fill="#E1E7ED"/>
</svg>
