<svg viewBox="57 68 129 25" fill="none" xmlns="http://www.w3.org/2000/svg">
<g clip-path="url(#clip0_8449_6455)">
<path d="M74.7812 88.3299L67.7709 78.8984V85.7584H70.5752V92.5322H57.6064V85.7584H60.2351V75.211H57.6064V68.4366H67.7934L74.8155 77.954L81.8528 68.4366H92.039V75.211H89.4099V85.7584H92.039V92.5322H79.071V85.7584H81.8744V78.8984L74.7812 88.3299Z" fill="#E1E7ED"/>
<path d="M144.111 68.7676C142.751 68.7676 141.579 69.5776 141.579 71.0239C141.579 72.5244 142.806 73.0171 143.459 73.2469C143.774 73.3673 144.111 73.4657 144.428 73.5853C144.81 73.7402 145.676 74.0894 145.676 74.9652C145.676 75.7985 144.934 76.1479 144.089 76.1479C142.897 76.1479 142.164 75.4688 141.725 74.2105L141.32 74.2529L141.435 75.7763L142.097 76.2477C142.411 76.4445 143.076 76.8603 144.156 76.8603C145.832 76.8603 146.958 75.7555 146.958 74.4193C146.958 73.4885 146.44 72.8094 145.81 72.4475C145.485 72.2618 145.114 72.14 144.663 71.999C143.774 71.7135 142.84 71.4051 142.84 70.486C142.84 69.873 143.334 69.4789 144.178 69.4789C144.809 69.4789 145.349 69.7028 145.731 70.1844C146.046 70.5911 146.148 70.8255 146.283 71.3292L146.675 71.2534L146.417 68.9536L145.935 69.292C145.26 68.8757 144.641 68.7676 144.111 68.7676ZM175.062 68.8215C172.51 68.8097 171.058 70.7158 171.058 72.8294C171.058 75.2946 172.863 76.9152 175.169 76.9152C177.274 76.9152 179.141 75.5138 179.141 72.8408C179.141 70.4968 177.465 68.8325 175.062 68.8215ZM159.479 68.9201V69.3468C160.244 69.3909 160.255 69.4125 160.829 70.245L162.942 73.4327V74.7897C162.931 75.6339 162.931 75.8308 162.751 76.0056C162.593 76.159 162.357 76.1815 161.739 76.2476V76.664H165.651V76.2476C164.471 76.1815 164.459 76.0725 164.459 74.6704V73.0588L165.696 71.0445C166.606 69.599 166.842 69.3696 167.64 69.3469V68.9201H164.538V69.3469C165.089 69.3799 165.414 69.391 165.414 69.7632C165.414 69.9394 165.303 70.1692 165.1 70.5525L163.977 72.4772L162.762 70.5409C162.56 70.2121 162.414 69.971 162.414 69.7632C162.414 69.391 162.785 69.3696 163.616 69.3469V68.9201L159.479 68.9201ZM133.864 68.9282V69.3457C134.516 69.3993 134.73 69.4767 134.786 69.9032C134.82 70.155 134.831 70.4826 134.831 71.4127V74.2105C134.831 74.5283 134.83 74.8883 134.819 75.2061C134.808 76.0371 134.719 76.17 133.864 76.2339V76.664H137.178V76.2339C136.223 76.2141 136.222 75.9749 136.211 74.2013L136.212 73.1965C136.965 73.2082 137.122 73.1476 137.594 74.121L138.033 75.0306C138.663 76.333 139.281 76.8373 140.776 76.8373C140.956 76.8373 141.123 76.8272 141.293 76.8155V76.5528C140.652 76.4669 140.383 76.2572 139.877 75.3484L138.471 72.967C139.561 72.6374 140.033 71.6681 140.033 70.9229C140.033 69.8504 139.416 68.942 137.46 68.942L133.864 68.9282ZM126.887 68.9293V69.3457C127.46 69.4015 127.707 69.4337 127.786 69.7942C127.842 70.035 127.853 70.8891 127.853 71.1959V73.9145C127.853 74.1222 127.842 75.0536 127.831 75.2394C127.808 76.0836 127.707 76.1591 126.887 76.2362V76.6641H132.935C132.935 76.1061 133.036 75.185 133.104 74.6601H132.721C132.451 76.0403 131.653 75.9724 130.505 75.9724C129.449 75.9724 129.236 75.699 129.236 75.1947V73.0325H130.091C131.069 73.0325 131.35 73.1141 131.35 73.9811H131.732V71.4277H131.35C131.271 72.1178 131.125 72.343 130.102 72.343H129.236V69.6187H130.215C131.563 69.6187 132.046 69.718 132.225 70.7693H132.586L132.54 68.9294L126.887 68.9293ZM151.596 68.9293L151.529 71.0985H151.946C152.013 69.7183 152.608 69.7507 153.507 69.7507H154.497V75.447C154.497 76.0614 154.295 76.325 153.564 76.336V76.6641H156.847L156.846 76.336C156.115 76.325 155.914 76.0615 155.914 75.447V69.7507H156.902C157.802 69.7507 158.398 69.7183 158.465 71.0985H158.881L158.813 68.9293H151.596ZM96.075 68.9316V69.3469C96.6709 69.3799 96.9179 69.4794 96.985 69.9617C97.0076 70.1584 97.0078 70.529 97.0191 71.3623V73.1139C97.0191 74.3633 97.0306 75.5253 98.2106 76.3027C98.9527 76.7851 99.8516 76.8487 100.291 76.8487C100.841 76.8487 102.922 76.7406 103.461 74.6601C103.596 74.1014 103.628 73.5194 103.651 72.9291C103.662 72.601 103.753 70.454 103.764 70.2668C103.809 69.5018 103.967 69.3366 104.708 69.3468V68.9316H101.684V69.3468C102.393 69.4026 102.763 69.4235 102.808 70.1245C102.819 70.3771 102.82 71.2969 102.82 71.5825C102.82 72.4803 102.809 73.8379 102.584 74.5603C102.314 75.4691 101.69 76.0445 100.556 76.0445C100.207 76.0445 99.5161 75.9705 99.1101 75.3942C98.6007 74.6681 98.5826 73.8596 98.5826 72.9176V71.0995C98.5939 69.4566 98.5929 69.4239 99.6492 69.3468V68.9315L96.075 68.9316ZM105.308 68.9316V69.3469C105.837 69.3909 106.017 69.4684 106.456 69.8619C106.445 70.6621 106.411 75.2501 106.298 75.7649C106.209 76.2031 105.961 76.2147 105.308 76.2478V76.6642H108.546V76.2478C107.332 76.1281 107.242 76.0841 107.242 74.8346V70.8244L110.378 74.5938C110.737 75.021 111.098 75.4597 111.457 75.898L112.165 76.7629H112.638L112.751 70.7936C112.762 69.5338 112.84 69.3581 113.706 69.3471V68.9319H110.58V69.3471C111.84 69.3911 111.873 69.4571 111.884 70.6846V74.1453L109.67 71.4715C108.501 70.059 108.355 69.851 107.691 68.9319L105.308 68.9316ZM114.561 68.9316V69.3469C115.493 69.479 115.494 69.5214 115.505 71.1328V74.2643V75.2508C115.493 76.062 115.335 76.1485 114.561 76.2476V76.664H117.856V76.2476C117.239 76.2036 117.013 76.0942 116.958 75.6236C116.935 75.3931 116.923 74.5274 116.923 74.2529V71.1328C116.923 69.4789 116.923 69.4357 117.856 69.3469V68.9316H114.561ZM118.612 68.9316V69.3469C119.41 69.4687 119.477 69.6435 120.016 71.111L122.186 76.8177H122.613L125.03 71.1971C125.682 69.6649 125.784 69.457 126.548 69.3469V68.9316H123.771V69.3469C124.265 69.3579 124.828 69.3793 124.828 69.9387C124.828 70.1355 124.693 70.4858 124.591 70.7589L122.974 74.823L121.59 70.8919C121.377 70.2452 121.319 70.0588 121.319 69.8401C121.319 69.3908 121.736 69.3696 122.377 69.3468V68.9316L118.612 68.9316ZM147.478 68.9316V69.3469C148.411 69.479 148.412 69.5214 148.424 71.1328V74.2643V75.2508C148.412 76.062 148.254 76.1485 147.478 76.2476V76.664H150.773V76.2476C150.156 76.2036 149.93 76.0942 149.875 75.6236C149.852 75.3931 149.84 74.5274 149.84 74.2529V71.1328C149.84 69.4789 149.84 69.4357 150.773 69.3469V68.9316H147.478ZM179.529 68.9867V69.4019C180.103 69.4562 180.349 69.49 180.427 69.8504C180.485 70.0919 180.496 70.9457 180.496 71.2533L180.494 73.9707C180.494 74.1785 180.483 75.1088 180.471 75.2945C180.45 76.1365 180.348 76.2142 179.528 76.2913V76.718H182.815V76.2913C181.994 76.2142 181.893 76.1365 181.871 75.2945L181.876 73.0875H182.754C183.641 73.0875 184.112 73.1702 184.169 74.035H184.553V71.4828H184.169C184.124 72.316 183.889 72.3981 182.922 72.3981H181.876L181.877 69.7209C182.159 69.6871 182.316 69.6761 182.822 69.6761C184.374 69.6761 184.873 69.6692 185.081 70.8806H185.476L185.351 68.9867L179.529 68.9867ZM175.073 69.5327C175.735 69.5129 176.239 69.9051 176.494 70.1716C177.077 70.778 177.363 71.6333 177.395 72.6309C177.426 73.6374 177.311 74.4076 176.75 75.2474C176.259 75.9727 175.627 76.1904 175.178 76.203C174.73 76.203 174.092 76.0058 173.579 75.2945C172.992 74.4722 172.853 73.7073 172.853 72.6986C172.853 71.7017 173.11 70.8351 173.675 70.2118C173.922 69.9387 174.412 69.5327 175.073 69.5327ZM136.701 69.613C138.162 69.613 138.626 70.3892 138.578 71.2878C138.544 71.9067 137.861 72.5972 136.959 72.5943C136.734 72.5943 136.43 72.56 136.217 72.5174V69.6578C136.375 69.6248 136.498 69.613 136.701 69.613ZM168.032 79.8955C167.437 80.3279 167.046 80.5263 165.652 80.9726L165.838 81.2548L162.591 89.9369C162.131 91.1614 161.723 91.4114 160.465 91.4613V92.0911H165.414V91.4613C164.683 91.4283 163.781 91.379 163.781 90.5494C163.781 90.3028 163.849 90.0695 163.934 89.8199L164.306 88.8093H168.54L168.9 90.0034C168.968 90.2185 169.036 90.4677 169.036 90.6997C169.036 91.3457 168.407 91.4114 167.591 91.4613V92.0911H172.851H173.202H177.748V91.4613C175.911 91.2785 175.775 91.2125 175.775 89.3243V83.2563L180.52 88.9584C181.064 89.6059 181.607 90.2673 182.151 90.9302L183.224 92.2402H183.938L184.108 83.2104C184.125 81.3061 184.244 81.0388 185.554 81.0241V80.3932H180.826V81.0241C182.73 81.0902 182.781 81.189 182.799 83.0441V88.2794L179.448 84.2359C177.68 82.0989 177.458 81.7851 176.456 80.3932H172.851V81.0241C173.65 81.0902 173.922 81.2057 174.585 81.8018C174.568 83.0109 174.517 89.9524 174.347 90.7329C174.224 91.3323 173.881 91.4003 173.092 91.4452C171.921 91.3013 171.691 90.9368 171.23 89.572L168.577 81.6182C168.305 80.7901 168.271 80.6913 168.032 79.8955ZM155.015 80.0939C151.754 80.0939 149.152 82.5292 149.152 86.2729C149.152 89.3372 151.127 92.3879 155.259 92.3879C157.615 92.3879 158.947 91.5749 159.881 91.0126V90.1339C159.912 87.9139 159.911 87.6156 160.998 87.5496V86.9198H156.162V87.5496C157.494 87.6832 157.7 87.7152 157.754 89.2048C157.773 89.7202 157.724 90.0014 157.51 90.3163C157.448 90.3824 156.758 91.2937 155.427 91.2937C153.085 91.2937 151.724 88.9913 151.724 86.3074C151.724 82.9428 153.469 81.2201 155.566 81.2201C156.774 81.2201 157.54 81.7086 157.938 82.0896C158.841 82.9683 159.209 83.7715 159.453 84.4675L159.943 84.3849L159.851 80.7223L159.225 81.4185C158.245 80.8386 157.066 80.0939 155.015 80.0939ZM124.204 80.1111C120.15 80.1111 118.163 83.2273 118.163 86.3912C118.163 89.8049 120.506 92.4051 124.125 92.4051C127.437 92.4051 128.713 90.3335 129.246 89.4893L128.531 88.9616C127.901 89.8397 127.113 90.9817 125.013 90.9817C122.234 90.9817 120.828 88.5625 120.828 85.9931C120.828 82.9604 122.541 81.2396 124.706 81.2396C125.966 81.2396 126.854 82.0003 127.227 82.382C128.002 83.2101 128.309 83.7559 128.518 84.4364L129.052 84.3355L128.987 80.7899L128.163 81.5194C127.469 80.9909 126.337 80.1111 124.204 80.1111ZM96.5488 80.3933V81.0242C97.6194 81.0389 97.8579 81.1229 97.8579 82.2814C97.8579 82.6962 97.8588 83.2597 97.8415 83.6407L97.6719 88.5444C97.6538 89.1905 97.6034 90.1688 97.5695 90.483C97.5009 91.2788 97.1265 91.4115 96.1567 91.4614V92.0912H100.324V91.4614C99.0488 91.3623 98.9128 91.1465 98.9128 90.0035L99.0022 83.1245L102.858 92.24H103.913L108.112 83.2425V89.1261C108.095 91.2969 108.095 91.3624 106.582 91.4616V92.0913H111.836V91.4616C110.883 91.3786 110.544 91.2131 110.476 90.3512C110.425 89.7544 110.408 88.7611 110.408 87.9653V83.1441C110.391 81.3213 110.407 81.172 111.836 81.0898V80.3935H108.18L104.066 89.2741L100.323 80.3935L96.5488 80.3933ZM113.013 80.3933V81.0242C114.424 81.2224 114.423 81.2882 114.441 83.7233V88.463V89.9519C114.423 91.1794 114.187 91.3124 113.013 91.4614V92.0912H117.997V91.4614C117.062 91.3954 116.722 91.2284 116.636 90.5162C116.603 90.169 116.586 88.8594 116.586 88.4446V83.7233C116.586 81.2221 116.586 81.1564 117.997 81.0242V80.3933H113.013ZM130.133 80.3933V81.0242C131.068 81.1057 131.407 81.2054 131.475 81.9006C131.526 82.2654 131.526 83.0278 131.526 83.7898V88.6947C131.526 89.108 131.527 89.5222 131.51 89.937C131.51 91.0624 131.493 91.3454 130.133 91.4614V92.0912H135.271V91.4614C133.724 91.2963 133.69 91.2964 133.673 88.8599V86.7149C134.71 86.6642 135.519 86.6323 136.556 86.6323C137.542 86.6323 138.334 86.6818 139.286 86.7149V88.8599C139.286 89.7056 139.286 90.1526 139.252 90.483C139.149 91.2964 138.826 91.3271 137.619 91.4614V92.0912H142.825V91.4614C141.94 91.3785 141.583 91.2634 141.498 90.6481C141.447 90.3024 141.43 88.8272 141.43 88.3632V83.425C141.43 81.2057 141.429 81.1894 142.825 81.0242V80.3933H137.619V81.0242C139.252 81.1725 139.269 81.2547 139.286 83.3917V85.3567C138.265 85.4059 137.457 85.4393 136.437 85.4393C135.434 85.4393 134.71 85.4059 133.673 85.3567V83.7404C133.673 83.0438 133.69 82.1821 133.775 81.8019C133.894 81.1558 134.268 81.1232 135.271 81.0242V80.3933L130.133 80.3933ZM143.818 80.3933V81.0242C145.231 81.2224 145.231 81.2882 145.249 83.7233V88.463V89.9519C145.231 91.1794 144.993 91.3124 143.818 91.4614V92.0912H148.809V91.4614C147.875 91.3954 147.536 91.2284 147.45 90.5162C147.416 90.169 147.397 88.8594 147.397 88.4446V83.7233C147.397 81.2221 147.398 81.1564 148.809 81.0242V80.3933H143.818ZM166.515 82.7013L168.2 87.55H164.75L166.515 82.7013Z" fill="#E1E7ED"/>
</g>
<defs>
<clipPath id="clip0_8449_6455">
<rect width="129" height="25" fill="white" transform="translate(57 68)"/>
</clipPath>
</defs>
</svg>
