<svg viewBox="74 66 95 29" fill="none" xmlns="http://www.w3.org/2000/svg">
<g clip-path="url(#clip0_8449_6457)">
<path d="M97.6084 77.0745C96.4751 81.11 92.8867 83.9256 88.6372 84.0194C84.3877 83.9256 80.7992 81.11 79.666 77.0745C80.2326 77.7314 81.0825 78.013 81.9324 78.013C82.7823 78.013 83.6322 77.7314 84.1988 77.0745C84.7654 77.7314 85.6153 78.013 86.4652 78.013C87.3151 78.013 88.165 77.7314 88.7316 77.0745C89.2982 77.7314 90.1481 78.013 90.998 78.013C91.8479 78.013 92.6978 77.7314 93.2644 77.0745C93.831 77.7314 94.6809 78.013 95.5308 78.013C96.3807 78.013 97.0417 77.7314 97.6084 77.0745ZM97.7028 75.0097C97.7028 70.0356 93.6421 66 88.6372 66C83.6322 66 79.5716 70.0356 79.5716 75.0097H87.6928C86.6541 74.6343 85.993 73.6958 85.993 72.5696C85.993 71.1618 87.2207 69.9418 88.6372 69.9418C90.0537 69.9418 91.2813 71.1618 91.2813 72.5696C91.2813 73.6019 90.6203 74.6343 89.676 75.0097H97.7028ZM89.2038 95C89.3927 87.3042 95.4364 80.6408 103.18 80.3592C103.18 88.1489 97.0418 94.5308 89.2038 95ZM88.0706 95C87.8817 87.3042 81.838 80.6408 74 80.3592C74.0944 88.1489 80.2326 94.5308 88.0706 95ZM124.239 66.657H105.824V94.3431H124.239V90.0259H111.584V82.6117H124.239V78.2006H111.584V70.8803H124.239V66.657ZM131.132 78.2006H136.798C138.687 78.2006 140.009 76.4175 140.009 74.5405C140.103 72.6634 138.687 71.1618 136.893 70.9741H131.604V94.3431H125.655V66.657H138.687C142.936 66.657 146.053 70.3172 146.053 74.5405C146.053 78.7638 142.936 82.6117 138.687 82.6117H131.132V78.2006ZM140.103 94.3431H146.336L149.075 87.0227H160.407L158.707 82.4239H150.68L154.646 71.9126L162.862 94.3431H169L157.951 66.657H150.869L140.103 94.3431Z" fill="#E1E7ED"/>
</g>
<defs>
<clipPath id="clip0_8449_6457">
<rect width="95" height="29" fill="white" transform="translate(74 66)"/>
</clipPath>
</defs>
</svg>
