<svg width="242" height="161" viewBox="68 27 107 107" fill="none" xmlns="http://www.w3.org/2000/svg">
<g clip-path="url(#clip0_8449_6459)">
<path d="M126.603 33.4023L126.306 35.1775L126.879 35.2748L127.023 34.4092L128.827 34.7147L127.842 40.5434L126.832 40.3733L126.76 40.8107L130.118 41.3793L130.195 40.9427L129.193 40.7727L130.178 34.944L131.969 35.2452L131.821 36.1116L132.394 36.2089L132.695 34.4346L132.122 34.3365L132.071 34.6292L127.129 33.7933L127.18 33.5005L126.603 33.4023ZM118.881 33.547V33.9929H119.683L119.67 40.0845L118.868 40.0803V40.5262L121.831 40.5347V40.0888H121.037L121.046 37.4227H121.334L122.914 39.9103C123.275 40.4706 123.376 40.5347 124 40.5389L125.342 40.5431L125.334 40.0888H124.901C124.688 40.0888 124.561 39.9911 124.319 39.6218L122.824 37.3128C123.818 37.0071 124.306 36.3956 124.31 35.4446C124.31 34.8842 124.145 34.4297 123.797 34.0774C123.419 33.6953 122.91 33.5553 122.001 33.5553L118.881 33.547ZM113.854 33.9548L113.218 34.0648L111.684 41.1888L111.04 41.2988L111.116 41.7362L113.273 41.3622L113.196 40.9248L112.364 41.0695L112.746 39.2656L115.276 38.824L116.214 40.3985L115.484 40.5263L115.56 40.9637L118.104 40.5221L118.032 40.0847L117.594 40.1608L113.854 33.9548ZM121.046 34.1452H121.713C122.464 34.1495 122.897 34.6338 122.893 35.4829C122.893 36.3192 122.392 36.8967 121.666 36.8967L121.042 36.8925L121.046 34.1452ZM134.427 35.0708L134.266 35.4871L135.094 35.8095L132.89 41.49L132.063 41.1668L131.901 41.5831L134.181 42.4664L134.342 42.0544L133.515 41.732L135.132 37.5633L135.693 43.1672L139.712 39.2363L138.061 43.4938L137.233 43.1714L137.072 43.5826L140.001 44.7206L140.163 44.3043L139.335 43.982L141.538 38.3062L142.361 38.6201L142.523 38.2081L140.57 37.4525L136.732 41.2396L136.171 35.7501L134.427 35.0708ZM108.259 35.614C107.978 35.6085 107.679 35.6557 107.368 35.7587L104.328 36.7689L104.469 37.1894L105.233 36.939L107.152 42.7213L106.387 42.9717L106.527 43.3965L109.439 42.4328L109.291 42.0038L108.438 42.2881L106.565 36.6466L107.169 36.4469C107.895 36.2092 108.429 36.5781 108.739 37.5206C109.036 38.4121 108.82 39.0326 108.136 39.2576C108.047 39.2873 107.997 39.3041 107.856 39.3168L108.017 39.8093C108.293 39.771 108.408 39.7451 108.578 39.69C109.754 39.3036 110.416 38.0811 110.055 36.9858C109.772 36.1198 109.101 35.6305 108.259 35.614ZM113.49 35.7968L114.933 38.2293L112.886 38.5863L113.49 35.7968ZM101.709 37.5719L101.204 37.835L101.336 38.0982L97.4639 40.0932L97.667 40.4884L98.3802 40.1186L101.17 45.5362L100.457 45.9009L100.66 46.296L105.135 43.9904L104.481 42.7382L103.975 42.9971L104.337 43.6934L102.299 44.746L101.102 42.4243L102.605 41.6509L102.944 42.3092L103.449 42.0376L102.494 40.1863L101.989 40.4588L102.32 41.0951L100.817 41.8718L99.6755 39.6517L101.633 38.6456L101.98 39.3251L102.477 39.0662L101.709 37.5719ZM144.659 39.4993L144.421 39.8724L145.099 40.3056L141.823 45.4381L141.143 45.0049L140.905 45.3789L145.151 48.0873L145.898 46.907L145.418 46.6015L144.998 47.2598L143.066 46.0245L144.472 43.8246L145.898 44.7334L145.499 45.3578L145.987 45.6548L147.108 43.8974L146.62 43.6005L146.229 44.2071L144.807 43.2942L146.149 41.1891L148.003 42.3728L147.592 43.0141L148.068 43.3153L148.971 41.8973L148.487 41.5919L148.331 41.8423L144.659 39.4993ZM95.2827 42.3481C94.6075 42.3842 93.9282 42.6179 93.3248 43.0605L90.6673 45.0132L90.9304 45.3703L91.5793 44.8948L95.1794 49.7938C95.3492 49.8617 95.519 49.9256 95.6888 49.9893L97.4512 48.6947C98.2875 48.0792 98.724 47.4085 98.8811 46.5C99.0424 45.5108 98.8222 44.5465 98.2448 43.7612C97.5205 42.7768 96.4079 42.2879 95.2827 42.3481ZM94.8038 43.3338C95.6096 43.3964 96.4676 43.8659 97.0434 44.6486C98.0283 45.9816 97.9643 47.5902 96.886 48.3799L96.1939 48.8892L92.7554 44.2111L93.4813 43.6806C93.8554 43.4052 94.3203 43.2962 94.8038 43.3338ZM150.682 43.481L150.385 43.8076L150.946 44.322L150.831 44.9498L147.091 49.0508L146.441 48.4611L146.14 48.7877L147.906 50.3969L148.203 50.0653L147.588 49.5009L150.699 46.0878L150.033 51.5088C150.678 51.3433 151.366 51.1568 152.113 50.9487C152.172 50.9317 152.232 50.9149 152.291 50.898L154.953 47.9772L155.611 48.5755L155.913 48.2489L154.155 46.6396L153.854 46.9704L154.469 47.5356L151.485 50.8083L152.236 44.8991L150.682 43.481ZM89.3888 48.3419C88.9133 49.7471 89.9328 51.6154 91.1512 51.8659C90.0729 51.9763 89.1509 52.5364 88.7221 53.1477C89.533 54.0902 91.1592 55.0708 92.5008 55.0963C91.8809 55.5123 91.1293 56.3907 90.8746 56.8832C92.0336 57.4988 93.8809 58.0173 95.3032 57.9197C94.7046 58.3994 94.1866 59.0058 93.8513 59.5619C94.815 59.9992 96.6828 60.636 98.4657 60.7718C97.8077 61.0945 96.8733 62.2154 96.3894 62.9031C97.3913 63.3531 99.5609 63.621 100.907 63.7568C99.9431 64.2663 98.9364 65.2766 98.3804 66.1893C99.3568 66.6563 101.191 67.1786 102.69 67.1319C101.951 67.8409 101.463 68.7027 101.183 69.5348C102.316 69.7683 103.513 69.7724 104.893 69.5856C104.052 70.6469 103.717 72.0518 103.598 73.0579C104.723 73.0239 106.217 72.7691 107.27 72.1365C107.041 72.9983 107.092 74.1575 107.461 74.9811C107.903 74.8834 108.416 74.697 108.973 74.3955C108.9 72.795 108.828 71.1605 108.781 69.8149C108.026 69.4286 107.364 68.9787 106.655 68.3334C104.38 66.2575 103.84 64.0753 104.511 61.5707C104.91 60.0807 105.521 59.329 105.313 57.7709C105.194 56.8794 104.562 56.1621 103.933 55.5593C102.409 54.0947 100.606 53.19 97.9396 52.2942C96.2925 51.7423 91.5028 50.2523 89.3888 48.3419ZM121.585 49.1059C115.527 49.1059 109.872 50.8258 105.075 53.7975C106.319 54.7654 107.058 55.7838 107.236 56.8451C107.393 57.7748 107.504 58.8954 106.965 60.5341C106.396 62.2704 106.081 64.0534 107.363 65.8663C108.637 67.6705 110.297 68.4476 111.668 68.7109C113.464 68.3967 115.459 68.1377 117.442 67.9807C117.701 67.1401 118.47 66.4099 119.234 65.8156C120.35 64.9495 120.104 64.1897 119.836 63.5997C119.632 63.1412 119.233 62.7631 118.66 62.4659C118.159 62.2069 116.321 62.0159 116.368 63.1919C116.071 62.7673 115.824 62.1901 116.003 61.4557C116.249 60.4326 117.926 60.1695 118.342 60.1992C118.019 59.9275 118.218 59.4859 118.953 59.2821C119.844 59.0358 120.69 58.9977 121.505 59.0189C123.186 59.0614 123.449 59.4732 124.302 60.2289C125.329 61.1416 126.689 61.4601 127.223 60.9083C126.841 61.7828 125.619 62.2498 124.833 62.114C125.215 63.3239 125.351 64.377 125.486 65.6464C125.55 66.2238 125.669 67.1953 125.826 67.9892C128.081 68.176 130.34 68.4862 132.309 68.8641C133.129 68.6263 133.973 68.1463 134.733 67.2675C135.455 66.4354 136.117 65.379 135.845 62.7215C135.769 61.9744 135.395 60.0595 135.446 59.1553C135.569 57.1133 137.085 55.7797 139.466 54.6972C134.393 51.1736 128.233 49.1064 121.585 49.1064L121.585 49.1059ZM157.882 49.8827L156.456 50.9741L156.809 51.4369L157.505 50.9064L158.612 52.3584L153.917 55.9458L153.675 55.6268C153.54 55.7032 153.403 55.767 153.268 55.8265L155.008 58.1058L155.361 57.8385L154.745 57.0321L159.441 53.4447L160.544 54.8882L159.848 55.4229L160.205 55.8857L161.631 54.7951L161.274 54.3281L161.041 54.5066L158.002 50.524L158.235 50.3455L157.882 49.8827ZM154.507 50.9191C152.393 52.8337 149.014 53.3433 145.465 54.5192C142.791 55.4023 141.13 55.9154 138.74 57.8258C138.057 58.3692 137.408 59.1679 137.48 60.5434C137.56 62.0717 137.81 62.729 137.849 64.8644C137.878 66.3841 137.353 67.6116 136.716 68.3333C136.041 69.0975 135.162 69.7635 134.376 70.1753C134.33 71.4744 134.27 72.7776 134.198 74.2932C134.754 74.5946 135.467 74.8792 135.909 74.9769C136.278 74.1575 136.329 72.9941 136.1 72.1323C137.153 72.7649 138.647 73.0197 139.772 73.0537C139.653 72.0476 139.318 70.6427 138.477 69.5814C139.857 69.7682 141.054 69.7598 142.187 69.5306C141.907 68.6985 141.419 67.8324 140.681 67.1277C142.179 67.1744 144.018 66.6564 144.994 66.1851C144.438 65.2724 143.431 64.262 142.468 63.7526C143.813 63.6168 146.042 63.3574 147.044 62.9074C146.56 62.2196 145.563 61.0903 144.909 60.7634C146.692 60.6318 148.56 59.995 149.524 59.5535C149.184 58.9973 148.666 58.3909 148.072 57.9112C149.74 57.8008 151.34 57.4903 152.499 56.8748C152.245 56.3823 151.489 55.4996 150.873 55.0878C154.444 54.0944 154.503 52.3073 154.507 50.9191ZM81.2143 56.0049L80.9343 56.5015L81.2101 56.6581C80.8705 56.9255 80.6541 57.1806 80.4503 57.5414C79.8178 58.6664 80.0728 59.7917 81.0874 60.3606C81.495 60.5856 81.9279 60.6748 82.327 60.5941C82.7387 60.5134 82.896 60.454 83.9743 59.8724C85.0101 59.3247 85.4518 59.2226 85.8678 59.4561C86.3475 59.7278 86.4578 60.3307 86.1352 60.9038C85.8805 61.3538 85.583 61.6001 85.0184 61.8294L84.3389 61.447L84.0546 61.9563L85.7147 62.8904L85.999 62.381L85.6681 62.1983C86.1563 61.9181 86.4835 61.5918 86.785 61.0569C87.392 59.9786 87.0814 58.7982 86.0328 58.2081C85.6719 58.0043 85.32 57.9153 84.938 57.9322C84.5984 57.9492 84.2883 58.0299 84.0208 58.1573C83.8892 58.2167 83.5708 58.3907 83.0571 58.6582C81.9958 59.2228 81.648 59.3078 81.2786 59.0998C80.8456 58.8578 80.7142 58.2968 80.9816 57.8172C81.1727 57.4733 81.4056 57.2782 81.8726 57.032L82.5097 57.3882L82.7897 56.8915L81.2143 56.0049ZM88.0797 56.8958C87.6934 56.8958 87.3876 57.2016 87.3876 57.5879C87.3876 57.9742 87.6933 58.28 88.0797 58.28C88.466 58.28 88.7718 57.9743 88.7718 57.5879C88.7718 57.2059 88.466 56.9 88.0797 56.8958ZM161.719 59.6921C161.252 59.7059 160.775 59.8093 160.314 60.012C158.463 60.8228 157.609 62.8825 158.391 64.6654C159.172 66.4441 161.269 67.2251 163.12 66.4142C164.971 65.6034 165.808 63.5404 165.026 61.7574C164.441 60.4201 163.121 59.6509 161.719 59.6921ZM120.255 60.1583C119.524 60.1472 119.243 60.379 118.625 60.2963C118.935 60.5298 119.117 60.5595 119.223 60.5382C119.232 60.5934 119.334 60.6702 119.359 60.6914C119.427 60.7508 119.462 60.8062 119.483 60.8699C119.623 60.8105 119.996 60.6571 120.34 60.534C120.688 60.4109 121.163 60.2709 121.163 60.2709C120.791 60.1923 120.498 60.1621 120.255 60.1583ZM162.569 61.0383C163.455 61.0526 164.209 61.3945 164.474 61.9994C164.899 62.9801 163.982 64.4103 162.521 65.0471C161.048 65.6924 159.372 65.3999 158.943 64.4235C158.523 63.4556 159.44 62.0245 160.913 61.3793C161.46 61.1389 162.038 61.0296 162.569 61.0383ZM77.5499 63.6205L76.8494 65.9727L77.2868 66.1038L77.5372 65.2636L81.3074 66.3889C82.547 66.7583 83.0525 67.6835 82.6916 68.8976C82.6025 69.2032 82.4452 69.4747 82.25 69.6827C81.8212 70.12 81.2991 70.1627 80.276 69.857L76.4974 68.7317L76.7267 67.9719L76.3019 67.845L75.4533 70.6803L75.8772 70.808L76.1065 70.0398L80.2033 71.2582C81.6042 71.6742 82.8227 70.8755 83.3109 69.2369C83.468 68.7104 83.5024 68.1802 83.4345 67.675C83.2859 66.69 82.6871 66.0787 81.5409 65.7391L77.7284 64.6011L77.9831 63.7524L77.5499 63.6205ZM84.0293 64.4175C83.7541 64.4177 83.4932 64.5809 83.3786 64.8516C83.2258 65.2124 83.396 65.6244 83.7568 65.7772C84.1177 65.93 84.5296 65.7607 84.6824 65.3998C84.831 65.0347 84.6608 64.6186 84.3042 64.4742C84.214 64.436 84.121 64.4174 84.0293 64.4175ZM166.588 66.7282L166.159 66.839L166.359 67.6115L160.454 69.1099L160.259 68.3332L159.825 68.4432L160.534 71.2328L160.955 71.122L160.781 70.4383L163.489 69.7513L163.905 71.3893L163.188 71.5721L163.341 72.1237L165.357 71.6101L165.208 71.0585L164.513 71.237L164.096 69.5981L166.516 68.9822L167.055 71.1135L166.317 71.3004L166.457 71.8436L168.087 71.4316L167.947 70.8757L167.663 70.9527L166.588 66.7282ZM121.579 68.5625C117.869 68.5625 113.144 69.0927 109.578 69.9036C109.663 72.2385 109.803 75.1973 109.964 78.1352C113.326 77.422 117.767 76.8957 121.579 76.8957C125.391 76.8957 129.836 77.422 133.194 78.1352C133.355 75.1975 133.496 72.2385 133.581 69.9036C130.019 69.0927 125.289 68.5625 121.579 68.5625ZM121.592 69.4873L121.762 70.1117L122.399 70.0779L121.863 70.4299L122.092 71.0373L121.592 70.6295L121.095 71.0373L121.324 70.4299L120.79 70.0779L121.427 70.1117L121.592 69.4873ZM118.565 69.5812L118.769 70.1963L119.405 70.1244L118.892 70.5111L119.159 71.1008L118.637 70.7234L118.166 71.16L118.357 70.5449L117.797 70.2217L118.437 70.2175L118.565 69.5812ZM124.623 69.5855L124.75 70.2175L125.391 70.2268L124.835 70.5449L125.026 71.1643L124.555 70.7235L124.032 71.105L124.296 70.5111L123.782 70.1244L124.419 70.1963L124.623 69.5855ZM115.551 69.8401L115.788 70.4425L116.417 70.341L115.925 70.7531L116.221 71.3259L115.678 70.9781L115.228 71.441L115.39 70.8123L114.816 70.5196L115.457 70.4815L115.551 69.8401ZM127.629 69.8401L127.727 70.4815L128.363 70.5196L127.79 70.8123L127.956 71.441L127.502 70.9781L126.962 71.3301L127.26 70.7531L126.763 70.341L127.395 70.4468L127.629 69.8401ZM112.558 70.2395L112.817 70.8292L113.446 70.6972L112.97 71.1304L113.288 71.6956L112.732 71.3639L112.308 71.8479L112.439 71.2159L111.853 70.9477L112.49 70.88L112.558 70.2395ZM130.631 70.2437L130.698 70.8842L131.335 70.9527L130.749 71.2201L130.881 71.8521L130.452 71.3682L129.896 71.6956L130.219 71.1347L129.743 70.7015L130.367 70.8335L130.631 70.2437ZM148.134 71.0331C149.955 72.0987 150.583 73.2529 150.85 74.5774C149.394 74.9043 147.45 74.4246 146.389 73.5926C147.433 74.5053 148.087 75.9362 148.133 77.4135C146.631 77.4899 145.247 76.785 144.228 75.7662C144.882 76.4921 145.709 78.3388 145.514 79.6463C144.262 79.5147 142.785 78.6954 141.987 77.7147C142.649 79.1836 142.967 80.3685 142.89 81.6846C141.642 81.4511 140.7 81.0986 139.584 80.0373C140.123 81.3745 140.318 82.7206 140.199 83.8286C138.76 83.3192 137.805 82.7503 136.994 81.3919C137.423 82.5848 137.707 84.1554 137.406 85.0681C136.188 84.703 135.385 83.9726 134.753 82.7287C135.377 84.049 135.3 85.5815 135.088 86.3795C134.578 86.2777 133.912 85.9257 133.555 85.5352C133.538 85.7729 133.525 86.0065 133.508 86.2315C133.449 87.123 133.27 87.959 132.982 88.7274C133.079 88.8421 133.318 89.1225 133.33 89.1353C133.971 89.823 134.846 90.4764 135.538 90.6971C135.241 90.7396 134.829 90.9982 134.417 91.0407C134.875 91.5586 135.805 91.674 136.382 92.2641C135.932 92.315 135.826 92.6417 135.287 92.5822C136.323 93.3804 137.27 93.4103 137.8 93.474C138.013 93.4995 138.709 93.5631 139.151 93.4952C139.775 93.3975 140.42 93.7113 140.674 93.8556C141.057 94.0806 141.035 94.6069 140.963 94.8743C140.916 95.0356 140.849 95.2266 140.56 95.3752C140.395 95.4219 140.292 95.4348 140.454 95.3117C140.606 95.2013 140.742 94.5308 140.394 94.2719C140.14 94.0851 139.783 93.9317 139.363 93.9487C138.896 93.9699 138.178 94.0131 137.834 93.9791C137.516 93.9452 137.321 94.3652 137.274 94.5392C137.159 94.9553 137.032 95.4734 136.43 95.2144C135.691 94.7899 134.633 94.8235 133.423 94.3396C133.597 94.7132 133.521 95.0319 133.708 95.448C132.629 95.1848 132.358 94.637 131.33 94.2761C131.5 94.6539 131.454 94.9425 131.687 95.2948C130.821 95.142 130.014 94.3653 128.809 94.0426C128.771 94.0554 128.737 94.0637 128.699 94.0765C128.262 94.2081 127.862 94.3358 127.497 94.4462C128.351 95.4142 129.055 96.5979 129.382 98.0328C129.382 98.0328 128.783 98.0499 127.892 97.74C128.146 98.5212 128.304 99.3622 128.316 100.262C128.316 100.262 127.641 100.139 126.716 99.5659C126.796 100.415 126.767 101.298 126.593 102.207C126.593 102.207 125.812 101.888 124.891 100.945C124.784 101.824 124.564 102.715 124.186 103.594C124.186 103.594 123.477 103.111 122.747 101.981C122.445 102.86 122.021 103.726 121.444 104.549C121.444 104.549 120.666 103.734 120.14 102.087C119.435 103.14 118.769 103.594 118.769 103.594C118.391 102.711 118.17 101.82 118.064 100.945C117.143 101.883 116.362 102.207 116.362 102.207C116.184 101.298 116.153 100.411 116.234 99.5616C115.309 100.135 114.634 100.258 114.634 100.258C114.651 99.3622 114.808 98.5211 115.062 97.7358C114.171 98.0457 113.572 98.0285 113.572 98.0285C113.908 96.5639 114.867 95.0611 115.508 94.3861C115.194 94.2884 114.855 94.1826 114.489 94.0722C114.451 94.0594 114.417 94.0511 114.379 94.0383C113.173 94.361 112.367 95.1377 111.501 95.2905C111.73 94.9339 111.683 94.6454 111.853 94.2718C110.826 94.6327 110.554 95.1805 109.48 95.4437C109.662 95.0276 109.59 94.7089 109.764 94.3353C108.766 94.8235 107.395 95.1632 106.788 95.2905C106.122 95.4306 106.079 94.4334 105.858 94.2126C105.761 94.115 105.226 94.072 105.001 94.1102C104.67 94.1654 104.021 94.1399 103.537 94.1272C103.053 94.1187 102.721 94.2636 102.467 94.4546C102.114 94.7136 102.28 95.4095 102.433 95.5241C102.598 95.6472 102.497 95.6342 102.331 95.5875C102.042 95.4389 101.974 95.248 101.928 95.0867C101.855 94.8192 101.83 94.293 102.216 94.068C102.467 93.9236 103.112 93.609 103.737 93.7067C104.178 93.7746 104.874 93.7111 105.086 93.6855C105.298 93.6643 106.861 93.3761 107.892 92.578C107.353 92.6374 107.243 92.3151 106.793 92.2599C107.37 91.674 108.3 91.5586 108.758 91.0364C108.346 90.9897 107.986 90.6635 107.689 90.6168C108.597 90.1073 109.204 89.8145 109.845 89.1268C109.854 89.1141 110.091 88.8463 110.189 88.7317C109.896 87.9633 109.718 87.123 109.658 86.2273C109.645 86.0108 109.629 85.7856 109.612 85.5564C109.387 85.8026 108.928 86.053 108.181 86.3204C107.833 85.4756 108.003 83.8922 108.444 82.6737C107.812 83.9176 107.094 84.7285 105.875 85.0935C105.578 84.1808 105.753 82.5848 106.182 81.3919C105.371 82.7461 104.505 83.4334 103.065 83.9386C102.947 82.8306 103.061 81.3746 103.592 80.0331C102.479 81.0987 101.532 81.4469 100.289 81.6804C100.208 80.3644 100.531 79.1794 101.193 77.7105C100.395 78.6912 98.7353 79.3625 97.4829 79.4941C97.5763 78.3564 98.3739 76.7983 98.8409 75.8813C97.6607 76.7304 96.4047 77.333 95.0462 77.4094C95.216 76.1188 95.7974 74.7177 96.7908 73.5884C95.6233 74.4545 93.8317 74.9259 92.4859 74.7434C92.8128 73.3254 93.6832 71.942 94.8634 71.2033C94.1799 71.3349 92.9402 71.6192 91.518 71.4876C90.6774 74.298 90.2193 77.2691 90.2065 80.3469C89.4933 79.7865 89.0009 79.6464 88.5127 79.1624C88.6061 79.8289 88.6909 80.19 88.7673 81.0179C88.8989 82.4995 89.4587 83.3486 90.3884 83.8836C90.4351 84.3081 90.4864 84.724 90.55 85.1443C89.8623 84.7027 88.9366 84.4267 87.7139 84.4437C88.4569 86.8592 89.5188 87.0378 90.9409 87.2671C90.9876 87.4879 91.038 87.7088 91.0932 87.9253C90.3375 87.7301 89.4292 87.7255 88.3934 88.01C89.1066 89.118 90.1003 89.7927 91.6838 90.0304C91.688 90.0389 91.688 90.0473 91.6923 90.0558C90.7158 89.9752 89.6629 90.1195 88.8223 90.5482C90.0238 91.584 91.2035 91.9751 92.3285 91.8605C92.3837 92.0091 92.4434 92.1536 92.5071 92.3022C91.6155 92.5399 90.8342 93.0021 90.3927 93.4309C91.3309 93.728 92.2908 93.8855 93.1611 93.7921C93.1696 93.8134 93.1822 93.8344 93.1907 93.8556C92.6812 94.2462 92.2356 94.8742 91.9639 95.8634C92.6304 95.6936 93.3135 95.6475 93.997 95.4522C94.1329 95.7027 94.2774 95.9531 94.4218 96.2035C94.0609 96.887 93.9379 97.7485 94.1502 98.7037C94.7233 98.5721 95.1988 98.3468 95.5894 98.0582C95.7252 98.2577 95.8613 98.4535 96.0014 98.6488C95.8571 99.7441 96.1117 100.848 96.7655 101.578C97.0287 101.281 97.2361 100.996 97.4186 100.72C98.8323 98.5591 97.9795 97.0055 98.0092 95.6043C98.022 95.5746 98.0303 95.5494 98.0431 95.5155C98.1577 97.1839 99.6092 98.8311 97.9068 100.843C97.8729 100.882 97.8435 100.915 97.8138 100.953C103.571 107.635 112.086 111.869 121.6 111.869C135.104 111.869 146.614 103.339 151.041 91.3762L152.468 90.7561L152.361 91.3762L154.416 89.5977L151.755 90.1452L152.319 90.4379L151.22 90.8881C151.305 90.6483 151.375 90.4022 151.454 90.1596L150.2 91.257L150.307 90.6334L142.419 94.5813C142.406 94.5601 142.398 94.5391 142.381 94.5136C142.347 94.4584 142.305 94.4114 142.25 94.3689C142.313 94.318 142.419 94.2331 142.555 94.1269L150.149 90.3238L149.589 90.0344L151.635 89.597C151.675 89.4676 151.721 89.341 151.759 89.2111L153.321 88.349L153.27 88.9776L155.155 87.0206L152.557 87.8101L153.143 88.052L151.894 88.7399C151.963 88.4849 152.017 88.2221 152.08 87.9641L150.71 89.4743L150.744 88.8414L145.697 92.1403C145.085 92.446 144.487 92.7478 143.965 93.011C144.304 92.7435 144.678 92.4502 145.055 92.1403L150.549 88.5487L149.959 88.3279L152.171 87.585C152.226 87.3493 152.29 87.1184 152.34 86.8802L153.529 86.1247L153.478 86.7533L155.325 84.8006L152.731 85.5984L153.317 85.8362L152.409 86.4132C152.511 85.8825 152.596 85.3524 152.672 84.8132L154.099 83.6202L154.132 84.2523L155.737 82.0618L153.266 83.1955L153.878 83.3571L152.74 84.3081C152.82 83.6543 152.88 82.9914 152.918 82.3249L154.323 80.7715L154.442 81.3917L155.737 79.0057L153.44 80.4576L154.068 80.5337L152.948 81.7352C152.965 81.3234 152.973 80.9075 152.973 80.4914C152.973 77.3626 152.514 74.34 151.661 71.4874C150.239 71.619 148.817 71.1647 148.134 71.0331ZM152.171 87.585C152.142 87.7118 152.111 87.838 152.08 87.9641L152.536 87.4625L152.171 87.585ZM151.636 89.5972C151.578 89.786 151.515 89.9722 151.454 90.1596L152.247 89.466L151.636 89.5972ZM120.2 71.7295L120.386 72.3489L121.023 72.2939L120.497 72.6678L120.747 73.2618L120.238 72.8709L119.754 73.2956L119.962 72.6847L119.414 72.3488L120.055 72.3573L120.2 71.7295ZM123.116 71.7337L123.26 72.3615L123.902 72.3488L123.354 72.6847L123.562 73.2998L123.078 72.8751L122.564 73.266L122.814 72.6678L122.292 72.2939L122.929 72.3489L123.116 71.7337ZM117.313 71.8903L117.529 72.502L118.166 72.4174L117.657 72.8117L117.937 73.398L117.406 73.0325L116.944 73.4784L117.122 72.8582L116.557 72.5485L117.198 72.5274L117.313 71.8903ZM126.003 71.903L126.118 72.5401L126.759 72.5612L126.194 72.8709L126.373 73.4953L125.91 73.041L125.379 73.4107L125.655 72.8244L125.15 72.4259L125.787 72.5147L126.003 71.903ZM114.435 72.1923L114.677 72.7905L115.309 72.6805L114.821 73.096L115.123 73.6696L114.579 73.3252L114.137 73.7923L114.286 73.1645L113.709 72.8794L114.35 72.8328L114.435 72.1923ZM128.885 72.2092L128.971 72.854L129.607 72.9014L129.03 73.1856L129.179 73.8134L128.737 73.3422L128.19 73.6865L128.5 73.1129L128.007 72.6974L128.639 72.8117L128.885 72.2092ZM111.565 72.6247L111.833 73.2153L112.457 73.079L111.986 73.5165L112.308 74.0766L111.752 73.7542L111.328 74.2382L111.454 73.6054L110.865 73.3422L111.506 73.2703L111.565 72.6247ZM131.768 72.6509L131.82 73.2956L132.456 73.3769L131.867 73.6315L131.985 74.2678L131.569 73.7754L131.004 74.0935L131.336 73.5334L130.873 73.0918L131.493 73.2364L131.768 72.6509ZM121.69 74.3101L121.86 74.9345L122.497 74.9007L121.958 75.2569L122.191 75.8643L121.69 75.4523L121.194 75.8643L121.423 75.2569L120.888 74.9007L121.525 74.9345L121.69 74.3101ZM118.782 74.3913L118.981 75.0064L119.618 74.9387L119.101 75.3212L119.364 75.9151L118.846 75.5327L118.37 75.9701L118.566 75.3508L118.009 75.0318L118.65 75.0276L118.782 74.3913ZM124.611 74.404L124.738 75.0403L125.379 75.0488L124.819 75.3677L125.014 75.9871L124.538 75.5454L124.016 75.9236L124.284 75.3339L123.77 74.9473L124.407 75.0192L124.611 74.404ZM115.887 74.6248L116.116 75.2315L116.748 75.1342L116.252 75.5412L116.54 76.1191L116.005 75.762L115.551 76.2206L115.717 75.597L115.144 75.2992L115.784 75.2653L115.887 74.6248ZM127.502 74.6502L127.603 75.2907L128.24 75.3254L127.667 75.6224L127.833 76.2459L127.382 75.7873L126.839 76.1402L127.136 75.5631L126.64 75.1553L127.272 75.2526L127.502 74.6502ZM112.996 74.9937L113.255 75.5843L113.878 75.4608L113.398 75.8898L113.717 76.4541L113.165 76.1233L112.733 76.5987L112.872 75.9659L112.287 75.6985L112.923 75.6351L112.996 74.9937ZM130.393 75.0276L130.461 75.6689L131.102 75.7366L130.516 76.004L130.652 76.6368L130.219 76.1571L129.667 76.4837L129.985 75.9194L129.51 75.4904L130.134 75.6182L130.393 75.0276ZM92.8689 78.6489C93.493 80.5337 93.0636 82.487 91.8324 83.6163C91.8494 83.0899 91.752 82.5335 91.5228 81.9986C91.7435 81.0392 92.1934 79.821 92.5161 79.2691C92.0236 79.6979 91.5354 80.7078 91.3062 81.5739C91.1873 81.3701 91.0554 81.1751 90.8941 80.9926C91.3059 79.8124 92.2236 78.9121 92.8689 78.6489ZM152.659 78.9805L151.572 81.4723L151.402 80.8606L144.928 89.0584C144.572 89.4532 144.219 89.844 143.871 90.2133L143.858 90.2049C144.317 89.5129 144.805 88.7698 145.263 88.0736L151.126 80.6451L150.494 80.6231L152.659 78.9805ZM147.386 80.3258L146.834 82.9876L146.541 82.4275L140.836 93.9748C140.793 93.9239 140.738 93.8726 140.67 93.8344C140.636 93.8174 140.598 93.7921 140.551 93.7709L146.227 82.2743L145.603 82.3851L147.386 80.3258ZM89.3461 80.4832C90.9211 81.5658 91.2604 82.6443 91.617 84.0283C91.6298 84.0241 91.6432 84.0191 91.656 84.0148C91.9531 83.9553 92.237 84.1423 92.2964 84.4395C92.3559 84.7324 92.1646 85.0214 91.8675 85.0809C91.5745 85.1403 91.2864 84.9491 91.227 84.6561C91.176 84.3929 91.3158 84.1429 91.5536 84.0452C91.0441 82.9627 90.1358 81.4936 89.3461 80.4832ZM127.121 81.4131C126.577 81.4131 126.11 81.6929 125.614 81.9901C125.083 82.3085 124.476 82.6737 123.733 82.6737C122.973 82.6737 122.421 82.4444 121.976 82.194V85.0174C122.077 85.0768 122.175 85.1356 122.273 85.1951C122.723 85.471 123.113 85.7129 123.733 85.7129C124.115 85.7129 124.497 85.4837 124.943 85.2162C125.541 84.8596 126.216 84.4564 127.121 84.4564C127.978 84.4564 128.547 84.8048 129.048 85.1105C129.498 85.3907 129.884 85.6283 130.508 85.6283C131.098 85.6283 131.417 85.3697 131.816 85.047C132.092 84.8263 132.406 84.567 132.827 84.4141C132.886 83.4759 132.945 82.4743 133.009 81.4342C132.898 81.5064 132.78 81.5997 132.64 81.7143C132.16 82.1006 131.561 82.5849 130.508 82.5849C129.519 82.5849 128.878 82.1943 128.364 81.8759C127.944 81.6169 127.609 81.4131 127.121 81.4131ZM152.558 81.4892L151.289 83.8921L151.166 83.2719L142.302 92.9639C141.92 93.2653 141.601 93.5158 141.381 93.6898C141.457 93.537 141.538 93.3715 141.627 93.189L150.907 83.0344L150.279 82.9667L152.558 81.4892ZM94.9214 82.4275C95.7238 86.036 93.9449 86.3292 92.9982 87.6748C91.9666 85.8282 92.9006 83.3104 94.9214 82.4275ZM148.3 82.4994L147.425 85.0724L147.204 84.4776L142.224 92.0265C142.207 92.0477 142.186 92.0687 142.169 92.09C142.526 91.3682 142.934 90.5446 143.35 89.6997L146.916 84.2917L146.283 84.3255L148.3 82.4994ZM94.3019 83.2973C93.3977 83.8534 92.7646 86.558 93.0066 87.5726C93.4736 85.8278 93.7161 84.6133 94.3019 83.2973ZM152.749 83.5181L151.293 85.8152L151.217 85.1866L145.825 90.1792C145.273 90.6207 144.704 91.0661 144.16 91.4949C144.606 91.0024 145.082 90.4806 145.57 89.9415L150.979 84.9276L150.359 84.8092L152.749 83.5181ZM161.261 85.047L160.789 87.4626L161.222 87.5472L161.393 86.6639L163.396 88.4897L160.836 89.5169L160.989 88.7487L160.551 88.664L159.987 91.5678L160.425 91.6524L160.551 90.9984L164.067 89.5507L166.933 90.1117L166.78 90.8926L167.217 90.9772L167.786 88.0692L167.34 87.993L167.187 88.7825L164.054 88.1674L161.549 85.8787L161.694 85.1316L161.261 85.047ZM88.7041 85.0597C90.2664 85.2253 91.2046 86.1676 91.8541 87.0463C92.0579 87.0463 92.2407 87.1945 92.2746 87.4025C92.3171 87.636 92.1604 87.8567 91.9227 87.8949C91.6892 87.9331 91.4685 87.7764 91.426 87.543C91.3878 87.3222 91.5276 87.1142 91.7399 87.059C90.8484 86.2566 89.5617 85.4673 88.7041 85.0597ZM81.8059 85.4032L81.3727 85.5098L81.5639 86.2908L75.6455 87.7384L75.4552 86.9575L75.022 87.0633L75.7268 89.9374L76.16 89.8308L75.9688 89.0626L78.6686 88.4052L79.4834 91.7455L76.7836 92.4038L76.5966 91.6313L76.1642 91.737L76.869 94.6112L77.2972 94.5097L77.1068 93.7288L83.0243 92.2811L83.2155 93.062L83.6487 92.9554L82.9481 90.077L82.5149 90.1837L82.7019 90.9519L80.0909 91.589L79.2753 88.252L81.8863 87.6149L82.0733 88.384L82.5065 88.2774L81.8059 85.4032ZM96.1421 85.4032C97.9549 89.173 95.888 89.8097 95.5059 91.2488C95.2511 89.8988 95.5179 87.7254 95.6962 86.6006C95.1231 87.3647 94.9667 88.4304 95.0346 89.4621C95.0346 89.4748 95.0388 89.4832 95.0431 89.4959C95.0558 89.5469 95.0515 89.5981 95.0473 89.6491C95.0898 90.1076 95.1746 90.5614 95.2935 90.969C95.1025 90.6888 94.9369 90.3661 94.8138 90.0137C94.7628 90.0434 94.7074 90.0695 94.6437 90.0823C94.372 90.1374 94.1092 89.9588 94.054 89.6871C93.9988 89.4197 94.1766 89.1526 94.4483 89.0974C94.4992 89.0888 94.5505 89.088 94.6014 89.0923C94.4613 87.8824 94.8304 86.5027 96.1421 85.4032ZM152.319 85.7264L150.685 87.8958L150.659 87.2629L141.541 94.4588C141.787 94.5055 142.008 94.5947 142.071 94.6965C142.228 94.947 142.186 95.0699 142.042 95.4987C141.902 95.9104 141.8 96.0544 141.528 96.0884C141.452 96.0969 141.311 96.114 141.15 96.0503C141.231 96.1055 141.29 96.1523 141.329 96.2627C141.367 96.373 141.435 96.5685 141.099 96.9505C140.798 97.2902 140.517 97.413 140.284 97.2771C140.152 97.2007 140.11 97.1158 140.046 97.0478C140.08 97.137 140.119 97.2395 140.136 97.3414C140.191 97.6811 139.932 97.8081 139.605 97.9227C138.985 98.1434 138.683 98.0461 138.539 97.8296C138.229 97.3584 138.404 96.7555 138.612 96.6536C138.561 96.8361 138.565 97.0352 138.599 97.256C138.629 97.4385 138.713 97.7358 139.048 97.7061C139.231 97.6891 139.562 97.6127 139.762 97.4853C139.906 97.3919 139.911 97.1501 139.839 96.9464C139.805 96.8445 139.762 96.6963 139.639 96.5901C139.843 96.6453 139.962 96.7555 140.123 96.8871C140.28 97.0187 140.522 97.0484 140.662 96.904C140.836 96.7173 140.946 96.5813 141.005 96.4539C141.162 96.127 140.742 95.8723 140.5 95.7365C140.929 95.7534 140.997 95.9194 141.345 95.8684C141.689 95.8175 141.791 95.265 141.796 95.0824C141.8 94.9508 141.638 94.8152 141.439 94.7643C141.286 94.726 141.112 94.7261 140.98 94.7304C140.997 94.6413 141.005 94.5354 140.997 94.4292C141.014 94.4292 141.027 94.4241 141.04 94.4241L141.256 94.2549L150.443 86.9954L149.832 86.8296L152.319 85.7264ZM98.9406 86.3161C98.8345 87.3605 98.9703 88.2819 98.9491 89.1776C99.5392 88.2437 100.571 87.615 101.441 87.3602C101.322 91.0834 99.6193 91.3682 98.8678 92.319C98.991 91.1728 99.5817 89.6441 100.613 88.3365C99.2081 89.2705 98.7537 90.612 98.7155 91.9662C98.6009 91.6775 98.5371 91.3977 98.5032 91.1303C98.3376 91.4487 98.1209 91.7713 97.8322 92.1024C97.5605 90.4 97.9812 88.5536 98.2104 87.6708C97.4717 88.4137 97.2254 90.1711 97.5225 91.5806C97.6541 91.6655 97.756 91.805 97.7899 91.9749C97.8578 92.306 97.6413 92.6329 97.3059 92.7008C96.9706 92.7687 96.6437 92.5522 96.5758 92.2168C96.5079 91.8815 96.7244 91.5546 97.0598 91.4866C97.1404 91.4739 97.2169 91.4739 97.289 91.4866C96.5504 89.8946 97.1576 87.6154 98.9406 86.3161ZM93.16 87.8755C93.438 87.877 93.6881 88.0712 93.7438 88.3535C93.8118 88.6804 93.5994 88.9946 93.2768 89.0583C92.9542 89.1262 92.6357 88.9139 92.572 88.5913C92.5041 88.2644 92.7164 87.9502 93.039 87.8865C93.0793 87.8785 93.1203 87.8753 93.16 87.8755ZM90.0379 88.4305C90.7724 88.4645 91.7278 88.4727 93.1202 89.6996C93.1839 89.619 93.2772 89.555 93.3918 89.5338C93.6296 89.4913 93.8503 89.6489 93.8885 89.8824C93.9309 90.1201 93.7734 90.3408 93.5357 90.3791C93.3022 90.4173 93.0772 90.264 93.039 90.0262C93.022 89.9286 93.0397 89.8395 93.0822 89.7589C92.0718 89.0456 90.4794 88.5876 90.0379 88.4305ZM127.116 90.2259C126.573 90.2259 126.106 90.5057 125.609 90.8029C125.074 91.1171 124.471 91.4823 123.729 91.4823C122.969 91.4823 122.417 91.2531 121.971 91.0026V94.4589C122.366 94.0556 122.93 93.694 123.733 93.4478L124.718 93.1424C125.541 92.8792 126.671 92.5266 128.45 91.979C128.968 91.8219 129.442 91.6059 129.871 91.3427C129.226 91.2196 128.755 90.9349 128.36 90.6886C127.94 90.4297 127.604 90.2259 127.116 90.2259ZM91.9891 90.5093C92.7719 90.5109 93.3266 90.7112 94.0366 91.1092C94.13 91.139 94.1477 91.1431 94.0671 91.1346C93.1968 90.8332 92.3386 90.6679 91.1159 90.5745C91.4417 90.531 91.7281 90.5088 91.9891 90.5093ZM94.4546 91.1261C94.7427 91.1266 95.0009 91.3293 95.0604 91.6228C95.1283 91.9539 94.9118 92.2808 94.5764 92.353C94.241 92.4209 93.9142 92.2044 93.8462 91.869C93.7783 91.5336 93.9948 91.2068 94.3302 91.1388C94.3721 91.1304 94.4134 91.126 94.4546 91.1261ZM159.599 91.9916L159.395 92.5357L159.672 92.6415L157.905 97.3321L157.629 97.2264L157.425 97.7696L159.107 98.4024L159.31 97.855L158.487 97.5445L159.132 95.8337L164.664 97.9184L164.303 98.8779L164.719 99.0344L165.916 95.8506L165.509 95.6941L165.152 96.6451L159.62 94.5603L160.261 92.858L161.08 93.1676L161.284 92.6244L159.599 91.9916ZM95.5506 92.3335C95.7506 92.3383 95.9266 92.4837 95.9601 92.688C95.9983 92.9172 95.8416 93.1422 95.6123 93.1846C95.3788 93.2228 95.1581 93.0662 95.1157 92.8327C95.1029 92.7732 95.1071 92.7093 95.1241 92.6541H95.1199C94.0543 92.6584 92.7552 92.9213 91.5113 93.21C92.6151 92.5944 93.9354 92.4251 95.1453 92.5864C95.2005 92.4591 95.3191 92.3614 95.4634 92.3402C95.4926 92.3349 95.522 92.3328 95.5506 92.3335ZM99.4917 92.4841C99.7937 92.4844 100.062 92.6986 100.125 93.0069C100.193 93.3508 99.9676 93.6946 99.6152 93.7667C99.2671 93.8389 98.9276 93.6097 98.8554 93.2616C98.7833 92.9093 99.0082 92.5689 99.3605 92.4968C99.4046 92.4877 99.4485 92.484 99.4917 92.4841ZM96.6556 92.9621C96.9173 92.9646 97.149 93.1502 97.2047 93.4139C97.2641 93.7153 97.0687 94.0085 96.7672 94.068C96.4743 94.1274 96.1939 93.9446 96.1175 93.6644H96.0921C95.1963 93.7875 93.7018 94.3562 92.7635 94.9081C93.6763 93.8256 95.1709 93.5881 96.0667 93.6221C96.0794 93.6221 96.092 93.6263 96.1048 93.6263C96.0453 93.3291 96.2408 93.0317 96.5422 92.9722C96.5804 92.9648 96.6182 92.9617 96.6556 92.9621ZM98.1718 93.4173C98.3866 93.4175 98.5773 93.5687 98.6219 93.7879C98.6728 94.0384 98.5162 94.2844 98.2572 94.3353C98.011 94.3863 97.765 94.2211 97.714 93.9707C97.6673 93.7202 97.8282 93.4776 98.0787 93.4266C98.11 93.4202 98.1411 93.4173 98.1718 93.4173ZM100.895 93.4765C101.141 93.4651 101.361 93.6347 101.411 93.881C101.462 94.1527 101.288 94.4206 101.016 94.4757C100.745 94.5309 100.478 94.3523 100.422 94.0806C100.367 93.8089 100.545 93.5419 100.817 93.4867C100.843 93.4815 100.869 93.4777 100.895 93.4765ZM99.2666 94.4411C99.5687 94.4414 99.8372 94.6557 99.9004 94.964C99.9683 95.3121 99.7434 95.6558 99.391 95.7237C99.0429 95.7959 98.6983 95.5667 98.6303 95.2186C98.5582 94.8663 98.7882 94.5268 99.1363 94.4546C99.1804 94.4456 99.2235 94.441 99.2666 94.4411ZM81.6848 94.5265C81.2175 94.5468 80.7424 94.6567 80.2829 94.8658C78.4447 95.7022 77.6208 97.7745 78.4274 99.5448C79.234 101.315 81.3442 102.062 83.1826 101.226C85.0208 100.39 85.827 98.3132 85.0203 96.5427C84.4154 95.215 83.0868 94.4656 81.6848 94.5265ZM96.9577 94.5925C97.0134 94.5839 96.954 94.6807 96.7292 94.9166C95.9439 95.7444 95.035 97.0733 94.6487 97.8035C94.7888 96.895 95.3919 95.8084 96.2749 95.0782C96.6235 94.7893 96.886 94.6036 96.9577 94.5925ZM101.579 94.6839C101.693 94.6811 101.8 94.6891 101.887 94.7093C101.883 94.8197 101.895 94.9256 101.912 95.0105C101.785 94.9978 101.556 94.9807 101.369 95.0232C101.165 95.0699 100.999 95.197 100.999 95.3329C100.999 95.5154 101.089 96.0722 101.433 96.1316C101.777 96.191 101.853 96.0293 102.277 96.025C102.031 96.1524 101.606 96.3944 101.751 96.7256C101.81 96.8529 101.913 96.9974 102.087 97.1841C102.223 97.337 102.464 97.3115 102.626 97.1841C102.787 97.0568 102.91 96.9465 103.118 96.8999C102.991 97.0017 102.944 97.1457 102.906 97.2476C102.829 97.4514 102.825 97.6932 102.965 97.7865C103.16 97.9224 103.491 98.0073 103.67 98.0285C104.005 98.0667 104.094 97.7702 104.128 97.5919C104.171 97.3712 104.179 97.1755 104.133 96.9887C104.341 97.0948 104.498 97.702 104.171 98.1647C104.018 98.377 103.712 98.4659 103.105 98.2282C102.787 98.1051 102.528 97.9739 102.6 97.63C102.622 97.5281 102.659 97.4255 102.698 97.3364C102.634 97.4043 102.587 97.485 102.451 97.5614C102.214 97.693 101.934 97.5576 101.645 97.2137C101.318 96.8189 101.39 96.632 101.437 96.5216C101.479 96.4112 101.539 96.3687 101.624 96.3135C101.463 96.3729 101.322 96.3516 101.246 96.3431C100.974 96.3049 100.876 96.1567 100.749 95.7407C100.617 95.3119 100.579 95.1806 100.741 94.9386C100.836 94.7953 101.238 94.6923 101.579 94.6839ZM138.556 94.7702C138.617 94.7631 138.7 94.842 138.74 94.9428C138.804 95.1169 138.931 95.2905 139.287 95.3159C139.037 95.4688 138.77 95.4431 138.622 95.3709C138.477 95.2988 138.477 95.1849 138.481 94.9259C138.483 94.8207 138.515 94.7751 138.556 94.7702ZM104.322 94.9911C104.369 94.9898 104.406 95.0326 104.408 95.1459C104.413 95.4048 104.413 95.5196 104.265 95.5918C104.12 95.6639 103.861 95.6854 103.602 95.5368C103.954 95.5113 104.086 95.3377 104.149 95.1637C104.185 95.0681 104.262 94.9926 104.322 94.9911ZM139.752 95.1628C139.939 95.1602 140.128 95.2212 140.234 95.3498C140.196 95.6555 140.09 96.2243 139.487 96.3219C139.572 96.0715 139.564 95.5581 139.398 95.2567C139.497 95.1963 139.624 95.1646 139.752 95.1628ZM103.11 95.3836C103.248 95.3806 103.388 95.4125 103.492 95.4776C103.331 95.7832 103.313 96.2923 103.407 96.5428C102.804 96.4451 102.698 95.872 102.659 95.5706C102.757 95.4489 102.933 95.3876 103.11 95.3836ZM97.9982 95.5072C97.2977 96.5897 96.5462 99.4598 96.5844 100.283C96.2448 99.4299 96.5416 98.0543 96.911 97.1586C97.1657 96.5387 97.8029 95.5963 97.9982 95.5072ZM82.5547 95.8566C83.4401 95.8588 84.1995 96.1894 84.4728 96.789C84.9143 97.7612 84.0184 99.2048 82.5623 99.8671C81.0977 100.534 79.4206 100.262 78.9791 99.2901C78.5418 98.3307 79.4376 96.887 80.9023 96.2205C81.4467 95.9721 82.0234 95.8553 82.5547 95.8566ZM139.104 95.8761C139.138 96.0671 139.211 96.2461 139.325 96.4159C139.419 96.5475 139.546 96.6322 139.639 96.7086C139.478 96.836 139.244 96.9041 139.053 96.8956C138.857 96.8871 138.85 96.8569 138.862 96.7848C138.909 96.4621 139.032 96.0034 139.104 95.8761ZM103.784 96.0969C103.86 96.2243 103.983 96.6787 104.021 97.0056C104.034 97.0778 104.025 97.108 103.834 97.1165C103.643 97.1249 103.41 97.0526 103.249 96.9295C103.342 96.8488 103.474 96.7683 103.563 96.6367C103.682 96.4669 103.75 96.2879 103.784 96.0969ZM105.061 96.2289C107.617 98.152 109.064 100.823 109.438 102.97C109.116 102.737 108.513 102.49 108.144 102.562C107.813 100.296 106.628 98.4616 104.769 96.9716C104.845 96.6278 104.959 96.3902 105.061 96.2289ZM137.516 96.6494C137.512 96.6579 137.504 96.662 137.495 96.6663C137.495 96.6663 137.474 96.6789 137.436 96.7044C136.697 97.1841 133.691 99.0396 133.691 99.0396L133.272 98.9584L132.035 99.7994L130.711 100.623L130.635 100.211L129.926 99.9517L133.068 98.4617L133.569 98.6191L137.516 96.6494ZM137.691 96.9675C137.546 97.1246 137.13 97.5787 136.752 97.9904L133.449 100.317L133.072 100.304L130.936 102.146L130.848 101.586L130.105 101.433L132.753 99.7824L133.055 99.5955L133.569 99.7012L133.564 99.6927L137.691 96.9675ZM138.013 97.1503C138 97.3073 138.013 97.4645 138.051 97.6131L136.472 99.472L136.073 99.5574L133.992 102.291L133.882 101.675L133.262 101.705L133.233 101.717L133.241 101.709L133.123 101.714L135.631 99.2046L135.678 99.1581L136.209 99.1158L138.013 97.1503ZM138.374 98.1901C138.459 98.2708 138.557 98.3262 138.671 98.3644L137.325 101.157L137.504 101.662L135.98 104.787L135.696 104.023L134.918 104.261L136.527 101.179L137.024 101.014L137.016 101.009L138.374 98.1901ZM157.075 98.8484L155.665 101.45L156.052 101.662L156.438 100.958L161.791 103.857L161.409 104.566L161.799 104.779L163.213 102.176L162.823 101.96L162.445 102.656L157.087 99.7562L157.465 99.0607L157.075 98.8484ZM86.4113 100.143L86.0543 100.406L86.5771 101.124L81.6478 104.702L81.1257 103.985L80.7653 104.244L82.2003 106.222L82.5607 105.959L82.0387 105.241L85.6557 102.614L83.0912 107.623L88.6019 106.502L84.9045 109.185L84.3824 108.467L84.0212 108.727L85.8682 111.27L86.2244 111.007L85.7023 110.285L90.6308 106.706L91.1537 107.428L91.5141 107.164L90.2831 105.471L85.0059 106.575L87.5103 101.654L86.4113 100.143ZM155.277 103.639C155.157 103.631 155.037 103.636 154.915 103.654C154.38 103.735 153.968 104.057 153.425 104.787L151.565 107.292L151.918 107.555L152.397 106.91L157.288 110.54L156.808 111.185L157.164 111.448L158.93 109.071L158.574 108.808L158.103 109.444L155.963 107.852L156.133 107.623L159.075 107.831C159.737 107.878 159.852 107.827 160.226 107.326L161.028 106.247L160.667 105.989L160.408 106.337C160.281 106.507 160.132 106.553 159.687 106.528L156.939 106.358C157.288 105.378 157.084 104.622 156.32 104.053C155.983 103.801 155.635 103.662 155.277 103.639ZM154.538 104.879C154.842 104.852 155.173 104.963 155.513 105.216C156.184 105.717 156.354 106.46 155.921 107.046L155.548 107.547L153.339 105.908L153.734 105.373C153.959 105.072 154.235 104.906 154.538 104.879ZM151.043 108.018L149.23 109.669L149.536 110.005L150.185 109.41L152.838 112.318C153.704 113.269 153.667 114.326 152.728 115.18C152.495 115.396 152.215 115.545 151.943 115.626C151.353 115.778 150.886 115.549 150.164 114.759L147.502 111.843L148.088 111.308L147.786 110.981L145.6 112.976L145.898 113.303L146.492 112.76L149.37 115.918C150.355 116.997 151.811 116.946 153.076 115.787C153.484 115.418 153.785 114.984 153.989 114.513C154.367 113.596 154.167 112.765 153.36 111.882L150.682 108.943L151.336 108.345L151.043 108.018ZM92.3966 108.137L92.0946 108.463L92.6851 109.007L88.5587 113.486L87.9682 112.943L87.667 113.269L91.3686 116.678L92.3111 115.634L91.8915 115.247L91.3601 115.825L89.6747 114.271L91.4456 112.353L92.6894 113.498L92.1885 114.047L92.6175 114.424L94.0304 112.892L93.6065 112.514L93.1183 113.044L91.8746 111.899L93.5642 110.064L95.1811 111.554L94.6675 112.115L95.0796 112.492L96.221 111.257L95.8013 110.87L95.6016 111.091L92.3966 108.137ZM97.4226 112.416L97.1721 112.785L97.8389 113.235L94.4384 118.292L93.7717 117.841L93.5213 118.211L97.6646 120.996L98.4548 119.824L97.9836 119.506L97.5461 120.156L95.6779 118.899L98.9768 113.995L99.6351 114.437L99.8813 114.068L97.4226 112.416ZM144.572 113.38L144.075 113.681L144.305 114.059C143.642 114.153 143.188 114.318 142.602 114.674C140.781 115.774 140.234 117.927 141.312 119.71C142.403 121.51 144.542 121.972 146.448 120.813C147.14 120.397 147.556 120.007 148.155 119.259L147.416 118.054L146.911 118.359L147.327 119.047C147.064 119.569 146.801 119.867 146.347 120.139C145.099 120.898 143.443 120.342 142.551 118.877C141.643 117.378 141.88 115.8 143.137 115.036C143.616 114.743 143.969 114.666 144.704 114.717L145.056 115.299L145.552 114.997L144.572 113.38ZM104.709 116.551L99.4279 121.569L98.8331 121.297L98.6512 121.7L100.642 122.609L100.824 122.201L100.056 121.854L101.389 120.579L103.728 121.645L103.613 123.475L102.938 123.169L102.756 123.573L105.103 124.642L105.286 124.24L104.883 124.053L105.295 116.819L104.709 116.551ZM138.357 116.823L137.826 117.031L137.937 117.307L133.878 118.899L134.04 119.31L134.787 119.013L137.011 124.685L136.264 124.978L136.426 125.389L141.108 123.552L140.603 122.244L140.072 122.452L140.361 123.182L138.221 124.019L137.266 121.591L138.841 120.97L139.113 121.658L139.639 121.437L138.879 119.497L138.348 119.718L138.612 120.389L137.037 121.008L136.124 118.687L138.175 117.884L138.45 118.593L138.973 118.389L138.357 116.823ZM103.953 118.134L103.771 120.958L101.886 120.095L103.953 118.134ZM108.228 118.389L108.126 118.822L108.865 119.001L109.069 119.603L107.774 124.999L106.921 124.795L106.818 125.229L109.145 125.784L109.247 125.351L108.436 125.156L109.51 120.661L111.883 126.557L112.605 126.731L114.141 120.261L115.008 120.469L115.114 120.036L112.792 119.48L112.685 119.913L113.501 120.109L112.469 124.417L110.275 118.881L108.228 118.389ZM131.925 119.127L131.369 119.251L131.437 119.561C131.012 119.484 130.677 119.488 130.274 119.578C129.017 119.854 128.342 120.792 128.592 121.93C128.694 122.384 128.915 122.766 129.242 123.008C129.578 123.263 129.726 123.335 130.877 123.756C131.972 124.163 132.345 124.426 132.447 124.893C132.566 125.432 132.184 125.916 131.543 126.056C131.037 126.166 130.66 126.107 130.112 125.839L129.947 125.075L129.378 125.199L129.785 127.058L130.354 126.935L130.269 126.57C130.804 126.744 131.263 126.774 131.862 126.642C133.076 126.379 133.75 125.364 133.491 124.188C133.402 123.785 133.237 123.466 132.969 123.186C132.731 122.944 132.464 122.766 132.192 122.651C132.061 122.596 131.721 122.477 131.178 122.269C130.049 121.857 129.752 121.649 129.663 121.238C129.552 120.749 129.883 120.278 130.422 120.16C130.805 120.075 131.102 120.121 131.598 120.303L131.755 121.017L132.312 120.894L131.925 119.127ZM116.171 120.16L116.154 120.606L116.956 120.635L116.74 126.723L115.937 126.693L115.921 127.139L119.197 127.258H119.206C120.242 127.296 121.002 127.037 121.69 126.426C122.433 125.755 122.858 124.859 122.891 123.887C122.968 121.93 121.465 120.35 119.47 120.278L116.171 120.16ZM118.315 120.831L119.21 120.864C120.45 120.907 121.46 122.278 121.405 123.832C121.345 125.492 120.297 126.715 118.964 126.664L118.107 126.633L118.315 120.831Z" fill="#E1E7ED"/>
<path d="M121.591 43.0059C113.062 43.0059 105.196 45.859 98.9003 50.6648C99.1975 50.771 99.4983 50.881 99.7997 50.9999C100.161 51.14 100.509 51.2803 100.849 51.4204C106.694 47.2388 113.856 44.7717 121.591 44.7717C130.23 44.7717 138.156 47.8454 144.329 52.9569C145.025 52.7574 145.704 52.5794 146.396 52.4011C139.791 46.5555 131.105 43.0059 121.591 43.0059ZM89.8829 60.5301C86.2489 66.2994 84.1482 73.1305 84.1482 80.4494C84.1482 101.128 100.912 117.892 121.591 117.892C142.27 117.892 159.035 101.129 159.035 80.4494C159.035 73.4914 157.133 66.9704 153.826 61.3878C153.232 61.5916 152.638 61.7571 152.06 61.8802C155.363 67.2887 157.269 73.6485 157.269 80.4493C157.269 100.152 141.298 116.126 121.592 116.126C101.889 116.126 85.9147 100.152 85.9147 80.4493C85.9147 73.3513 87.9904 66.7325 91.5649 61.1754C90.996 61.0098 90.4398 60.793 89.8837 60.5298L89.8829 60.5301Z" fill="#E1E7ED"/>
<path d="M121.587 27.3877C92.2811 27.3877 68.5198 51.1443 68.5198 80.4545C68.5198 109.764 92.2807 133.521 121.587 133.521C150.896 133.521 174.653 109.765 174.653 80.4545C174.653 51.1452 150.897 27.3877 121.587 27.3877ZM121.587 130.233C94.0941 130.233 71.8078 107.946 71.8078 80.4545C71.8078 52.962 94.0954 30.68 121.587 30.68C149.075 30.68 171.361 52.9676 171.361 80.4545C171.365 107.947 149.077 130.233 121.587 130.233Z" fill="#E1E7ED"/>
<path d="M121.192 88.9298H111.135C111.284 89.2397 111.454 89.5284 111.649 89.8044C112.375 90.819 113.406 91.5747 114.714 91.9737C116.493 92.5213 117.622 92.8737 118.45 93.1369L119.435 93.4426C120.241 93.693 120.802 94.0539 121.197 94.453V88.9297L121.192 88.9298Z" fill="#E1E7ED"/>
<path d="M121.192 77.6621C117.694 77.6918 113.389 78.1757 110.005 78.9059C110.15 81.5422 110.298 84.1146 110.447 86.1654C110.528 87.2734 110.689 87.8129 110.952 88.5006L111.453 87.575L111.852 87.1934L112.226 87.5877L112.901 87.0614L113.292 86.5436L113.984 85.3718L114.985 84.8413L115.724 84.0604L116.208 83.287L117.121 83.0755L117.732 82.4003L118.76 83.3217L119.676 83.7202L120.08 84.7778L120.704 85.0875C120.87 85.4823 121.031 85.5542 121.192 85.6518L121.192 77.6621ZM121.969 77.6621V80.681C122.071 80.7404 122.168 80.7992 122.266 80.8587C122.716 81.1346 123.107 81.3773 123.726 81.3773C124.108 81.3773 124.491 81.1481 124.936 80.8807C125.535 80.5241 126.21 80.1158 127.114 80.1158C127.972 80.1158 128.541 80.4684 129.041 80.7741C129.491 81.05 129.878 81.2876 130.502 81.2876C131.096 81.2876 131.414 81.029 131.813 80.7064C132.144 80.4389 132.536 80.1205 133.092 79.9973C133.113 79.6365 133.134 79.271 133.155 78.9059C129.772 78.1799 125.467 77.6961 121.969 77.6621ZM127.118 85.7543C126.575 85.7543 126.108 86.0341 125.612 86.3313C125.081 86.6497 124.474 87.0107 123.731 87.0107C122.967 87.0192 122.415 86.7899 121.969 86.5394V89.4813C122.071 89.5407 122.168 89.6004 122.266 89.6598C122.716 89.94 123.107 90.1776 123.726 90.1776C124.109 90.1776 124.491 89.9484 124.936 89.6809C125.535 89.3243 126.21 88.9169 127.114 88.9169C127.972 88.9169 128.541 89.2687 129.042 89.5743C129.492 89.8503 129.878 90.0888 130.502 90.0888C130.982 90.0888 131.283 89.9187 131.598 89.6809C132.243 88.7257 132.616 87.5409 132.709 86.1612C132.714 86.1018 132.718 86.0429 132.722 85.9878C132.692 86.009 132.667 86.03 132.637 86.0554C132.158 86.4418 131.559 86.9295 130.506 86.9295C129.517 86.9295 128.876 86.5397 128.362 86.2213C127.942 85.9581 127.607 85.7543 127.118 85.7543Z" fill="#E1E7ED"/>
</g>
<defs>
<clipPath id="clip0_8449_6459">
<rect width="107" height="107" fill="white" transform="translate(68 27)"/>
</clipPath>
</defs>
</svg>
