<svg width="242" height="161" viewBox="0 0 242 161" fill="none" xmlns="http://www.w3.org/2000/svg">
<g clip-path="url(#clip0_8449_6571)">
<path d="M140.201 106L154.12 80.9736L140.255 56H143.721C145.641 56 147.934 57.3641 148.841 58.9905L161 80.9736L148.787 102.957C147.881 104.635 145.534 105.947 143.668 105.947H140.201V106Z" fill="#E1E7ED"/>
<path d="M85.6393 56C83.0795 56 81 58.0466 81 60.6174V101.383C81 103.901 83.0795 106 85.6393 106H136.73L150.649 80.9734L136.73 56H85.6393ZM88.786 69.8511H92.9462L103.185 86.3255H103.238V69.8511H106.971V92.2012H102.812L92.6264 75.7791H92.5191V92.2012H88.786V69.8511ZM110.865 69.8511H114.812V92.2012H114.758H110.865V69.8511ZM118.704 69.8511H122.651V78.718H132.891V69.8511H136.783V92.2012H132.837V82.1282H122.651V92.2012H118.704V69.8511Z" fill="#E1E7ED"/>
</g>
<defs>
<clipPath id="clip0_8449_6571">
<rect width="80" height="50" fill="white" transform="translate(81 56)"/>
</clipPath>
</defs>
</svg>
