<svg width="242" height="161" viewBox="0 0 242 161" fill="none" xmlns="http://www.w3.org/2000/svg">
<g clip-path="url(#clip0_8449_6573)">
<path d="M163 102H80V59H163V102ZM109.165 86.5293V91.5311H111.202V80.7133H100.673V82.807H104.554H108.435C108.397 82.9621 108.397 83.0009 108.358 83.0784C107.206 87.4986 103.478 90.0965 98.8671 89.67C92.1426 89.0108 88.569 81.6438 91.6046 75.9053C94.2176 70.9811 100.443 69.4301 105.169 72.4932C106.168 73.1524 107.052 74.0054 108.089 74.8584H109.972V69.3526H107.897V72.1055C107.782 71.9892 107.705 71.9504 107.667 71.9116C104.708 69.0811 101.211 68.1506 97.2917 69.0812C92.8727 70.128 88.1463 73.8503 88.3 80.4806C88.4153 85.5987 91.2972 89.9802 96.6769 91.5311C101.057 92.8106 104.862 91.725 107.974 88.2741C108.358 87.7313 108.666 87.1497 109.165 86.5293ZM132.298 80.3255C132.298 86.8007 137.485 91.9964 144.018 91.9964C150.473 91.9964 155.661 86.7619 155.661 80.248C155.661 73.8891 150.435 68.6934 144.056 68.6934C137.485 68.6934 132.298 73.8115 132.298 80.3255ZM116.351 71.33V91.4923H118.618V87.1497V82.7683H119.233C121 82.7295 122.73 82.807 124.497 82.6519C127.302 82.4193 129.108 80.752 129.992 78.1542C130.876 75.5176 130.3 73.1136 128.301 71.1749C126.88 69.7791 125.035 69.3526 123.075 69.3138C120.04 69.275 117.043 69.621 114.046 69.621C113.93 69.621 113.815 69.4305 113.661 69.4305L113.584 71.4076C114.506 71.33 115.39 71.33 116.351 71.33Z" fill="#E1E7ED"/>
<path d="M109.165 86.5296C108.704 87.1888 108.358 87.7704 107.936 88.2357C104.861 91.6865 101.019 92.7722 96.6383 91.4926C91.2971 89.9029 88.4152 85.5603 88.2615 80.4422C88.1078 73.8119 92.7958 70.0508 97.2532 69.0427C101.173 68.1121 104.669 69.0427 107.628 71.8732C107.667 71.9119 107.743 71.9895 107.859 72.067C107.859 71.0977 107.859 70.2447 107.859 69.3141C108.589 69.3141 109.242 69.3141 109.934 69.3141C109.934 71.1365 109.934 72.9588 109.934 74.82C109.242 74.82 108.589 74.82 108.051 74.82C107.013 73.9669 106.168 73.1139 105.13 72.4548C100.404 69.3917 94.1791 70.9814 91.5661 75.8669C88.5305 81.6054 92.1041 88.9724 98.8286 89.6315C103.44 90.0968 107.205 87.4602 108.32 83.04C108.32 82.9624 108.358 82.9237 108.397 82.7686C107.09 82.7686 105.822 82.7686 104.516 82.7686C103.248 82.7686 101.941 82.7686 100.635 82.7686C100.635 82.0319 100.635 81.3727 100.635 80.6748C104.17 80.6748 107.628 80.6748 111.163 80.6748C111.163 84.2807 111.163 87.8867 111.163 91.4926C110.472 91.4926 109.818 91.4926 109.127 91.4926C109.165 89.8642 109.165 88.2744 109.165 86.5296Z" fill="#FBFCFC"/>
<path d="M132.298 80.3255C132.298 73.8503 137.485 68.6934 144.018 68.6934C150.435 68.6934 155.661 73.889 155.622 80.2479C155.622 86.7619 150.435 91.9963 143.979 91.9963C137.485 91.9576 132.298 86.8007 132.298 80.3255ZM153.355 80.2867C153.355 75.2461 149.167 70.9422 144.21 70.9422C138.83 70.9422 134.565 75.0522 134.565 80.2479C134.565 85.5987 138.792 89.7862 144.287 89.7087C149.32 89.6311 153.355 85.3273 153.355 80.2867Z" fill="#FBFCFC"/>
<path d="M116.351 71.3545L113.546 71.4035L113.55 69.2274L113.969 69.2363C117.036 69.3011 120.043 69.177 123.037 69.2363C124.958 69.275 126.803 69.7015 128.263 71.0974C130.261 73.0748 130.799 75.4788 129.954 78.0767C129.07 80.6745 127.264 82.3418 124.459 82.5744C122.73 82.7295 120.962 82.652 119.195 82.6907H118.58V87.0721V91.4148H116.313C116.351 84.7845 116.351 78.1399 116.351 71.3545ZM118.657 80.752C120.655 80.6745 122.614 80.6357 124.574 80.4806C125.112 80.4418 125.688 80.0929 126.15 79.7827C127.725 78.6583 128.417 76.6808 127.879 74.8197C127.341 72.9197 125.688 71.5239 123.729 71.4076C122.115 71.33 120.463 71.3688 118.849 71.3688C118.81 71.3688 118.733 71.4076 118.657 71.4076V80.752Z" fill="#FBFCFC"/>
<path d="M153.355 80.2868C153.393 85.3274 149.32 89.6313 144.248 89.7088C138.753 89.7864 134.526 85.5988 134.526 80.2481C134.526 75.0524 138.792 70.9424 144.171 70.9424C149.167 70.9424 153.355 75.2463 153.355 80.2868Z" fill="#E1E7ED"/>
<path d="M118.656 80.7523C118.656 77.5341 118.656 74.471 118.656 71.4078C118.733 71.3691 118.81 71.3691 118.849 71.3691C120.463 71.3691 122.115 71.3303 123.729 71.4078C125.727 71.5242 127.379 72.92 127.879 74.8199C128.378 76.6811 127.725 78.6585 126.15 79.783C125.688 80.1319 125.112 80.4421 124.574 80.4809C122.614 80.636 120.655 80.6748 118.656 80.7523Z" fill="#E1E7ED"/>
</g>
<defs>
<clipPath id="clip0_8449_6573">
<rect width="83" height="43" fill="white" transform="translate(80 59)"/>
</clipPath>
</defs>
</svg>
