<svg width="242" height="161" viewBox="0 0 242 161" fill="none" xmlns="http://www.w3.org/2000/svg">
<path d="M163 39H79V123H163V39Z" fill="#E1E7ED"/>
<path d="M124.662 73.0707V72.7347C126.342 72.4827 126.426 72.2139 126.443 70.4331V60.8067C126.443 59.8491 126.46 59.5635 125.318 58.7235V58.5051L127.552 57.4971L127.804 57.5811V70.4163C127.804 72.2979 127.888 72.4659 129.585 72.7179V73.0539H124.662V73.0707Z" fill="#F2F2F2"/>
<path d="M111.038 65.712C111.038 63.948 110.366 63.5112 109.307 63.5112C106.955 63.5112 107.93 66.132 106.435 66.132C105.998 66.132 105.695 65.8968 105.695 65.4432C105.695 64.5024 107.997 62.8896 109.946 62.8896C111.659 62.8896 112.483 64.0992 112.483 66.3V71.8776C112.483 72.4656 113.171 72.2808 113.457 72.2808C113.843 72.2808 114.095 72.1296 114.347 71.8944L114.599 72.18C114.247 72.7344 113.373 73.1544 112.617 73.1544C111.827 73.1544 111.088 72.6 111.038 71.6424C109.845 72.7344 108.669 73.1544 107.695 73.1544C106.25 73.1544 105.746 72.2808 105.746 71.172C105.746 69.408 106.687 68.904 109.677 68.1312L111.055 67.7784V65.712H111.038ZM111.038 68.1816L110.013 68.4336C108.098 68.9208 107.107 69.492 107.107 70.5672C107.107 71.508 107.644 72.2808 108.787 72.2808C109.593 72.2808 110.349 71.7768 111.038 71.2392V68.1816Z" fill="#F2F2F2"/>
<path d="M99.1097 64.8717C101.193 65.3421 103.293 66.4173 103.293 69.1053C103.293 73.3221 98.3369 73.1205 97.2113 73.1037L91.9529 73.0533V72.7173C94.6913 72.3477 94.3217 71.6589 94.3889 69.3237V61.4109C94.3217 59.0589 94.6745 58.3869 92.0873 58.0341V57.6981L95.7161 57.5133C98.2697 57.4293 102.285 57.7821 102.285 61.3773C102.285 63.6117 100.941 64.3677 99.1265 64.8213V64.8717H99.1097ZM95.7497 69.1221C95.7497 70.9029 95.6321 72.5829 97.9505 72.5829C99.9329 72.5829 101.714 71.2725 101.714 69.2733C101.714 67.8789 100.034 65.1237 96.6233 65.2917L95.7329 65.3421V69.1221H95.7497ZM95.7497 64.8549C97.8665 64.8213 100.874 64.2669 100.874 61.6125C100.874 58.8741 98.0681 58.0341 95.7497 58.0341V64.8549Z" fill="#F2F2F2"/>
<path d="M115.876 64.7712C115.456 63.7464 115.372 63.5112 114.23 63.3264V62.9736H118.463V63.3264C116.733 63.4104 117.187 64.4688 117.64 65.628L119.875 71.424L121.286 67.3248C122.311 64.368 122.495 63.5616 120.799 63.3264V62.9736H124.797V63.3264C123.789 63.444 123.47 63.8472 123.05 64.7208L122.092 66.9384L119.152 74.1624C118.312 76.2792 117.724 76.9848 116.8 76.9848C116.179 76.9848 115.675 76.4808 115.675 75.8424C115.675 75.3552 115.943 74.9184 116.414 74.7672C116.632 74.9016 117.338 75.4056 117.623 75.4056C118.127 75.4056 118.531 74.1792 118.699 73.8264L118.883 73.2888L115.876 64.7712Z" fill="#F2F2F2"/>
<path d="M135.717 73.2895C132.592 73.2895 130.694 71.3071 130.694 68.0647C130.694 64.9231 132.676 62.7559 135.734 62.7559C138.825 62.7559 140.958 64.7719 140.958 67.9807C140.975 71.0887 138.741 73.2895 135.717 73.2895ZM135.7 63.2599C133.23 63.2599 132.239 65.8135 132.239 67.9135C132.239 70.0303 133.432 72.7855 135.885 72.7855C138.186 72.7855 139.211 70.1647 139.211 68.1991C139.211 66.1159 138.186 63.2599 135.7 63.2599Z" fill="#F2F2F2"/>
<path d="M145.646 70.4159C145.662 71.8103 145.461 72.5159 147.258 72.7175V73.0535H142.554V72.7175C144.117 72.4655 144.201 72.1967 144.218 70.4159V66.0647C144.218 65.1071 144.234 64.8047 143.092 63.9983V63.7631L145.461 62.7551L145.713 62.8391L145.612 65.5271H145.662C146.166 64.3175 147.443 62.7383 148.888 62.7383C149.526 62.7383 150.047 63.1415 150.047 63.7967C150.047 64.4015 149.392 64.9895 148.854 65.2247C148.468 64.9391 147.897 64.4351 147.393 64.4687C145.461 64.6535 145.612 67.7615 145.612 68.0975V70.4159H145.646Z" fill="#F2F2F2"/>
<path d="M101.159 81.9242H100.958C100.706 80.4458 99.8488 79.3874 98.2696 79.3874C95.8672 79.3874 94.5232 81.353 94.5232 83.6042C94.5232 86.1914 96.5056 87.989 98.404 87.989C100.118 87.989 100.806 86.729 101.394 85.3178L101.579 85.4018C101.428 86.2082 101.176 86.981 100.857 87.737C100.017 88.1402 99.1096 88.3082 98.1856 88.3082C95.4472 88.3082 93.0112 86.729 93.0112 83.7722C93.0112 81.437 94.8256 79.085 98.3032 79.085C99.2944 79.085 100.302 79.2866 101.176 79.7906V81.9242H101.159Z" fill="#F2F2F2"/>
<path d="M105.796 88.2748C103.998 88.2748 102.57 87.1324 102.57 85.2676C102.57 83.4532 104.049 82.21 105.813 82.21C107.594 82.21 109.022 83.3692 109.022 85.2172C109.022 86.998 107.526 88.2748 105.796 88.2748ZM105.779 82.5124C104.368 82.5124 103.797 83.974 103.797 85.1836C103.797 86.41 104.469 87.9892 105.897 87.9892C107.224 87.9892 107.812 86.4772 107.812 85.3516C107.812 84.142 107.207 82.5124 105.779 82.5124Z" fill="#F2F2F2"/>
<path d="M109.458 88.1398V87.9382C110.433 87.787 110.466 87.6358 110.483 86.611V80.8486C110.483 80.2942 110.5 80.1262 109.845 79.6558V79.5214L111.357 78.9502L111.491 79.0006V86.611C111.491 87.6862 111.542 87.787 112.516 87.9382V88.1398H109.458Z" fill="#F2F2F2"/>
<path d="M113.003 88.1398V87.9382C113.978 87.787 114.011 87.6358 114.028 86.611V80.8486C114.028 80.2942 114.045 80.1262 113.39 79.6558V79.5214L114.902 78.9502L115.053 79.0006V86.611C115.053 87.6862 115.103 87.787 116.078 87.9382V88.1398H113.003Z" fill="#F2F2F2"/>
<path d="M117.455 84.797C117.354 86.1578 118.278 87.4346 119.757 87.4346C120.429 87.4346 120.916 87.1322 121.302 86.6114L121.504 86.7626C121 87.6194 120.11 88.2746 119.085 88.2746C117.455 88.2746 116.33 86.9474 116.33 85.3682C116.33 83.6714 117.506 82.2266 119.27 82.2266C120.446 82.2266 121.235 82.9826 121.286 84.1586H117.472L117.455 84.797ZM120.076 83.789C119.958 83.1842 119.589 82.5122 118.9 82.5122C118.161 82.5122 117.707 83.2514 117.556 83.9066L120.076 83.789Z" fill="#F2F2F2"/>
<path d="M126.41 87.1492C127.821 87.0988 128.594 87.6868 128.594 88.5604C128.594 89.8372 126.846 91.3156 124.511 91.3156C122.949 91.3156 122.31 90.526 122.31 89.9716C122.31 88.9804 123.318 88.5268 124.074 88.1404C123.57 88.0732 122.73 87.7372 122.73 87.1492C122.73 86.746 123.419 86.2252 123.722 85.99C123.1 85.6372 122.646 85.0492 122.646 84.31C122.646 82.966 123.873 82.21 125.116 82.21C125.754 82.21 126.258 82.3612 126.83 82.63H128.711V83.1844L127.115 83.1508C127.3 83.4868 127.384 83.7724 127.384 84.1756C127.384 85.5196 126.174 86.2756 124.948 86.2756C124.612 86.2756 124.276 86.2252 123.974 86.1076C123.537 86.5108 123.554 87.2836 124.763 87.2164L126.41 87.1492ZM124.494 88.1404C124.024 88.342 123.268 88.8796 123.268 89.4508C123.268 90.4084 124.662 90.6772 125.402 90.6772C126.342 90.6772 127.821 90.274 127.821 89.098C127.821 87.8716 126.124 88.0564 125.788 88.0564L124.494 88.1404ZM126.258 84.3604C126.258 83.5036 125.872 82.5124 124.898 82.5124C124.041 82.5124 123.772 83.386 123.772 84.0916C123.772 85.3852 124.562 85.9732 125.15 85.9732C126.023 85.9732 126.258 85.0828 126.258 84.3604Z" fill="#F2F2F2"/>
<path d="M130.576 84.797C130.475 86.1578 131.399 87.4346 132.878 87.4346C133.566 87.4346 134.037 87.1322 134.423 86.6114L134.625 86.7626C134.121 87.6194 133.23 88.2746 132.206 88.2746C130.576 88.2746 129.45 86.9474 129.45 85.3682C129.45 83.6714 130.626 82.2266 132.407 82.2266C133.583 82.2266 134.373 82.9826 134.423 84.1586H130.626L130.576 84.797ZM133.18 83.789C133.062 83.1842 132.693 82.5122 132.004 82.5122C131.265 82.5122 130.811 83.2514 130.66 83.9066L133.18 83.789Z" fill="#F2F2F2"/>
<path d="M140.69 88.2748C138.892 88.2748 137.464 87.1324 137.464 85.2676C137.464 83.4532 138.943 82.21 140.707 82.21C142.487 82.21 143.915 83.3692 143.915 85.2172C143.915 86.998 142.42 88.2748 140.69 88.2748ZM140.673 82.5124C139.262 82.5124 138.691 83.974 138.691 85.1836C138.691 86.41 139.363 87.9892 140.791 87.9892C142.118 87.9892 142.706 86.4772 142.706 85.3516C142.689 84.142 142.101 82.5124 140.673 82.5124Z" fill="#F2F2F2"/>
<path d="M144.352 82.8988L145.41 82.294C145.427 81.5212 145.511 80.8156 145.931 80.1436C146.435 79.354 147.242 78.7324 148.199 78.7324C148.703 78.7324 149.711 78.9508 149.711 79.6228C149.711 80.0428 149.342 80.194 148.989 80.1772C148.67 79.7236 148.132 79.1356 147.544 79.1356C146.486 79.1356 146.402 80.95 146.402 81.6892V82.4788H148.115V83.0332H146.402V86.6284C146.402 87.7036 146.452 87.8044 147.662 87.9556V88.1572H144.352V87.9556C145.343 87.8044 145.377 87.6532 145.394 86.6284V83.0332H144.352V82.8988Z" fill="#F2F2F2"/>
<path d="M106.938 100.37C106.821 101.949 107.896 103.411 109.61 103.411C110.399 103.411 110.937 103.058 111.39 102.47L111.626 102.638C111.054 103.612 110.013 104.402 108.837 104.402C106.955 104.402 105.662 102.856 105.662 101.025C105.662 99.0765 107.022 97.3965 109.072 97.3965C110.433 97.3965 111.34 98.2533 111.407 99.6309H106.989L106.938 100.37ZM109.946 99.1941C109.811 98.4885 109.391 97.7157 108.585 97.7157C107.728 97.7157 107.207 98.5557 107.039 99.3117L109.946 99.1941Z" fill="#F2F2F2"/>
<path d="M123.251 95.2132C123.251 95.6332 122.899 95.986 122.479 95.986C122.059 95.986 121.706 95.6332 121.706 95.2132C121.706 94.7932 122.059 94.4404 122.479 94.4404C122.899 94.4404 123.251 94.7932 123.251 95.2132Z" fill="#F2F2F2"/>
<path d="M134.322 95.2132C134.322 95.6332 133.97 95.986 133.55 95.986C133.13 95.986 132.777 95.6332 132.777 95.2132C132.777 94.7932 133.13 94.4404 133.55 94.4404C133.97 94.4404 134.322 94.7932 134.322 95.2132Z" fill="#F2F2F2"/>
<path d="M117.875 104.504V103.059C117.187 103.731 116.397 104.386 115.372 104.386C113.743 104.386 112.516 102.773 112.516 101.228C112.516 98.9259 114.381 97.3803 116.599 97.3803C117.035 97.3803 117.455 97.4307 117.859 97.5315V95.5491C117.859 94.9107 117.875 95.2299 117.119 94.6923V94.5411L118.867 93.8691L119.035 93.9363V102.303C119.035 103.697 119.035 103.882 120.311 103.697L120.379 103.949L117.875 104.504ZM117.875 99.9843C117.875 98.2203 116.548 97.8507 115.826 97.8507C114.415 97.8507 113.81 99.2955 113.81 100.505C113.81 102.689 115.12 103.63 116.229 103.63C116.834 103.63 117.539 103.092 117.859 102.588V99.9843H117.875Z" fill="#F2F2F2"/>
<path d="M120.815 104.234V104.016C121.941 103.848 121.991 103.663 121.991 102.487V99.5807C121.991 98.9423 122.008 98.7407 121.067 98.2031V98.0519L122.999 97.3799L123.167 97.4471V102.47C123.167 103.713 123.235 103.831 124.343 103.999V104.217H120.815V104.234Z" fill="#F2F2F2"/>
<path d="M130.895 103.125C130.207 103.898 129.266 104.385 128.224 104.385C126.376 104.385 125.116 102.84 125.116 101.059C125.116 98.9423 126.964 97.3799 129.014 97.3799C129.501 97.3799 130.66 97.4471 130.66 98.1359C130.66 98.4719 130.291 98.8415 129.955 98.8415C129.417 98.8415 128.879 97.8671 128.123 97.8671C126.914 97.8671 126.343 99.2783 126.343 100.303C126.343 102.269 127.67 103.495 129.182 103.495C129.803 103.495 130.24 103.277 130.744 102.907L130.895 103.125Z" fill="#F2F2F2"/>
<path d="M131.685 104.234V104.016C132.81 103.848 132.861 103.663 132.861 102.487V99.5807C132.861 98.9423 132.878 98.7407 131.937 98.2031V98.0519L133.852 97.3799L134.02 97.4471V102.47C134.02 103.713 134.07 103.831 135.196 103.999V104.217H131.685V104.234Z" fill="#F2F2F2"/>
<path d="M136.876 99.5807C136.876 98.9423 136.893 98.7407 136.137 98.2031V98.0519L137.935 97.3799L138.103 97.4471L137.985 98.5559C138.842 97.9175 139.682 97.3799 140.656 97.3799C142.487 97.3799 142.571 98.8919 142.571 99.7655V102.47C142.571 103.713 142.639 103.831 143.747 103.999V104.217H140.219V103.999C141.345 103.831 141.395 103.646 141.412 102.47V100.723C141.412 99.6647 141.463 98.1695 139.615 98.1695C138.993 98.1695 138.573 98.3711 138.069 98.8247V102.47C138.069 103.713 138.119 103.831 139.245 103.999V104.217H135.717V103.999C136.843 103.831 136.876 103.646 136.893 102.47V99.5807H136.876Z" fill="#F2F2F2"/>
<path d="M145.377 100.37C145.259 101.949 146.334 103.411 148.048 103.411C148.838 103.411 149.375 103.058 149.829 102.47L150.047 102.638C149.476 103.612 148.451 104.402 147.258 104.402C145.377 104.402 144.083 102.856 144.083 101.025C144.083 99.0765 145.444 97.3965 147.494 97.3965C148.854 97.3965 149.762 98.2533 149.829 99.6309H145.444L145.377 100.37ZM148.401 99.1941C148.266 98.4885 147.83 97.7157 147.04 97.7157C146.183 97.7157 145.662 98.5557 145.494 99.3117L148.401 99.1941Z" fill="#F2F2F2"/>
<path d="M101.109 103.899C102.285 103.832 102.554 103.63 102.537 102.958C102.47 100.522 102.47 98.0189 102.369 95.6333H102.352C101.042 98.4389 99.58 101.362 98.5048 104.067H98.2696C97.984 103.429 97.5472 102.185 97.0264 101.144C96.4888 100.069 95.4136 97.6829 94.456 95.4485H94.4224C94.4056 98.0861 94.288 100.589 94.288 102.068C94.288 103.378 94.5736 103.916 95.7664 103.916V104.235H92.3896V103.916C93.3136 103.748 93.6664 103.529 93.7504 102.202C93.9184 100.119 93.9856 96.9605 93.9856 96.1037C93.9856 94.4405 93.7672 94.3229 92.524 94.2557V93.9365H95.212L98.1016 100.505C98.3368 101.026 98.572 101.463 98.7904 102.085L102.705 93.9365H105.208V94.2557C103.931 94.3397 103.646 94.6421 103.646 95.9021C103.646 96.5405 103.763 100.102 103.814 103.042C103.83 103.697 104.2 103.832 105.208 103.899V104.218H101.109V103.899Z" fill="#F2F2F2"/>
</svg>
