<svg width="242" height="161" viewBox="0 0 242 161" fill="none" xmlns="http://www.w3.org/2000/svg">
<path d="M181.309 70.7135V70.6737C181.288 70.3752 181.288 70.017 181.288 69.6191V69.5395L181.207 69.5594C181.105 69.5793 180.597 69.5793 180.109 69.5793H178.604C178.299 69.5793 178.015 69.5793 177.649 69.5594H177.628H177.608C177.547 69.5992 177.527 69.6788 177.527 69.7186C177.527 69.7982 177.547 69.8379 177.588 69.8777L177.75 69.8976C178.157 69.9374 178.177 69.9971 178.177 70.8528V73.738C178.177 74.5937 178.157 74.6335 177.75 74.6733L177.527 74.6932L177.506 74.7131C177.466 74.7529 177.445 74.8325 177.466 74.8922C177.486 74.9518 177.506 74.9916 177.547 75.0115H177.567H177.588C177.974 74.9916 178.238 74.9916 178.604 74.9916C178.93 74.9916 179.214 74.9916 179.682 75.0115H179.702H179.723C179.784 74.9916 179.804 74.912 179.804 74.8524C179.804 74.7927 179.784 74.733 179.743 74.6932L179.438 74.6534C179.011 74.6136 178.991 74.5738 178.991 73.7181V72.6038C178.991 72.4446 178.991 72.4446 179.194 72.4446H179.743C180.028 72.4446 180.251 72.4446 180.353 72.4844C180.475 72.5242 180.536 72.6038 180.577 72.7431L180.658 73.0814L180.678 73.1013C180.76 73.161 180.943 73.161 180.983 73.0814L181.004 73.0615V73.0416C181.004 72.962 181.004 72.8426 180.983 72.7232C180.983 72.5839 180.963 72.4048 180.963 72.2457C180.963 72.0865 180.963 71.9074 180.983 71.7681C180.983 71.6487 181.004 71.5293 181.004 71.4497V71.4298L180.983 71.4099C180.943 71.3502 180.861 71.3502 180.821 71.3502C180.76 71.3502 180.699 71.3701 180.658 71.4099L180.577 71.7482C180.536 71.9472 180.475 71.9671 180.414 71.987C180.333 72.0069 180.068 72.0268 179.743 72.0268H179.194C178.991 72.0268 178.991 72.0268 178.991 71.8676V70.1762C178.991 69.9175 178.991 69.9175 179.174 69.9175H179.682C180.028 69.9175 180.292 69.9175 180.455 69.9573C180.8 70.0568 180.902 70.2757 180.983 70.6737V70.6936L181.004 70.7135C181.044 70.7334 181.085 70.7533 181.126 70.7533C181.207 70.7931 181.288 70.7732 181.309 70.7135ZM175.819 72.2656C175.819 70.9125 174.904 69.4599 172.911 69.4599C171.203 69.4599 169.922 70.6936 169.922 72.3451C169.922 73.7181 170.939 75.1309 172.911 75.1309C174.558 75.1309 175.819 73.8972 175.819 72.2656ZM174.863 72.5242C174.863 74.1758 173.867 74.7728 173.013 74.7728C171.325 74.7728 170.878 73.1013 170.878 72.1064C170.878 70.4349 171.894 69.838 172.769 69.838C174.314 69.838 174.863 71.2706 174.863 72.5242ZM168.173 86.1945C168.173 89.6568 170.817 92.7212 175.168 92.7212C178.97 92.7212 182 89.8956 182 86.0154C182 82.6326 179.723 79.4091 175.168 79.4091C171.122 79.3892 168.173 82.3342 168.173 86.1945ZM170.146 85.5776C170.146 81.3591 172.809 80.006 174.843 80.006C178.604 80.006 180.028 83.4286 180.028 86.6123C180.028 90.4129 177.791 92.1441 175.432 92.1441C171.549 92.1043 170.146 88.4231 170.146 85.5776ZM165.794 69.8777C165.835 69.8379 165.855 69.7783 165.855 69.7186C165.855 69.6589 165.815 69.5992 165.774 69.5793L165.754 69.5594H165.733C165.144 69.5992 164.798 69.5992 164.188 69.5594H164.168H164.147C164.107 69.5793 164.066 69.6191 164.066 69.6788C164.046 69.7385 164.086 69.818 164.127 69.8578L164.147 69.8777L164.31 69.8976C164.473 69.9175 164.574 69.9573 164.595 69.9772C164.574 70.0966 164.29 70.614 164.107 70.9324L164.066 70.9921C163.863 71.3701 163.639 71.7681 163.354 72.2457C163.131 71.8676 162.927 71.4497 162.724 71.0319C162.643 70.8727 162.561 70.7135 162.48 70.5543C162.419 70.4349 162.236 70.0369 162.236 69.9573C162.236 69.9374 162.277 69.9175 162.521 69.8777L162.643 69.8578L162.663 69.838C162.704 69.7982 162.724 69.7186 162.704 69.639C162.683 69.5793 162.663 69.5395 162.602 69.5196H162.582H162.561C162.358 69.5395 162.073 69.5395 161.687 69.5395C161.301 69.5395 161.016 69.5395 160.752 69.5196H160.731H160.711C160.67 69.5395 160.65 69.5793 160.63 69.639C160.609 69.6987 160.63 69.7783 160.67 69.8181L160.691 69.838L160.935 69.8777C161.158 69.9175 161.26 69.9374 161.545 70.4548L162.521 72.3054C162.744 72.7431 162.785 72.8227 162.785 73.2804V73.6982C162.785 74.5738 162.765 74.6136 162.358 74.6534L162.073 74.6733L162.053 74.6932C162.012 74.733 161.992 74.8126 162.012 74.8723C162.033 74.9319 162.053 74.9717 162.094 74.9916H162.114H162.134C162.582 74.9717 162.866 74.9717 163.212 74.9717C163.537 74.9717 163.842 74.9717 164.33 74.9916H164.351H164.371C164.412 74.9717 164.432 74.9319 164.452 74.8723C164.452 74.8126 164.452 74.7529 164.412 74.6932L164.391 74.6733L164.066 74.6534C163.68 74.6335 163.639 74.5738 163.639 73.6982V73.2804C163.639 72.6834 163.659 72.6237 164.005 72.0069L164.513 71.1313C164.554 71.0518 164.615 70.9722 164.656 70.9125C164.981 70.3553 165.205 69.9573 165.55 69.8976L165.794 69.8777ZM162.927 79.6877C162.602 79.6081 161.545 79.4091 160.426 79.4091C157.458 79.4091 155.506 80.3045 154.184 81.6576C152.964 82.9311 152.415 84.5827 152.415 86.2144C152.415 87.9057 153.045 89.4379 154.225 90.592C155.729 92.0844 157.885 92.7212 160.223 92.7212C161.28 92.7212 162.704 92.4824 163.741 92.2237C164.107 92.1242 164.473 92.0446 164.696 92.0446C164.778 91.9849 164.778 91.8655 164.717 91.8058C164.371 91.6665 164.249 91.2089 164.249 90.4328V89.3583C164.249 88.3833 164.269 87.846 165.103 87.7465L165.408 87.7067C165.55 87.5874 165.53 87.3088 165.388 87.2292C164.737 87.269 164.066 87.2889 163.293 87.2889C162.134 87.2889 161.057 87.269 160.487 87.2292C160.345 87.2889 160.325 87.6271 160.487 87.7067L161.362 87.8062C162.582 87.9455 162.643 88.0649 162.643 89.6767V90.4527C162.643 91.0696 162.541 91.4079 162.439 91.5471C162.216 91.8655 161.504 92.1242 160.284 92.1242C156.339 92.1242 154.387 89.219 154.387 85.5179C154.387 82.6326 156.055 79.9663 159.877 79.9663C161.89 79.9663 163.354 80.6229 163.903 82.6923C164.025 82.8117 164.371 82.7918 164.432 82.6326C164.249 81.4785 164.147 80.4836 164.147 79.8469C163.903 79.8867 163.293 79.7673 162.927 79.6877ZM159.572 69.4599V69.44L159.552 69.4201C159.511 69.3604 159.43 69.3604 159.41 69.3604C159.389 69.3604 159.369 69.3604 159.328 69.3803H159.308L159.288 69.4002C159.186 69.5793 159.145 69.5992 158.698 69.5992H155.302C154.936 69.5992 154.774 69.5793 154.733 69.4002V69.3803L154.713 69.3604C154.692 69.3405 154.652 69.3206 154.591 69.3206C154.57 69.3206 154.509 69.3206 154.469 69.3405L154.448 69.3604V69.3803C154.387 69.6987 154.265 70.216 154.143 70.5742V70.5941L154.164 70.614C154.204 70.7135 154.387 70.7533 154.469 70.6936H154.489V70.6737C154.57 70.4946 154.652 70.3155 154.835 70.1364C155.018 69.9772 155.424 69.9573 155.79 69.9573H156.238C156.421 69.9573 156.421 69.9573 156.421 70.1563V73.738C156.421 74.6136 156.36 74.6534 155.973 74.6733L155.668 74.6932H155.648C155.607 74.7131 155.567 74.7728 155.567 74.8524C155.567 74.912 155.587 74.9717 155.648 74.9916H155.668H155.689C156.197 74.9717 156.502 74.9717 156.827 74.9717C157.153 74.9717 157.417 74.9717 157.905 74.9916H157.925H157.946C158.007 74.9518 158.027 74.8722 158.027 74.8325C158.027 74.7728 158.007 74.7131 157.966 74.6733L157.681 74.6335C157.275 74.5937 157.254 74.5539 157.254 73.6982V70.0966C157.254 70.017 157.254 69.9374 157.275 69.9175C157.295 69.8976 157.376 69.8976 157.437 69.8976H158.027C158.474 69.8976 158.759 69.9573 158.942 70.0966C159.023 70.1563 159.084 70.3553 159.125 70.6339V70.6538L159.145 70.6737C159.166 70.7135 159.227 70.7334 159.288 70.7334C159.369 70.7334 159.43 70.6936 159.45 70.6538V70.6339V70.614C159.43 70.4349 159.491 69.7782 159.572 69.4599ZM152.11 73.7181V70.8727C152.11 69.9971 152.13 69.9374 152.557 69.9175L152.781 69.8976H152.801C152.842 69.8777 152.862 69.8181 152.862 69.7385C152.862 69.7186 152.842 69.6191 152.781 69.5793H152.761H152.74C152.354 69.5992 152.069 69.5992 151.724 69.5992C151.378 69.5992 151.093 69.5992 150.687 69.5793H150.666H150.646C150.585 69.6191 150.565 69.6987 150.565 69.7385C150.565 69.7982 150.585 69.8578 150.626 69.8976H150.646L150.87 69.9175C151.297 69.9573 151.317 69.9971 151.317 70.8727V73.7181C151.317 74.5738 151.297 74.6335 150.87 74.6733L150.646 74.6932L150.626 74.7131C150.585 74.7529 150.565 74.8325 150.585 74.8922C150.585 74.9518 150.626 74.9916 150.666 75.0115H150.687H150.707C151.114 74.9916 151.398 74.9916 151.744 74.9916C152.069 74.9916 152.334 74.9916 152.761 75.0115H152.781H152.801C152.862 74.9717 152.883 74.8921 152.883 74.8524C152.883 74.7728 152.862 74.733 152.822 74.6932L152.598 74.6534C152.13 74.6335 152.11 74.5937 152.11 73.7181ZM150.748 91.9252C149.894 91.8257 149.65 91.5471 149.08 89.8757L146.376 82.1352C146.071 81.2795 145.766 80.404 145.502 79.5484C145.461 79.4091 145.319 79.3693 145.217 79.3693C144.993 79.628 144.668 79.9662 144.2 80.1055C144.261 80.404 144.139 80.7821 143.875 81.4785L141.862 86.672C141.028 88.8211 140.479 90.0747 140.134 90.9701C139.849 91.6665 139.422 91.8655 138.954 91.9053L138.304 91.965C138.182 92.0645 138.222 92.363 138.344 92.4426C138.873 92.4227 139.585 92.3829 140.235 92.3829C141.15 92.4028 141.76 92.4028 142.289 92.4426C142.472 92.363 142.472 92.0645 142.33 91.965L141.679 91.9053C141.211 91.8655 141.11 91.7461 141.11 91.5272C141.11 91.3084 141.252 90.791 141.537 89.9354L142.228 87.9057C142.37 87.5078 142.492 87.4481 142.98 87.4481H145.949C146.539 87.4481 146.62 87.5078 146.762 87.9256L147.637 90.5323C147.799 90.99 147.901 91.3482 147.901 91.5471C147.901 91.7461 147.616 91.8456 147.21 91.8854L146.64 91.9451C146.498 92.0446 146.518 92.3431 146.681 92.4227C147.25 92.4028 148.003 92.363 148.938 92.363C149.833 92.363 150.504 92.3829 151.317 92.4227C151.419 92.3431 151.459 92.0446 151.317 91.9451L150.748 91.9252ZM145.685 86.6919H143.265C142.716 86.6919 142.696 86.672 142.858 86.2343L144.099 82.8913C144.322 82.3143 144.505 81.8566 144.566 81.7571H144.607C144.729 81.9959 144.892 82.5133 145.054 82.9709L146.112 86.1149C146.295 86.6123 146.254 86.6919 145.685 86.6919ZM146.478 70.6538C146.478 70.3354 146.6 69.8181 147.393 69.8181C148.125 69.8181 148.328 70.2757 148.45 70.6737L148.47 70.6936C148.491 70.7334 148.531 70.7334 148.592 70.7334C148.653 70.7334 148.735 70.7135 148.775 70.6538L148.796 70.6339V70.614C148.796 70.2956 148.735 69.8379 148.653 69.6191L148.633 69.5793H148.592C148.531 69.5793 148.43 69.5594 148.328 69.5395C148.125 69.4798 147.82 69.44 147.555 69.44C146.518 69.44 145.827 70.017 145.827 70.8727C145.827 71.6089 146.396 72.0865 146.742 72.3054L147.515 72.8028C148.084 73.161 148.165 73.5192 148.165 73.8773C148.165 74.3151 147.86 74.733 147.21 74.733C146.376 74.733 146.01 74.1161 145.868 73.5789V73.559C145.847 73.5192 145.807 73.4993 145.746 73.4993C145.685 73.4993 145.603 73.5192 145.563 73.5789L145.542 73.5988V73.6187C145.563 73.9768 145.664 74.5738 145.766 74.7728V74.7927H145.786C145.949 74.8922 146.396 75.0911 147.088 75.0911C148.165 75.0911 148.897 74.4743 148.897 73.5391C148.897 72.9023 148.552 72.3849 147.84 71.9472L147.189 71.5492C146.905 71.4497 146.478 71.1114 146.478 70.6538ZM144.424 75.0314C144.465 75.0115 144.485 74.9518 144.465 74.9121C144.465 74.8723 144.424 74.8325 144.383 74.8126H144.363C144.16 74.7927 143.977 74.7131 143.834 74.5937C143.265 74.136 142.818 73.4595 142.208 72.4844C142.167 72.4247 142.167 72.3849 142.167 72.365C142.431 72.2457 143.204 71.8676 143.204 70.9722C143.204 70.2956 142.818 69.9573 142.492 69.7982C142.086 69.5793 141.557 69.5594 141.089 69.5594C140.337 69.5594 139.747 69.5793 139.259 69.6191H139.239C139.198 69.639 139.158 69.6987 139.158 69.7584C139.158 69.818 139.178 69.8976 139.219 69.9175H139.239L139.524 69.9573C139.788 69.9971 139.829 70.0369 139.829 70.8329V73.7181C139.829 74.5738 139.808 74.6136 139.402 74.6534L139.178 74.6733L139.158 74.6932C139.117 74.7529 139.097 74.8325 139.117 74.8723C139.137 74.9319 139.158 74.9717 139.198 74.9916H139.219H139.239C139.605 74.9717 139.91 74.9717 140.256 74.9717C140.601 74.9717 140.886 74.9717 141.232 74.9916H141.252H141.272C141.333 74.9518 141.354 74.8921 141.354 74.8524C141.354 74.7728 141.333 74.7131 141.293 74.6932L141.272 74.6733L141.089 74.6534C140.662 74.5937 140.642 74.5539 140.642 73.7181V72.7033C140.642 72.5839 140.642 72.5839 140.967 72.5839C141.272 72.5839 141.394 72.6635 141.496 72.8227C141.618 73.0018 141.76 73.2207 141.903 73.4396C142.045 73.6584 142.187 73.8773 142.289 74.0365C142.858 74.8126 143.285 75.0712 144.038 75.0712C144.18 75.0911 144.322 75.0712 144.424 75.0314ZM141.943 72.0467C141.72 72.2258 141.394 72.2457 141.13 72.2457C140.764 72.2457 140.642 72.2258 140.601 72.2258C140.601 72.186 140.601 72.1064 140.601 72.0069V70.1364C140.601 69.9573 140.601 69.9374 141.069 69.9374C141.984 69.9374 142.309 70.5742 142.309 71.1114C142.33 71.5492 142.208 71.8477 141.943 72.0467ZM137.714 73.8574V73.8176C137.673 73.738 137.592 73.6982 137.531 73.6982C137.49 73.6982 137.45 73.7181 137.429 73.738L137.409 73.7579C137.165 74.2156 136.962 74.4544 136.86 74.5141C136.677 74.5937 136.433 74.6335 135.843 74.6335C135.152 74.6335 134.989 74.5539 134.888 74.4743C134.766 74.3549 134.745 74.0962 134.745 73.6783V72.5441C134.745 72.3849 134.745 72.3849 134.949 72.3849H135.416C135.701 72.3849 135.925 72.3849 136.026 72.4247C136.148 72.4446 136.209 72.5242 136.23 72.6834L136.311 73.0018L136.331 73.0217C136.372 73.0615 136.413 73.0814 136.494 73.0814C136.575 73.0814 136.636 73.0615 136.657 73.0018V72.9819C136.657 72.9023 136.657 72.8028 136.636 72.6834C136.636 72.5441 136.616 72.3651 136.616 72.2059C136.616 72.0467 136.636 71.8676 136.636 71.7084C136.636 71.589 136.657 71.4696 136.657 71.39V71.3701V71.3502C136.636 71.3104 136.575 71.2706 136.494 71.2706C136.433 71.2706 136.372 71.2905 136.331 71.3303L136.25 71.6885C136.209 71.8676 136.169 71.9074 136.087 71.9273C136.006 71.9472 135.762 71.9671 135.416 71.9671H134.949C134.745 71.9671 134.745 71.9671 134.745 71.8079V70.1961C134.745 69.9374 134.745 69.9374 134.928 69.9374H135.518C135.864 69.9374 136.128 69.9374 136.291 69.9772C136.657 70.0767 136.738 70.2956 136.86 70.6538L136.88 70.6936L136.901 70.7135C136.921 70.7533 136.982 70.7732 137.023 70.7732C137.084 70.7732 137.165 70.7533 137.206 70.6936L137.226 70.6737L137.206 70.5543C137.165 70.0966 137.124 69.6987 137.084 69.5594L137.063 69.4997L137.002 69.5196C136.901 69.5395 136.413 69.5395 135.904 69.5395H134.359C134.034 69.5395 133.769 69.5395 133.403 69.5196H133.383H133.363C133.302 69.5594 133.281 69.639 133.281 69.6788C133.281 69.7385 133.302 69.7982 133.342 69.838L133.505 69.8578C133.932 69.8976 133.952 69.9573 133.952 70.813V73.6982C133.952 74.5738 133.912 74.6136 133.505 74.6335L133.22 74.6534L133.2 74.6733C133.159 74.7131 133.139 74.7927 133.159 74.8524C133.18 74.912 133.2 74.9518 133.241 74.9717H133.261H133.281C133.749 74.9518 134.034 74.9518 134.4 74.9518H135.132C135.843 74.9518 136.555 74.9518 137.328 74.9717H137.368L137.389 74.9319C137.45 74.7728 137.653 74.136 137.714 73.8574ZM132.102 69.8777C132.143 69.8379 132.143 69.7584 132.143 69.6987C132.143 69.639 132.102 69.5992 132.061 69.5793H132.041H132.021C131.736 69.5992 131.492 69.5992 131.228 69.5992C130.902 69.5992 130.597 69.5992 130.374 69.5793H130.353H130.333C130.292 69.5992 130.252 69.6589 130.252 69.7186C130.252 69.7783 130.272 69.8379 130.313 69.8777L130.333 69.8976L130.496 69.9175C130.78 69.9573 130.801 70.017 130.801 70.017C130.801 70.0767 130.801 70.1563 130.74 70.3155C130.597 70.6737 130.211 71.589 129.987 72.1064C129.926 72.2457 129.845 72.4247 129.764 72.6237C129.601 72.9819 129.418 73.4197 129.255 73.7579C128.869 72.8824 128.503 72.0069 128.157 71.1114C127.913 70.5344 127.771 70.1165 127.751 70.017C127.771 69.9971 127.832 69.9573 128.076 69.9175L128.218 69.8976L128.239 69.8777C128.279 69.8379 128.3 69.7783 128.3 69.7186C128.3 69.6589 128.259 69.5992 128.218 69.5793H128.198H128.178C127.812 69.5992 127.527 69.5992 127.181 69.5992C126.836 69.5992 126.571 69.5992 126.327 69.5793H126.307L126.287 69.5992C126.246 69.6191 126.205 69.6788 126.205 69.7385C126.205 69.7982 126.226 69.8578 126.266 69.8976L126.287 69.9175L126.449 69.9374C126.775 69.9772 126.876 70.1165 127.059 70.5543L128.503 74.0365C128.666 74.4544 128.808 74.8126 128.869 75.0911V75.1309L128.889 75.1508C128.93 75.1707 128.991 75.1707 129.032 75.1707C129.072 75.1707 129.133 75.1508 129.154 75.1309L129.174 75.111V75.0911C129.316 74.6534 129.703 73.7181 130.028 73.0018L130.475 72.0069C130.862 71.1711 131.167 70.5344 131.39 70.1762C131.492 70.017 131.614 69.9374 131.777 69.9175L132.102 69.8777ZM126.754 81.0209C125.25 82.1551 124.274 83.9857 124.274 86.1149C124.274 88.6022 125.494 90.3532 127.059 91.4079C128.503 92.3431 130.191 92.7013 131.96 92.7013C133.22 92.7013 134.644 92.4028 135.071 92.2635C135.294 92.1839 135.518 92.1043 135.762 92.0645C136.067 91.7063 136.575 90.4328 136.697 89.4379C136.616 89.2986 136.331 89.2588 136.189 89.3583C135.742 90.4925 134.623 92.1043 132.082 92.1043C128.849 92.1043 126.246 89.8757 126.246 85.8363C126.246 81.8566 128.808 79.9862 131.817 79.9862C134.664 79.9862 135.559 81.4785 135.843 82.7918C135.986 82.9112 136.27 82.8913 136.372 82.752C136.209 81.578 136.108 80.3642 136.087 79.9265C135.904 79.9464 135.762 79.9066 135.538 79.8469C134.603 79.5882 133.119 79.3892 132.061 79.3892C130.008 79.3892 128.178 79.9265 126.754 81.0209ZM124.233 73.7181V70.8727C124.233 69.9971 124.253 69.9374 124.68 69.9175L124.904 69.8976H124.924C124.965 69.8777 124.985 69.8181 124.985 69.7385C124.985 69.7186 124.965 69.6191 124.904 69.5793H124.884H124.863C124.477 69.5992 124.192 69.5992 123.847 69.5992C123.501 69.5992 123.216 69.5992 122.81 69.5793H122.789H122.769C122.708 69.6191 122.688 69.6987 122.688 69.7385C122.688 69.8181 122.708 69.8578 122.749 69.8976H122.769L122.993 69.9175C123.399 69.9573 123.44 70.017 123.44 70.8727V73.7181C123.44 74.5738 123.42 74.6335 122.993 74.6733L122.769 74.6932L122.749 74.7131C122.708 74.7529 122.688 74.8325 122.708 74.8922C122.708 74.9518 122.749 74.9916 122.789 75.0115H122.81H122.83C123.237 74.9916 123.521 74.9916 123.867 74.9916C124.192 74.9916 124.477 74.9916 124.884 75.0115H124.904H124.924C124.985 74.9717 125.006 74.8921 125.006 74.8524C125.006 74.7927 124.985 74.733 124.945 74.6932L124.721 74.6534C124.253 74.6335 124.233 74.5937 124.233 73.7181ZM120.126 89.4777V82.6326C120.126 80.603 120.166 80.2647 121.325 80.1652L121.813 80.1254C121.935 80.0458 121.895 79.7076 121.773 79.6479C120.797 79.6877 120.126 79.7076 119.333 79.7076C118.499 79.7076 117.848 79.6877 116.852 79.6479C116.73 79.7076 116.689 80.0458 116.811 80.1254L117.299 80.1652C118.458 80.2647 118.499 80.5831 118.499 82.6326V89.4777C118.499 91.5073 118.458 91.7859 117.299 91.9252L116.811 91.9849C116.689 92.1043 116.73 92.4028 116.852 92.4625C117.828 92.4227 118.499 92.4028 119.333 92.4028C120.126 92.4028 120.797 92.4227 121.773 92.4625C121.895 92.4028 121.935 92.0645 121.813 91.9849L121.325 91.9252C120.166 91.7859 120.126 91.5073 120.126 89.4777ZM121.122 69.8777C121.163 69.8379 121.183 69.7783 121.183 69.7186C121.183 69.6589 121.142 69.6191 121.102 69.5793L121.081 69.5594H121.061C120.797 69.5793 120.573 69.5793 120.227 69.5793C119.943 69.5793 119.678 69.5793 119.272 69.5594H119.251H119.231C119.19 69.5793 119.15 69.6191 119.129 69.6788C119.109 69.7584 119.129 69.818 119.19 69.8578L119.211 69.8777L119.373 69.8976C119.658 69.9374 119.8 69.9772 119.841 70.0369C119.943 70.1961 120.004 70.7732 120.004 71.6686V73.3799C120.004 73.4595 120.004 73.5391 120.004 73.5988C119.719 73.3202 119.414 72.9819 119.048 72.5839L117.909 71.3303C117.096 70.4349 116.628 69.8578 116.527 69.5992L116.506 69.5594H116.466C116.364 69.5793 116.242 69.5793 116.1 69.5793C115.957 69.5793 115.53 69.5793 115.185 69.5594H115.164H115.144C115.103 69.5793 115.063 69.6191 115.063 69.6788C115.042 69.7385 115.063 69.818 115.103 69.8578L115.124 69.8777L115.286 69.8976C115.51 69.9175 115.673 69.9772 115.754 70.0767C115.896 70.2359 115.917 70.3951 115.917 70.614V73.0018C115.917 73.3799 115.917 74.2952 115.815 74.5539C115.795 74.5937 115.734 74.6534 115.51 74.6733L115.266 74.6932L115.246 74.7131C115.205 74.7529 115.185 74.8126 115.205 74.8723C115.205 74.9319 115.246 74.9916 115.286 75.0115L115.307 75.0314H115.327C115.612 75.0115 115.835 75.0115 116.181 75.0115C116.466 75.0115 116.73 75.0115 117.137 75.0314H117.157L117.177 75.0115C117.218 74.9916 117.238 74.9518 117.259 74.8922C117.259 74.8325 117.259 74.7728 117.218 74.733L117.198 74.7131L116.913 74.6932C116.71 74.6733 116.588 74.6335 116.547 74.5738C116.466 74.4146 116.405 73.8176 116.405 72.9421V71.191C116.405 71.0518 116.405 70.8926 116.425 70.7931C116.547 70.9324 116.771 71.191 116.974 71.4099C117.116 71.5691 117.238 71.7084 117.32 71.788L119.211 73.8972C119.841 74.5937 120.146 74.9518 120.248 75.111L120.268 75.1309H120.309C120.41 75.1309 120.492 75.0911 120.532 74.9916V74.9717V74.9518C120.512 74.8524 120.512 74.534 120.512 73.559V71.5293C120.512 71.1114 120.512 70.2558 120.634 70.017C120.654 69.9971 120.736 69.9374 121.041 69.8777H121.122ZM113.782 69.8578C113.822 69.818 113.843 69.7385 113.822 69.6987C113.822 69.639 113.782 69.5992 113.741 69.5793L113.721 69.5594H113.7C113.416 69.5793 113.192 69.5793 112.846 69.5793C112.541 69.5793 112.236 69.5793 111.911 69.5594H111.891L111.87 69.5793C111.83 69.5992 111.809 69.6589 111.789 69.6987C111.789 69.7584 111.789 69.818 111.83 69.8578L111.85 69.8777L112.074 69.8976C112.257 69.9175 112.399 69.9573 112.44 70.0369C112.541 70.1961 112.582 70.7732 112.582 71.6686V72.5839C112.582 73.5192 112.318 74.6534 111.016 74.6534C109.918 74.6534 109.41 73.9967 109.41 72.5839V70.8528C109.41 69.9971 109.43 69.9374 109.837 69.8976L110.04 69.8777H110.061C110.101 69.8578 110.122 69.7982 110.122 69.7385C110.122 69.6788 110.101 69.6191 110.04 69.5793H110.02H110C109.613 69.5992 109.329 69.5992 109.003 69.5992C108.658 69.5992 108.373 69.5992 107.987 69.5793H107.966H107.946C107.885 69.5992 107.865 69.6788 107.865 69.7385C107.865 69.7982 107.885 69.8578 107.926 69.8777H107.946L108.17 69.8976C108.576 69.9374 108.597 69.9971 108.597 70.8528V72.7431C108.597 73.7181 108.8 74.3151 109.268 74.6733C109.634 74.9717 110.162 75.1309 110.833 75.1309C111.484 75.1309 112.094 74.8921 112.44 74.534C112.826 74.1161 113.029 73.4794 113.029 72.5839V71.6686C113.029 71.2706 113.029 70.3155 113.131 70.0568C113.172 69.9772 113.314 69.9175 113.497 69.8976L113.721 69.8777L113.782 69.8578ZM104.367 80.1254C104.489 80.0458 104.449 79.7076 104.327 79.6479C103.473 79.6877 102.822 79.7076 102.049 79.7076C101.195 79.7076 100.545 79.6678 99.5687 79.6479C99.4467 79.7076 99.406 80.0458 99.528 80.1254L100.036 80.1652C101.053 80.2448 101.195 80.5632 101.195 82.5928V89.5175C101.195 91.5471 101.155 91.7262 100.057 91.9252L99.7313 91.9849C99.6093 92.1043 99.65 92.4028 99.772 92.4625C100.545 92.4426 101.216 92.4028 102.049 92.4028C102.822 92.4028 103.493 92.4227 104.55 92.4625C104.672 92.4028 104.713 92.0645 104.591 91.9849L104.022 91.9252C102.924 91.8058 102.822 91.5471 102.822 89.5175V86.8113C102.822 86.2343 102.863 86.1945 103.798 86.1945H109.43C110.366 86.1945 110.406 86.2343 110.406 86.8113V89.5175C110.406 91.5471 110.406 91.7262 109.207 91.9252L108.841 91.9849C108.719 92.1043 108.759 92.4028 108.881 92.4625C109.756 92.4227 110.447 92.4028 111.26 92.4028C112.033 92.4028 112.704 92.4227 113.639 92.4625C113.761 92.4028 113.802 92.0645 113.68 91.9849L113.212 91.9252C112.074 91.7859 112.033 91.5471 112.033 89.5175V82.5928C112.033 80.5632 112.074 80.2846 113.212 80.1652L113.619 80.1254C113.741 80.0458 113.7 79.7076 113.578 79.6479C112.684 79.6877 112.033 79.7076 111.26 79.7076C110.447 79.7076 109.776 79.6877 108.881 79.6479C108.759 79.7076 108.719 80.0458 108.841 80.1254L109.207 80.1652C110.366 80.2846 110.406 80.5632 110.406 82.5928V84.8016C110.406 85.3985 110.366 85.4184 109.43 85.4184H103.798C102.863 85.4184 102.822 85.3985 102.822 84.8016V82.5928C102.822 80.5632 102.863 80.2846 104.001 80.1652L104.367 80.1254ZM103.574 73.8574V73.8176C103.534 73.738 103.452 73.6982 103.371 73.6982C103.33 73.6982 103.29 73.7181 103.269 73.738L103.249 73.7579C103.005 74.2156 102.802 74.4544 102.7 74.5141C102.517 74.5937 102.273 74.6335 101.683 74.6335C100.992 74.6335 100.829 74.5539 100.748 74.4743C100.626 74.3549 100.606 74.0962 100.606 73.6783V72.5441C100.606 72.3849 100.606 72.3849 100.809 72.3849H101.277C101.561 72.3849 101.785 72.3849 101.887 72.4247C102.009 72.4446 102.049 72.5242 102.09 72.6834L102.171 73.0018L102.192 73.0217C102.212 73.0615 102.273 73.0814 102.354 73.0814C102.436 73.0814 102.497 73.0615 102.517 73.0018V72.9819C102.517 72.9023 102.517 72.8028 102.497 72.6834C102.497 72.5441 102.476 72.3651 102.476 72.2059C102.476 72.0467 102.497 71.8676 102.497 71.7084C102.497 71.589 102.517 71.4696 102.517 71.39V71.3701V71.3502C102.497 71.3104 102.436 71.2706 102.354 71.2706C102.293 71.2706 102.232 71.2905 102.212 71.3303L102.131 71.6885C102.09 71.8676 102.049 71.9074 101.968 71.9273C101.887 71.9472 101.643 71.9671 101.297 71.9671H100.829C100.626 71.9671 100.626 71.9671 100.626 71.8079V70.1961C100.626 69.9374 100.626 69.9374 100.809 69.9374H101.399C101.744 69.9374 102.009 69.9374 102.171 69.9772C102.537 70.0767 102.619 70.2956 102.741 70.6538L102.761 70.6936L102.781 70.7135C102.802 70.7533 102.863 70.7732 102.924 70.7732C102.985 70.7732 103.066 70.7533 103.086 70.6936L103.107 70.6737L103.086 70.5543C103.046 70.0966 103.005 69.6987 102.964 69.5594L102.944 69.4997L102.883 69.5196C102.781 69.5395 102.273 69.5395 101.785 69.5395H100.219C99.9143 69.5395 99.6297 69.5395 99.2637 69.5196H99.2433H99.223C99.162 69.5594 99.1417 69.639 99.1417 69.6788C99.1417 69.7385 99.162 69.7982 99.2027 69.838L99.3653 69.8578C99.7923 69.8976 99.8127 69.9573 99.8127 70.813V73.6982C99.8127 74.5738 99.772 74.6136 99.3653 74.6335L99.0807 74.6534L99.0603 74.6733C99.0197 74.7131 98.9993 74.7927 99.0197 74.8524C99.0197 74.912 99.0603 74.9518 99.101 74.9717H99.1213H99.1417C99.6093 74.9518 99.894 74.9518 100.26 74.9518H100.992C101.704 74.9518 102.415 74.9518 103.188 74.9717H103.229L103.249 74.9319C103.31 74.7728 103.513 74.136 103.574 73.8574ZM96.722 73.738V70.8528C96.722 69.9971 96.7423 69.9374 97.149 69.8976L97.3117 69.8777L97.332 69.8578C97.3727 69.8379 97.393 69.7783 97.393 69.6987C97.393 69.6788 97.3727 69.5793 97.3117 69.5395H97.2913H97.271C96.8847 69.5594 96.6 69.5594 96.3153 69.5594C95.9697 69.5594 95.6647 69.5594 95.319 69.5395H95.2987H95.2783C95.2173 69.5793 95.197 69.6589 95.197 69.6987C95.197 69.7584 95.2173 69.818 95.258 69.8578L95.441 69.8777C95.868 69.9175 95.8883 69.9772 95.8883 70.8329V71.7482C95.8883 71.9472 95.8883 71.9472 95.5427 71.9472H93.2043C92.8587 71.9472 92.8587 71.9472 92.8587 71.7482V70.8329C92.8587 69.9772 92.879 69.9175 93.2857 69.8777L93.4483 69.8578L93.4687 69.838C93.5093 69.8181 93.5297 69.7584 93.5297 69.6788C93.5297 69.6589 93.5093 69.5594 93.4483 69.5196H93.428H93.4077C93.0417 69.5395 92.757 69.5395 92.452 69.5395C92.2283 69.5395 92.0453 69.5395 91.842 69.5196C91.72 69.5196 91.5777 69.5196 91.415 69.4997H91.476H91.4557C91.3947 69.5395 91.3743 69.6191 91.3743 69.6589C91.3743 69.7385 91.3947 69.7783 91.4353 69.8181H91.4557L91.6793 69.838C92.0453 69.8578 92.1063 69.9374 92.1063 70.7931V73.6783C92.1063 74.5141 92.086 74.5539 91.6793 74.6136L91.5167 74.6335L91.4963 74.6534C91.4557 74.6932 91.4353 74.7728 91.4557 74.8325C91.476 74.8921 91.4963 74.9319 91.537 74.9518H91.5573H91.5777C91.6997 74.9518 91.8013 74.9518 91.903 74.9319C92.1063 74.9319 92.2893 74.9121 92.5333 74.9121C92.8383 74.9121 93.1027 74.912 93.5703 74.9319H93.5907H93.611C93.672 74.912 93.6923 74.8325 93.6923 74.7728C93.6923 74.7131 93.672 74.6534 93.6313 74.6136L93.367 74.5738C92.9807 74.534 92.9197 74.4942 92.9197 73.6385V72.5043C92.9197 72.3054 92.9197 72.3054 93.2653 72.3054H95.6037C95.9493 72.3054 95.9493 72.3054 95.9493 72.5043V73.6385C95.9493 74.4942 95.9493 74.5141 95.502 74.5738L95.319 74.5937L95.2987 74.6136C95.258 74.6534 95.2377 74.733 95.258 74.7927C95.2783 74.8524 95.2987 74.8922 95.3393 74.9121H95.3597H95.38C95.7663 74.8922 96.051 74.8922 96.3763 74.8922C96.7017 74.8922 96.9863 74.8922 97.3727 74.9121H97.393H97.4133C97.4743 74.8723 97.4947 74.7927 97.4947 74.7529C97.4947 74.6932 97.4743 74.6335 97.4337 74.5937L97.21 74.5539C96.7423 74.6335 96.722 74.5937 96.722 73.738ZM89.9917 69.4599V69.44L89.9713 69.4201C89.9307 69.3604 89.8493 69.3604 89.829 69.3604C89.8087 69.3604 89.7883 69.3604 89.7477 69.3803H89.7273L89.707 69.4002C89.6053 69.5793 89.5647 69.5992 89.1173 69.5992H85.7217C85.3557 69.5992 85.193 69.5793 85.1523 69.4002V69.3803L85.132 69.3604C85.1117 69.3405 85.071 69.3206 85.01 69.3206C84.9897 69.3206 84.9287 69.3206 84.888 69.3405L84.8677 69.3604V69.3803C84.8067 69.6987 84.6847 70.216 84.5627 70.5742V70.5941L84.583 70.614C84.6237 70.7135 84.8067 70.7533 84.888 70.6936H84.9083V70.6737C84.9897 70.4946 85.071 70.3155 85.254 70.1364C85.437 69.9772 85.8437 69.9573 86.2097 69.9573H86.657C86.84 69.9573 86.84 69.9573 86.84 70.1563V73.738C86.84 74.6136 86.7993 74.6534 86.3927 74.6733L86.0877 74.6932H86.0673C86.0267 74.7131 85.986 74.7728 85.986 74.8524C85.986 74.912 86.0063 74.9717 86.0673 74.9916H86.0877H86.108C86.6163 74.9717 86.9213 74.9717 87.2467 74.9717C87.572 74.9717 87.8363 74.9717 88.3243 74.9916H88.3447H88.365C88.426 74.9717 88.4463 74.8921 88.4463 74.8325C88.4463 74.7728 88.426 74.7131 88.3853 74.6733L88.1007 74.6335C87.694 74.5937 87.6737 74.5539 87.6737 73.6982V70.0966C87.6737 70.017 87.6737 69.9374 87.694 69.9175C87.7143 69.8976 87.7957 69.8976 87.8567 69.8976H88.4463C88.8937 69.8976 89.1783 69.9573 89.3613 70.0966C89.4427 70.1563 89.5037 70.3553 89.5443 70.6339V70.6538L89.5647 70.6737C89.585 70.7135 89.646 70.7334 89.707 70.7334C89.7883 70.7334 89.8493 70.6936 89.8697 70.6538V70.6339V70.614C89.8493 70.4349 89.9103 69.7782 89.9917 69.4599ZM84.4203 86.1348C84.4203 88.6221 85.6403 90.3731 87.206 91.4278C88.6497 92.363 90.3373 92.7212 92.1063 92.7212C93.367 92.7212 94.7903 92.4227 95.2173 92.2834C95.441 92.2038 95.6647 92.1242 95.9087 92.0844C96.2137 91.7262 96.722 90.4527 96.844 89.4578C96.7627 89.3185 96.478 89.2787 96.3357 89.3782C95.8883 90.5124 94.77 92.1242 92.2283 92.1242C88.9953 92.1242 86.3927 89.8956 86.3927 85.8562C86.3927 81.8765 88.9547 80.006 91.964 80.006C94.8107 80.006 95.7053 81.4984 95.99 82.8117C96.1323 82.9311 96.417 82.9112 96.5187 82.7719C96.356 81.5979 96.2543 80.3841 96.234 79.9464C96.051 79.9663 95.929 79.9265 95.685 79.8668C94.77 79.6081 93.2653 79.4091 92.208 79.4091C90.1543 79.4091 88.3243 79.9464 86.901 81.0408C85.3963 82.1551 84.4203 83.9857 84.4203 86.1348ZM79.2963 82.8714V69.4599C68.296 68.4252 60 69.4599 60 69.4599C60 69.4599 60 82.8515 60 82.8714C60.8743 91.965 69.577 93.0196 69.6583 92.9997C71.2037 92.741 78.483 91.3084 79.2963 82.8714ZM63.0907 86.2343C63.2737 86.3537 63.477 86.3934 63.66 86.473C63.904 87.07 63.66 87.6669 63.538 87.4282C63.3143 86.9904 63.2127 86.6322 63.0907 86.2343ZM63.111 79.6479C63.0703 79.628 61.8707 80.3841 61.098 80.0259C61.6877 79.7076 63.7007 78.454 64.2497 78.0958C64.514 78.1555 64.6157 78.056 64.697 77.9963C64.4937 78.0162 63.782 78.1157 64.148 77.4988C64.2903 78.056 65.2663 77.5386 65.612 77.459C66.588 77.2402 66.588 78.255 66.5067 78.6928C66.466 78.8519 66.8117 78.9713 66.9743 78.9315C66.6897 79.6081 66.222 78.9713 66.161 79.23C66.1407 79.3295 65.8153 79.4091 65.8153 79.6877C65.8153 80.0458 65.9577 79.8469 65.978 80.1254C65.9983 80.3841 65.856 80.1851 65.8967 80.4836C65.9373 80.9413 66.71 80.4239 67.0353 80.5433C67.198 80.603 67.2997 80.7423 67.4623 80.7224C67.503 80.6826 67.4827 80.5035 67.4827 80.4438C67.4623 80.3045 67.198 80.2846 67.0557 80.0856C66.954 79.9066 67.1777 79.3892 67.32 79.23C67.503 80.0856 68.3367 79.827 68.4587 80.7224C68.54 80.9811 68.174 81.2597 68.4587 81.6775C68.235 81.8765 67.9707 82.8714 68.4383 83.3291C68.357 83.548 68.2553 84.0255 68.662 84.3041C68.5197 84.5827 68.5603 84.9409 68.6823 85.299C68.4383 85.299 68.479 83.9061 66.9743 83.8663C66.9337 83.8464 66.9337 84.0255 66.9743 84.1051C67.1573 84.4235 67.4013 84.4036 67.3403 85.1398C67.32 85.3985 67.1777 85.1 67.0963 85.0205C66.9133 84.8613 66.771 84.8414 66.6897 84.324C66.0797 84.8016 66.1407 85.3587 66.1813 85.6572C66.1813 85.6572 66.039 85.299 65.8967 84.921C65.8967 84.9011 66.527 84.1449 66.6287 83.9857C67.9097 81.7372 65.795 84.722 65.795 84.7021C65.673 84.4434 65.5917 84.2245 65.5103 84.1449C65.5307 84.1051 65.8763 83.7271 66.039 83.4087C67.0353 81.3989 65.4493 84.0852 65.3883 84.0255C65.2663 83.926 65.1647 83.7868 65.1037 83.8265C65.0833 84.1449 65.002 84.0852 65.0427 84.4036C64.88 84.6225 64.514 84.9608 64.27 85.1199C64.27 85.1199 64.209 84.5628 64.2293 84.5429C64.3513 84.4036 64.8393 83.8862 64.941 83.7271C66.5677 81.2398 64.1887 84.324 64.1683 84.3041C64.148 84.2046 64.026 84.0454 63.8837 83.9061C63.8837 83.9061 64.4123 83.2097 64.5343 82.951C65.5103 80.9612 63.7413 83.8265 63.721 83.8265C63.6803 83.8066 63.6803 83.8066 63.6193 83.7867C63.5787 83.7669 63.6803 83.2097 63.7413 82.8714C63.8837 82.2148 63.5177 82.752 63.416 83.7867C63.3143 83.8066 63.111 83.8265 63.0093 83.9061C63.0703 84.1847 63.1313 83.9658 63.2533 84.2444C63.3957 84.5628 63.05 85.1 63.355 85.4781C63.477 85.6174 63.477 85.5975 63.4567 85.697C63.2737 85.6771 63.172 85.6771 63.05 85.8363C62.8263 84.8414 62.8263 84.3439 62.8873 83.3291C62.9077 82.8714 63.0703 82.1551 62.989 82.1551C62.928 82.1352 61.8503 84.8414 61.586 85.3786C61.1387 85.2194 61.8707 82.8913 62.806 81.7571C62.8873 81.3989 62.318 82.1153 61.9723 82.4138C61.647 82.6724 61.2607 83.0306 60.8133 82.9112C61.3827 82.3342 62.6637 81.2398 62.806 80.9811C62.928 80.7423 61.9317 81.6974 60.8743 81.3392C61.5047 80.9811 63.0907 80.1851 63.111 79.6479ZM65.002 84.722C65.002 84.9608 64.9817 85.1597 65.063 85.3985C65.185 85.7766 65.124 85.6572 64.9613 85.5378C64.8393 85.3985 64.7173 85.2791 64.6563 85.1199C64.636 85.0006 64.7173 85.0006 65.002 84.722ZM67.5437 78.6331C67.381 78.3744 67.7267 78.1356 67.7267 78.1356C67.7267 78.8519 68.662 78.3545 69.15 78.5933C69.272 78.653 69.3533 78.7524 69.394 78.8519C68.8653 78.4938 67.8893 79.2101 67.5437 78.6331ZM62.013 72.8824C61.1793 72.8824 61.1997 71.6487 62.013 71.6487C62.8263 71.6487 62.8263 72.8824 62.013 72.8824ZM62.013 75.3299C61.159 75.3299 61.159 74.0962 62.013 74.0962C62.8263 74.1161 62.8467 75.3299 62.013 75.3299ZM63.599 72.6834H62.867V71.987H63.599V72.6834ZM63.599 75.1309H62.867V74.4345H63.599V75.1309ZM69.516 76.3447C69.516 76.3447 68.7433 75.9468 67.8487 75.8871C66.9743 75.8274 65.2257 76.5039 63.8837 76.4243V70.6339C63.8837 70.6339 65.429 70.8329 66.0593 70.5941C68.2147 69.7783 69.5363 70.6936 69.5363 70.6936V76.3447H69.516ZM71.0003 77.2999C71.041 77.5187 70.8377 77.5784 70.8377 77.5784C71.163 77.658 71.3053 77.459 71.3867 77.3397C71.5087 77.8371 71.0003 77.8769 70.8377 77.8968C70.8377 77.8968 71.102 77.9764 71.1223 78.1356C71.163 78.5535 71.4273 78.5336 71.4883 78.4938C71.468 78.5535 71.3867 78.8121 71.0817 78.5734C71.0207 78.6331 71.163 78.7126 71.2037 78.9116C71.2443 79.1703 71.224 79.429 71.5493 79.5882C71.346 79.7474 71.1223 79.3494 71.102 79.3892C71.0817 79.4489 71.3663 79.5882 71.041 80.3244C70.8987 80.2448 70.98 80.2647 70.797 80.0657C70.675 79.9663 70.614 79.9265 70.7157 80.1055C70.8987 80.3443 70.9597 80.8617 70.8783 81.001C70.7157 80.9413 70.7563 80.8219 70.5733 80.6428C70.553 80.7224 70.6343 81.0607 70.8173 81.2398C71.1427 81.5382 71.2647 81.8765 71.2647 81.9561C71.285 82.2148 71.2037 82.5729 71.1833 82.9112C71.0207 82.8913 70.8987 82.4536 70.858 82.4735C70.8173 82.4934 70.8783 82.9112 71.1833 83.1699C71.3257 83.5878 71.2647 83.8066 71.224 83.8066C71.1833 83.8265 71.0207 83.3888 70.919 83.4684C71.346 84.523 71.041 84.8812 70.9393 85.2194C70.858 84.8812 70.8173 84.6424 70.6953 84.2643C70.4717 84.4434 70.4107 84.7021 70.126 84.9409C70.126 84.5031 69.8617 83.4684 69.6787 83.2296C69.6787 83.2097 69.3127 84.1648 69.15 84.5827C68.9467 85.1199 68.906 85.7965 69.15 86.3338C68.6213 85.5975 68.5807 84.2444 69.028 84.0653C69.0687 83.9658 69.0077 83.6475 68.906 83.6873C68.8857 83.8464 68.8857 83.9658 68.7637 84.125C68.418 84.0255 68.5807 83.6077 68.601 83.4684C69.0483 82.951 68.7637 82.8117 68.7433 82.8316C68.7027 82.951 68.662 83.0903 68.5197 83.15C68.235 82.6724 68.418 81.9163 68.967 81.3392C68.9873 81.1204 68.723 81.4984 68.54 81.4785C68.4993 81.0806 68.6417 80.3642 69.4143 80.3443C69.272 80.3045 69.1907 80.2846 69.15 80.1453C69.3737 80.1055 70.1057 80.0657 70.004 79.4887C69.943 79.5484 69.9023 79.6678 69.7193 79.7673C69.5973 79.8469 69.455 79.8469 69.3737 79.7474C69.7193 79.628 69.5973 79.23 69.15 79.3494C69.0077 79.3892 68.8247 79.2499 68.8043 79.0907C68.906 79.1902 69.1093 79.1106 69.211 79.0509C69.699 78.7325 70.004 79.1902 70.0853 79.2897C70.1057 79.2897 70.309 78.832 69.5973 78.7126C69.5363 78.5535 69.3737 78.2749 68.8857 78.2948C68.723 77.7575 68.2553 78.0162 68.2553 78.2749C67.747 77.9167 68.2553 77.4392 68.479 77.3795C68.6213 77.3994 68.5807 77.8371 68.845 77.7575C68.906 77.7376 68.6417 77.459 68.7433 77.3198C68.967 77.2004 68.967 77.4789 69.089 77.3795C69.15 77.1805 69.3737 77.081 69.5567 77.0611C70.0853 77.0014 70.492 77.5585 71.0003 77.2999ZM75.677 76.4442C74.5383 76.5238 72.2 75.8871 71.6103 75.8871C70.3903 75.8871 69.7803 76.3646 69.7803 76.3646C69.7803 76.3646 69.7803 70.9125 69.7803 70.7135C69.7803 70.7135 71.3867 69.9772 72.566 70.3951C74.0097 70.9125 75.677 70.6936 75.677 70.6936V76.4442ZM77.1613 74.2156C77.7917 74.136 77.873 74.8524 77.873 74.8524C77.7103 74.733 77.4053 74.6733 77.202 74.8126C76.5107 75.2503 75.8803 75.2503 75.8803 75.2503V74.1559C75.8803 74.136 76.0227 74.3748 77.1613 74.2156ZM77.8933 72.7033C77.8933 72.6635 77.873 72.6237 77.873 72.5441C77.8527 72.4247 77.5273 72.365 77.3037 72.4645C76.9783 72.6038 76.1853 73.0416 75.9007 72.962V71.8676C76.6123 72.1661 76.897 71.8875 77.1207 71.8875C77.8323 71.8875 77.873 72.5441 77.873 72.5441C77.8933 72.6237 77.8933 72.6635 77.8933 72.7033ZM77.1003 84.0852C76.897 84.1449 76.3277 84.3638 76.2057 84.5628C76.2667 83.3888 75.8803 82.2347 75.7583 81.9561C75.5143 81.4188 75.86 83.2097 75.8803 83.6276C75.8803 83.6475 73.8877 81.1204 75.0873 83.0704C75.3923 83.5679 75.8803 83.9061 75.8803 83.9061C75.8803 84.2643 75.86 84.5031 75.799 84.7021C75.677 84.8016 73.0947 81.3392 74.518 83.7271C74.701 84.0255 75.738 84.921 75.7177 84.9409C75.6567 85.0802 75.5347 85.2791 75.372 85.4184C75.3517 85.3985 74.7823 84.9807 74.7823 84.9608C74.7417 84.7021 74.7417 84.4434 74.396 84.6225C74.396 84.6225 73.115 83.1699 73.7047 84.1847C73.969 84.6225 74.1317 84.6822 74.1927 84.7618C74.1927 84.7618 73.9893 85.0205 73.9283 85.299C73.908 85.4184 72.8303 84.125 73.2573 84.9409C73.3997 85.1995 73.8877 85.4781 73.8877 85.498C73.847 85.6572 73.786 85.8363 73.725 85.9358C73.664 86.0751 72.7083 86.8113 72.7083 86.8113C72.7083 86.8113 72.8913 86.2343 73.298 85.9358C73.5217 85.7766 73.5217 85.8164 73.6843 85.7169C73.6843 85.6373 73.603 85.498 73.481 85.4582C73.3387 85.4184 72.8913 85.498 72.8913 85.498C72.932 85.2791 72.7287 84.8016 72.749 84.2842C72.5863 84.3041 72.2813 84.5628 72.2203 84.7021C72.1593 85.5577 71.9763 85.299 71.7933 85.9159C71.59 85.6572 71.8137 85.2791 71.6103 85.0404C71.346 84.7021 71.3053 84.4832 71.2647 84.0653C71.3257 84.0255 71.59 83.747 71.346 83.1301C71.3053 82.175 71.7323 81.8168 70.9597 81.1403C71.0207 81.1204 71.0817 80.6428 71.0817 80.6428C71.651 80.9413 71.5493 80.3045 71.773 80.1652C72.1187 79.9663 72.0577 79.7474 71.895 79.4887C72.9117 79.7673 71.8543 80.4438 72.3017 80.4637C72.627 80.4836 72.8507 80.3841 72.993 80.1652C73.1557 79.9265 72.9727 79.7872 73.3997 79.4091C73.4403 79.3693 73.5623 79.1305 73.2167 79.0509C73.1353 79.031 73.2167 78.7524 73.2167 78.7524C72.9523 78.9713 72.8507 79.2897 72.4237 79.0907C72.2 78.9912 72.0577 79.0907 71.956 79.1305C71.956 79.1305 71.9153 78.9514 72.0983 78.8917C72.5863 78.7326 72.7083 78.5535 72.6677 78.4341C72.6067 78.1953 72.5863 78.4341 72.6067 78.1754C72.6067 78.0759 72.7287 77.9366 72.8303 77.8172C73.1557 77.4391 73.3793 77.5784 73.4607 77.6182C73.6437 77.4789 73.6843 77.4789 73.8673 77.4192C74.1723 77.2999 74.823 77.4988 75.189 77.658C75.372 77.7376 75.5753 77.7774 75.7787 77.7376C75.7787 77.8371 75.6973 77.8968 75.6363 77.9167C75.5143 77.9565 75.3923 77.9167 75.3923 77.9963C75.3923 78.0361 75.555 78.056 75.6567 78.0759C76.2057 78.2152 76.897 78.6928 76.4497 78.5933C76.3887 78.5734 76.775 78.8718 77.08 79.2499L78.117 80.2249C78.0763 80.2846 77.7103 80.2249 76.5513 79.1703C76.3887 79.3096 77.9543 80.4637 78.5847 81.6775C78.5237 81.7173 77.7307 81.4387 77.446 81.1403C76.9987 80.6826 76.4903 79.5484 76.287 79.7076C76.2667 79.7076 77.141 81.0408 77.568 81.8367C77.7917 82.2347 77.9747 82.8117 77.9747 83.2296C78.0357 85.3587 77.7103 85.1995 77.7103 85.1995C77.202 83.5281 76.958 81.578 76.226 80.6826C75.9617 80.4239 77.0597 82.3541 77.1003 84.0852ZM74.8433 85.9955C74.6197 86.1945 74.457 86.2542 74.518 86.1746C74.579 86.0552 74.6197 85.9756 74.64 85.896C74.6603 85.8562 74.8433 85.9955 74.8433 85.9955ZM74.701 85.7368C74.7417 85.5577 74.7417 85.4383 74.7823 85.2791C74.8027 85.2194 74.8027 85.2194 74.8027 85.1597C74.8027 85.1398 75.2907 85.5577 75.3313 85.5776C75.2093 85.7368 75.1077 85.7766 74.9857 85.896C74.884 85.8164 74.701 85.7567 74.701 85.7368ZM76.3073 86.2741C75.616 86.9506 74.579 86.6919 73.7657 87.0501C73.0337 87.3088 72.4847 87.9853 71.712 88.1445C71.4883 88.2241 71.4477 88.3236 71.59 88.3236C71.6713 88.3236 72.139 88.8012 72.8913 88.4231C73.1353 88.3037 73.9283 87.8659 74.0503 87.846C73.6233 88.244 73.42 88.6022 73.0337 88.8012C72.81 88.9205 71.8543 89.2588 70.919 89.0797C70.492 89.0001 70.187 89.3782 70.2887 89.3782C70.5123 89.3185 70.7563 89.3583 70.919 89.5374C71.1833 89.7563 71.59 90.015 71.9357 89.617C72.0577 89.4976 72.5863 89.219 73.0947 89.7165C72.5457 89.6966 72.6067 90.6318 71.59 90.5323C71.2037 90.5323 70.37 89.6767 70.126 89.9354C69.699 90.393 71.041 90.8507 70.4513 91.4278C69.9227 91.965 69.3127 91.0099 69.3127 91.0099C69.638 91.1492 70.248 91.2288 69.9633 90.7114C69.8617 90.5124 69.6583 90.3134 69.6583 89.9354C69.6177 89.7364 68.418 91.4476 67.625 90.6716C67.32 90.3731 66.6897 89.7165 66.1203 89.4578C67.625 89.3384 67.8487 89.9155 67.93 90.015C68.418 90.6517 68.8653 90.015 68.967 89.8956C69.1297 89.7165 69.3533 89.4777 69.272 89.4379C68.6823 89.1593 68.0113 89.0996 67.5233 89.3384C68.5807 87.9057 69.4143 89.2389 69.4143 89.2389C69.5363 89.3185 69.3737 88.3833 68.3367 88.3435C67.686 88.3037 67.0963 88.9006 66.649 88.9006C66.283 88.9006 65.1647 88.1644 64.9003 87.5078C65.551 87.9853 66.3847 88.2639 66.893 87.9654C67.869 87.3884 69.089 88.2639 69.15 88.1445C68.8857 87.9455 68.2553 87.1297 66.588 87.5874C65.9373 87.9455 65.673 87.3088 65.2663 87.3088C65.9373 86.7118 66.405 87.0103 66.649 87.0302C66.71 87.0302 66.3643 86.7516 66.1203 86.7317C64.27 86.5526 63.0907 86.0552 63.0907 86.0552C63.0907 86.0552 63.2533 85.697 64.0463 85.9557C64.0463 85.9557 63.3347 85.5179 63.3347 84.9807C63.355 84.6424 63.5177 84.2842 63.2533 84.0056C64.331 83.9658 63.5583 85.4383 64.3107 85.7965C64.331 85.7965 64.087 85.4383 64.4327 85.1796C64.5953 85.6174 64.9817 85.8363 65.246 85.896C65.307 85.8562 65.3883 85.7368 65.3883 85.7368C65.1037 85.2791 65.063 84.7419 65.1443 84.125H65.1647C65.2257 84.125 65.3273 84.3439 65.4087 84.4832C65.5713 84.8215 65.5713 85.2791 65.8763 85.6771C66.0593 85.896 66.161 86.1149 66.3033 86.2144C66.3643 86.0552 66.3237 85.7965 66.3033 85.7368C66.2627 85.4781 66.1 85.0603 66.5473 84.6623C66.7507 85.2393 67.0353 85.0802 67.0557 85.3388C67.1167 85.7169 67.0963 85.6572 67.0557 85.9557C67.076 86.3736 67.4623 86.473 67.7877 86.7317C68.54 87.1297 69.0483 87.3486 69.3737 87.8659C69.5363 86.9904 67.1167 86.8113 67.442 85.1398C67.4013 84.4633 67.5233 84.4036 67.0353 84.0056C68.0113 84.0255 68.5197 85.5776 68.5807 85.8761C68.6823 86.3934 69.0077 86.4332 69.4347 87.1098C69.4957 87.1297 68.6417 85.299 69.6583 83.7271C69.6583 83.7271 70.004 84.5429 69.8413 85.0801C69.7397 85.3985 69.8413 85.7567 69.8617 85.9557C69.882 86.1547 69.821 85.2194 70.553 84.722C70.5937 85.0801 70.9597 85.6373 70.614 86.2343C70.2073 86.9506 70.187 86.6919 70.1667 87.5874C70.2073 87.5675 70.309 86.9705 70.5937 86.6322C71.1833 85.9159 70.7563 85.5179 71.3257 84.9011C71.3663 85.2194 71.4477 85.0802 71.4883 85.3587C71.5697 85.9756 70.8987 86.672 71.041 86.6521C71.2037 86.6322 71.4883 86.4929 71.5697 86.0154C71.5697 86.0154 71.8137 86.4531 71.59 86.5924C71.1833 86.8511 71.102 87.1297 71.163 87.4481C71.4883 87.07 71.9357 86.6521 71.8543 86.1149C71.895 85.7965 72.261 85.6572 72.322 84.9011C72.3423 84.7817 72.4643 84.6225 72.5863 84.5628C72.5253 84.9807 72.871 85.4383 72.4847 85.9557C72.566 85.9955 72.8913 85.5577 73.3793 85.7169C72.4237 85.896 72.7083 86.8909 71.9763 87.3685C71.7527 87.5078 71.7933 87.6669 71.7323 87.6868C72.383 87.647 72.8913 86.8909 72.9727 86.8312C73.6233 86.3934 73.7657 86.3337 74.03 85.6174C74.1317 85.3587 74.0503 85.2393 74.4163 84.8613C74.579 85.2194 74.335 85.9557 74.2943 86.1149C74.1723 86.4531 73.7657 86.7516 73.847 86.7516C75.616 85.9955 75.5753 85.4781 76.0023 84.9409C76.1243 84.7419 76.7547 84.3638 76.9783 84.3439C76.9173 84.4633 76.6733 84.6424 76.6733 84.8613C76.653 85.2393 76.531 85.4781 76.3277 85.7766C76.4293 85.9159 76.653 85.5179 76.8563 85.7169C76.653 85.7766 76.531 86.095 76.3073 86.2741ZM76.6123 86.1746C76.5107 86.672 76.3277 87.1496 76.0227 87.5675C75.799 87.8659 75.7177 87.269 75.9007 86.7118C76.165 86.6123 76.4293 86.3934 76.6123 86.1746ZM75.2703 73.4396C75.2297 73.4197 75.1483 73.3998 75.0873 73.3998C75.0263 73.3998 75.006 73.4794 75.067 73.4993C75.1077 73.5192 75.189 73.5192 75.2703 73.5192C75.311 73.5391 75.311 73.4595 75.2703 73.4396ZM75.067 73.6783C75.1077 73.6982 75.189 73.6982 75.2703 73.7181C75.311 73.7181 75.311 73.6386 75.2703 73.6187C75.2297 73.5988 75.1483 73.5789 75.0873 73.5789C75.0263 73.5988 75.006 73.6584 75.067 73.6783ZM75.067 74.7728C75.0263 74.733 74.9247 74.6335 74.823 74.5738C74.762 74.6136 74.6603 74.6932 74.579 74.733C74.518 74.6733 74.457 74.5937 74.3553 74.5141C74.2943 74.5539 74.1113 74.7131 74.03 74.7728C74.152 74.7728 74.3147 74.8126 74.3147 74.9121C74.3147 74.9916 74.3147 75.509 74.3147 75.6085C74.3757 75.6284 74.457 75.6085 74.5587 75.6085C74.5587 75.5289 74.5587 74.9319 74.5587 74.8723C74.5993 74.8524 74.64 74.8325 74.6603 74.8126C74.701 74.8325 74.823 74.9717 74.884 75.0115C74.9247 74.9717 75.0467 74.8723 75.1077 74.8126C75.1687 74.7728 75.1077 74.733 75.067 74.7728ZM74.762 73.9171C74.823 73.7977 74.9247 73.6187 74.9247 73.4794C74.9247 73.3003 74.8027 73.0416 74.5587 72.962C74.2333 73.0814 74.03 73.3202 74.03 73.6385C74.03 73.8176 74.1723 74.1758 74.4977 74.1758C74.5587 74.0763 74.6603 73.9768 74.762 73.9171ZM74.5587 73.9768C74.4977 73.9569 74.274 73.7778 74.2333 73.6584C74.1723 73.4794 74.1723 73.3003 74.3553 73.1809C74.4977 73.2406 74.6807 73.3799 74.6807 73.4993C74.701 73.6783 74.64 73.8773 74.5587 73.9768ZM74.5383 72.6436L74.7823 72.3849C74.7823 72.3849 74.6807 72.3054 74.6197 72.2258C74.6197 72.1661 74.6197 71.6686 74.64 71.6487C74.457 71.4895 74.335 71.4696 74.2537 71.4895C74.1113 71.5094 73.969 71.6885 73.908 71.7482C73.8673 71.788 73.8877 71.8477 73.908 71.8875C73.9283 71.9074 73.969 71.9273 74.0097 71.9472C74.0097 71.9472 73.9893 71.9472 73.9893 71.9273C73.9283 71.987 73.8267 72.1661 73.8267 72.2855C73.8267 72.4048 73.9487 72.5839 74.0097 72.6436C74.091 72.5839 74.213 72.4844 74.396 72.4446C74.4367 72.5441 74.4773 72.6038 74.5383 72.6436ZM74.396 72.0666C74.274 72.0268 74.0503 71.9273 73.969 71.8477C73.9487 71.8278 73.9487 71.8278 73.969 71.788C74.03 71.7084 74.091 71.6487 74.1317 71.6487C74.1723 71.6487 74.396 71.7681 74.396 71.8278C74.396 71.8676 74.4163 71.9671 74.396 72.0666ZM74.4163 72.4048C74.3553 72.4048 74.2943 72.4247 74.2333 72.4645C74.1723 72.4048 74.0097 72.2258 74.1317 72.0069C74.1113 71.987 74.091 71.987 74.091 71.987C74.1927 72.0467 74.335 72.1064 74.4367 72.1263C74.4367 72.2059 74.4367 72.2855 74.4367 72.3253C74.396 72.3452 74.396 72.3849 74.4163 72.4048ZM73.725 71.3701C73.664 71.3701 73.298 71.3701 73.2777 71.3502C73.2573 71.2706 73.237 71.1711 73.298 71.0517C73.3387 70.9921 73.2777 70.9523 73.237 71.0319C73.2167 71.0916 73.0337 71.3502 72.8303 71.4298C72.7287 71.4696 72.9523 71.5492 72.932 71.5492C72.932 71.788 72.9727 72.1462 73.0133 72.3054C73.054 72.3849 73.1557 72.5242 73.2167 72.4844C73.2573 72.4645 73.359 72.2656 73.3997 72.2457C73.4607 72.2059 73.3997 72.1263 73.359 72.1661C73.3183 72.2059 73.2573 72.1462 73.2573 72.1064C73.237 72.0666 73.1963 71.5293 73.2167 71.5094C73.2167 71.5094 73.664 71.4497 73.7047 71.4497C73.7657 71.4696 73.7657 71.3701 73.725 71.3701ZM72.5253 72.3451L72.7083 72.1064C72.566 72.0865 72.5253 72.0666 72.4237 71.9671V71.39L72.2407 71.2109H72.1797L71.895 71.4696C71.8747 71.5094 71.9357 71.5094 71.9763 71.4696L72.1797 71.589V72.1462C72.2 72.2059 72.261 72.2855 72.3423 72.365H72.5253V72.3451ZM72.3627 71.0716L72.4643 70.9921V70.8528L72.322 70.7135L72.1797 70.8329V70.9921L72.261 71.0716H72.3627ZM71.895 70.8926C71.8137 70.8926 71.5493 70.9125 71.468 70.9125C71.3663 70.9324 71.3663 70.9722 71.4477 70.9722C71.529 70.9722 71.5493 70.9921 71.59 71.0915C71.6307 71.191 71.4477 71.6686 71.3867 71.7681C71.3257 71.6885 71.1427 71.2706 71.1427 71.2109C71.1427 71.1711 71.224 71.1313 71.2647 71.1114C71.346 71.0916 71.346 71.0319 71.285 71.0319C71.1223 71.012 70.5937 70.9722 70.492 70.9523C70.431 70.9523 70.3903 71.0319 70.4717 71.0319C70.553 71.0319 70.6547 71.012 70.736 71.1512C70.8377 71.3104 71.1833 72.0268 71.2647 72.3451C71.3053 72.2855 71.651 71.3104 71.6713 71.191C71.6917 71.0915 71.773 70.9921 71.8747 70.9523C71.9763 70.9523 71.9763 70.9125 71.895 70.8926ZM70.2683 73.2605C70.2683 73.6584 70.431 73.6982 70.6343 73.7977C70.8173 73.8972 71.1223 73.8773 71.346 73.8176C71.4273 73.7977 71.468 73.7977 71.468 73.8574C71.468 73.8972 71.529 73.8972 71.529 73.8574C71.529 73.8176 71.529 73.4794 71.529 73.4396C71.529 73.3998 71.468 73.3998 71.468 73.4396C71.468 73.4993 71.468 73.5192 71.407 73.5988C71.2443 73.8176 70.858 73.8176 70.6547 73.5391C70.5937 73.4396 70.5123 73.3202 70.5937 73.3003C70.675 73.2804 70.919 73.3202 71.0817 73.3401C71.1833 73.3401 71.407 73.36 71.4477 73.3799C71.468 73.3998 71.5087 73.4197 71.5087 73.3799C71.5087 73.3401 71.5087 73.1809 71.5087 73.1212C71.5087 73.0814 71.468 73.1013 71.4477 73.1212C71.4273 73.1411 71.1833 73.1809 71.0817 73.2008C70.98 73.2207 70.675 73.2406 70.5937 73.2207C70.5123 73.2008 70.5327 73.0416 70.614 72.9421C70.8173 72.6635 71.2443 72.6834 71.407 72.9222C71.468 73.0018 71.468 73.0217 71.468 73.0814C71.468 73.1212 71.529 73.1212 71.529 73.0814C71.529 73.0416 71.529 72.6237 71.529 72.6038C71.529 72.564 71.468 72.564 71.468 72.6038C71.468 72.6436 71.407 72.6436 71.3257 72.6436C71.2037 72.6038 70.8173 72.6635 70.6343 72.7431C70.492 72.8227 70.2683 73.0217 70.2683 73.2605ZM70.3293 73.9768C70.3293 74.0962 70.37 75.0911 70.37 75.2304C70.37 75.31 70.4717 75.3896 70.5733 75.4493C70.614 75.3896 70.7157 75.2503 70.8173 75.1906C70.858 75.1508 70.8377 75.1309 70.797 75.1309C70.7157 75.1707 70.6343 75.1309 70.6343 75.0513C70.6343 74.9717 70.6343 74.1161 70.6343 73.9768C70.553 73.9967 70.3903 73.9967 70.3293 73.9768ZM71.1833 74.7927C71.1223 74.8524 71.0003 75.0115 71.0003 75.1309C71.0003 75.2503 71.0613 75.3697 71.1427 75.4294C71.2647 75.3498 71.346 75.2304 71.5493 75.1508C71.5697 75.2503 71.651 75.2503 71.7323 75.31C71.773 75.2503 71.956 75.0513 71.9967 75.0115C72.0373 74.9717 72.017 74.9319 71.956 74.9717C71.895 75.0115 71.8543 74.9916 71.773 74.8922C71.773 74.8325 71.773 74.4146 71.7933 74.3947C71.712 74.3151 71.6307 74.1957 71.529 74.1957C71.3867 74.2156 71.2037 74.4544 71.163 74.5141C71.1223 74.5539 71.163 74.733 71.1833 74.7529C71.163 74.7927 71.163 74.7927 71.1833 74.7927ZM71.285 74.8723C71.3663 74.912 71.407 74.8922 71.529 74.8723C71.529 74.9518 71.529 75.0115 71.529 75.0513C71.468 75.0911 71.407 75.1309 71.3257 75.1707C71.2647 75.111 71.163 75.0712 71.285 74.8723ZM71.2037 74.5141C71.2647 74.4345 71.285 74.4146 71.3257 74.4146C71.3663 74.4146 71.5087 74.5141 71.5087 74.5738C71.5087 74.6136 71.5087 74.7131 71.5087 74.7927C71.407 74.8126 71.3257 74.8126 71.2037 74.7131C71.1833 74.7131 71.1833 74.5539 71.2037 74.5141ZM72.0983 74.3549C71.9967 74.3947 72.2203 74.4743 72.2 74.4743C72.2 74.7131 72.139 75.111 72.2407 75.2304C72.3017 75.31 72.4033 75.3498 72.4847 75.3299C72.566 75.2901 72.6677 75.1508 72.688 75.1309C72.749 75.0911 72.688 75.0513 72.6473 75.0911C72.6067 75.1309 72.4643 75.111 72.4643 75.0513C72.444 75.0115 72.444 74.4743 72.4643 74.4743C72.4643 74.4743 72.627 74.4743 72.6677 74.4743C72.7083 74.4743 72.7083 74.3748 72.6677 74.3748C72.6067 74.3748 72.4847 74.3549 72.4847 74.335C72.4643 74.2952 72.4847 74.1161 72.5253 74.0564C72.566 73.9967 72.505 73.9569 72.4643 74.0166C72.4237 74.1161 72.261 74.2753 72.0983 74.3549ZM72.139 73.2605C72.139 73.4794 72.0373 73.7181 71.895 73.8375C72.1187 73.7778 72.1593 73.6386 72.2813 73.4993C72.3423 73.5988 72.4847 73.7181 72.566 73.7778C72.627 73.738 72.81 73.5391 72.8507 73.4794C72.7083 73.4396 72.4643 73.3003 72.383 73.161C72.322 73.0615 72.3423 73.0018 72.4033 72.9222C72.444 72.9819 72.7693 73.1212 72.9117 72.8824C72.749 72.8227 72.627 72.7232 72.566 72.6436C72.5253 72.6834 72.383 72.8227 72.3017 72.8625C72.2813 72.7829 72.1593 72.6834 72.0577 72.6834C72.017 72.7232 71.773 72.9023 71.6713 72.962C71.6307 72.9819 71.651 73.0416 71.6917 73.0416C71.7323 73.0217 71.8137 72.962 71.895 72.9222C72.017 72.962 72.1187 73.0615 72.139 73.2605ZM73.2167 73.3003C73.237 73.161 73.3387 73.1013 73.3997 73.0615C73.4607 73.1212 73.5217 73.2008 73.6233 73.2008C73.725 73.2008 73.8063 73.161 73.847 73.1212C73.7657 73.0615 73.5827 72.8824 73.5623 72.8426C73.481 72.8824 73.0743 73.0814 73.054 73.3202C73.0133 73.6584 73.115 73.7181 73.2573 73.9171C73.3387 74.0166 73.481 74.0365 73.542 74.0166C73.603 73.9768 73.8673 73.738 73.8877 73.6982C73.908 73.6783 73.8673 73.6385 73.847 73.6783C73.8063 73.6982 73.8267 73.7181 73.786 73.7181C73.7453 73.7181 73.5623 73.7579 73.4607 73.6982C73.359 73.6386 73.176 73.4993 73.2167 73.3003ZM73.0337 74.3748C72.9727 74.4345 72.871 74.4942 72.7897 74.5937C72.871 74.5937 72.932 74.6136 72.9727 74.6932C73.0133 74.7728 72.9727 75.0712 72.993 75.1906C72.993 75.31 73.0743 75.3299 73.1557 75.4294C73.2573 75.4095 73.5013 75.31 73.603 75.2503C73.603 75.3498 73.725 75.4493 73.786 75.4692C73.8267 75.4095 73.8877 75.3896 73.9487 75.3299C73.8877 75.2901 73.8877 75.2702 73.8673 75.1906C73.847 75.111 73.8673 74.7728 73.8673 74.6335C73.8063 74.5539 73.725 74.4544 73.6233 74.3947C73.5623 74.4544 73.481 74.534 73.359 74.6335C73.4403 74.6136 73.5827 74.6534 73.603 74.7131C73.603 74.7927 73.6233 74.9717 73.603 75.111C73.5827 75.2503 73.1963 75.1906 73.1963 75.0911C73.1963 74.9916 73.2167 74.7131 73.2167 74.5937C73.1557 74.4942 73.1353 74.4544 73.0337 74.3748ZM70.492 77.7376C70.2683 77.6978 70.1057 77.5386 69.9023 77.459C69.6177 77.3596 69.333 77.5585 69.333 77.5983C69.333 77.6779 69.4143 77.7177 69.638 77.5784C69.455 77.7774 69.6583 77.9366 69.6583 77.9366C69.577 77.9167 69.4753 77.8968 69.4143 77.857C69.394 77.9366 69.4957 77.9565 69.5567 77.9963C69.9227 78.1555 70.1667 77.7973 70.492 77.7376ZM69.8617 77.9366C69.8617 77.9366 69.9633 77.8371 69.9633 77.7575C69.9633 77.658 69.8617 77.5784 69.8617 77.5784C69.943 77.5983 70.1463 77.7177 70.2277 77.7575L69.8617 77.9366ZM67.808 75.1508L67.9097 75.0314C67.7877 75.0115 67.8487 75.0115 67.7877 74.9518V74.4743L67.625 74.2554H67.564L67.32 74.4743C67.259 74.534 67.32 74.5539 67.381 74.4942L67.5437 74.5738V75.0911C67.564 75.1508 67.6047 75.1707 67.686 75.2503L67.808 75.1508ZM67.869 73.4595C67.9503 73.6982 68.1537 73.7579 68.296 73.7778C68.3367 73.6982 68.418 73.5789 68.4587 73.5192C68.5197 73.4396 68.4587 73.3799 68.418 73.4794C68.3773 73.559 68.1943 73.4794 68.1333 73.3998C68.0317 73.3202 67.991 73.1013 68.052 73.0217C68.1333 72.9421 68.235 72.9819 68.3773 72.9819C68.479 72.9819 68.479 72.9023 68.4993 72.8625C68.4587 72.8426 68.3977 72.8028 68.296 72.763C68.2147 72.8227 68.0723 72.9421 68.0113 72.9819C67.93 73.0416 67.7877 73.2406 67.869 73.4595ZM68.2147 74.7529C68.1333 74.8524 68.052 74.9518 68.052 75.0712C68.052 75.1906 68.0927 75.31 68.2147 75.3697C68.3163 75.2901 68.4587 75.1906 68.601 75.1707C68.662 75.2503 68.7637 75.31 68.8247 75.3498C68.8653 75.2901 69.0077 75.1906 69.0483 75.1508C69.089 75.111 69.0483 75.0712 69.0077 75.111C68.9873 75.1508 68.8857 75.1309 68.8653 75.0712C68.8653 75.0115 68.8247 74.4942 68.845 74.4544C68.7637 74.3748 68.6213 74.1758 68.54 74.1758C68.3977 74.1957 68.2147 74.3748 68.1537 74.4345C68.1333 74.4942 68.174 74.7131 68.2147 74.7529C68.2147 74.733 68.2147 74.733 68.2147 74.7529ZM68.5603 74.7927C68.4587 74.7927 68.3773 74.7728 68.2553 74.6733C68.235 74.6534 68.2147 74.534 68.235 74.4942C68.2757 74.4146 68.2757 74.3947 68.3163 74.3947C68.357 74.3947 68.5603 74.5141 68.54 74.5738C68.5807 74.6136 68.5807 74.7131 68.5603 74.7927ZM68.296 74.8126C68.3977 74.8723 68.4383 74.8723 68.5603 74.8524C68.5603 74.912 68.5603 74.9717 68.5603 74.9916C68.5603 75.0115 68.5807 75.0314 68.5807 75.0712C68.5197 75.0911 68.4383 75.111 68.3773 75.1309C68.3163 75.0911 68.1333 74.9518 68.296 74.8126ZM69.0687 73.8176L69.1703 73.6982C69.0483 73.6783 69.0483 73.6783 68.9873 73.6187V73.0615L68.8857 72.9023H68.8247L68.5807 73.1212C68.5197 73.1809 68.5807 73.2008 68.6417 73.1411L68.7637 73.2207V73.738C68.784 73.7977 68.8247 73.8176 68.906 73.8972L69.0687 73.8176ZM68.8653 71.8676C68.8247 71.8676 68.7433 71.9472 69.028 71.987C69.089 71.987 69.15 71.8676 68.8653 71.8676ZM68.8653 71.6885C68.8247 71.6885 68.7433 71.8278 69.028 71.8079C69.089 71.8079 69.1297 71.7084 68.8653 71.6885ZM68.9263 72.564L68.8043 72.4247L68.6823 72.5441V72.7033L68.7637 72.7829H68.845L68.9467 72.7033V72.564H68.9263ZM68.662 71.3701C68.5807 71.3104 68.479 71.1711 68.2757 71.1711C68.0723 71.1711 67.8283 71.3502 67.747 71.4696C67.6453 71.6288 67.7673 71.7681 67.9097 71.8676C67.8283 71.9472 67.7063 72.0467 67.6047 72.1462C67.6453 72.186 67.8893 72.3054 68.0317 72.3054C68.235 72.3054 68.418 72.2059 68.54 72.1064C68.7433 71.9472 68.6823 71.7681 68.4587 71.6487C68.4383 71.6288 68.418 71.6288 68.3977 71.6288C68.5197 71.4895 68.6417 71.4099 68.662 71.3701ZM68.1333 71.8079C68.2147 71.8477 68.2757 71.8676 68.357 71.9074C68.479 71.9671 68.418 72.0865 68.296 72.1462C68.174 72.2059 67.9503 72.0467 67.9097 71.987C67.9503 71.9472 68.0317 71.8676 68.1333 71.8079ZM68.357 71.5094C68.3367 71.5293 68.2757 71.5691 68.235 71.6089C68.1943 71.6089 68.174 71.6089 68.1333 71.6089C68.0317 71.589 67.9707 71.5094 67.93 71.4497C67.8893 71.39 68.0113 71.3303 68.0723 71.3303C68.1333 71.3502 68.2757 71.4298 68.357 71.5094ZM67.4827 71.9671C67.1777 72.0467 67.015 71.8079 66.9947 71.7283C67.1167 71.6089 67.3403 71.39 67.4623 71.2905C67.381 71.2109 67.3403 71.0915 67.1777 71.0716C67.0353 71.0716 66.7303 71.2308 66.6693 71.6089C66.6083 71.987 66.9743 72.186 67.259 72.186C67.3607 72.186 67.4623 72.0666 67.5233 72.0467C67.6657 71.987 67.625 71.9273 67.4827 71.9671ZM66.954 71.6487C66.8727 71.39 66.9133 71.3104 67.0557 71.191C67.0963 71.2706 67.1777 71.3303 67.2387 71.3701C67.1573 71.4497 67.015 71.6089 66.954 71.6487ZM66.6083 71.4298C66.6693 71.3701 66.6083 71.3502 66.5677 71.39C66.527 71.3502 66.4457 71.2507 66.3847 71.2109C66.3237 71.2507 66.222 71.3303 66.1407 71.3502C66.0797 71.2905 66.0187 71.2905 65.917 71.2109C65.856 71.2507 65.734 71.3502 65.673 71.4298C65.795 71.4696 65.8763 71.4696 65.8967 71.5691C65.8967 71.6487 65.8967 72.1462 65.8967 72.2457C65.9577 72.2656 66.039 72.2457 66.1203 72.2457C66.1203 72.1661 66.1203 71.5492 66.1203 71.4696C66.161 71.4497 66.1813 71.4298 66.2017 71.4099C66.2423 71.4298 66.3237 71.5492 66.3847 71.589C66.4253 71.5492 66.5473 71.4696 66.6083 71.4298ZM65.612 72.7431C65.4697 72.763 65.2867 72.9023 65.2257 73.0416C65.2053 73.1013 65.246 73.2804 65.2663 73.3003C65.2867 73.3202 65.307 73.3202 65.307 73.3401C65.2257 73.4197 65.124 73.4993 65.1443 73.6187C65.1443 73.738 65.246 73.8375 65.368 73.8972C65.429 73.7977 65.5307 73.738 65.6527 73.7181C65.6527 73.8176 65.6933 73.8773 65.7543 73.9171C65.795 73.8773 65.978 73.7181 66.0187 73.6783C66.0593 73.6385 66.0187 73.5987 65.978 73.6385C65.9577 73.6584 65.8967 73.6187 65.8763 73.5988C65.8763 73.5391 65.8763 73.0217 65.8967 72.9819C65.7747 72.9023 65.6933 72.7232 65.612 72.7431ZM65.6323 73.2804C65.49 73.3799 65.429 73.3799 65.3273 73.2605C65.2663 73.2008 65.2867 73.0814 65.307 73.0416C65.3477 72.962 65.429 72.9023 65.4697 72.9023C65.5103 72.9023 65.6323 73.0416 65.612 73.1212C65.612 73.1411 65.612 73.2008 65.6323 73.2804ZM65.6323 73.5391C65.6323 73.559 65.6323 73.5988 65.6323 73.6187C65.612 73.6187 65.5713 73.6385 65.5307 73.6584C65.4697 73.6186 65.2053 73.5192 65.3883 73.3998C65.49 73.4595 65.5307 73.4197 65.6323 73.36C65.6323 73.4396 65.6323 73.5192 65.6323 73.5391ZM65.5103 72.4048C65.49 72.3849 65.4493 72.3452 65.4493 72.3054C65.4493 72.2656 65.4493 71.9472 65.4493 71.9074C65.4493 71.8676 65.368 71.8676 65.368 71.9074C65.368 71.9671 65.368 72.0666 65.3273 72.1462C65.185 72.365 64.9003 72.4446 64.7173 72.186C64.6563 72.1064 64.636 71.9671 64.636 71.8676C64.6157 71.7482 64.7173 71.5691 64.7377 71.5492C64.9817 71.2308 65.3273 71.4696 65.3477 71.589C65.368 71.6686 65.3883 71.788 65.3883 71.8278C65.3883 71.8676 65.4697 71.8676 65.4697 71.8278C65.4697 71.788 65.4697 71.3104 65.4697 71.2706C65.4697 71.2308 65.4087 71.2308 65.4087 71.2706C65.4087 71.3502 65.368 71.3502 65.307 71.3303C65.185 71.2905 64.9003 71.2308 64.7377 71.3303C64.5953 71.4099 64.3717 71.6089 64.392 71.8477C64.392 72.2457 64.5547 72.2656 64.7173 72.3849C64.88 72.4844 65.1037 72.4247 65.3273 72.365C65.4087 72.3451 65.429 72.3849 65.4697 72.4446C65.5103 72.5441 65.551 72.4844 65.5103 72.4048ZM64.392 72.962C64.2497 73.161 64.1683 73.4993 64.4123 73.6982C64.5343 73.7977 64.6157 73.8574 64.8597 73.8176C64.9003 73.7181 64.9207 73.6982 65.002 73.5988C64.8393 73.6187 64.7173 73.5988 64.5953 73.4993C64.3513 73.3202 64.4327 73.0217 64.4937 72.9222C64.6157 72.7431 64.7987 73.0018 64.8393 73.0416C64.88 72.9819 64.9613 72.9222 65.0223 72.8625C64.941 72.763 64.9003 72.6834 64.8393 72.6237C64.7173 72.7033 64.4937 72.8227 64.392 72.962ZM64.4937 74.7728C64.4327 75.1508 64.7987 75.3697 64.9817 75.4493C65.0223 75.3697 65.124 75.2304 65.2053 75.1309C65.2663 75.0513 65.2053 75.0314 65.1443 75.0911C65.063 75.1707 64.819 75.0911 64.758 74.9916C64.88 74.912 65.1647 74.6534 65.307 74.5539C65.2257 74.4743 65.0833 74.2753 65.063 74.1559C64.941 74.2156 64.5547 74.3748 64.4937 74.7728ZM64.8597 74.3748C64.9003 74.4544 65.002 74.6335 65.063 74.6534C64.9817 74.733 64.758 74.8723 64.697 74.9121C64.5953 74.7728 64.5343 74.5738 64.8597 74.3748ZM65.6527 74.2355C65.5713 74.2952 65.5103 74.3748 65.4087 74.4544C65.4493 74.5141 65.551 74.5937 65.551 74.6733C65.551 74.7728 65.551 75.2304 65.551 75.3498C65.6323 75.3498 65.612 75.3498 65.7543 75.3498C65.734 75.2702 65.7543 74.6733 65.7543 74.5937C65.8153 74.5539 65.8153 74.534 65.8763 74.4942C65.917 74.534 66.0187 74.5539 66.0187 74.6136C66.0187 74.6733 66.039 74.9717 66.0187 75.0712C65.9983 75.1906 65.9983 75.2901 66.0797 75.4294C66.1407 75.3697 66.344 75.2304 66.3847 75.1906C66.4253 75.1508 66.405 75.1309 66.344 75.1508C66.283 75.1707 66.283 75.1707 66.283 75.1309C66.283 75.0712 66.2627 74.7529 66.2423 74.5539C66.2423 74.3549 66.1407 74.2952 66.0797 74.2753C66.0187 74.335 65.8967 74.4146 65.8153 74.4942C65.7543 74.4345 65.7137 74.335 65.6527 74.2355ZM66.4863 73.738C66.5473 73.6783 66.6083 73.5988 66.6287 73.5789C66.6897 73.5391 66.6287 73.4993 66.588 73.5391C66.5473 73.5789 66.466 73.4993 66.4457 73.4794C66.405 73.4396 66.3643 72.9819 66.3847 72.9819C66.3847 72.9819 66.6897 72.9421 66.7303 72.9421C66.7507 72.9421 66.771 72.8426 66.7303 72.8426C66.6897 72.8426 66.4457 72.8824 66.4457 72.8426C66.4253 72.8028 66.405 72.6237 66.4863 72.4844C66.527 72.4247 66.4863 72.3651 66.466 72.4247C66.4457 72.4844 66.2627 72.763 66.1407 72.8227C66.039 72.8625 66.0593 72.8824 66.1203 72.9023C66.161 72.9222 66.222 72.962 66.222 72.962C66.2017 73.2008 66.1813 73.4794 66.2627 73.6187C66.283 73.7181 66.4253 73.7977 66.4863 73.738ZM67.503 73.8574C67.4623 73.937 67.4013 73.9967 67.2997 74.0365C67.3607 74.0962 67.442 74.1559 67.503 74.1957C67.564 74.1161 67.625 74.0564 67.7063 73.9967C67.625 73.9768 67.5437 73.937 67.503 73.8574ZM67.0353 73.5988C67.137 73.5988 67.2793 73.6385 67.442 73.6385C67.6453 73.6186 67.808 73.3202 67.7063 73.0814C67.625 72.8625 67.3607 72.9023 67.198 72.8426C67.0353 72.8028 66.9743 72.7033 67.137 72.5839C67.3403 72.4645 67.5843 72.6635 67.625 72.7033C67.6657 72.763 67.686 72.763 67.686 72.6834C67.686 72.5043 67.6657 72.6038 67.6453 72.4247C67.6453 72.3651 67.5843 72.3651 67.5843 72.4247C67.5843 72.4844 67.503 72.4645 67.442 72.4645C67.381 72.4645 67.2183 72.4446 67.076 72.5242C66.9743 72.5839 66.771 72.7431 66.893 72.9421C66.954 73.0615 67.381 73.1411 67.4827 73.2207C67.5843 73.2804 67.6047 73.4595 67.503 73.5391C67.381 73.6385 67.0557 73.559 66.9947 73.4993C66.9337 73.4197 66.893 73.36 66.893 73.2804C66.8727 73.2008 66.8117 73.2008 66.8117 73.2804C66.8117 73.36 66.832 73.6187 66.8523 73.6982C66.8727 73.7579 66.9337 73.738 66.9337 73.6982C66.954 73.6187 66.9947 73.5988 67.0353 73.5988ZM66.6083 74.4345C66.527 74.4942 66.71 74.5738 66.6897 74.5738C66.6897 74.8126 66.6693 75.0513 66.7507 75.1707C66.8117 75.2503 66.954 75.2901 66.9947 75.2304C67.015 75.1508 67.137 75.0115 67.1777 74.9916C67.2387 74.9518 67.1777 74.912 67.137 74.9518C67.0557 75.0513 66.9947 74.9916 66.9337 74.9319C66.893 74.8921 66.893 74.5738 66.9133 74.5539C66.9133 74.5539 67.076 74.534 67.1167 74.534C67.137 74.534 67.137 74.4345 67.1167 74.4345C67.076 74.4345 66.9133 74.4345 66.9133 74.4146C66.893 74.3748 66.9337 74.1559 66.954 74.0564C66.954 73.9768 66.9133 73.9569 66.893 74.0365C66.8523 74.0763 66.6897 74.3748 66.6083 74.4345Z" fill="#E1E7ED"/>
</svg>
