<svg width="242" height="161" viewBox="0 0 242 161" fill="none" xmlns="http://www.w3.org/2000/svg">
<g clip-path="url(#clip0_8449_6579)">
<mask id="mask0_8449_6579" style="mask-type:luminance" maskUnits="userSpaceOnUse" x="-342" y="-674" width="558" height="838">
<path d="M-341.237 -673.123H215.892V163.29H-341.237V-673.123Z" fill="white"/>
</mask>
<g mask="url(#mask0_8449_6579)">
<mask id="mask1_8449_6579" style="mask-type:luminance" maskUnits="userSpaceOnUse" x="45" y="43" width="150" height="75">
<path d="M45.2714 43.0156H195V117.985H45.2714V43.0156Z" fill="white"/>
</mask>
<g mask="url(#mask1_8449_6579)">
<path d="M73.7197 73.4624C76.13 73.5321 75.9327 72.2736 75.9327 71.0209V60.8794C75.9327 59.133 75.9637 58.4418 73.6907 58.4418C71.2358 58.4418 71.2145 59.0633 71.2803 61.284L71.5318 70.4401C71.5898 72.4827 71.4873 73.3966 73.7197 73.4624ZM67.2372 74.1575V73.4508C69.2839 73.2475 69.3845 73.1216 69.3594 70.4401L69.2839 60.1204H69.1814L63.0162 73.9813H62.5113L56.8491 60.4728H56.7988L56.4196 67.683C56.319 69.7566 56.319 70.8699 56.3442 71.8806C56.3945 73.0945 57.0019 73.2726 58.6694 73.4508V74.1575H52.7809V73.4508C54.2472 73.2726 54.7521 72.9938 54.9282 71.9328C55.0558 71.0461 55.2067 69.9328 55.4098 67.3035L55.7619 62.043C55.9902 58.7535 55.8644 58.6528 53.5643 58.4244V57.7177H57.708L63.4708 70.3646L69.3091 57.7177H80.885C83.4566 57.4845 86.0188 58.2544 88.0367 59.8668C88.7382 60.5836 89.2879 61.4348 89.6529 62.3693C90.0178 63.3038 90.1906 64.3025 90.1608 65.3054C90.2251 66.5985 89.976 67.888 89.4347 69.064C88.8934 70.2399 88.076 71.2673 87.0521 72.0587C84.8562 73.581 82.2126 74.3202 79.5463 74.1575H67.2372ZM78.1051 70.8447C78.1051 72.7673 78.9389 73.2475 80.7844 73.2475C85.5103 73.2475 87.6847 69.7063 87.6847 65.6597C87.7702 64.4773 87.5389 63.2935 87.0145 62.2306C86.4901 61.1676 85.6917 60.264 84.7017 59.6132C83.3978 58.8643 81.9068 58.5048 80.4052 58.5773C79.7332 58.5158 79.0564 58.6202 78.434 58.8813C78.1806 59.0575 78.1051 59.3363 78.1051 60.3218V70.8447Z" fill="#E1E7ED"/>
<path d="M99.8824 60.0089H99.8301C98.9848 62.2839 98.1394 64.584 97.3463 66.7525H102.208L99.8824 60.0089ZM108.738 73.3993C110.359 73.3993 110.543 73.0004 110.543 71.2869V65.5753C110.543 63.8095 110.379 63.7263 108.889 63.4494V62.8144C110.208 62.5937 111.494 62.214 112.721 61.6837V63.8909C113.273 63.4785 113.88 63.0641 114.569 62.5936C115.235 62.1 116.03 61.8126 116.857 61.7669C119.036 61.7669 120.415 63.2849 120.415 65.9606V71.2869C120.415 73.165 120.552 73.2753 122.152 73.4399V74.1582H116.416V73.4399C118.043 73.2753 118.237 73.0546 118.237 71.1495V66.5414C118.237 64.6363 117.575 63.3952 115.728 63.3952C114.593 63.5029 113.531 64.0002 112.721 64.8028V71.2869C112.721 73.165 112.888 73.2753 114.515 73.4399V74.1582H102.473V73.4167C104.136 73.2056 104.374 72.9946 104.032 71.9626C103.687 70.9326 103.159 69.5037 102.579 67.8909H96.9497C96.528 69.0797 96.1314 70.1911 95.7871 71.3005C95.2067 72.9675 95.4447 73.2328 97.4256 73.4167V74.1582H91.6918V73.4167C93.3574 73.1805 93.7268 73.0217 94.6515 70.6945L100.12 56.8085L100.941 56.5703C102.579 61.1202 104.349 66.1445 106.04 70.7467C106.585 72.2124 106.995 73.3993 108.738 73.3993Z" fill="#E1E7ED"/>
<path d="M135.441 73.4401C133.991 73.6796 132.562 74.0304 131.166 74.4895V72.6947L129.485 73.6899C128.842 74.1244 128.104 74.3986 127.333 74.4895C125.881 74.3808 124.53 73.7021 123.575 72.6012C122.62 71.5002 122.138 70.0662 122.234 68.6114C122.291 66.7667 123.066 65.0174 124.396 63.7382C125.725 62.459 127.501 61.7514 129.345 61.7671C129.963 61.7797 130.577 61.8814 131.166 62.0691V59.7051C131.166 57.8832 131.028 57.8019 129.044 57.6625V57.0003C130.502 56.8017 131.941 56.4785 133.344 56.0342V70.9851C133.344 72.4197 133.535 72.5572 134.557 72.6676L135.441 72.7508V73.4401ZM131.166 64.195C130.841 63.7488 130.413 63.3878 129.918 63.1427C129.424 62.8976 128.877 62.7757 128.326 62.7874C127.057 62.7874 124.739 63.8639 124.739 67.8659C124.739 71.1496 126.753 72.7508 128.517 72.7508C129.476 72.7192 130.401 72.3912 131.166 71.8118V64.195Z" fill="#E1E7ED"/>
<path d="M145.145 71.8123C144.633 72.5564 143.966 73.181 143.19 73.6432C142.415 74.1053 141.549 74.3942 140.651 74.49C139.904 74.4819 139.167 74.3205 138.486 74.0157C137.804 73.711 137.192 73.2694 136.688 72.7183C136.184 72.1672 135.798 71.5184 135.555 70.812C135.311 70.1057 135.216 69.3568 135.273 68.6118C135.254 66.8307 135.903 65.1072 137.091 63.7812C137.587 63.1845 138.201 62.6974 138.894 62.3508C139.587 62.0042 140.345 61.8056 141.119 61.7676H141.146C142.242 61.8014 143.283 62.2556 144.053 63.0363C144.823 63.817 145.264 64.8643 145.284 65.9613C145.284 66.5131 145.145 66.7338 144.648 66.8441C144.179 66.9274 140.734 67.2043 137.451 67.3146C137.48 71.0669 139.63 72.6138 141.56 72.6138C142.749 72.5863 143.879 72.0902 144.704 71.2334L145.145 71.8123ZM140.457 62.7879C139.216 62.7879 138.003 63.9477 137.589 66.182C139.134 66.182 140.651 66.1549 142.249 66.0987C142.746 66.0987 142.91 65.9342 142.91 65.5469C142.942 65.2044 142.903 64.859 142.796 64.532C142.69 64.205 142.518 63.9031 142.291 63.6449C142.064 63.3866 141.786 63.1775 141.476 63.0301C141.165 62.8828 140.828 62.8004 140.485 62.7879H140.457Z" fill="#E1E7ED"/>
<path d="M149.942 64.6914C150.77 63.3109 151.956 61.7659 153.279 61.7659C153.671 61.7472 154.056 61.88 154.354 62.1368C154.651 62.3936 154.839 62.755 154.879 63.1463C154.869 63.4311 154.782 63.7079 154.627 63.9466C154.471 64.1852 154.253 64.3765 153.996 64.4997C153.882 64.5693 153.749 64.6014 153.615 64.5913C153.482 64.5812 153.354 64.5296 153.252 64.4436C153.115 64.2654 152.94 64.1206 152.739 64.02C152.538 63.9194 152.317 63.8656 152.093 63.8627C151.375 63.8627 150.493 64.6914 149.886 66.2364V71.2878C149.886 73.1097 150.025 73.2743 152.149 73.4408V74.1572H145.806V73.4408C147.516 73.2743 147.707 73.1097 147.707 71.2878V65.5743C147.707 63.7524 147.57 63.642 145.999 63.4232V62.8153C147.339 62.609 148.645 62.2282 149.886 61.6826V64.6914H149.942Z" fill="#E1E7ED"/>
<path d="M162.129 65.3547C161.604 63.7265 160.639 62.6209 159.289 62.6209C159.044 62.6214 158.802 62.6719 158.577 62.7693C158.353 62.8667 158.15 63.0089 157.982 63.1872C157.815 63.3655 157.685 63.5762 157.601 63.8064C157.517 64.0366 157.481 64.2815 157.495 64.5261C157.495 65.74 158.6 66.4022 159.84 66.9269C161.908 67.7827 163.314 68.7759 163.314 70.6811C163.273 71.2329 163.121 71.7708 162.869 72.2631C162.616 72.7553 162.267 73.1918 161.843 73.5468C161.419 73.9018 160.928 74.1682 160.399 74.3301C159.87 74.492 159.315 74.5462 158.765 74.4895C157.637 74.5072 156.531 74.1803 155.594 73.5524C155.31 72.4892 155.162 71.3943 155.153 70.2938L155.869 70.1564C156.366 71.9783 157.606 73.5795 159.262 73.5795C159.518 73.5839 159.772 73.5371 160.01 73.4419C160.247 73.3466 160.464 73.2049 160.646 73.025C160.828 72.845 160.973 72.6305 161.071 72.3939C161.17 72.1573 161.22 71.9035 161.219 71.6472C161.219 70.4332 160.42 69.7691 159.039 69.136C157.385 68.3635 155.594 67.4516 155.594 65.3276C155.624 64.8141 155.758 64.312 155.987 63.8517C156.216 63.3913 156.537 62.9824 156.929 62.6495C157.321 62.3167 157.776 62.0669 158.267 61.9152C158.758 61.7635 159.275 61.7131 159.786 61.7671C160.627 61.7475 161.464 61.9072 162.239 62.2356C162.512 63.2039 162.715 64.1906 162.846 65.1882L162.129 65.3547Z" fill="#E1E7ED"/>
<path d="M170.648 61.7666C171.446 61.7689 172.235 61.931 172.969 62.2435C173.704 62.5559 174.368 63.0124 174.923 63.5858C175.478 64.1593 175.913 64.8382 176.202 65.5825C176.49 66.3269 176.627 67.1215 176.604 67.9197C176.663 68.7488 176.552 69.5811 176.28 70.3662C176.007 71.1513 175.578 71.8728 175.019 72.4871C174.459 73.1013 173.781 73.5954 173.025 73.9396C172.269 74.2837 171.451 74.4706 170.621 74.489C169.821 74.4981 169.027 74.3462 168.287 74.0423C167.546 73.7383 166.874 73.2886 166.311 72.7197C165.748 72.1508 165.304 71.4744 165.007 70.7306C164.71 69.9869 164.565 69.1909 164.582 68.3901C164.537 67.5568 164.658 66.7229 164.939 65.937C165.219 65.1511 165.653 64.4289 166.215 63.8124C166.777 63.196 167.456 62.6977 168.213 62.3464C168.969 61.9952 169.788 61.7981 170.621 61.7666H170.648ZM170.317 62.6766C168.634 62.6766 167.147 64.3881 167.147 67.5073C167.147 70.9846 168.663 73.579 170.925 73.579C172.633 73.579 174.039 72.3089 174.039 68.5276C174.039 65.2981 172.743 62.6766 170.344 62.6766H170.317Z" fill="#E1E7ED"/>
<path d="M184.545 74.1582V73.4398C186.171 73.2753 186.365 73.0546 186.365 71.1494V66.5414C186.365 64.6362 185.703 63.3951 183.854 63.3951C182.72 63.5028 181.659 64.0002 180.85 64.8027V71.2869C180.85 73.1649 181.014 73.2753 182.643 73.4398V74.1582H176.658V73.4398C178.534 73.2482 178.672 73.1088 178.672 71.2869V65.5752C178.672 63.8095 178.507 63.7262 177.018 63.4494V62.8143C178.336 62.5936 179.623 62.2139 180.85 61.6836V63.8908C181.401 63.4784 182.008 63.0641 182.697 62.5936C183.363 62.0999 184.158 61.8125 184.986 61.7668C187.164 61.7668 188.543 63.2848 188.543 65.9605V71.2869C188.543 73.1649 188.68 73.2753 190.28 73.4398V74.1582H184.545Z" fill="#E1E7ED"/>
<path d="M68.1075 90.031C67.7115 91.4105 67.2103 92.7575 66.6083 94.0601C65.0257 94.4729 63.4027 94.7105 61.7683 94.7688C55.22 94.7688 52.3531 90.2421 52.3531 86.0561C52.3531 80.5285 56.6148 76.8691 62.4782 76.8691C64.0522 76.9287 65.6143 77.167 67.1345 77.5797C67.3454 79.0802 67.502 80.1335 67.6607 81.5546L66.8714 81.7385C66.7078 80.5441 66.0802 79.4624 65.1249 78.7281C64.1696 77.9937 62.9635 77.666 61.7683 77.8159C57.377 77.8159 55.0363 81.5294 55.0363 85.5295C55.0363 90.4531 57.9283 93.822 61.9269 93.822C64.61 93.822 66.0299 92.3738 67.3454 89.7406L68.1075 90.031Z" fill="#E1E7ED"/>
<path d="M77.2115 94.705C76.7368 94.6725 76.2849 94.4893 75.9212 94.1822C75.6024 93.8309 75.3757 93.4057 75.2616 92.945C74.3213 93.7581 73.2167 94.3584 72.0233 94.705C71.5868 94.7021 71.1552 94.613 70.7532 94.4428C70.3512 94.2726 69.9868 94.0245 69.6809 93.7129C69.375 93.4013 69.1336 93.0323 68.9705 92.6271C68.8075 92.2219 68.726 91.7884 68.7308 91.3516C68.7247 90.7097 68.9438 90.0861 69.35 89.5893C69.7562 89.0926 70.3237 88.7542 70.9535 88.6332C72.4363 88.2067 73.864 87.6075 75.2074 86.8481V86.3525C75.2074 84.3757 74.275 83.2488 72.9015 83.2488C72.6677 83.2413 72.4352 83.2869 72.2214 83.3822C72.0077 83.4774 71.8183 83.6198 71.6673 83.7987C71.2483 84.3157 70.965 84.9293 70.8432 85.5838C70.817 85.7734 70.7209 85.9462 70.5738 86.0684C70.4266 86.1906 70.2391 86.2532 70.0482 86.244C69.7416 86.2156 69.4542 86.0825 69.234 85.8671C69.0139 85.6517 68.8745 85.3671 68.8391 85.0611C68.8391 84.6506 69.197 84.3466 69.7174 83.9633C70.9585 83.0712 72.3554 82.4191 73.8359 82.0407C74.6481 82.0254 75.4414 82.2869 76.0857 82.7822C76.5375 83.2065 76.8844 83.7302 77.099 84.3119C77.3135 84.8936 77.3898 85.5173 77.3218 86.1337V91.2432C77.3218 92.4803 77.8151 92.8908 78.2813 92.8908C78.6311 92.8757 78.9713 92.7718 79.2698 92.5888L79.5445 93.3032L77.2115 94.705ZM75.2074 87.7813C74.6309 88.0834 73.3136 88.6603 72.7371 88.9353C71.6673 89.4309 71.0638 89.9517 71.0638 90.9411C71.0498 91.2088 71.0895 91.4766 71.1804 91.7287C71.2712 91.9808 71.4115 92.2122 71.593 92.4094C71.7744 92.6065 71.9934 92.7654 72.2371 92.8766C72.4807 92.9879 72.7441 93.0493 73.0118 93.0573C73.8292 92.9648 74.5971 92.6181 75.2074 92.066V87.7813Z" fill="#E1E7ED"/>
<path d="M87.2828 94.3735V93.6591C88.902 93.4945 89.0955 93.2738 89.0955 91.3802V86.7916C89.0955 84.8961 88.4358 83.6608 86.5961 83.6608C85.4676 83.7679 84.411 84.2625 83.6054 85.0607V91.5177C83.6054 93.3841 83.7698 93.4945 85.389 93.6591V94.3735H79.4327V93.6591C81.2995 93.4674 81.4369 93.3299 81.4369 91.5177V85.8312C81.4369 84.0732 81.2724 83.99 79.7906 83.715V83.0839C81.1029 82.8635 82.3838 82.4852 83.6054 81.957V84.1546C84.1548 83.7422 84.7584 83.3298 85.4451 82.8631C86.1072 82.3716 86.8989 82.0855 87.722 82.0403C89.8905 82.0403 91.2621 83.5505 91.2621 86.2165V91.5177C91.2621 93.3841 91.3994 93.4945 92.9915 93.6591V94.3735H87.2828Z" fill="#E1E7ED"/>
<path d="M103.091 91.9027C102.56 92.6778 101.869 93.3292 101.063 93.8126C100.258 94.2961 99.3584 94.6002 98.4253 94.7043C97.683 94.7056 96.9482 94.5561 96.2654 94.2649C95.5825 93.9736 94.9658 93.5468 94.4526 93.0101C93.9393 92.4734 93.5402 91.8381 93.2794 91.1426C93.0186 90.4471 92.9015 89.7058 92.9352 88.9637C92.9314 87.9123 93.1785 86.8751 93.6559 85.9386C94.1334 85.0021 94.8274 84.1932 95.6802 83.5793C96.8604 82.6525 98.2986 82.1147 99.7968 82.04H99.8258C100.695 82.0132 101.55 82.2634 102.267 82.7545C102.405 82.8488 102.518 82.9761 102.594 83.1248C102.671 83.2736 102.709 83.4391 102.706 83.6064C102.688 83.8706 102.593 84.1237 102.432 84.3339C102.271 84.544 102.051 84.7018 101.801 84.7874C101.664 84.7874 101.526 84.7061 101.281 84.4854C100.545 83.7696 99.5615 83.3659 98.5355 83.3586C96.7229 83.3586 95.1309 84.8707 95.1309 87.7536C94.9585 88.6847 95.0981 89.6467 95.5279 90.4902C95.9577 91.3338 96.6537 92.0118 97.5079 92.4189C98.3621 92.8261 99.3266 92.9397 100.252 92.742C101.177 92.5443 102.011 92.0465 102.625 91.3258L103.091 91.9027Z" fill="#E1E7ED"/>
<path d="M113.547 92.0383C113.038 92.7795 112.374 93.4015 111.602 93.8618C110.829 94.322 109.966 94.6094 109.073 94.7043C108.33 94.6962 107.596 94.5354 106.918 94.232C106.24 93.9285 105.631 93.4889 105.129 92.9404C104.628 92.3919 104.244 91.7461 104.002 91.043C103.76 90.34 103.664 89.5947 103.722 88.8533C103.702 87.0798 104.349 85.3636 105.532 84.0439C106.026 83.4504 106.636 82.9657 107.326 82.6208C108.016 82.2758 108.77 82.0781 109.541 82.04H109.568C110.658 82.0743 111.694 82.527 112.46 83.3044C113.227 84.0818 113.665 85.1244 113.684 86.2163C113.684 86.7642 113.547 86.9849 113.054 87.0953C112.586 87.1766 109.156 87.4516 105.89 87.5619C105.917 91.2987 108.057 92.836 109.98 92.836C111.163 92.809 112.287 92.3157 113.108 91.4632L113.547 92.0383ZM108.881 83.0565C107.647 83.0565 106.44 84.2105 106.028 86.4351C107.564 86.4351 109.073 86.408 110.665 86.3538C111.16 86.3538 111.324 86.1873 111.324 85.8039C111.355 85.4628 111.317 85.1189 111.21 84.7933C111.104 84.4676 110.933 84.1671 110.707 83.91C110.481 83.6528 110.205 83.4446 109.895 83.2978C109.586 83.1511 109.25 83.069 108.908 83.0565H108.881Z" fill="#E1E7ED"/>
<path d="M118.596 84.9522C119.42 83.5776 120.6 82.0403 121.917 82.0403C122.307 82.0219 122.69 82.1539 122.986 82.4093C123.282 82.6647 123.468 83.024 123.507 83.413C123.498 83.6966 123.412 83.9723 123.257 84.21C123.102 84.4477 122.885 84.6381 122.629 84.7606C122.515 84.8293 122.383 84.861 122.25 84.8513C122.117 84.8416 121.991 84.7909 121.888 84.7064C121.753 84.5285 121.579 84.3839 121.38 84.2836C121.18 84.1833 120.96 84.1299 120.737 84.1274C120.023 84.1274 119.145 84.9522 118.542 86.4895V91.5177C118.542 93.3299 118.679 93.4945 120.791 93.6591V94.3735H114.479V93.6591C116.18 93.4945 116.373 93.3299 116.373 91.5177V85.8312C116.373 84.019 116.236 83.9087 114.671 83.6899V83.0839C116.004 82.8777 117.305 82.4989 118.542 81.957V84.9522H118.596Z" fill="#E1E7ED"/>
<path d="M142.42 90.031C142.023 91.4102 141.522 92.7571 140.921 94.0601C139.339 94.4727 137.717 94.7104 136.083 94.7688C129.533 94.7688 126.666 90.2421 126.666 86.0561C126.666 80.5285 130.926 76.8691 136.791 76.8691C138.365 76.9287 139.927 77.167 141.447 77.5797C141.656 79.0802 141.815 80.1335 141.973 81.5546L141.184 81.7385C141.021 80.5444 140.393 79.4629 139.439 78.7286C138.484 77.9943 137.278 77.6663 136.083 77.8159C131.69 77.8159 129.349 81.5294 129.349 85.5295C129.349 90.4531 132.243 93.822 136.24 93.822C138.923 93.822 140.341 92.3738 141.656 89.7406L142.42 90.031Z" fill="#E1E7ED"/>
<path d="M151.366 92.0383C150.857 92.7794 150.194 93.4015 149.423 93.8617C148.651 94.322 147.789 94.6094 146.895 94.7043C146.152 94.6964 145.419 94.5357 144.74 94.2324C144.062 93.9291 143.453 93.4895 142.951 92.941C142.449 92.3924 142.065 91.7466 141.823 91.0434C141.581 90.3403 141.485 89.5949 141.543 88.8533C141.523 87.0798 142.169 85.3636 143.353 84.0439C143.846 83.4504 144.456 82.9658 145.146 82.6208C145.836 82.2759 146.59 82.0781 147.36 82.04H147.389C148.479 82.0743 149.515 82.527 150.281 83.3044C151.047 84.0818 151.486 85.1244 151.505 86.2163C151.505 86.7642 151.366 86.9849 150.875 87.0953C150.406 87.1766 146.977 87.4516 143.711 87.5619C143.738 91.2987 145.88 92.836 147.799 92.836C148.982 92.8095 150.107 92.3161 150.929 91.4632L151.366 92.0383ZM146.702 83.0565C145.468 83.0565 144.259 84.2105 143.848 86.4351C145.384 86.4351 146.895 86.408 148.485 86.3538C148.979 86.3538 149.145 86.1873 149.145 85.8039C149.176 85.4628 149.137 85.119 149.031 84.7934C148.925 84.4679 148.753 84.1674 148.527 83.9103C148.301 83.6532 148.025 83.4449 147.716 83.2982C147.407 83.1514 147.071 83.0691 146.729 83.0565H146.702Z" fill="#E1E7ED"/>
<path d="M159.765 94.3735V93.6591C161.384 93.4945 161.578 93.2738 161.578 91.3802V86.7916C161.578 84.8961 160.918 83.6608 159.078 83.6608C157.95 83.7675 156.893 84.2622 156.088 85.0607V91.5177C156.088 93.3841 156.252 93.4945 157.871 93.6591V94.3735H151.915V93.6591C153.782 93.4674 153.919 93.3299 153.919 91.5177V85.8312C153.919 84.0732 153.755 83.99 152.273 83.715V83.0839C153.585 82.8635 154.866 82.4852 156.088 81.957V84.1546C156.635 83.7422 157.241 83.3298 157.925 82.8631C158.588 82.3719 159.381 82.0858 160.204 82.0403C162.373 82.0403 163.744 83.5505 163.744 86.2165V91.5177C163.744 93.3841 163.882 93.4945 165.474 93.6591V94.3735H159.765Z" fill="#E1E7ED"/>
<path d="M170.413 94.3478C170.059 94.5493 169.666 94.6709 169.26 94.704C167.531 94.704 166.571 93.6062 166.571 91.4358V83.4415H164.677L164.567 83.1665L165.308 82.3708H166.571V80.3649L168.355 78.5508L168.74 78.6069V82.3708H171.839C171.956 82.5357 172.004 82.7396 171.973 82.9395C171.943 83.1393 171.835 83.3193 171.674 83.4415H168.74V90.5006C168.74 92.7253 169.643 93.1377 170.33 93.1377C170.925 93.1131 171.507 92.9535 172.032 92.6711L172.28 93.3855L170.413 94.3478Z" fill="#E1E7ED"/>
<path d="M181.758 92.0383C181.248 92.7795 180.585 93.4015 179.812 93.8617C179.04 94.322 178.177 94.6094 177.283 94.7043C176.54 94.6962 175.807 94.5355 175.128 94.2321C174.45 93.9287 173.841 93.4891 173.339 92.9406C172.837 92.3921 172.454 91.7463 172.211 91.0433C171.969 90.3402 171.873 89.5948 171.931 88.8533C171.912 87.0796 172.559 85.3634 173.743 84.0439C174.236 83.4506 174.847 82.9661 175.536 82.6211C176.226 82.2762 176.98 82.0783 177.75 82.04H177.779C178.869 82.0743 179.905 82.527 180.671 83.3044C181.437 84.0818 181.876 85.1244 181.895 86.2163C181.895 86.7642 181.758 86.9849 181.265 87.0953C180.796 87.1766 177.367 87.4516 174.099 87.5619C174.126 91.2987 176.268 92.836 178.189 92.836C179.372 92.8094 180.497 92.316 181.319 91.4632L181.758 92.0383ZM177.092 83.0565C175.856 83.0565 174.649 84.2105 174.237 86.4351C175.774 86.4351 177.283 86.408 178.875 86.3538C179.369 86.3538 179.535 86.1873 179.535 85.8039C179.566 85.4628 179.527 85.119 179.421 84.7934C179.315 84.4679 179.143 84.1674 178.917 83.9103C178.691 83.6532 178.415 83.4449 178.106 83.2982C177.797 83.1514 177.461 83.0691 177.119 83.0565H177.092Z" fill="#E1E7ED"/>
<path d="M186.605 84.9522C187.427 83.5776 188.609 82.0403 189.927 82.0403C190.317 82.0218 190.7 82.1539 190.996 82.4092C191.292 82.6646 191.479 83.0238 191.519 83.413C191.51 83.6966 191.423 83.9723 191.268 84.21C191.113 84.4477 190.896 84.6381 190.641 84.7606C190.526 84.8294 190.394 84.8612 190.26 84.8515C190.127 84.8418 190.001 84.7911 189.898 84.7064C189.762 84.5285 189.588 84.3839 189.388 84.2835C189.188 84.1832 188.968 84.1298 188.745 84.1274C188.031 84.1274 187.155 84.9522 186.549 86.4895V91.5177C186.549 93.3299 186.686 93.4945 188.801 93.6591V94.3735H182.487V93.6591C184.189 93.4945 184.382 93.3299 184.382 91.5177V85.8312C184.382 84.019 184.245 83.9087 182.68 83.6899V83.0839C184.013 82.8777 185.314 82.4989 186.549 81.957V84.9522H186.605Z" fill="#E1E7ED"/>
<path d="M53.2406 48.3113H54.9004L54.9081 53.0297H55.7341L55.7399 48.3113H57.3726V47.5117H53.2406V48.3113Z" fill="#E1E7ED"/>
<path d="M61.9651 49.7731H59.5296V47.5137H58.6958V53.0317H59.5296V50.5708H61.9651V53.0317H62.7988V47.5137H61.9651V49.7731Z" fill="#E1E7ED"/>
<path d="M65.5845 50.5844H68.078V49.7867H65.5845V48.3113H68.1767V47.5117H64.7507V53.0297H68.2831V52.232H65.5845V50.5844Z" fill="#E1E7ED"/>
<path d="M76.1231 51.02C76.0902 51.8584 75.6414 52.3385 74.8908 52.3385C74.7205 52.3453 74.5507 52.3155 74.3928 52.2509C74.235 52.1864 74.0929 52.0886 73.9761 51.9644C73.8593 51.8401 73.7705 51.6922 73.7157 51.5306C73.6609 51.369 73.6414 51.1975 73.6586 51.0278V47.5137H72.8248V51.0374C72.8208 51.3117 72.8713 51.584 72.9735 51.8386C73.0756 52.0931 73.2274 52.3247 73.4198 52.52C73.6123 52.7153 73.8416 52.8703 74.0945 52.976C74.3474 53.0817 74.6187 53.136 74.8928 53.1358C75.1668 53.1355 75.4381 53.0807 75.6908 52.9745C75.9435 52.8683 76.1725 52.7129 76.3646 52.5172C76.5567 52.3216 76.708 52.0897 76.8097 51.835C76.9113 51.5802 76.9614 51.3078 76.9569 51.0336V47.5137H76.1231V51.02Z" fill="#E1E7ED"/>
<path d="M82.2829 51.6028L79.7216 47.5137H78.9072V53.0297H79.7391V49.02L82.2442 53.0297H83.1167V47.5137H82.2829V51.6028Z" fill="#E1E7ED"/>
<path d="M85.2145 47.4902H86.0482V53.0295H85.2145V47.4902Z" fill="#E1E7ED"/>
<path d="M89.7151 51.8429L88.1888 47.5137H87.2854L89.3011 53.0317H90.0885L92.081 47.5137H91.2221L89.7151 51.8429Z" fill="#E1E7ED"/>
<path d="M94.1238 50.5844H96.6154V49.7867H94.1238V48.3113H96.716V47.5117H93.29V53.0297H96.8224V52.232H94.1238V50.5844Z" fill="#E1E7ED"/>
<path d="M102.253 51.8544C102.24 51.6918 102.222 51.5059 102.199 51.293C102.205 51.0735 102.159 50.8557 102.066 50.6573C101.972 50.4588 101.833 50.2852 101.659 50.1506C101.862 50.0464 102.032 49.8878 102.15 49.6927C102.269 49.4975 102.33 49.2733 102.329 49.0451C102.347 48.8028 102.299 48.5602 102.191 48.3428C102.083 48.1253 101.918 47.9412 101.714 47.8098C101.316 47.583 100.86 47.4792 100.404 47.5117H98.5391V53.0297H99.3728V50.5785H100.462C101.24 50.5785 101.284 50.6347 101.389 51.7925C101.402 52.1702 101.465 52.5444 101.576 52.9058L101.621 53.0297H102.629L102.439 52.7431C102.308 52.4658 102.244 52.1612 102.253 51.8544ZM99.3728 48.3113L100.431 48.3094C101.065 48.3094 101.458 48.4333 101.458 49.0451C101.458 49.6627 101.007 49.7789 100.178 49.7789H99.3728V48.3113Z" fill="#E1E7ED"/>
<path d="M105.927 49.875C105.168 49.6272 104.708 49.4394 104.708 48.9166C104.708 48.3939 105.313 48.2041 105.718 48.2041C106.329 48.2041 106.642 48.4113 106.652 48.8218L106.656 49.0018H107.544L107.519 48.7966C107.418 47.9118 106.741 47.4064 105.662 47.4064C105.438 47.3874 105.213 47.4133 105 47.4826C104.786 47.5518 104.589 47.663 104.419 47.8096C104.25 47.9563 104.111 48.1354 104.011 48.3365C103.912 48.5375 103.853 48.7565 103.839 48.9805C103.839 50.1093 104.965 50.4636 105.787 50.7211C105.884 50.7521 105.977 50.7811 106.068 50.8121C106.536 50.9651 106.745 51.1877 106.745 51.5324C106.745 52.1209 106.097 52.3397 105.691 52.3397C104.716 52.3397 104.594 51.8596 104.586 51.5014L104.584 51.3194H103.714L103.717 51.5091C103.722 51.7291 103.771 51.9459 103.86 52.1471C103.949 52.3483 104.077 52.5298 104.236 52.6812C104.396 52.8326 104.584 52.9508 104.789 53.0291C104.995 53.1075 105.214 53.1443 105.433 53.1374C106.84 53.1374 107.613 52.5527 107.613 51.4898C107.613 50.4249 106.679 50.1209 105.927 49.875Z" fill="#E1E7ED"/>
<path d="M109.308 47.4902H110.142V53.0295H109.308V47.4902Z" fill="#E1E7ED"/>
<path d="M111.375 48.3113H113.035L113.043 53.0297H113.869L113.875 48.3113H115.508V47.5117H111.375V48.3113Z" fill="#E1E7ED"/>
<path d="M118.533 49.839L117.061 47.5117H116.026L118.077 50.6754V53.0297H118.91V50.6599L120.945 47.5117H120.005L118.533 49.839Z" fill="#E1E7ED"/>
<path d="M126.831 47.4062C125.301 47.4062 124.351 48.504 124.351 50.2717C124.351 52.0394 125.301 53.1372 126.831 53.1372C128.359 53.1372 129.309 52.0394 129.309 50.2717C129.309 48.504 128.359 47.4062 126.831 47.4062ZM126.831 52.3395C125.643 52.3395 125.221 51.2708 125.221 50.2717C125.221 49.2727 125.643 48.2039 126.831 48.2039C128.017 48.2039 128.44 49.2727 128.44 50.2717C128.44 51.2708 128.017 52.3395 126.831 52.3395Z" fill="#E1E7ED"/>
<path d="M130.981 53.0297H131.813V50.5573H134.169V49.7576H131.813V48.3113H134.255V47.5117H130.981V53.0297Z" fill="#E1E7ED"/>
<path d="M137.948 48.3113H139.607L139.615 53.0297H140.445V48.3113H142.08V47.5117H137.948V48.3113Z" fill="#E1E7ED"/>
<path d="M144.428 50.5844H146.922V49.7867H144.428V48.3113H147.02V47.5117H143.594V53.0297H147.127V52.232H144.428V50.5844Z" fill="#E1E7ED"/>
<path d="M153.232 47.5137H152.255L150.845 49.5369L149.487 47.5137H148.428L150.295 50.1952L148.336 53.0317H149.316L150.777 50.8748L152.237 53.0317H153.282L151.317 50.1952L153.232 47.5137Z" fill="#E1E7ED"/>
<path d="M156.081 47.5137L153.899 53.0297H154.776L155.315 51.6396H157.619L158.169 53.0297H159.074L156.875 47.5137H156.081ZM155.609 50.8419L156.47 48.6405L157.312 50.8419H155.609Z" fill="#E1E7ED"/>
<path d="M162.05 49.8749C161.292 49.6271 160.829 49.4393 160.829 48.9165C160.829 48.3938 161.437 48.204 161.841 48.204C162.45 48.204 162.764 48.4112 162.773 48.8217L162.777 49.0017H163.665L163.642 48.7965C163.539 47.9117 162.862 47.4063 161.783 47.4063C161.559 47.3875 161.335 47.4135 161.121 47.4828C160.908 47.5521 160.711 47.6633 160.541 47.8099C160.371 47.9565 160.233 48.1356 160.133 48.3366C160.033 48.5376 159.975 48.7565 159.961 48.9804C159.961 50.1092 161.086 50.4635 161.907 50.721C162.005 50.752 162.1 50.781 162.189 50.812C162.657 50.965 162.866 51.1876 162.866 51.5323C162.866 52.1209 162.218 52.3396 161.814 52.3396C160.837 52.3396 160.715 51.8614 160.709 51.5013L160.705 51.3193H159.835L159.841 51.509C159.845 51.7289 159.894 51.9456 159.983 52.1466C160.072 52.3477 160.199 52.5292 160.359 52.6805C160.518 52.8319 160.706 52.9502 160.911 53.0286C161.116 53.107 161.335 53.144 161.555 53.1373C162.963 53.1373 163.735 52.5526 163.735 51.4897C163.735 50.4248 162.8 50.1208 162.05 49.8749Z" fill="#E1E7ED"/>
<path d="M109.033 87.5343C109.938 87.6853 109.987 87.4433 110.925 87.5421C111.062 87.5982 111.066 87.7124 111.244 87.7066L111.478 87.6253L111.498 87.7241C111.623 87.6853 112.291 87.7028 112.177 87.5788C113.177 87.5316 114.179 87.6248 115.154 87.8557C115.326 87.8964 115.715 87.8867 115.887 87.9254C116.032 87.9622 116.901 88.0474 117.048 88.0842C117.858 88.272 118.398 88.2371 118.903 88.4114C119.415 88.6276 119.964 88.7408 120.52 88.7444C121.59 89.2338 122.704 89.6196 123.847 89.8964C124.027 89.9243 124.196 89.9991 124.337 90.1133C124.406 90.1713 124.592 90.3224 124.695 90.2856C124.766 90.3746 124.675 90.5411 124.702 90.6283C124.76 90.8064 124.695 90.9555 124.403 90.9845C124.054 90.8432 124.035 91.1491 123.851 91.1762C122.965 91.3001 122.06 90.6728 121.153 90.9594C121.029 90.9748 121.247 90.5334 120.963 90.5934C120.324 90.7334 119.663 90.7395 119.021 90.6112C118.38 90.4829 117.772 90.2231 117.235 89.848L117.324 89.7338C117.106 89.6176 116.771 89.9874 116.535 89.8983C116.545 89.817 116.628 89.7938 116.587 89.6757C116.494 89.9138 116.131 89.7318 116.005 89.9003C115.92 89.7938 115.953 89.6002 115.842 89.4782L115.668 89.7396C115.2 90.3591 114.73 89.5847 114.161 89.8654C114.192 89.8035 114.25 89.7609 114.216 89.6931C113.255 89.8749 112.274 89.9309 111.298 89.8596C111.364 89.7417 111.384 89.604 111.355 89.4724C111.279 89.7609 110.977 89.8035 110.716 89.8364C110.631 89.5208 110.252 90.0687 109.969 89.8732L110.002 89.8093C109.751 90.1074 109.691 89.5963 109.476 89.9603L109.358 89.7086C109.221 90.1287 109.058 89.4569 108.855 89.6583L108.853 89.7454C108.671 89.8345 108.602 89.6099 108.435 89.6679L108.424 89.6195C108.041 89.697 108.056 89.7202 107.772 89.6273C107.664 89.3465 107.368 89.7415 107.197 89.3349C106.219 89.4698 105.226 89.4424 104.257 89.2536C104.127 89.1103 104.04 89.0619 104.017 88.9341C103.887 88.9922 103.545 88.9613 103.421 89.1239C103.462 89.12 103.352 88.9477 103.288 88.9264C103.071 88.7831 103.015 89.2749 102.777 89.1065C102.826 89.0725 102.864 89.0247 102.885 88.9692C102.907 88.9137 102.912 88.8529 102.899 88.7947C102.669 89.0406 102.388 88.9767 102.133 89.0445C102.175 88.9903 102.237 88.9613 102.235 88.8548C101.941 89.1336 101.742 88.7618 101.489 88.9341L101.591 88.7483C101.22 88.4888 101.45 89.1433 101.127 88.9826C101.21 88.9264 101.187 88.8509 101.206 88.7715C100.872 89.1045 100.376 88.9554 100.057 89.0561C100.071 89.0321 100.077 89.0044 100.075 88.9767C99.7194 88.9301 99.3591 88.9392 99.0067 89.0038C98.8752 88.9109 99.0764 88.5353 98.7146 88.5876C98.7049 88.9767 98.0956 88.7154 98.2852 89.1645C97.9815 89.0852 97.5056 88.9148 97.2947 89.0348C97.4398 88.8954 97.169 88.5527 97.4263 88.5353L97.2444 88.2894C97.2812 88.1306 97.4398 88.3533 97.3876 88.15C97.2599 88.1597 96.8807 88.2933 96.7685 88.2236C96.5209 88.452 96.283 88.8877 95.898 88.9187C96.0857 88.7754 95.8148 88.4869 95.9386 88.4249L95.3738 89.1471C95.2461 89.1587 95.3602 88.8393 95.1707 88.9322C95.1765 89.0368 95.0933 89.0948 95.0333 89.1781C94.9888 89.1297 94.5013 89.2497 94.4626 88.8664C94.4104 88.7154 94.6716 88.7947 94.5361 88.6534C94.3021 88.6476 94.2866 88.7773 94.0506 88.7734L94.0467 88.7212C93.8939 88.6592 93.5844 88.8703 93.7449 89.0871C93.8533 89.1026 93.7121 88.8548 93.8688 88.9729C93.7978 89.0695 93.7021 89.1453 93.5919 89.1923C93.4816 89.2393 93.3608 89.2558 93.242 89.2401C93.3232 89.182 93.3174 89.0794 93.3522 88.9729L92.5243 89.2323C92.0813 88.9671 91.5822 89.5576 91.2166 89.182C91.2785 89.151 91.2437 89.4414 91.2398 89.3891C91.0231 89.362 91.0405 89.0987 90.8955 89.1936C90.8858 89.0387 90.7156 89.2381 90.5705 89.2827C90.4912 89.3911 90.5337 89.2052 90.6614 89.1936C90.1974 89.4202 89.6641 89.4597 89.1718 89.304C89.1796 89.4066 88.8778 89.6718 88.7714 89.6602L88.8159 89.4221C88.7192 89.2788 88.4561 89.4395 88.4406 89.2343L88.6476 89.2691C88.4309 89.2749 88.2181 89.5421 88.0131 89.3156C88.0731 89.3562 88.193 88.9864 88.0189 89.0019C87.7094 89.0426 87.9299 89.1161 87.6784 89.1936L87.5217 89.2904C87.5082 89.5208 87.2451 89.2555 87.3592 89.5169C87.3225 89.3253 86.9104 89.6312 86.9433 89.2439L86.9897 88.9419C86.8563 88.9632 86.7692 89.2594 86.6628 89.3911C86.6335 89.3513 86.6179 89.303 86.6183 89.2536C86.5951 89.7202 86.3011 89.211 86.1405 89.5731C85.8639 89.4124 85.4325 89.5615 85.3009 89.271C85.0862 89.4124 84.8928 89.5808 84.6471 89.4821C84.6955 89.4375 84.7632 89.424 84.7767 89.3252C84.6219 89.1878 84.5833 89.3098 84.444 89.3853C84.4749 89.3175 84.1364 89.1142 83.9623 88.9516C83.7495 89.091 83.8249 89.3427 83.8056 89.4956C83.6044 89.0387 83.202 89.7957 82.9525 89.3814C83.026 89.3175 83.2639 89.1529 83.084 89.0387C82.8848 88.5818 82.6913 89.3814 82.3741 89.1626L82.4534 89.544C82.3122 89.3098 81.9891 89.7706 82.0201 89.3814C81.9137 89.5189 81.6448 89.2575 81.6835 89.6292C81.1612 89.3194 80.4203 89.8286 80.0972 89.1626L79.8689 89.091C79.5091 88.8625 79.5014 89.7241 79.0429 89.5808C79.0623 89.4279 79.0274 89.3678 78.894 89.393L78.6425 89.6583C78.3465 89.5982 78.4722 89.3098 78.4645 89.0503C78.3059 89.0948 78.1124 89.0832 78.0409 89.2788L77.8493 88.9516C77.9906 89.1878 77.7197 89.1103 77.6462 89.1742L77.7197 89.1103C77.6907 88.998 77.5069 89.0677 77.4141 89.0987C77.4373 89.2614 77.6249 89.3272 77.7255 89.3717C77.6462 89.4879 77.5205 89.4608 77.4141 89.5963C77.4489 89.3407 77.1549 89.4143 77.0291 89.3891C76.886 89.3349 76.8686 89.6176 76.826 89.6099C76.8221 89.4782 76.59 89.5886 76.7022 89.4008C76.7506 89.3582 76.6229 89.4879 76.7061 89.3717C76.6093 89.273 76.8125 89.0832 76.6151 89.2517C76.4662 89.3795 76.6538 89.757 76.3714 89.5963C76.4449 89.5324 76.4584 89.4298 76.5165 89.3388L76.2515 89.2052L76.2418 89.4395C76.205 89.3795 76.2302 89.3601 76.2147 89.3291C76.1354 89.5731 75.8123 89.4046 75.7524 89.6815C75.6189 89.7067 75.4719 89.5208 75.3442 89.4937L75.3693 89.4743C75.2146 89.3388 75.0076 89.4279 74.876 89.5847L74.8838 89.5344C74.8107 89.5266 74.7368 89.5366 74.6685 89.5636C74.6001 89.5906 74.5392 89.6337 74.4911 89.6892C74.2783 89.5131 74.4195 88.8102 74.1835 89.1026C73.9649 89.1123 73.843 89.5285 73.9301 89.6776C73.5393 89.5208 73.0944 89.9003 72.7326 89.5402C72.6765 89.635 72.7114 89.6931 72.5972 89.7473C72.0227 89.6563 71.3843 90.0223 70.9297 89.5653C71.0961 89.4666 70.9413 89.333 70.9374 89.1994C70.8001 89.4085 70.773 88.9826 70.7227 89.3407C70.7363 89.5498 70.7227 89.6525 70.8833 89.7376C70.7128 89.804 70.5296 89.8308 70.3473 89.816C70.1651 89.8013 69.9885 89.7453 69.8309 89.6525C69.9257 89.7493 69.8522 89.8132 69.7768 89.877C69.8038 89.5421 69.5504 89.4918 69.3608 89.6079L69.3318 89.8132L69.208 89.6041C69.1345 89.6679 69.1268 90.0319 68.9372 89.8364L68.883 89.6176C68.6857 89.7841 68.4052 90.0668 68.1924 89.8925L68.0183 89.5944C67.9255 89.6273 67.7707 89.8054 67.9332 89.8925C67.5676 89.7125 67.3316 89.6892 67.2174 89.4298C66.9026 89.6867 66.5368 89.8736 66.1442 89.9781C65.7516 90.0826 65.3413 90.1023 64.9406 90.0358L64.9618 89.8809C64.7665 89.7396 64.8593 90.15 64.722 90.0436C64.7858 89.8964 64.573 89.7241 64.7278 89.546C64.4473 89.3853 64.3641 89.8112 64.1822 89.879C64.1532 90.0823 64.3293 89.7512 64.2944 90.0068C64.2616 90.0784 63.9037 89.8499 63.8611 90.1539C63.8137 90.0005 63.8219 89.8352 63.8843 89.6873L63.7122 89.8345C63.5013 89.4801 64.1919 89.2013 63.9714 88.7618L63.8128 88.8102L63.6677 89.0677C63.3079 89.151 63.5013 89.7919 63.1144 89.7667C63.01 89.5866 63.4239 89.7222 63.3504 89.4743C63.1686 89.2284 62.9848 89.6079 62.8242 89.5227C63.0022 89.6389 62.8513 89.9448 62.7353 90.001C62.5379 89.8577 62.8629 89.7144 62.5844 89.6815C62.5379 89.8577 62.2826 89.9893 62.5031 90.1113C62.4025 90.5102 62.2149 90.001 62.064 90.3088C61.9731 90.03 62.3503 89.6602 62.0427 89.5208C62.0911 89.7919 61.6674 89.8887 61.828 90.2875C61.7693 90.2288 61.7328 90.1516 61.7247 90.069C61.7166 89.9863 61.7374 89.9035 61.7835 89.8345C61.6133 89.666 61.3695 90.3243 61.3134 89.7899L61.2534 90.0668C61.2012 89.9777 61.1238 89.91 61.0368 89.7609C60.8859 89.7551 60.5512 90.1346 60.5648 89.7163C60.5164 89.7609 60.174 89.7415 60.3056 90.03C60.5203 90.2062 60.5512 89.8209 60.6712 90.2081C60.5203 89.8906 60.3617 90.2507 60.2398 90.3572L60.2185 90.1946C60.145 90.2585 59.9767 90.2236 59.9303 90.3979C59.9552 90.3609 59.9658 90.3162 59.9601 90.272C59.9544 90.2278 59.9328 90.1872 59.8993 90.1578L59.8219 90.4017C59.524 90.5237 59.7504 89.9719 59.4602 90.0436L59.6807 89.8519C59.6324 89.8945 59.5337 89.6641 59.3944 89.7415C59.3403 89.9642 59.2397 90.2352 59.1932 90.4076C59.0307 90.5063 59.1197 90.1559 58.9592 90.3863L59.17 90.1152C59.201 90.0416 59.0269 89.7454 58.8083 89.7531C58.6671 89.8325 58.4523 90.1559 58.6729 90.2778C58.6383 90.2772 58.6046 90.2678 58.5747 90.2505C58.5448 90.2332 58.5198 90.2086 58.502 90.179C58.4842 90.1494 58.4742 90.1157 58.473 90.0812C58.4717 90.0467 58.4793 90.0124 58.4949 89.9816C58.2473 90.061 58.5297 90.2217 58.315 90.363C58.2279 90.2139 57.9532 90.001 57.7869 89.7861L58.0093 89.4104L57.8604 89.4085C58.0519 89.1065 57.6128 89.455 57.7211 89.1374C57.6186 89.089 57.4948 89.1975 57.3961 89.2807C57.6979 89.786 57.2162 89.6989 57.3052 90.1597C56.8989 90.2894 57.1872 89.0658 56.7674 89.7919C56.837 89.9138 56.9318 89.8577 56.7519 90.1016C56.4985 90.0552 56.5836 90.5663 56.2838 90.3785C56.5043 90.1868 56.042 89.9138 56.3592 89.635C56.3399 89.788 56.5391 89.7493 56.5875 89.7067C56.483 89.5285 56.6049 89.2401 56.3476 89.242C56.189 89.2865 55.9723 89.2981 56.0052 89.5382C56.0149 89.8035 56.247 89.5092 56.1464 89.7783C55.833 89.8712 55.7769 89.4685 55.6512 89.939C55.8505 89.9003 55.9027 90.1733 55.8988 90.3553L55.6705 90.4676L55.7131 90.2914C55.3417 90.1675 55.6067 90.6108 55.2469 90.5663L55.0747 90.2197C55.1579 89.9216 55.599 90.3475 55.5293 89.8635C55.2972 89.8461 55.2217 90.0939 54.9993 89.97L55.1637 89.8712C55.0786 89.8558 55.2953 89.3543 54.9664 89.7376C54.7962 89.8867 54.6163 89.7686 54.6143 89.9506C54.241 90.0087 54.1307 90.1965 53.8908 90.2294C53.9353 89.8732 53.4652 90.2004 53.7264 89.8345C53.8502 90.0397 54.1791 89.9603 54.3087 89.6195C54.1675 89.1994 54.6143 89.5769 54.891 89.2981C54.5892 89.2923 54.6008 88.8761 54.5485 88.605C54.4634 88.5876 54.3841 88.7037 54.3338 88.7483C54.3029 89.0038 54.4112 88.998 54.4228 89.2614C54.2655 89.2315 54.103 89.2471 53.9543 89.3064C53.8056 89.3657 53.6768 89.4663 53.5832 89.5963C53.4672 89.4724 53.5001 89.2149 53.6316 89.1897C53.3024 89.2698 52.9594 89.2758 52.6276 89.2071C52.3355 89.2517 52.0879 89.6099 51.9138 89.3969C51.6546 89.5886 51.9196 89.1645 51.6584 89.1704C51.4012 89.3582 51.2812 89.2013 50.993 89.2788C50.6868 89.1383 50.3682 89.0268 50.0412 88.9458C49.9309 88.9767 49.9058 88.8451 49.8207 88.8509L49.7433 88.7502L49.6795 88.6902C49.6795 88.6902 49.606 88.7076 49.606 88.4424C49.606 88.1771 49.6543 88.1384 49.6543 88.1384L49.6388 87.4007C49.869 87.2865 49.8574 86.8915 50.1573 86.9438C50.8556 86.7444 51.4553 86.9515 51.5791 87.271C51.6207 87.4165 51.6273 87.5697 51.5985 87.7183C51.8035 87.2594 52.3123 87.7725 52.5986 87.5653C53.0958 87.755 53.6664 87.3465 53.9256 87.7066C54.7508 87.4904 55.6037 87.399 56.4559 87.4356L56.3051 87.7434C56.4656 87.515 56.4134 87.9196 56.5701 87.8731C56.3863 87.6292 56.7887 87.5517 56.8989 87.362C57.3013 87.5982 57.8139 87.3368 58.1699 87.118L58.1854 87.3291C58.5432 86.9302 58.9727 87.2787 59.4215 87.3407C59.4718 87.4278 59.553 87.6273 59.6865 87.604C59.9303 87.2613 60.056 87.2865 60.412 87.0716C60.7392 87.08 61.0614 87.1538 61.3598 87.2884C62.3387 86.8063 63.3369 87.1161 64.3544 86.8257L64.4279 87.0774C65.4126 86.5449 66.6236 87.0329 67.4651 86.7599L67.3838 87.1858C67.4469 87.2152 67.5169 87.2266 67.586 87.2189C67.6552 87.2112 67.7209 87.1846 67.776 87.1421C67.8311 87.0995 67.8735 87.0426 67.8985 86.9776C67.9235 86.9126 67.9301 86.842 67.9177 86.7734C68.1828 86.9051 68.5774 86.5682 68.7457 86.9186C69.0146 86.998 69.0765 86.7231 69.3009 86.6669L70.4248 86.6863C70.3687 86.7792 70.3629 86.9612 70.4906 86.9883C70.6821 86.8702 71.1909 87.1045 71.0013 86.5953C71.5449 86.8896 72.2703 86.3591 72.7984 86.7541C72.7539 86.6147 72.8874 86.5895 72.9435 86.4965C73.4213 86.4888 73.9223 86.7715 74.3034 86.5353C74.3789 86.605 74.1816 86.7715 74.377 86.787C74.4911 86.7328 74.3789 86.605 74.5201 86.5275C75.2939 86.2681 76.0851 86.7928 76.7873 86.725C78.0284 86.5519 79.2821 86.4871 80.5344 86.5314L80.5228 86.6321C80.9194 86.241 81.4649 87.0251 81.7802 86.4365C81.875 86.5314 82.1419 86.4791 82.0742 86.6766C82.3896 86.3978 82.968 86.9283 83.4264 86.574C83.3839 86.5643 83.3607 86.5856 83.3104 86.6301C83.7785 86.8509 84.1906 86.5411 84.6897 86.7444C84.6394 86.7889 84.5484 86.8199 84.533 86.9225C84.7264 87.118 84.9856 86.4907 85.094 86.9825C85.2023 86.9767 85.1713 86.7347 85.1036 86.7482C86.2349 86.8168 87.3702 86.7433 88.4832 86.5295C89.2898 86.8334 88.5199 87.3581 89.1641 87.0019C89.2163 87.0987 89.2047 86.8141 89.2125 86.9167C89.462 86.785 89.5878 87.4743 89.7638 87.2207C89.698 86.9167 89.8799 87.0542 89.8895 86.8702C90.379 87.0774 90.4718 87.3504 90.8664 87.1297L90.8336 87.2884C91.3017 86.847 91.8259 87.1045 92.2264 86.5972C94.7547 86.574 97.1864 86.4075 99.6528 86.4791C101.436 86.5133 103.214 86.6672 104.977 86.9399C105.953 87.058 107.06 87.242 107.973 87.3601L109.033 87.5343Z" fill="#F2F2F2"/>
<path d="M59.4464 113.552V113.268C60.2704 113.186 60.3111 113.136 60.2995 112.056L60.2704 107.903H60.2298L57.7479 113.483H57.5448L55.2659 108.044H55.2447L55.0938 110.946C55.0512 111.783 55.0512 112.228 55.0628 112.637C55.0822 113.124 55.3259 113.196 55.9972 113.268V113.552H53.6274V113.268C54.2175 113.196 54.4206 113.084 54.4922 112.658C54.5424 112.302 54.6044 111.852 54.6856 110.793L54.8288 108.675C54.9197 107.353 54.8694 107.312 53.9428 107.219V106.937H55.6122L57.9297 112.025L60.2801 106.937H62.0095V107.219C61.1139 107.301 61.0423 107.322 61.0732 108.369L61.1758 112.056C61.2067 113.136 61.2377 113.186 62.1217 113.268V113.552H59.4464Z" fill="#E1E7ED"/>
<path d="M65.7437 113.674C65.5682 113.662 65.401 113.595 65.2659 113.482C65.1476 113.352 65.0632 113.194 65.0202 113.023C64.6716 113.324 64.2626 113.546 63.8208 113.674C63.6591 113.673 63.4993 113.64 63.3503 113.577C63.2014 113.514 63.0663 113.422 62.9529 113.307C62.8395 113.192 62.75 113.055 62.6894 112.905C62.6289 112.755 62.5986 112.595 62.6002 112.433C62.5979 112.195 62.6791 111.963 62.8297 111.779C62.9802 111.595 63.1907 111.469 63.4242 111.424C63.9738 111.267 64.503 111.045 65.0008 110.764V110.58C65.0008 109.846 64.6546 109.428 64.1458 109.428C64.0589 109.426 63.9725 109.443 63.8932 109.478C63.8138 109.514 63.7434 109.567 63.6873 109.633C63.5328 109.825 63.4284 110.053 63.3836 110.295C63.3737 110.366 63.3378 110.43 63.283 110.475C63.2282 110.52 63.1585 110.543 63.0876 110.539C62.974 110.529 62.8674 110.479 62.786 110.399C62.7046 110.319 62.6533 110.213 62.6408 110.1C62.6408 109.949 62.7723 109.837 62.9658 109.693C63.4255 109.363 63.9433 109.122 64.4921 108.983C64.7928 108.977 65.0867 109.073 65.3258 109.256C65.4934 109.413 65.6221 109.607 65.7017 109.823C65.7813 110.039 65.8096 110.27 65.7843 110.499V112.392C65.7843 112.849 65.9662 113.002 66.1403 113.002C66.2695 112.997 66.3953 112.959 66.5059 112.892L66.6084 113.155L65.7437 113.674ZM65.0008 111.109C64.7861 111.223 64.2986 111.434 64.0839 111.536C63.6873 111.72 63.4649 111.914 63.4649 112.28C63.4597 112.379 63.4744 112.478 63.508 112.572C63.5417 112.665 63.5936 112.751 63.6609 112.824C63.7281 112.897 63.8092 112.956 63.8994 112.997C63.9897 113.038 64.0873 113.061 64.1864 113.064C64.4894 113.03 64.7742 112.902 65.0008 112.698V111.109Z" fill="#E1E7ED"/>
<path d="M70.4939 113.573C70.0258 113.054 69.3855 112.239 68.8264 111.557C68.6929 111.393 68.602 111.333 68.5091 111.333C68.4537 111.335 68.3989 111.345 68.3466 111.364V112.493C68.3466 113.166 68.4395 113.226 69.0895 113.286V113.552H66.8107V113.286C67.4935 113.226 67.5535 113.145 67.5535 112.493V107.677C67.5535 107.006 67.5032 106.955 66.8822 106.903V106.659C67.3812 106.591 67.8719 106.471 68.3466 106.303V111.099C68.5943 111.055 68.8203 110.929 68.9889 110.742C69.2502 110.461 69.4913 110.161 69.7105 109.846C69.9136 109.53 69.8826 109.449 69.4048 109.399V109.133L71.4805 109.042V109.296C70.9828 109.325 70.5142 109.54 70.167 109.898C69.9136 110.152 69.7317 110.355 69.2926 110.864C69.4977 111.17 70.5249 112.373 70.8711 112.727C70.9907 112.887 71.1432 113.02 71.3184 113.117C71.4936 113.213 71.6874 113.271 71.8867 113.286V113.552L70.4939 113.573Z" fill="#E1E7ED"/>
<path d="M71.8762 113.551V113.286C72.5185 113.226 72.59 113.166 72.59 112.473V110.366C72.59 109.745 72.5591 109.695 71.9478 109.604V109.358C72.4435 109.283 72.9285 109.15 73.3929 108.961V112.473C73.3929 113.166 73.4644 113.226 74.1163 113.286V113.551H71.8762ZM72.4159 107.576C72.4151 107.507 72.4278 107.439 72.4534 107.375C72.479 107.311 72.517 107.253 72.5651 107.203C72.6133 107.154 72.6707 107.115 72.7341 107.088C72.7974 107.061 72.8655 107.047 72.9344 107.046C73.003 107.046 73.071 107.06 73.1342 107.087C73.1973 107.113 73.2544 107.153 73.302 107.202C73.3495 107.252 73.3865 107.311 73.4108 107.375C73.435 107.439 73.4461 107.508 73.4431 107.576C73.4428 107.714 73.3881 107.846 73.2909 107.943C73.1938 108.04 73.0621 108.095 72.9247 108.095C72.79 108.089 72.6626 108.032 72.5682 107.936C72.4738 107.84 72.4194 107.711 72.4159 107.576Z" fill="#E1E7ED"/>
<path d="M77.4823 113.552V113.287C78.082 113.227 78.1536 113.146 78.1536 112.443V110.743C78.1536 110.04 77.9079 109.583 77.227 109.583C76.8091 109.623 76.4177 109.806 76.1185 110.1V112.493C76.1185 113.186 76.1804 113.227 76.7801 113.287V113.552H74.5729V113.287C75.2635 113.217 75.3157 113.167 75.3157 112.493V110.387C75.3157 109.734 75.2538 109.705 74.7044 109.603V109.368C75.191 109.287 75.6659 109.147 76.1185 108.95V109.767C76.3216 109.61 76.546 109.459 76.7995 109.287C77.0454 109.105 77.3394 108.999 77.6448 108.983C78.4476 108.983 78.9564 109.541 78.9564 110.528V112.493C78.9564 113.186 79.0086 113.227 79.5987 113.287V113.552H77.4823Z" fill="#E1E7ED"/>
<path d="M84.419 109.174C84.3097 109.38 84.1533 109.558 83.9625 109.693L83.3821 109.662C83.589 109.918 83.6974 110.24 83.6878 110.57C83.6849 110.796 83.6356 111.019 83.543 111.226C83.4504 111.432 83.3165 111.618 83.1495 111.77C82.9825 111.923 82.786 112.04 82.5721 112.113C82.3582 112.187 82.1316 112.216 81.9061 112.198C81.7325 112.191 81.5594 112.174 81.3877 112.148C81.3105 112.192 81.2436 112.252 81.1912 112.324C81.1389 112.396 81.1023 112.479 81.084 112.566C81.084 112.769 81.2658 112.963 81.7243 112.963C82.0899 112.963 82.4555 112.953 82.7921 112.953C83.4227 112.953 84.2565 113.154 84.2565 114.153C84.1557 114.744 83.8402 115.277 83.3706 115.649C82.901 116.021 82.3105 116.206 81.7127 116.169C80.5849 116.169 79.9639 115.507 79.9542 114.926C79.9544 114.82 79.9761 114.714 80.018 114.616C80.0598 114.519 80.1211 114.43 80.198 114.357C80.4657 114.104 80.7473 113.866 81.0414 113.644C80.7315 113.553 80.4645 113.354 80.2889 113.083C80.2108 112.955 80.1718 112.807 80.1767 112.657C80.5229 112.529 80.831 112.315 81.0724 112.035C80.8048 111.922 80.5769 111.732 80.4174 111.489C80.258 111.246 80.1742 110.961 80.1767 110.67C80.1834 110.44 80.2358 110.213 80.3308 110.003C80.4259 109.793 80.5616 109.604 80.7303 109.447C80.8989 109.29 81.0971 109.168 81.3132 109.088C81.5293 109.008 81.7591 108.972 81.9893 108.982H81.999C82.3407 108.983 82.6768 109.07 82.9759 109.236C83.4392 109.214 83.901 109.166 84.359 109.092L84.419 109.174ZM82.1112 113.664C81.7978 113.619 81.4797 113.7 81.2252 113.888C81.0945 113.978 80.985 114.096 80.9042 114.233C80.8234 114.369 80.7732 114.522 80.757 114.68C80.757 115.232 81.347 115.65 82.0996 115.65C83.0668 115.65 83.564 115.151 83.564 114.519C83.5716 114.365 83.5307 114.213 83.4471 114.083C83.3634 113.954 83.2412 113.854 83.0978 113.797C82.7837 113.69 82.452 113.645 82.1208 113.664H82.1112ZM81.8868 109.286C81.4496 109.286 81.053 109.714 81.053 110.508C81.053 111.302 81.4399 111.873 82.0086 111.873C82.4555 111.863 82.8521 111.464 82.8521 110.661C82.8521 109.857 82.4768 109.286 81.8964 109.286H81.8868Z" fill="#E1E7ED"/>
<path d="M93.2699 111.873C93.1161 112.406 92.9221 112.927 92.6895 113.431C92.0777 113.59 91.4505 113.682 90.8189 113.704C90.3533 113.747 89.884 113.691 89.4414 113.54C88.9987 113.39 88.5926 113.148 88.2492 112.83C87.9059 112.513 87.633 112.127 87.4481 111.697C87.2633 111.267 87.1707 110.803 87.1763 110.335C87.1781 109.838 87.2835 109.346 87.486 108.891C87.6884 108.436 87.9833 108.029 88.3519 107.694C88.7205 107.36 89.1547 107.106 89.6268 106.949C90.0988 106.792 90.5984 106.736 91.0936 106.783C91.7016 106.806 92.3051 106.897 92.8926 107.056C92.9739 107.638 93.0358 108.045 93.0977 108.595L92.7921 108.665C92.7287 108.203 92.486 107.785 92.1166 107.501C91.7472 107.217 91.2809 107.091 90.8189 107.149C90.4477 107.16 90.0829 107.248 89.7473 107.408C89.4117 107.567 89.1124 107.793 88.8681 108.073C88.6238 108.353 88.4397 108.68 88.3274 109.035C88.215 109.389 88.1768 109.762 88.2151 110.132C88.1653 110.52 88.1959 110.914 88.3051 111.29C88.4142 111.666 88.5995 112.015 88.8495 112.316C89.0994 112.617 89.4086 112.863 89.7577 113.039C90.1069 113.215 90.4885 113.317 90.8789 113.338C91.9177 113.338 92.4671 112.779 92.9739 111.76L93.2699 111.873Z" fill="#E1E7ED"/>
<path d="M97.0228 113.674C96.8473 113.662 96.6801 113.595 96.545 113.482C96.4272 113.352 96.3435 113.194 96.3012 113.023C95.952 113.324 95.5423 113.546 95.0999 113.674C94.9383 113.673 94.7786 113.64 94.6297 113.577C94.4809 113.514 94.346 113.422 94.2328 113.307C94.1195 113.192 94.0302 113.055 93.9698 112.905C93.9095 112.755 93.8794 112.595 93.8812 112.433C93.8784 112.195 93.9593 111.964 94.1095 111.779C94.2598 111.595 94.4699 111.469 94.7033 111.424C95.2532 111.268 95.7825 111.046 96.2799 110.764V110.58C96.2799 109.846 95.9356 109.428 95.4268 109.428C95.3399 109.426 95.2536 109.443 95.1742 109.478C95.0948 109.514 95.0245 109.567 94.9684 109.633C94.8131 109.825 94.7081 110.053 94.6627 110.295C94.6529 110.365 94.6173 110.429 94.5629 110.474C94.5085 110.52 94.4393 110.543 94.3687 110.539C94.2548 110.529 94.148 110.479 94.0662 110.399C93.9845 110.319 93.9328 110.214 93.9199 110.1C93.9199 109.949 94.0534 109.837 94.2468 109.693C94.706 109.363 95.2231 109.122 95.7712 108.983C96.0725 108.977 96.367 109.073 96.6069 109.256C96.7742 109.413 96.9026 109.607 96.9818 109.823C97.0611 110.039 97.089 110.27 97.0634 110.499V112.392C97.0634 112.849 97.2472 113.002 97.4193 113.002C97.5486 112.997 97.6745 112.959 97.785 112.892L97.8875 113.155L97.0228 113.674ZM96.2799 111.109C96.0671 111.223 95.5797 111.434 95.3649 111.536C94.9684 111.72 94.744 111.914 94.744 112.28C94.7388 112.379 94.7536 112.479 94.7874 112.572C94.8212 112.666 94.8733 112.751 94.9407 112.824C95.0081 112.898 95.0894 112.956 95.1799 112.998C95.2704 113.039 95.3681 113.061 95.4675 113.064C95.7699 113.03 96.054 112.902 96.2799 112.698V111.109Z" fill="#E1E7ED"/>
<path d="M100.959 113.552V113.287C101.559 113.227 101.631 113.146 101.631 112.443V110.743C101.631 110.04 101.387 109.583 100.706 109.583C100.288 109.623 99.8966 109.806 99.5974 110.1V112.493C99.5974 113.186 99.6574 113.227 100.259 113.287V113.552H98.0498V113.287C98.7423 113.217 98.7926 113.167 98.7926 112.493V110.387C98.7926 109.734 98.7327 109.705 98.1833 109.603V109.368C98.6697 109.286 99.1445 109.146 99.5974 108.95V109.767C99.8005 109.61 100.023 109.459 100.278 109.287C100.523 109.105 100.817 108.999 101.122 108.983C101.926 108.983 102.435 109.541 102.435 110.528V112.493C102.435 113.186 102.486 113.227 103.076 113.287V113.552H100.959Z" fill="#E1E7ED"/>
<path d="M107.276 112.637C107.08 112.924 106.824 113.165 106.526 113.344C106.228 113.523 105.894 113.636 105.549 113.674C105.274 113.675 105.001 113.62 104.748 113.512C104.494 113.404 104.266 113.246 104.075 113.047C103.885 112.848 103.737 112.612 103.64 112.355C103.543 112.097 103.499 111.822 103.512 111.547C103.511 111.157 103.603 110.773 103.78 110.426C103.957 110.078 104.214 109.778 104.529 109.551C104.967 109.208 105.5 109.009 106.056 108.981H106.067C106.39 108.971 106.707 109.064 106.973 109.247C107.024 109.282 107.065 109.329 107.093 109.384C107.122 109.439 107.136 109.5 107.135 109.562C107.128 109.66 107.093 109.754 107.033 109.832C106.973 109.91 106.891 109.968 106.798 110C106.748 110 106.698 109.969 106.605 109.887C106.333 109.623 105.969 109.473 105.589 109.471C104.916 109.471 104.326 110.031 104.326 111.099C104.297 111.325 104.314 111.554 104.376 111.773C104.439 111.992 104.545 112.196 104.689 112.373C104.832 112.549 105.011 112.694 105.212 112.799C105.414 112.904 105.635 112.967 105.862 112.983C106.097 112.984 106.33 112.934 106.544 112.837C106.758 112.74 106.949 112.599 107.104 112.422L107.276 112.637Z" fill="#E1E7ED"/>
<path d="M111.397 112.686C111.208 112.961 110.963 113.192 110.676 113.362C110.39 113.532 110.07 113.639 109.739 113.674C109.464 113.671 109.192 113.611 108.94 113.499C108.689 113.387 108.463 113.224 108.277 113.021C108.091 112.817 107.948 112.578 107.858 112.317C107.769 112.056 107.733 111.78 107.754 111.505C107.747 110.848 107.987 110.213 108.426 109.724C108.609 109.504 108.835 109.325 109.091 109.198C109.347 109.07 109.626 108.997 109.911 108.982H109.921C110.325 108.994 110.71 109.162 110.994 109.45C111.278 109.738 111.44 110.125 111.447 110.529C111.447 110.733 111.397 110.814 111.213 110.855C111.041 110.886 109.768 110.986 108.559 111.029C108.569 112.413 109.362 112.982 110.074 112.982C110.513 112.972 110.93 112.789 111.235 112.473L111.397 112.686ZM109.668 109.358C109.211 109.358 108.76 109.786 108.609 110.611C109.178 110.611 109.739 110.601 110.329 110.58C110.513 110.58 110.573 110.52 110.573 110.376C110.584 110.25 110.57 110.123 110.531 110.002C110.491 109.881 110.428 109.77 110.344 109.675C110.26 109.579 110.158 109.502 110.043 109.448C109.929 109.393 109.804 109.363 109.677 109.358H109.668Z" fill="#E1E7ED"/>
<path d="M113.563 110.061C113.869 109.551 114.306 108.982 114.794 108.982C114.938 108.975 115.08 109.023 115.19 109.118C115.3 109.212 115.369 109.345 115.384 109.489C115.381 109.595 115.349 109.697 115.291 109.785C115.234 109.873 115.154 109.944 115.059 109.989C115.017 110.014 114.968 110.026 114.918 110.023C114.869 110.019 114.822 110.001 114.784 109.97C114.734 109.903 114.669 109.85 114.595 109.813C114.521 109.775 114.439 109.755 114.357 109.755C114.092 109.755 113.767 110.061 113.542 110.63V112.494C113.542 113.166 113.592 113.226 114.378 113.286V113.551H112.037V113.286C112.668 113.226 112.739 113.166 112.739 112.494V110.386C112.739 109.714 112.689 109.673 112.109 109.592V109.367C112.603 109.292 113.085 109.151 113.542 108.949V110.061H113.563Z" fill="#E1E7ED"/>
<path d="M125.2 107.219C124.366 107.291 124.285 107.341 124.285 108.187V112.3C124.285 113.155 124.366 113.208 125.191 113.268V113.552H122.463V113.268C123.33 113.208 123.419 113.155 123.419 112.3V110.263H119.952V112.3C119.952 113.146 120.033 113.208 120.867 113.268V113.552H118.192V113.268C119.006 113.208 119.087 113.155 119.087 112.3V108.187C119.087 107.331 119.006 107.291 118.17 107.219V106.935H120.807V107.219C120.033 107.291 119.952 107.341 119.952 108.187V109.837H123.419V108.187C123.419 107.341 123.337 107.291 122.544 107.219V106.935H125.2V107.219Z" fill="#E1E7ED"/>
<path d="M125.688 113.551V113.286C126.33 113.226 126.4 113.166 126.4 112.473V110.366C126.4 109.745 126.369 109.695 125.76 109.604V109.358C126.255 109.283 126.739 109.15 127.203 108.961V112.473C127.203 113.166 127.276 113.226 127.926 113.286V113.551H125.688ZM126.228 107.576C126.227 107.507 126.24 107.439 126.265 107.375C126.291 107.311 126.329 107.253 126.377 107.203C126.425 107.154 126.482 107.115 126.546 107.088C126.609 107.061 126.677 107.047 126.746 107.046C126.815 107.046 126.883 107.06 126.946 107.087C127.009 107.114 127.066 107.153 127.113 107.203C127.161 107.252 127.198 107.311 127.222 107.375C127.247 107.439 127.258 107.508 127.255 107.576C127.254 107.714 127.199 107.845 127.102 107.943C127.005 108.04 126.874 108.095 126.736 108.095C126.602 108.089 126.474 108.032 126.38 107.936C126.286 107.84 126.231 107.711 126.228 107.576Z" fill="#E1E7ED"/>
<path d="M130.998 110.305C130.806 109.704 130.45 109.296 129.951 109.296C129.861 109.296 129.771 109.315 129.689 109.351C129.606 109.387 129.531 109.439 129.469 109.505C129.407 109.571 129.359 109.648 129.328 109.733C129.297 109.818 129.284 109.909 129.289 109.999C129.289 110.446 129.696 110.692 130.154 110.884C130.916 111.201 131.437 111.567 131.437 112.268C131.421 112.472 131.365 112.67 131.272 112.852C131.179 113.033 131.05 113.194 130.894 113.325C130.737 113.456 130.556 113.555 130.361 113.615C130.166 113.674 129.961 113.694 129.758 113.674C129.341 113.68 128.933 113.56 128.587 113.329C128.482 112.937 128.428 112.533 128.425 112.127L128.69 112.076C128.872 112.748 129.33 113.339 129.939 113.339C130.034 113.34 130.128 113.323 130.216 113.288C130.304 113.253 130.384 113.201 130.451 113.135C130.518 113.068 130.572 112.989 130.608 112.902C130.645 112.814 130.663 112.721 130.663 112.626C130.663 112.177 130.369 111.933 129.86 111.699C129.249 111.414 128.587 111.079 128.587 110.295C128.598 110.106 128.648 109.921 128.732 109.751C128.817 109.581 128.935 109.431 129.08 109.308C129.224 109.185 129.392 109.093 129.573 109.037C129.754 108.981 129.944 108.962 130.133 108.982C130.444 108.975 130.753 109.033 131.04 109.153C131.139 109.51 131.213 109.875 131.263 110.243L130.998 110.305Z" fill="#E1E7ED"/>
<path d="M134.03 113.541C133.899 113.616 133.753 113.662 133.603 113.675C132.961 113.675 132.607 113.267 132.607 112.463V109.501H131.903L131.862 109.398L132.139 109.104H132.607V108.36L133.266 107.688L133.408 107.71V109.104H134.559C134.602 109.165 134.619 109.241 134.608 109.315C134.596 109.389 134.556 109.455 134.497 109.501H133.408V112.116C133.408 112.941 133.744 113.094 134 113.094C134.22 113.085 134.436 113.025 134.63 112.92L134.721 113.185L134.03 113.541Z" fill="#E1E7ED"/>
<path d="M137.295 108.981C137.589 108.982 137.881 109.042 138.151 109.157C138.422 109.272 138.667 109.44 138.872 109.652C139.077 109.863 139.238 110.114 139.344 110.388C139.451 110.663 139.501 110.956 139.493 111.251C139.514 111.557 139.474 111.864 139.373 112.153C139.273 112.443 139.114 112.709 138.908 112.936C138.702 113.163 138.451 113.345 138.172 113.472C137.893 113.599 137.592 113.668 137.285 113.675C136.99 113.678 136.697 113.622 136.424 113.51C136.151 113.398 135.903 113.232 135.696 113.022C135.488 112.812 135.324 112.563 135.215 112.288C135.106 112.014 135.052 111.72 135.059 111.425C135.042 111.118 135.087 110.81 135.19 110.52C135.294 110.23 135.453 109.964 135.661 109.736C135.868 109.509 136.118 109.325 136.397 109.195C136.676 109.066 136.978 108.993 137.285 108.981H137.295ZM137.173 109.316C136.552 109.316 136.003 109.948 136.003 111.098C136.003 112.381 136.564 113.338 137.396 113.338C138.028 113.338 138.547 112.871 138.547 111.475C138.547 110.283 138.069 109.316 137.183 109.316H137.173Z" fill="#E1E7ED"/>
<path d="M141.609 110.061C141.913 109.551 142.35 108.982 142.839 108.982C142.984 108.975 143.126 109.023 143.235 109.118C143.345 109.212 143.415 109.345 143.429 109.489C143.426 109.595 143.394 109.697 143.337 109.785C143.28 109.873 143.199 109.944 143.104 109.989C143.062 110.015 143.013 110.026 142.964 110.023C142.915 110.02 142.868 110.001 142.829 109.97C142.779 109.903 142.715 109.85 142.641 109.813C142.567 109.775 142.485 109.755 142.402 109.755C142.137 109.755 141.812 110.061 141.588 110.63V112.494C141.588 113.166 141.638 113.226 142.423 113.286V113.551H140.083V113.286C140.713 113.226 140.785 113.166 140.785 112.494V110.386C140.785 109.714 140.733 109.673 140.154 109.592V109.367C140.648 109.292 141.13 109.151 141.588 108.949V110.061H141.609Z" fill="#E1E7ED"/>
<path d="M148.169 109.358C147.63 109.439 147.539 109.523 147.264 110.102C147.009 110.642 146.695 111.486 145.993 113.167C145.582 114.062 145.232 114.983 144.945 115.926C144.929 115.999 144.887 116.063 144.828 116.108C144.768 116.153 144.694 116.175 144.62 116.169C144.48 116.17 144.346 116.121 144.239 116.031C144.133 115.942 144.062 115.817 144.039 115.68C144.039 115.517 144.13 115.428 144.304 115.314C144.637 115.091 144.898 114.777 145.057 114.41C145.185 114.186 145.291 113.95 145.372 113.705C145.424 113.556 145.42 113.394 145.362 113.248C144.954 112.086 144.496 110.855 144.192 110.133C143.979 109.571 143.877 109.439 143.318 109.358V109.104H145.382V109.358C144.914 109.439 144.863 109.542 144.995 109.918L145.921 112.473C146.206 111.782 146.643 110.58 146.858 109.939C146.98 109.552 146.908 109.439 146.328 109.358V109.104H148.169V109.358Z" fill="#E1E7ED"/>
<path d="M148.053 107.688C148.053 107.453 148.123 107.223 148.254 107.028C148.385 106.833 148.571 106.681 148.788 106.591C149.005 106.501 149.244 106.478 149.474 106.524C149.704 106.57 149.916 106.683 150.082 106.849C150.248 107.016 150.361 107.227 150.407 107.458C150.453 107.688 150.43 107.927 150.34 108.145C150.251 108.362 150.099 108.548 149.904 108.679C149.709 108.81 149.479 108.88 149.244 108.881C148.928 108.88 148.625 108.755 148.402 108.531C148.178 108.307 148.053 108.004 148.053 107.688ZM150.241 107.688C150.24 107.49 150.181 107.297 150.071 107.133C149.96 106.969 149.804 106.841 149.621 106.766C149.438 106.691 149.237 106.671 149.044 106.711C148.85 106.75 148.672 106.845 148.533 106.986C148.394 107.126 148.299 107.304 148.261 107.499C148.223 107.693 148.243 107.894 148.319 108.076C148.396 108.259 148.524 108.414 148.689 108.524C148.853 108.633 149.047 108.691 149.244 108.691C149.377 108.696 149.509 108.673 149.633 108.624C149.756 108.575 149.868 108.502 149.962 108.407C150.055 108.313 150.128 108.201 150.176 108.077C150.224 107.953 150.246 107.821 150.241 107.688ZM148.974 108.362H148.798V107.002H149.384C149.738 107.002 149.858 107.134 149.858 107.38C149.858 107.641 149.676 107.738 149.438 107.76L149.842 108.362H149.647L149.264 107.76H148.974V108.362ZM149.213 107.601C149.403 107.601 149.668 107.632 149.668 107.376C149.668 107.186 149.509 107.159 149.345 107.159H148.974V107.601H149.213Z" fill="#E1E7ED"/>
</g>
</g>
</g>
<defs>
<clipPath id="clip0_8449_6579">
<rect width="147" height="75" fill="white" transform="translate(48 43)"/>
</clipPath>
</defs>
</svg>
