<svg viewBox="85 61 72 40" fill="none" xmlns="http://www.w3.org/2000/svg">
<g clip-path="url(#clip0_8449_6581)">
<path d="M154.839 97.6814C154.982 97.711 155.083 97.8406 155.075 97.9851C155.075 98.0554 155.057 98.1147 155.019 98.1703C154.982 98.2295 154.922 98.274 154.858 98.2962C154.783 98.3221 154.704 98.3369 154.625 98.3369H154.303V97.648H154.625C154.693 97.6517 154.76 97.6591 154.839 97.6814ZM154.58 98.6777C154.704 98.6777 154.802 98.6962 154.865 98.7295C154.933 98.7628 154.978 98.8073 155.004 98.8666C155.038 98.9554 155.057 99.0517 155.06 99.148C155.072 99.3295 155.083 99.4406 155.098 99.474H155.563C155.54 99.3814 155.529 99.2851 155.529 99.1888C155.529 99.0962 155.522 99.0036 155.507 98.911C155.492 98.8332 155.462 98.7628 155.42 98.6962C155.383 98.6406 155.33 98.5925 155.27 98.5591C155.195 98.5221 155.113 98.4925 155.03 98.4777C155.113 98.4703 155.195 98.4517 155.27 98.4221C155.357 98.3814 155.432 98.3147 155.484 98.2295C155.537 98.1443 155.567 98.0443 155.563 97.9406C155.567 97.7406 155.465 97.5517 155.293 97.4443C155.199 97.3888 155.098 97.3517 154.989 97.3332C154.862 97.3147 154.73 97.3073 154.599 97.311H153.815V99.4703H154.303V98.674H154.58V98.6777ZM156.448 97.5888C156.354 97.3851 156.223 97.1962 156.065 97.0369C155.889 96.8591 155.679 96.7147 155.45 96.6147C155.199 96.4999 154.922 96.4443 154.644 96.448C154.344 96.448 154.055 96.5147 153.785 96.6406C153.354 96.8443 153.017 97.1962 152.829 97.6295C152.585 98.1962 152.623 98.8443 152.93 99.3814C153.107 99.6888 153.35 99.9295 153.662 100.1C154.453 100.548 155.45 100.404 156.08 99.7517C156.253 99.5777 156.388 99.3703 156.482 99.1332C156.575 98.8962 156.624 98.6517 156.624 98.4036C156.624 98.1221 156.568 97.8517 156.448 97.5888ZM155.27 96.8591C155.477 96.9406 155.649 97.0517 155.799 97.1962C155.949 97.3406 156.065 97.4999 156.152 97.674C156.392 98.1703 156.373 98.7517 156.099 99.2332C155.957 99.4925 155.739 99.7036 155.48 99.848C155.218 99.9925 154.94 100.067 154.652 100.067C154.363 100.067 154.089 99.9925 153.823 99.848C153.56 99.7036 153.347 99.4925 153.204 99.2332C153.058 98.9814 152.979 98.6925 152.983 98.3999C152.983 98.1517 153.032 97.9258 153.129 97.7221C153.223 97.5184 153.347 97.348 153.489 97.2073C153.8 96.9073 154.217 96.7369 154.652 96.7369C154.858 96.7369 155.064 96.7777 155.27 96.8591ZM147.133 90.4777L135.587 71.5184H138.767V61.6406H119.544V71.5184H122.724L118.314 78.7628L113.904 71.5221H117.084V61.6406H97.8615V71.5184H101.042L89.4953 90.4777H85.374V100.359H104.979V90.4777H101.458L107.473 80.5999L109.805 84.4332H107.567V94.311H129.058V84.4332H126.823L129.155 80.6036L135.17 90.4814H131.649V100.359H151.25V90.4777H147.133Z" fill="#E1E7ED"/>
<path d="M137.485 62.9072V70.2554H133.319L146.41 91.748H149.972V99.0924H132.932V91.7443H137.44L129.156 78.148L124.555 85.6998H127.776V93.0443H108.85V85.6998H112.075L107.474 78.148L99.19 91.748H103.697V99.0924H86.6575V91.7443H90.2162L103.307 70.2517H99.145V62.9072H115.802V70.2554H111.632L118.311 81.222L124.99 70.2554H120.827V62.9072H137.485Z" fill="#F2F2F2"/>
<path d="M136.202 64.1736V68.9884H131.05L145.682 93.0144H148.686V97.8255H134.211V93.0107H139.705L129.156 75.6884L122.286 86.9662H126.494V91.7773H110.132V86.9662H114.34L107.474 75.6884L96.9212 93.0107H102.415V97.8218H87.9399V93.0107H90.9437L105.576 68.9847H100.427V64.1699H114.52V68.9847H109.367L118.315 83.6736L127.262 68.9884H122.11V64.1736H136.202Z" fill="#E1E7ED"/>
</g>
<defs>
<clipPath id="clip0_8449_6581">
<rect width="72" height="40" fill="white" transform="translate(85 61)"/>
</clipPath>
</defs>
</svg>
