<svg width="242" height="161" viewBox="0 0 242 161" fill="none" xmlns="http://www.w3.org/2000/svg">
<path d="M42.9582 57.1141H43.9049V59.8994H47.0989V57.1141H48.0456V63.7805H47.0989V60.7441H43.9049V63.7805H42.9582V57.1141ZM55.1065 57C57.1255 57 58.3118 58.4725 58.3118 60.4473C58.3118 62.4221 57.1369 63.8946 55.1065 63.8946C53.076 63.8946 51.9011 62.4678 51.9011 60.4473C51.9011 58.4269 53.0875 57 55.1065 57ZM55.1065 63.0614C56.6464 63.0614 57.2966 61.7829 57.2966 60.4587C57.2966 59.1346 56.5665 57.8447 55.1065 57.8561C53.635 57.8561 52.9049 59.1118 52.9049 60.4587C52.9049 61.8057 53.5665 63.0614 55.1065 63.0614ZM67.711 61.0181C67.711 62.8901 66.7643 63.8946 65.1217 63.8946C63.4791 63.8946 62.5323 62.8901 62.5323 61.0181V57.1141H63.4905V60.8925C63.4905 62.171 63.8897 63.0499 65.1217 63.0499C66.3536 63.0499 66.7529 62.171 66.7529 60.8925V57.1141H67.711V61.0181ZM75.308 58.1187C74.8175 57.9246 74.5551 57.8447 74.0646 57.8447C73.5285 57.8447 72.9011 58.0388 72.9011 58.7351C72.9011 60.0136 75.7643 59.7168 75.7643 61.9199C75.7643 63.3467 74.6692 63.9061 73.3346 63.9061C72.8669 63.9061 72.4106 63.7691 71.9658 63.6321L72.057 62.7417C72.3878 62.8787 72.9582 63.0614 73.4373 63.0614C73.9848 63.0614 74.749 62.7532 74.749 61.9769C74.749 60.4816 71.8859 60.8925 71.8859 58.8264C71.8859 57.6392 72.8213 57.0114 74.019 57.0114C74.4639 57.0114 74.9886 57.0913 75.4449 57.2511L75.308 58.1301V58.1187ZM81.4905 57.9589H79.4144V57.1141H84.5133V57.9589H82.4487V63.7805H81.4905V57.9589ZM90.9468 57C92.9658 57 94.1521 58.4725 94.1521 60.4473C94.1521 62.4221 92.9772 63.8946 90.9468 63.8946C88.9163 63.8946 87.7414 62.4678 87.7414 60.4473C87.7414 58.4269 88.9278 57 90.9468 57ZM90.9468 63.0614C92.4867 63.0614 93.1369 61.7829 93.1369 60.4587C93.1369 59.1346 92.4182 57.8447 90.9468 57.8561C89.4753 57.8561 88.7567 59.1004 88.7567 60.4587C88.7567 61.8171 89.4182 63.0614 90.9468 63.0614ZM98.3612 57.1141H99.6616L102.605 62.4906H102.627V57.1141H103.574V63.7805H102.354L99.3422 58.3013H99.3194V63.7805H98.3612V57.1141ZM87.4677 98.8017H88.3346V104.11H90.8669V104.874H87.4563V98.8017H87.4677ZM94.1635 98.8017H97.5627V99.5665H95.0304V101.347H97.3346V102.112H95.0304V104.11H97.5627V104.874H94.1635V98.8017ZM103.175 98.8017H104.087L106.654 104.874H105.707L105.091 103.345H102.114L101.498 104.874H100.586L103.175 98.8017ZM103.597 99.6121L102.388 102.626H104.806L103.597 99.6121ZM109.779 98.8017H111.57C113.373 98.8017 114.81 99.9089 114.81 101.781C114.81 103.813 113.578 104.874 111.57 104.874H109.779V98.8017ZM110.646 104.11H111.559C113.053 104.11 113.886 103.39 113.886 101.827C113.886 100.411 112.916 99.5665 111.673 99.5665H110.658V104.11H110.646ZM118.186 98.8017H119.053V104.874H118.186V98.8017ZM122.989 98.8017H124.175L126.856 103.687H126.867V98.8017H127.734V104.874H126.616L123.867 99.8747H123.856V104.874H122.989V98.8017ZM136.186 99.8861C135.764 99.6121 135.297 99.4751 134.521 99.4751C133.118 99.4751 132.194 100.491 132.194 101.849C132.194 103.276 133.221 104.224 134.475 104.224C135.08 104.224 135.228 104.167 135.445 104.121V102.272H134.167V101.564H136.312V104.726C135.981 104.84 135.411 105 134.464 105C132.548 105 131.27 103.767 131.27 101.838C131.27 99.9089 132.627 98.7218 134.475 98.7218C135.365 98.7218 135.753 98.8473 136.255 99.03L136.186 99.9089V99.8861ZM145.015 98.8017H146.452L148.357 103.847L150.228 98.8017H151.665V104.874H150.798V99.6235H150.776L148.768 104.874H147.913L145.905 99.6235H145.894V104.874H145.027V98.8017H145.015ZM155.567 98.8017H158.966V99.5665H156.433V101.347H158.738V102.112H156.433V104.11H158.966V104.874H155.567V98.8017ZM162.605 98.8017H164.395C166.198 98.8017 167.624 99.9089 167.624 101.781C167.624 103.813 166.392 104.874 164.395 104.874H162.605V98.8017ZM163.471 104.11H164.384C165.878 104.11 166.711 103.39 166.711 101.827C166.711 100.411 165.741 99.5665 164.498 99.5665H163.483V104.11H163.471ZM171.24 98.8017H172.106V104.874H171.24V98.8017ZM179.817 99.8062C179.43 99.5779 179.008 99.4637 178.563 99.4637C177.16 99.4637 176.236 100.468 176.236 101.838C176.236 103.208 177.262 104.212 178.529 104.212C178.962 104.212 179.544 104.098 179.852 103.916L179.909 104.76C179.452 104.954 178.882 104.977 178.529 104.977C176.612 104.977 175.323 103.744 175.323 101.815C175.323 99.8861 176.681 98.6989 178.529 98.6989C178.996 98.6989 179.464 98.7674 179.897 98.9615L179.829 99.8062H179.817ZM183.559 98.8017H184.426V104.874H183.559V98.8017ZM188.27 98.8017H189.456L192.137 103.687H192.148V98.8017H193.015V104.874H191.897L189.148 99.8747H189.125V104.874H188.259V98.8017H188.27ZM196.894 98.8017H200.293V99.5665H197.76V101.347H200.065V102.112H197.76V104.11H200.293V104.874H196.894V98.8017ZM78.9354 81.9532C78.9354 77.2844 81.9011 73.0038 87.1939 73.0038C92.4867 73.0038 94.5513 76.4625 94.5513 80.3322V80.7432H83.5894V81.1541C83.5894 85.8114 85.0951 89.2017 88.962 89.2017C91.5855 89.2017 92.8289 88.2656 94.2205 85.8114L94.9392 86.3023C93.5817 89.0419 90.9582 91.1194 87.5361 91.1194C81.6388 91.1194 78.9354 86.9872 78.9354 81.9532ZM89.943 79.7386C89.943 76.9534 89.6008 73.917 87.0456 73.917C84.981 73.917 83.7034 76.1658 83.5894 79.8185L89.943 79.7501V79.7386ZM99.3308 85.8685V75.2297H95.9087V73.6088H99.3992V67.9698H103.563V73.6088H108.559V75.2297H103.597V85.4918C103.597 87.3753 104.156 88.8364 106.152 88.8364C108.034 88.8364 108.217 87.3296 108.365 85.7886H109.266C109.038 88.6423 107.43 91.1194 104.122 91.1194C100.814 91.1194 99.308 89.2017 99.308 85.8571M109.814 89.7153C110.487 89.6697 110.943 89.6012 111.468 89.4185C112.186 89.1903 112.437 88.5967 112.437 87.7634V66.3603C112.403 65.5384 112.027 64.591 111.422 64.18C110.977 63.8832 109.586 63.6207 108.901 63.575V62.8216L116.487 62.4107L116.715 62.6732V75.9032H116.795C118.221 74.4763 119.646 72.8212 122.84 72.8212C126.297 72.8212 127.871 75.1498 127.871 78.7227V87.5922C127.871 88.414 128.133 88.9848 128.806 89.2816C129.331 89.5099 129.776 89.6126 130.46 89.6925V90.4459H121.106V89.6925C121.665 89.6468 122.236 89.5784 122.681 89.3957C123.319 89.1674 123.502 88.5738 123.502 87.7405V78.6771C123.502 76.1201 122.259 74.8074 120.798 74.8074C118.392 74.8074 117.114 76.4283 116.703 77.2958V87.5579C116.703 88.3798 116.966 88.9049 117.57 89.2473C118.095 89.5099 118.62 89.6583 119.179 89.7039V90.4573H109.791V89.7039L109.814 89.7153ZM162.753 89.7153C163.426 89.6697 163.882 89.6012 164.407 89.4185C165.08 89.1903 165.376 88.5168 165.376 87.7634V76.8278C165.342 75.9945 165 75.3667 164.407 74.9444C163.951 74.6476 162.867 74.2709 162.194 74.2252V73.5061L169.437 73.0495L169.7 73.312V87.5237C169.7 88.3113 170.042 88.9505 170.715 89.2587C171.274 89.5213 171.844 89.6354 172.369 89.7153V90.4687H162.753V89.7153ZM164.441 65.8809C164.441 64.3398 165.673 63.1413 167.179 63.1413C168.684 63.1413 169.951 64.3056 169.951 65.8124C169.951 67.3191 168.741 68.5976 167.179 68.5976C165.616 68.5976 164.441 67.399 164.441 65.8923M175.392 89.5898L174.867 90.7199H173.669L173.487 84.6585H174.274C174.833 86.6904 177.091 90.2176 180.137 90.2176C182.464 90.2176 183.365 88.9391 183.365 87.1356C183.365 85.1836 181.711 84.396 179.008 83.5627C176.567 82.8093 173.977 81.3824 173.977 78.0378C173.977 75.2183 176.27 72.9696 180.057 72.9696C182.087 72.9696 183.593 73.5631 184.266 73.9512L184.643 72.9353H185.772L186.034 78.4145H185.281C184.677 76.0858 182.84 73.8713 180.285 73.8713C178.369 73.8713 177.548 75.1156 177.548 76.4968C177.548 78.5287 178.939 79.0195 181.791 79.9555C184.837 80.9715 186.867 82.4782 186.867 85.5603C186.867 89.0875 183.935 91.1194 180.183 91.1194C178.084 91.1194 176.087 90.2176 175.414 89.5784M191.053 85.8685V75.2297H187.643V73.6088H191.133V67.9698H195.297V73.6088H200.293V75.2297H195.331V85.4918C195.331 87.3753 195.89 88.8364 197.886 88.8364C199.768 88.8364 199.951 87.3296 200.099 85.7886H201C200.772 88.6423 199.163 91.1194 195.856 91.1194C192.548 91.1194 191.042 89.2017 191.042 85.8571M159.696 89.0076C159.103 88.5967 158.806 88.0031 158.726 87.2269V63.1527L158.464 62.8901L150.297 63.3011V64.0088C151.3 64.0887 152.897 64.4197 153.525 64.8649C154.118 65.2416 154.449 66.2005 154.494 66.9881V74.1225C153.935 73.9056 152.304 73.1979 150.114 73.1979C148.3 73.1979 146.544 73.8371 145.118 74.9672C144.273 75.6393 143.561 76.464 143.019 77.3986C142.231 78.7781 141.822 80.3415 141.833 81.9303C141.833 83.8709 142.243 85.5603 142.939 86.9529C142.814 87.3753 142.654 87.7634 142.483 88.1058C141.833 89.43 140.852 90.2518 139.471 90.2518C136.392 90.2518 135.354 86.3479 135.354 81.9303C135.354 78.3574 136.061 74.054 139.506 74.054C140.099 74.054 140.601 74.2024 141.046 74.4535C141.297 74.6019 141.513 74.7845 141.719 75.0014C141.741 74.9558 141.787 74.9101 141.833 74.853C141.901 74.7731 141.981 74.6932 142.061 74.6133C142.437 74.2366 142.973 73.7914 142.973 73.7914C142.757 73.7115 142.529 73.643 142.3 73.586C142.198 73.5517 141.719 73.4262 141.639 73.4147L141.091 73.312C140.567 73.2321 140.03 73.2207 139.494 73.2207C134.076 73.2207 130.551 76.8963 130.551 82.2157C130.551 87.7862 134.567 91.1765 139.278 91.1765C141.548 91.1765 143.395 90.56 144.821 89.5099C145.874 88.735 146.723 87.7167 147.297 86.542C147.958 85.2064 148.3 83.6654 148.3 82.0216C148.3 80.3779 147.935 78.8369 147.262 77.547C147.376 77.2045 147.513 76.9077 147.65 76.6109C148.414 75.0357 149.544 74.1339 150.878 74.1339C153.103 74.1339 154.106 75.8461 154.483 77.0675V87.6606C153.593 88.6652 152.738 89.3729 151.141 89.3729C150.137 89.3729 149.475 89.2131 148.837 88.6766C148.335 89.4414 147.707 90.1149 146.966 90.6628C147.764 90.9596 148.608 91.1194 149.509 91.1194C151.814 91.1194 153.559 89.6697 154.369 88.8136L154.517 88.8478V90.4801L154.779 90.7427L161.863 90.4916V89.7496C161.202 89.7153 160.118 89.3386 159.673 89.0419L159.696 89.0076ZM76.4943 89.2131C75.9924 88.9734 75.7186 88.6652 75.5817 88.2656C75.5817 88.2086 75.5589 88.1515 75.5589 88.083V67.9241H73.9278L61.3004 87.147V67.9241H59.6692L47.0304 87.147C46.7338 87.5807 46.0722 88.962 44.1559 89.4642C43.6198 89.6012 42 89.7496 42 89.7496V90.4801H52.7452V89.7496C52.1407 89.6811 51.5361 89.6126 50.9316 89.4985C50.384 89.3843 49.8479 89.2473 49.3346 89.0419C48.9354 88.8706 48.6502 88.6766 48.5817 88.2086C48.5361 87.9118 48.6274 87.6264 48.7871 87.3753C49.6996 85.9256 56.7833 74.7389 56.7833 74.7389V90.4801H61.0836L71.0532 74.7161V87.7862C71.0532 88.3798 70.7338 88.8364 70.2091 89.2017C70.1635 89.2359 70.1179 89.2587 70.0608 89.2816C69.6046 89.5099 67.8821 89.6811 67.289 89.7382V90.4687H78.924V89.7382C78.3308 89.6697 76.8479 89.4071 76.4829 89.2131H76.4943Z" fill="#E1E7ED"/>
</svg>
