<svg width="242" height="161" viewBox="0 0 242 161" fill="none" xmlns="http://www.w3.org/2000/svg">
<path d="M39.33 98H45.2156V87.0248C44.7547 87.4734 41.4928 90.2 39.33 91.2009V98ZM58.937 69.285V79.2593C56.8097 78.2584 54.3987 77.7062 51.8813 77.7062C49.5058 77.7062 47.2012 78.2584 45.1447 79.0867V69.285H39.259V83.2628C38.9399 83.5044 38.6918 83.6425 38.6918 83.6425C36.9544 84.885 34.7207 85.6442 32.4161 85.6442C26.4595 85.6442 21.7084 80.9159 21.7084 75.2212C21.7084 69.492 26.6368 64.7292 32.5933 64.7292C34.7207 64.7292 36.6353 65.3504 38.3017 66.3513V60.0009C36.5644 59.3796 34.5789 59 32.5933 59C23.4812 59 16 66.2478 16 75.1522C16 84.0566 23.3748 91.3044 32.5933 91.3044C34.8271 91.3044 36.6353 90.9248 38.869 90.0619C39.0109 89.9929 39.1881 89.9239 39.4363 89.8203C41.4928 88.8195 44.7547 86.0239 45.322 85.6442C45.3929 85.6442 45.3929 85.5752 45.3929 85.5752C47.2012 84.1947 49.5058 83.3319 52.0586 83.3319C54.7533 83.3319 57.1997 84.3327 59.1143 85.8858V97.931H65V69.285H58.937ZM26.8849 76.2912C26.9559 76.0496 26.8849 75.8425 26.8849 75.6009C26.8849 75.0487 26.814 74.6 26.7431 74.0478C26.6013 72.8053 26.6013 71.5628 27.3104 70.4929C27.4522 70.2513 27.6295 70.0442 27.8777 69.8027C27.8777 69.8027 27.8777 69.8027 27.9486 69.8027C28.7287 69.0434 29.9342 68.5602 31.2815 68.4911C31.6715 68.4911 32.3097 68.4911 33.0188 68.7327C33.5861 68.8708 34.047 69.0434 34.6143 69.354C34.8625 69.423 35.0753 69.6646 35.2525 69.7336C35.5007 69.8717 35.6425 70.0442 35.8198 70.2858C36.1389 70.7345 36.3871 71.4593 36.068 72.046L35.9971 72.1841L35.9262 72.3221V72.0115C35.9262 72.0805 35.7844 72.3221 35.678 72.3221C35.678 72.4602 35.6071 72.5637 35.6071 72.6327C35.5362 72.8743 35.4653 72.9434 35.3589 73.185V73.254C35.6071 73.254 35.6071 73.1159 35.6071 73.185C35.6071 73.254 35.4653 73.323 35.3589 73.323C35.3589 73.7027 35.7489 74.1858 35.8198 74.2549C35.9617 74.3929 36.1389 74.5655 36.2098 74.6345C36.3517 74.8761 35.8907 75.1867 35.8198 75.2558C35.8907 75.3938 35.9617 75.3938 35.9617 75.5664C36.0326 75.7044 35.6425 75.808 35.7135 75.877C35.7844 75.946 35.7844 76.1876 35.7135 76.2566C35.3944 76.4982 35.4653 76.5673 35.5716 76.9469C35.6425 77.3956 35.4298 77.5681 35.0043 77.6372C34.6852 77.7062 33.7988 77.3956 33.4797 77.5681C32.8415 78.0168 32.2742 79.0522 34.047 81.4336C34.1889 81.5717 34.6852 82.1239 34.3661 82.1239C33.0897 82.1239 31.0333 79.5009 28.0904 81.192C27.7004 81.4336 29.3669 79.1212 29.686 77.8788C29.4378 77.8788 29.225 77.7407 28.9059 77.4991C28.9059 77.6372 29.0478 77.7407 29.1541 77.8788C29.1541 77.8788 29.0832 77.8788 29.0123 77.8788C28.9414 77.8788 28.9414 77.8788 28.8705 77.8788C28.5514 77.8788 28.1614 77.8097 27.8423 77.6372C27.7004 77.5681 27.5941 77.3265 27.5232 77.1885C27.5232 77.1195 27.4522 76.8779 27.4522 76.7398C27.4522 76.8088 27.3813 76.9814 27.2041 77.0504C27.0268 77.1195 26.8849 77.1885 26.6368 77.1195C26.7431 76.9124 26.814 76.6018 26.8849 76.2912Z" fill="#E1E7ED"/>
<path d="M82.643 78.3083C82.8856 77.9174 83.0936 77.5977 83.6482 77.5977C84.2028 77.5977 84.8267 78.0596 84.8267 78.6991C84.8267 78.9478 84.8267 79.0899 84.688 79.3386C83.9948 81.0794 82.123 82.1097 80.182 82.1097C77.305 82.1097 75.2946 79.9781 75.052 77.1714C74.9827 76.2121 74.9827 75.2529 75.052 74.4002C75.2946 71.629 77.305 69.3908 80.182 69.3908C82.123 69.3908 83.8908 70.4211 84.688 72.162C84.7574 72.4817 84.8267 72.6238 84.8267 72.8015C84.8267 73.441 84.2028 73.9028 83.6482 73.9028C83.0936 73.9028 82.7816 73.5831 82.643 73.1923C82.1924 72.233 81.2565 71.6646 80.2513 71.6646C78.6222 71.6646 77.5477 72.9436 77.4437 74.6134C77.3743 75.3239 77.3743 76.1411 77.4437 76.8516C77.5823 78.5925 78.6222 79.8004 80.2513 79.8004C81.3258 79.907 82.1577 79.2675 82.643 78.3083ZM89.2981 73.1567C89.6794 72.837 90.5459 72.4462 91.4818 72.4462C93.6655 72.4462 94.8787 73.7962 94.8787 76.2476V80.7952C94.8787 81.5057 94.4281 82.0742 93.7002 82.0742C93.0763 82.0742 92.5217 81.5057 92.5217 80.7952V76.4253C92.5217 75.395 91.8977 74.7555 90.9619 74.7555C90.2686 74.7555 89.5754 75.0752 89.1941 75.466V80.7952C89.1941 81.4347 88.7435 82.0031 88.0156 82.0031C87.3917 82.0031 86.8371 81.4347 86.8371 80.7952V70.6343C86.8371 69.9237 87.2877 69.4263 88.0156 69.4263C88.6395 69.4263 89.1941 69.9948 89.1941 70.6343L89.2981 73.1567ZM98.4489 71.558C97.7556 71.558 97.201 70.9896 97.201 70.279C97.201 69.5684 97.7556 69 98.4489 69C99.1421 69 99.6967 69.5684 99.6967 70.279C99.6967 70.9896 99.1768 71.558 98.4489 71.558ZM99.6274 73.7962V80.8662C99.6274 81.5057 99.1768 82.0742 98.4489 82.0742C97.825 82.0742 97.2704 81.5057 97.2704 80.8662V73.7962C97.2704 73.0857 97.721 72.5883 98.4489 72.5883C99.1768 72.5172 99.6274 73.0857 99.6274 73.7962ZM104.445 70.6698V80.8662C104.445 81.5057 103.995 82.0742 103.267 82.0742C102.643 82.0742 102.088 81.5057 102.088 80.8662V70.7053C102.088 69.9948 102.539 69.4974 103.267 69.4974C103.96 69.4263 104.445 69.9592 104.445 70.6698ZM110.407 72.5172C111.101 72.5172 111.898 72.7659 112.418 72.9791V70.6698C112.418 69.9592 112.972 69.4619 113.596 69.4619C114.22 69.4619 114.775 70.0303 114.775 70.6698V80.2268C114.775 80.6176 114.705 80.8662 114.393 81.0084C113.943 81.3281 112.522 82.1097 110.823 82.1097C108.432 82.1097 106.941 80.582 106.802 78.4504C106.733 77.8109 106.733 76.7095 106.802 76.07C106.906 73.8673 108.154 72.5172 110.407 72.5172ZM110.789 79.907C111.412 79.907 112.175 79.5873 112.418 79.3386V75.2173C112.106 75.0752 111.412 74.7555 110.65 74.7555C109.575 74.7555 109.021 75.395 108.951 76.4253C108.951 76.8161 108.951 77.6332 108.951 78.0951C109.021 79.2675 109.714 79.907 110.789 79.907ZM122.678 73.8673C122.678 74.3291 122.296 74.9686 121.603 74.9686C121.222 74.9686 120.841 74.8265 120.286 74.8265C119.731 74.8265 119.419 75.1463 119.419 75.9279V80.8662C119.419 81.5057 118.969 82.0742 118.241 82.0742C117.617 82.0742 117.062 81.5057 117.062 80.8662V75.466C117.062 73.6541 118.068 72.4462 120.078 72.4462C120.633 72.4462 121.256 72.5172 121.568 72.5883C122.262 72.837 122.678 73.2278 122.678 73.8673ZM131.586 76.9582C131.586 77.6688 131.274 78.1661 130.407 78.1661H125.832V78.3083C125.832 79.4096 126.698 79.9781 127.773 79.9781C128.397 79.9781 129.021 79.8359 129.645 79.5872C130.581 79.2675 131.135 79.907 131.135 80.5465C131.135 80.8663 130.997 81.257 130.581 81.5057C129.957 81.8965 128.882 82.1452 127.773 82.1452C125.451 82.1452 123.821 80.6176 123.648 78.4148C123.579 77.7043 123.648 76.745 123.648 76.1766C123.891 73.8673 125.416 72.4462 127.669 72.4462C129.991 72.4462 131.551 74.0449 131.551 76.4963C131.586 76.4963 131.586 76.9582 131.586 76.9582ZM129.194 76.4963C129.333 76.4963 129.333 76.4253 129.333 76.2476C129.402 75.2173 128.709 74.5068 127.634 74.5068C126.386 74.5068 125.867 75.2884 125.867 76.4963H129.194ZM141.499 80.8662C141.499 81.5057 141.049 82.0742 140.321 82.0742C139.697 82.0742 139.142 81.5057 139.142 80.8662V76.4253C139.142 75.3239 138.38 74.7555 137.513 74.7555C136.82 74.7555 136.196 75.0042 135.815 75.1463V80.7952C135.815 81.4347 135.364 82.0031 134.636 82.0031C134.012 82.0031 133.458 81.4347 133.458 80.7952V74.2581C133.458 73.8673 133.596 73.6186 133.839 73.3699C134.393 72.9791 135.607 72.4107 137.478 72.4107C140.043 72.4107 141.36 73.7607 141.36 76.2121L141.499 80.8662ZM145.312 71.558C145.312 72.1975 145.243 72.9791 144.861 73.6186C144.619 74.0094 144.237 74.3292 143.787 74.3292C143.232 74.3292 142.851 73.8673 142.851 73.3699C142.851 72.8015 143.302 72.5883 143.302 71.629V70.5987C143.302 70.0303 143.752 69.5684 144.307 69.5684C144.861 69.5684 145.312 70.0303 145.312 70.5987V71.558ZM153.215 79.1254C153.215 81.1149 151.655 82.1452 149.645 82.1452C148.016 82.1452 147.01 81.6834 146.386 81.1149C146.005 80.7952 145.832 80.0846 146.144 79.6938C146.456 79.232 147.08 79.1254 147.634 79.4451C148.189 79.7649 148.882 80.0136 149.645 80.0136C150.511 80.0136 150.962 79.6938 150.962 79.232C150.962 78.8412 150.65 78.5925 149.957 78.4504C149.333 78.3083 149.333 78.3083 148.709 78.1306C147.322 77.7398 146.213 76.9227 146.213 75.4305C146.213 73.512 147.704 72.4817 149.714 72.4817C150.789 72.4817 151.898 72.8015 152.522 73.2633C152.972 73.6541 152.972 74.3647 152.591 74.8621C152.279 75.2529 151.655 75.2529 151.101 75.0042C150.65 74.7555 150.095 74.6134 149.61 74.6134C148.743 74.6134 148.362 74.9331 148.362 75.3239C148.362 75.7147 148.605 75.9634 149.367 76.1055L150.615 76.4253C152.383 76.8161 153.215 77.6688 153.215 79.1254ZM159.419 70.7764C159.419 70.0658 159.974 69.5684 160.598 69.5684C161.291 69.5684 161.776 70.1369 161.776 70.7764V74.6844H167.218V70.7764C167.218 70.0658 167.773 69.5684 168.397 69.5684C169.09 69.5684 169.575 70.1369 169.575 70.7764V80.7952C169.575 81.5057 169.125 82.0742 168.397 82.0742C167.773 82.0742 167.218 81.5057 167.218 80.7952V76.9582H161.776V80.7597C161.776 81.4702 161.326 81.9676 160.598 81.9676C159.974 81.9676 159.419 81.3992 159.419 80.7597V70.7764ZM175.884 82.1452C173.631 82.1452 171.932 80.7241 171.759 78.5569C171.69 77.8464 171.69 76.745 171.759 76.1055C171.898 74.0449 173.631 72.5172 175.884 72.5172C178.137 72.5172 179.766 73.9383 180.009 76.1055C180.078 76.8161 180.078 77.8464 180.009 78.5569C179.835 80.6176 178.206 82.1452 175.884 82.1452ZM177.756 76.4253C177.686 75.395 177.062 74.7555 175.988 74.7555C174.913 74.7555 174.289 75.466 174.116 76.4253C174.116 76.8871 174.116 77.7043 174.116 78.1661C174.185 79.1964 174.879 79.8359 175.988 79.8359C177.097 79.8359 177.686 79.1254 177.756 78.1661C177.756 77.7753 177.756 76.8871 177.756 76.4253ZM188.917 79.1254C188.917 81.1149 187.357 82.1452 185.347 82.1452C183.717 82.1452 182.712 81.6834 182.088 81.1149C181.707 80.7952 181.534 80.0846 181.846 79.6938C182.158 79.232 182.782 79.1254 183.336 79.4451C183.891 79.7649 184.584 80.0136 185.347 80.0136C186.213 80.0136 186.664 79.6938 186.664 79.232C186.664 78.8412 186.352 78.5925 185.659 78.4504C185.035 78.3083 185.035 78.3083 184.411 78.1306C183.024 77.7398 181.915 76.9227 181.915 75.4305C181.915 73.512 183.406 72.4817 185.416 72.4817C186.49 72.4817 187.6 72.8015 188.224 73.2633C188.674 73.6541 188.674 74.3647 188.293 74.8621C187.981 75.2529 187.357 75.2529 186.802 75.0042C186.352 74.7555 185.797 74.6134 185.312 74.6134C184.445 74.6134 184.064 74.9331 184.064 75.3239C184.064 75.7147 184.307 75.9634 185.069 76.1055L186.317 76.4253C188.05 76.8161 188.917 77.6688 188.917 79.1254ZM194.948 82.1452C194.185 82.1452 193.631 82.0031 193.007 81.6834V84.3124C193.007 85.023 192.452 85.5204 191.828 85.5204C191.204 85.5204 190.65 84.9519 190.65 84.3124V74.2936C190.65 74.0449 190.719 73.8318 190.962 73.7252C191.516 73.3344 192.903 72.6238 194.671 72.6238C196.993 72.6238 198.484 74.1515 198.691 76.2832C198.761 76.9227 198.761 78.024 198.691 78.6635C198.622 80.6886 197.201 82.1452 194.948 82.1452ZM194.74 74.7555C194.116 74.7555 193.354 75.0752 193.042 75.3239V79.4451C193.354 79.5873 194.047 79.907 194.74 79.907C195.919 79.907 196.369 79.2675 196.438 78.2372C196.438 77.8464 196.438 77.0293 196.438 76.5674C196.369 75.3595 195.815 74.7555 194.74 74.7555ZM202.192 71.558C201.499 71.558 200.945 70.9896 200.945 70.279C200.945 69.5684 201.499 69 202.192 69C202.886 69 203.44 69.5684 203.44 70.279C203.406 70.9896 202.886 71.558 202.192 71.558ZM203.336 73.7962V80.8662C203.336 81.5057 202.886 82.0742 202.158 82.0742C201.534 82.0742 200.979 81.5057 200.979 80.8662V73.7962C200.979 73.0857 201.43 72.5883 202.158 72.5883C202.782 72.5172 203.336 73.0857 203.336 73.7962ZM208.847 82.1452C206.768 82.1452 205.728 80.6176 205.728 78.7346V71.8067C205.728 71.0961 206.178 70.5987 206.906 70.5987C207.53 70.5987 208.085 71.1672 208.085 71.8067V73.0146H210.269C210.823 73.0146 211.343 73.4765 211.343 74.0449C211.343 74.6134 210.893 75.0752 210.269 75.0752H208.085V78.6635C208.085 79.5517 208.466 79.9425 209.159 79.9425C209.541 79.9425 209.922 79.8715 210.234 79.8004C211.101 79.5517 211.62 80.1202 211.62 80.8307C211.62 81.2215 211.482 81.6123 210.927 81.861C210.338 82.0387 209.541 82.1452 208.847 82.1452ZM220.321 80.2978C220.321 80.6886 220.251 80.9373 219.939 81.0794C219.489 81.3992 218.241 82.0387 216.369 82.0387C213.873 82.0387 212.799 80.6176 212.799 78.9478C212.799 77.4201 213.804 76.07 216.3 76.07C217.062 76.07 217.548 76.1411 218.172 76.3187V75.8568C218.172 74.9686 217.721 74.5068 216.542 74.5068C215.919 74.5068 215.295 74.6489 214.913 74.8265C213.908 75.1463 213.354 74.6844 213.354 73.9383C213.354 73.5475 213.492 73.1567 214.116 72.908C214.567 72.6594 215.607 72.4462 216.612 72.4462C219.003 72.4462 220.425 73.5475 220.425 76.0345V80.3333H220.321V80.2978ZM218.172 79.6583V78.0596C217.617 77.9175 217.097 77.7398 216.473 77.7398C215.537 77.7398 214.983 78.2017 214.983 78.8412C214.983 79.6228 215.607 80.0491 216.542 80.0491C217.444 80.0491 217.929 79.8359 218.172 79.6583ZM225 70.6698V80.8662C225 81.5057 224.549 82.0742 223.821 82.0742C223.198 82.0742 222.643 81.5057 222.643 80.8662V70.7053C222.643 69.9948 223.094 69.4974 223.821 69.4974C224.445 69.4263 225 69.9592 225 70.6698ZM79.2114 99.6249C76.9584 99.6249 75.26 98.2038 75.0867 96.0366C75.0867 95.326 75.0867 94.2957 75.0867 93.5852C75.2253 91.5246 76.9584 89.9969 79.2114 89.9969C81.4645 89.9969 83.0936 91.418 83.3362 93.5852C83.4055 94.2957 83.4055 95.326 83.3362 96.0366C83.0936 98.0972 81.4645 99.6249 79.2114 99.6249ZM81.0139 93.9049C80.9445 92.8746 80.3206 92.2351 79.2461 92.2351C78.1716 92.2351 77.5477 92.9457 77.3743 93.9049C77.3743 94.3668 77.3743 95.1839 77.3743 95.6458C77.4437 96.6761 78.1369 97.3156 79.2461 97.3156C80.3553 97.3156 80.9445 96.605 81.0139 95.6458C81.0832 95.255 81.0832 94.3668 81.0139 93.9049ZM86.1438 89.9969C86.1438 87.8652 87.3224 86.7283 89.1594 86.7283C89.7834 86.7283 90.4766 86.7994 90.8579 86.977C91.4125 87.1191 91.7244 87.5455 91.7244 88.0784C91.7244 88.6113 91.3432 89.1087 90.6499 89.1087C90.2686 89.1087 89.8873 88.9666 89.3328 88.9666C88.7088 88.9666 88.3276 89.3574 88.3276 90.0679V90.4587H90.338C90.8925 90.4587 91.3432 90.8495 91.3432 91.489C91.3432 92.0575 90.8925 92.5193 90.338 92.5193H88.3276V98.3104C88.3276 99.0209 87.8769 99.5893 87.149 99.5893C86.5251 99.5893 85.9705 99.0209 85.9705 98.3104V92.5193H85.5893C84.9653 92.5193 84.5147 92.0575 84.5147 91.489C84.5147 90.8495 84.9653 90.4587 85.5893 90.4587H85.9705V89.9969H86.1438ZM100.39 95.5037V98.3814C100.39 99.0209 99.8353 99.6604 99.2114 99.6604C98.5875 99.6604 98.0329 99.092 98.0329 98.3814V88.6823C98.0329 87.7941 98.5875 87.0836 99.5927 87.0836H102.99C105.243 87.0836 107.184 88.6113 107.184 91.2048C107.184 93.7983 105.312 95.326 102.851 95.326H100.355V95.5037H100.39ZM102.816 93.1233C104.203 93.1233 104.827 92.4127 104.827 91.3114C104.827 90.1034 104.203 89.4995 102.816 89.4995H100.321V93.1588C100.321 93.1233 102.816 93.1233 102.816 93.1233ZM111.274 90.6364C111.655 90.3166 112.522 89.9258 113.458 89.9258C115.641 89.9258 116.854 91.2759 116.854 93.7273V98.2748C116.854 98.9854 116.404 99.5538 115.676 99.5538C115.052 99.5538 114.497 98.9854 114.497 98.2748V93.9049C114.497 92.8746 113.873 92.2351 112.938 92.2351C112.244 92.2351 111.551 92.5549 111.17 92.9457V98.2748C111.17 98.9143 110.719 99.4828 109.991 99.4828C109.367 99.4828 108.813 98.9143 108.813 98.2748V88.1139C108.813 87.4033 109.263 86.906 109.991 86.906C110.615 86.906 111.17 87.4744 111.17 88.1139L111.274 90.6364ZM120.425 89.0376C119.731 89.0376 119.177 88.4692 119.177 87.7586C119.177 87.0481 119.731 86.4796 120.425 86.4796C121.118 86.4796 121.672 87.0481 121.672 87.7586C121.672 88.5047 121.118 89.0376 120.425 89.0376ZM121.568 91.2759V98.3459C121.568 98.9854 121.118 99.5538 120.39 99.5538C119.766 99.5538 119.211 98.9854 119.211 98.3459V91.2759C119.211 90.5653 119.662 90.0679 120.39 90.0679C121.049 90.0679 121.568 90.5653 121.568 91.2759ZM126.386 88.185V98.3459C126.386 98.9854 125.936 99.5538 125.208 99.5538C124.584 99.5538 124.029 98.9854 124.029 98.3459V88.185C124.029 87.4744 124.48 86.977 125.208 86.977C125.936 86.906 126.386 87.4744 126.386 88.185ZM136.092 97.813C136.092 98.2038 136.023 98.4525 135.711 98.5946C135.26 98.9143 134.012 99.5538 132.14 99.5538C129.645 99.5538 128.57 98.1327 128.57 96.4629C128.57 94.9352 129.575 93.5852 132.071 93.5852C132.834 93.5852 133.319 93.6562 133.943 93.8339V93.372C133.943 92.4838 133.492 92.0219 132.314 92.0219C131.69 92.0219 131.066 92.1641 130.685 92.3417C129.679 92.6614 129.125 92.1996 129.125 91.4535C129.125 91.0627 129.263 90.6719 129.887 90.4232C130.338 90.1745 131.378 89.9613 132.383 89.9613C134.775 89.9613 136.196 91.0627 136.196 93.5496L136.092 97.813ZM133.839 97.1735V95.5747C133.284 95.4326 132.764 95.255 132.14 95.255C131.204 95.255 130.65 95.7168 130.65 96.3563C130.65 97.1379 131.274 97.5643 132.21 97.5643C133.146 97.6353 133.666 97.3156 133.839 97.1735ZM141.915 89.9969C142.608 89.9969 143.406 90.2456 143.925 90.4587V88.1494C143.925 87.4389 144.48 86.9415 145.104 86.9415C145.728 86.9415 146.282 87.5099 146.282 88.1494V97.7064C146.282 98.0972 146.213 98.3459 145.901 98.488C145.451 98.8077 144.029 99.5893 142.331 99.5893C139.939 99.5893 138.449 98.0617 138.31 95.93C138.241 95.2905 138.241 94.1891 138.31 93.5496C138.345 91.3469 139.662 89.9969 141.915 89.9969ZM142.227 97.3866C142.851 97.3866 143.614 97.0669 143.856 96.8182V92.697C143.544 92.5549 142.851 92.2351 142.088 92.2351C141.014 92.2351 140.459 92.8746 140.39 93.9049C140.39 94.2957 140.39 95.1129 140.39 95.5747C140.494 96.7471 141.118 97.3866 142.227 97.3866ZM156.404 94.4734C156.404 95.1839 156.092 95.6813 155.225 95.6813H150.65V95.8234C150.65 96.9248 151.516 97.4932 152.591 97.4932C153.215 97.4932 153.839 97.3511 154.463 97.1024C155.399 96.7827 155.953 97.4222 155.953 98.0617C155.953 98.3814 155.815 98.7722 155.399 99.0209C154.775 99.4117 153.7 99.6604 152.591 99.6604C150.269 99.6604 148.64 98.1327 148.466 95.93C148.397 95.2194 148.466 94.2602 148.466 93.6917C148.709 91.3825 150.234 89.9613 152.487 89.9613C154.809 89.9613 156.369 91.5601 156.369 94.0115V94.4734H156.404ZM154.012 93.976C154.151 93.976 154.151 93.9049 154.151 93.7273C154.22 92.697 153.527 91.9864 152.452 91.9864C151.204 91.9864 150.685 92.768 150.685 93.976H154.012ZM160.737 88.185V98.3459C160.737 98.9854 160.286 99.5538 159.558 99.5538C158.934 99.5538 158.38 98.9854 158.38 98.3459V88.185C158.38 87.4744 158.83 86.977 159.558 86.977C160.217 86.906 160.737 87.4744 160.737 88.185ZM167.357 99.6249C166.594 99.6249 166.04 99.4828 165.416 99.163V101.792C165.416 102.503 164.861 103 164.237 103C163.614 103 163.059 102.432 163.059 101.792V91.7733C163.059 91.5246 163.128 91.3114 163.371 91.2048C163.925 90.814 165.312 90.1035 167.08 90.1035C169.402 90.1035 170.893 91.6311 171.101 93.7628C171.17 94.4023 171.17 95.5037 171.101 96.1432C170.997 98.2038 169.679 99.6249 167.357 99.6249ZM167.114 92.2351C166.49 92.2351 165.728 92.5549 165.416 92.8036V96.9248C165.728 97.0669 166.421 97.3866 167.114 97.3866C168.293 97.3866 168.743 96.7471 168.813 95.7168C168.813 95.326 168.813 94.5089 168.813 94.047C168.813 92.8746 168.189 92.2351 167.114 92.2351ZM175.641 90.6364C176.023 90.3166 176.889 89.9258 177.825 89.9258C180.009 89.9258 181.222 91.2759 181.222 93.7273V98.2748C181.222 98.9854 180.771 99.5538 180.043 99.5538C179.419 99.5538 178.865 98.9854 178.865 98.2748V93.9049C178.865 92.8746 178.241 92.2351 177.305 92.2351C176.612 92.2351 175.919 92.5549 175.537 92.9457V98.2748C175.537 98.9143 175.087 99.4828 174.359 99.4828C173.735 99.4828 173.18 98.9143 173.18 98.2748V88.1139C173.18 87.4033 173.631 86.906 174.359 86.906C174.983 86.906 175.537 87.4744 175.537 88.1139V90.6719H175.641V90.6364ZM184.861 89.0376C184.168 89.0376 183.614 88.4692 183.614 87.7586C183.614 87.0481 184.168 86.4796 184.861 86.4796C185.555 86.4796 186.109 87.0481 186.109 87.7586C186.04 88.5047 185.485 89.0376 184.861 89.0376ZM185.971 91.2759V98.3459C185.971 98.9854 185.52 99.5538 184.792 99.5538C184.168 99.5538 183.614 98.9854 183.614 98.3459V91.2759C183.614 90.5653 184.064 90.0679 184.792 90.0679C185.485 90.0679 185.971 90.5653 185.971 91.2759ZM195.745 97.813C195.745 98.2038 195.676 98.4525 195.364 98.5946C194.913 98.9143 193.666 99.5538 191.794 99.5538C189.298 99.5538 188.224 98.1327 188.224 96.4629C188.224 94.9352 189.229 93.5852 191.724 93.5852C192.487 93.5852 192.972 93.6562 193.596 93.8339V93.372C193.596 92.4838 193.146 92.0219 191.967 92.0219C191.343 92.0219 190.719 92.1641 190.338 92.3417C189.333 92.6614 188.778 92.1996 188.778 91.4535C188.778 91.0627 188.917 90.6719 189.541 90.4232C189.991 90.1745 191.031 89.9613 192.036 89.9613C194.428 89.9613 195.849 91.0627 195.849 93.5496V97.8485H195.745V97.813ZM193.492 97.1735V95.5747C192.938 95.4326 192.418 95.255 191.794 95.255C190.858 95.255 190.303 95.7168 190.303 96.3563C190.303 97.1379 190.927 97.5643 191.863 97.5643C192.799 97.6353 193.319 97.3156 193.492 97.1735Z" fill="#E1E7ED"/>
</svg>
