<svg width="242" height="161" viewBox="0 0 242 161" fill="none" xmlns="http://www.w3.org/2000/svg">
<g clip-path="url(#clip0_8449_6587)">
<path d="M161.79 60.3535C161.814 60.3434 167.32 71.2453 166.343 82.8353C165.812 102.301 148.606 124.383 122.966 125.1L119.391 125.025C92.9681 123.712 76.731 101.296 76.8054 81.0388C76.8707 77.273 76.8555 73.0634 78.4441 67.8568L80.0641 68.3408C86.8356 70.8999 94.1412 90.683 117.892 91.8091C118.923 91.8579 120.903 91.9035 120.899 91.9118C119.361 93.4455 110.62 97.0505 106.654 98.0001C106.573 97.9745 107.691 97.7518 106.654 98.0001C116.207 103.921 125.759 92.5262 138.16 90.8506L141.959 90.6272C141.232 88.3371 137.963 88.5304 137.657 88.5605C129.077 89.4051 131.221 88.4211 130.954 88.5047C144.137 84.3714 151.734 73.8147 161.223 60.9769L161.79 60.3535Z" fill="#E1E7ED"/>
<path fill-rule="evenodd" clip-rule="evenodd" d="M142.629 40.6364C141.708 40.1465 133.97 35.4977 122.091 35.3115C96.3376 35.4043 84.9985 54.3024 84.9985 54.3024C90.6964 57.0951 96.6089 65.5056 96.6922 65.6225C103.069 74.5682 111.955 88.4338 123.469 88.6989C127.155 88.7838 129.607 86.5788 132.406 83.8685C142.628 73.9703 144.059 55.6706 157.153 53.0922C157.153 53.0922 152.293 45.7751 142.629 40.6364ZM114.096 52.7407H117.156C118.391 52.7407 119.385 53.7346 119.385 54.9692V62.335C119.385 63.5696 118.391 64.5635 117.156 64.5635H114.096C112.861 64.5635 111.867 63.5696 111.867 62.335V54.9692C111.867 53.7346 112.861 52.7407 114.096 52.7407ZM114.911 54.7694H116.341C116.625 54.7694 116.855 54.9985 116.855 55.2832V62.021C116.855 62.3057 116.625 62.5348 116.341 62.5348H114.911C114.626 62.5348 114.397 62.3057 114.397 62.021V55.2832C114.397 54.9985 114.626 54.7694 114.911 54.7694ZM123.776 52.7432C122.542 52.7432 121.549 53.7359 121.549 54.9704V64.5636H124.077V59.8159H126.535V64.5636H129.062V54.9704C129.062 53.7359 128.07 52.7432 126.835 52.7432H123.776ZM124.593 54.768H126.018C126.303 54.768 126.535 55 126.535 55.2846V57.7911H124.077V55.2846C124.077 55 124.309 54.768 124.593 54.768ZM133.454 52.7432C132.219 52.7432 131.226 53.7359 131.226 54.9704V64.5636H133.754V59.8159H136.212V64.5636H138.74V54.9704C138.74 53.7359 137.747 52.7432 136.512 52.7432H133.454ZM134.271 54.768H135.695C135.98 54.768 136.212 55 136.212 55.2846V57.7911H133.754V55.2846C133.754 55 133.986 54.768 134.271 54.768ZM102.183 52.7432V64.5636H104.717V55.2846C104.717 55 104.942 54.768 105.227 54.768H106.658C106.943 54.768 107.175 55 107.175 55.2846V64.5636H109.703V54.9704C109.703 53.7359 108.71 52.7432 107.475 52.7432H102.183Z" fill="#E1E7ED"/>
<path d="M76.8757 96.1441L72.3658 97.5531L72.1563 96.8826L74.7742 93.7529C74.831 93.6836 74.8856 93.6218 74.938 93.5673C74.9904 93.5129 75.041 93.4668 75.0897 93.4292L71.4341 94.5713L71.2514 93.9866L75.7612 92.5776L75.9688 93.2419L73.3194 96.4319C73.2786 96.4805 73.2349 96.5272 73.1884 96.5719C73.1419 96.6167 73.0919 96.6609 73.0383 96.7045L76.694 95.5624L76.8757 96.1441ZM73.4257 91.1842L73.1214 89.7439L71.2326 90.8902L73.4257 91.1842ZM75.6288 92.1153L70.6433 91.3753L70.4968 90.6818L74.7557 87.9825L74.8995 88.6635L73.6221 89.4447L74.0066 91.2648L75.4916 91.4658L75.6288 92.1153ZM74.577 86.4635L70.4584 86.9783L70.6434 88.4581L70.0736 88.5294L69.6237 84.9299L70.1934 84.8587L70.3784 86.3386L74.4971 85.8238L74.577 86.4635ZM74.2989 83.7615L69.5846 84.0788L69.5415 83.4388L74.2558 83.1215L74.2989 83.7615ZM71.8061 81.6177C72.4113 81.6196 72.8849 81.4816 73.2268 81.2037C73.5688 80.9257 73.7406 80.5398 73.7422 80.0459C73.7438 79.5541 73.5745 79.1692 73.2343 78.8912C72.8941 78.6132 72.4214 78.4732 71.8162 78.4713C71.2089 78.4693 70.7348 78.6063 70.3939 78.8821C70.053 79.1579 69.8818 79.5417 69.8802 80.0335C69.8786 80.5274 70.0473 80.9144 70.3865 81.1945C70.7256 81.4747 71.1988 81.6157 71.8061 81.6177ZM71.804 82.2816C71.0234 82.2791 70.4141 82.0788 69.9759 81.6807C69.5377 81.2827 69.3198 80.733 69.322 80.0317C69.3243 79.3325 69.5452 78.7863 69.9849 78.3932C70.4245 78.0002 71.0357 77.8049 71.8184 77.8074C72.5989 77.8099 73.2083 78.0091 73.6464 78.405C74.0846 78.8009 74.3026 79.3485 74.3003 80.0477C74.2981 80.749 74.0766 81.2973 73.6359 81.6925C73.1951 82.0877 72.5845 82.2841 71.804 82.2816ZM74.2379 77.0089L69.5394 76.5107L69.6134 75.8122L73.2592 73.9798C73.3388 73.9387 73.4135 73.9037 73.4833 73.8745C73.553 73.8453 73.6178 73.8232 73.6774 73.808L69.8688 73.4042L69.9334 72.795L74.632 73.2932L74.5586 73.9853L70.8599 75.8605C70.8031 75.8889 70.7445 75.9144 70.684 75.937C70.6236 75.9596 70.5601 75.9803 70.4936 75.9991L74.3022 76.4029L74.2379 77.0089ZM73.0407 71.0876L73.3329 69.6447L71.1442 69.9477L73.0407 71.0876ZM74.6935 72.8163L70.4108 70.1592L70.5515 69.4645L75.5319 68.6763L75.3938 69.3585L73.9112 69.5688L73.5419 71.392L74.8253 72.1656L74.6935 72.8163ZM75.6819 68.2127L71.1429 66.9003L71.3229 66.2779L75.2887 67.4246L75.9428 65.163L76.5159 65.3287L75.6819 68.2127ZM75.3055 61.7849C75.8604 62.0266 76.3499 62.0876 76.774 61.968C77.1982 61.8484 77.5089 61.5622 77.7062 61.1094C77.9026 60.6585 77.8997 60.238 77.6976 59.848C77.4955 59.4579 77.1171 59.142 76.5623 58.9004C76.0055 58.6579 75.5159 58.5956 75.0936 58.7137C74.6713 58.8318 74.3619 59.1163 74.1655 59.5671C73.9682 60.02 73.9697 60.4422 74.17 60.8338C74.3702 61.2254 74.7488 61.5424 75.3055 61.7849ZM75.0404 62.3936C74.3248 62.0819 73.8448 61.6565 73.6003 61.1174C73.3558 60.5783 73.3737 59.9872 73.6538 59.3443C73.9331 58.7032 74.3524 58.2894 74.9119 58.1028C75.4714 57.9162 76.1099 57.9792 76.8274 58.2917C77.543 58.6034 78.0235 59.0278 78.2688 59.565C78.5141 60.1021 78.4971 60.6912 78.2179 61.3322C77.9377 61.9752 77.517 62.3908 76.9557 62.5789C76.3944 62.7671 75.7559 62.7053 75.0404 62.3936ZM79.4679 54.7741L79.7739 54.2323C80.2611 54.5394 80.5636 54.9354 80.6813 55.4206C80.799 55.9057 80.7159 56.3997 80.432 56.9024C80.105 57.4814 79.6513 57.8238 79.071 57.9295C78.4906 58.0353 77.8513 57.891 77.153 57.4967C76.5088 57.133 76.0944 56.6719 75.91 56.1135C75.7256 55.5551 75.7985 54.9836 76.1286 54.3989C76.3915 53.9335 76.7269 53.62 77.1348 53.4587C77.5427 53.2974 77.9675 53.3106 78.409 53.4985L78.0999 54.0459C77.7986 53.9446 77.5196 53.9504 77.263 54.0633C77.0065 54.1763 76.7898 54.3892 76.6132 54.702C76.3777 55.119 76.3411 55.5251 76.5036 55.9201C76.6661 56.3151 77.0136 56.6629 77.5462 56.9636C78.049 57.2475 78.5197 57.3555 78.9583 57.2876C79.3969 57.2197 79.7277 56.9884 79.9506 56.5937C80.1409 56.2567 80.1921 55.9216 80.104 55.5882C80.016 55.2549 79.8039 54.9835 79.4679 54.7741ZM81.7255 54.4645L77.846 51.7678L79.7684 49.0026L80.2504 49.3377L78.6905 51.5814L79.8493 52.3869L81.2903 50.3144L81.7433 50.6292L80.3024 52.7018L81.6035 53.6062L83.1945 51.3177L83.6792 51.6545L81.7255 54.4645ZM83.1888 49.1422L84.132 48.0118L82.0625 47.2378L83.1888 49.1422ZM83.8208 51.4488L81.3168 47.0751L81.7709 46.5309L86.5271 48.2054L86.0812 48.7398L84.6769 48.2199L83.485 49.6483L84.2461 50.9391L83.8208 51.4488ZM86.8604 47.859L83.5302 44.5075L84.0286 44.0125L88.0132 44.8917C88.1008 44.9101 88.1809 44.93 88.2534 44.9514C88.3259 44.9728 88.3901 44.9965 88.446 45.0224L85.7466 42.3057L86.1812 41.874L89.5114 45.2254L89.0176 45.7159L84.9649 44.8365C84.903 44.8227 84.8414 44.8055 84.7802 44.7849C84.7191 44.7643 84.6568 44.7402 84.5934 44.7128L87.2928 47.4294L86.8604 47.859ZM90.2922 44.571L87.1947 41.0034L87.6792 40.5829L90.7766 44.1505L90.2922 44.571ZM93.1269 40.063L93.623 39.6874C93.9481 40.1627 94.0683 40.6464 93.9835 41.1383C93.8988 41.6303 93.6262 42.0506 93.1659 42.3991C92.6357 42.8005 92.0833 42.9345 91.5088 42.8009C90.9342 42.6673 90.4048 42.2809 89.9207 41.6417C89.4741 41.0519 89.2771 40.4642 89.3298 39.8785C89.3824 39.2928 89.6764 38.7973 90.2118 38.392C90.638 38.0693 91.0703 37.9149 91.5087 37.9289C91.9472 37.9429 92.3317 38.1239 92.6622 38.4717L92.161 38.8512C91.9247 38.6385 91.6665 38.533 91.3861 38.5347C91.1058 38.5364 90.8224 38.6457 90.536 38.8626C90.1541 39.1517 89.9592 39.5098 89.9514 39.9369C89.9435 40.3639 90.1242 40.8212 90.4934 41.3087C90.8419 41.769 91.231 42.0551 91.6604 42.1671C92.0899 42.2791 92.4854 42.1982 92.8468 41.9246C93.1554 41.6909 93.3355 41.4037 93.3872 41.0628C93.4389 40.722 93.3521 40.3887 93.1269 40.063ZM96.5951 37.5851L97.8749 36.8572L96.2084 35.4066L96.5951 37.5851ZM96.3779 39.9668L95.5671 34.9928L96.1833 34.6424L100.05 37.8784L99.445 38.2225L98.3122 37.2432L96.695 38.1629L96.9551 39.6385L96.3779 39.9668ZM100.484 37.6709L98.5446 33.3627L99.1852 33.0745L102.606 35.2983C102.682 35.3464 102.75 35.3932 102.81 35.4387C102.871 35.4842 102.922 35.5289 102.965 35.5728L101.394 32.0806L101.952 31.8292L103.891 36.1374L103.257 36.423L99.772 34.175C99.7189 34.1403 99.6673 34.1026 99.6173 34.0618C99.5673 34.021 99.5174 33.9766 99.4676 33.9286L101.04 37.4208L100.484 37.6709ZM105.156 31.2558L104.11 31.6065L105.254 35.0216L106.301 34.6709C106.749 34.5207 107.039 34.2618 107.17 33.894C107.302 33.5263 107.272 33.0576 107.081 32.4879C106.898 31.9426 106.642 31.564 106.311 31.3523C105.981 31.1405 105.596 31.1084 105.156 31.2558ZM104.83 35.7728L103.328 31.2934L105.034 30.7215C105.659 30.5122 106.199 30.5385 106.656 30.8004C107.112 31.0624 107.459 31.5451 107.694 32.2486C107.938 32.9764 107.956 33.6001 107.748 34.1197C107.54 34.6394 107.128 35.0025 106.512 35.2091L104.83 35.7728ZM111.448 31.8305L112.893 31.5501L111.778 29.6428L111.448 31.8305ZM110.48 34.0177L111.303 29.0456L111.999 28.9106L114.627 33.2132L113.944 33.3457L113.184 32.0556L111.358 32.4099L111.132 33.8912L110.48 34.0177ZM116.149 33.0596L115.702 28.9335L114.219 29.0941L114.158 28.5233L117.764 28.1327L117.826 28.7034L116.343 28.8641L116.79 32.9902L116.149 33.0596ZM119.384 28.7448L119.432 32.7697L118.842 32.7767L118.786 28.0526L119.703 28.0418L120.917 31.6423C120.952 31.7445 120.978 31.8238 120.995 31.8803C121.011 31.9368 121.024 31.9863 121.033 32.029C121.05 31.9497 121.066 31.8789 121.082 31.8167C121.099 31.7545 121.116 31.6955 121.135 31.6397L122.304 28.0109L123.225 28L123.281 32.7241L122.659 32.7314L122.611 28.7065C122.597 28.7751 122.58 28.8443 122.562 28.914C122.543 28.9837 122.524 29.0529 122.503 29.1216L121.331 32.7472L120.724 32.7544L119.495 29.1573C119.473 29.0976 119.453 29.0337 119.435 28.9655C119.417 28.8973 119.4 28.8237 119.384 28.7448ZM124.984 30.4759C124.925 31.0781 125.017 31.5626 125.262 31.9293C125.506 32.296 125.874 32.5035 126.366 32.5518C126.855 32.5999 127.254 32.4677 127.563 32.1554C127.872 31.8431 128.056 31.3858 128.116 30.7836C128.175 30.1793 128.083 29.6944 127.841 29.3289C127.599 28.9635 127.233 28.7568 126.743 28.7087C126.252 28.6604 125.85 28.7917 125.539 29.1028C125.229 29.4139 125.043 29.8716 124.984 30.4759ZM124.323 30.411C124.399 29.6343 124.657 29.0467 125.094 28.6482C125.532 28.2497 126.1 28.0847 126.798 28.1533C127.494 28.2216 128.017 28.4932 128.367 28.968C128.716 29.4429 128.853 30.0697 128.776 30.8485C128.7 31.6252 128.444 32.2129 128.008 32.6117C127.573 33.0104 127.007 33.1755 126.311 33.1072C125.613 33.0386 125.088 32.7663 124.736 32.2902C124.385 31.8141 124.247 31.1877 124.323 30.411ZM129.437 31.7754L130.044 31.8962C129.983 32.233 130.042 32.5226 130.219 32.765C130.397 33.0074 130.667 33.1647 131.03 33.2368C131.388 33.3082 131.686 33.2889 131.923 33.179C132.159 33.0691 132.303 32.8841 132.355 32.6241C132.426 32.2697 132.091 31.923 131.352 31.5841C131.308 31.5644 131.274 31.549 131.25 31.5377C130.65 31.2636 130.268 31.0147 130.102 30.7909C129.936 30.5672 129.887 30.2865 129.954 29.9489C130.036 29.5357 130.253 29.2339 130.605 29.0434C130.957 28.8528 131.383 28.8074 131.885 28.9071C132.396 29.0089 132.773 29.2206 133.014 29.5422C133.255 29.8638 133.332 30.2547 133.245 30.7148L132.644 30.5984C132.684 30.2838 132.626 30.0249 132.47 29.8214C132.313 29.618 132.07 29.4835 131.74 29.418C131.432 29.3567 131.172 29.3753 130.961 29.4739C130.749 29.5724 130.621 29.7339 130.576 29.9583C130.505 30.3169 130.834 30.6602 131.562 30.9882C131.67 31.038 131.753 31.0763 131.811 31.1031C131.823 31.1077 131.844 31.1173 131.874 31.1319C132.349 31.3508 132.655 31.5457 132.791 31.7166C132.894 31.8461 132.963 31.9923 132.998 32.1551C133.033 32.318 133.032 32.4917 132.996 32.6763C132.907 33.123 132.676 33.4466 132.304 33.6472C131.931 33.8478 131.472 33.8939 130.927 33.7854C130.365 33.6736 129.955 33.4445 129.698 33.0979C129.441 32.7514 129.354 32.3106 129.437 31.7754ZM134.841 31.9404L135.875 32.2438C136.234 32.3492 136.502 32.3653 136.678 32.2922C136.855 32.2192 136.984 32.0431 137.066 31.7641C137.144 31.4953 137.13 31.2817 137.023 31.1232C136.916 30.9647 136.697 30.837 136.367 30.7401L135.286 30.4231L134.841 31.9404ZM133.504 34.2187L134.834 29.6855L136.502 30.1749C136.773 30.2544 136.975 30.3282 137.109 30.3965C137.243 30.4647 137.356 30.5458 137.449 30.6399C137.604 30.7946 137.702 30.9849 137.743 31.2107C137.783 31.4366 137.765 31.6819 137.687 31.9465C137.613 32.1989 137.499 32.4071 137.344 32.571C137.188 32.735 137 32.8467 136.777 32.9062C136.649 32.94 136.508 32.9492 136.353 32.9338C136.198 32.9185 135.952 32.8614 135.616 32.7627L134.68 32.4882L134.119 34.3993L133.504 34.2187ZM137.472 35.4184L139.224 31.0307L139.82 31.2685L139.101 33.0706L141.377 33.9791L142.096 32.1769L142.695 32.416L140.943 36.8037L140.344 36.5647L141.165 34.5093L138.889 33.6009L138.068 35.6562L137.472 35.4184ZM141.859 37.2353L144.018 33.0328L147.014 34.5715L146.746 35.0936L144.315 33.8451L143.67 35.1004L145.915 36.2536L145.663 36.7444L143.418 35.5911L142.694 37.0005L145.173 38.2739L144.904 38.7989L141.859 37.2353ZM148.336 36.0043L147.479 37.3563L148.406 37.9433C148.74 38.155 149.01 38.2504 149.217 38.2296C149.424 38.2087 149.608 38.0719 149.768 37.819C149.918 37.5824 149.959 37.3741 149.89 37.1942C149.822 37.0143 149.613 36.8133 149.262 36.5913L148.336 36.0043ZM148.102 35.1991L149.649 36.1792C149.9 36.3383 150.078 36.4661 150.182 36.5628C150.287 36.6594 150.37 36.7627 150.432 36.8728C150.542 37.0714 150.588 37.2806 150.572 37.5004C150.555 37.7203 150.477 37.9413 150.336 38.1635C150.2 38.3784 150.037 38.533 149.848 38.6273C149.659 38.7216 149.446 38.7543 149.209 38.7254C149.337 38.8671 149.401 39.0104 149.402 39.1551C149.402 39.2998 149.333 39.5002 149.194 39.7561L148.823 40.4437C148.742 40.5903 148.694 40.7072 148.678 40.7945C148.662 40.8818 148.673 40.9576 148.711 41.022L148.64 41.1331L148.014 40.7366C148.016 40.6214 148.094 40.4212 148.247 40.1359C148.251 40.1286 148.255 40.1232 148.257 40.1196L148.554 39.5788C148.706 39.3001 148.759 39.0906 148.713 38.9505C148.668 38.8104 148.454 38.619 148.071 38.3764L147.193 37.8203L146.109 39.5299L145.573 39.19L148.102 35.1991ZM149.227 41.5944L152.005 37.7723L152.524 38.1494L149.746 41.9714L149.227 41.5944ZM154.259 43.339L154.737 43.7376C154.347 44.1615 153.903 44.3876 153.404 44.416C152.906 44.4444 152.435 44.2737 151.992 43.9039C151.481 43.478 151.226 42.9701 151.226 42.3803C151.227 41.7904 151.484 41.1876 151.998 40.5719C152.472 40.0037 153 39.6793 153.582 39.5985C154.165 39.5177 154.714 39.6923 155.23 40.1224C155.64 40.4648 155.888 40.8511 155.973 41.2813C156.059 41.7116 155.969 42.127 155.705 42.5274L155.222 42.1247C155.376 41.8466 155.42 41.5712 155.355 41.2985C155.29 41.0258 155.12 40.7744 154.844 40.5444C154.476 40.2376 154.083 40.1285 153.666 40.2172C153.248 40.3058 152.843 40.585 152.451 41.0546C152.081 41.4979 151.89 41.9414 151.878 42.3851C151.866 42.8287 152.034 43.1957 152.382 43.4861C152.679 43.7339 153 43.8446 153.344 43.8181C153.687 43.7915 153.992 43.6318 154.259 43.339ZM157.455 46.157L158.454 47.2389L159.49 45.2877L157.455 46.157ZM155.086 46.4841L159.748 44.5694L160.229 45.0903L157.951 49.5883L157.479 49.0769L158.177 47.7521L156.915 46.385L155.536 46.972L155.086 46.4841ZM162.634 48.8173L161.964 47.9408L159.102 50.1287L159.773 51.0052C160.06 51.3805 160.398 51.571 160.789 51.5765C161.18 51.5821 161.613 51.4024 162.091 51.0374C162.548 50.688 162.823 50.3228 162.917 49.9417C163.01 49.5607 162.916 49.1858 162.634 48.8173ZM158.254 49.9699L162.007 47.1001L163.1 48.5294C163.5 49.0525 163.65 49.5724 163.55 50.0891C163.45 50.6058 163.105 51.0895 162.516 51.5402C161.906 52.0065 161.321 52.2252 160.762 52.1965C160.203 52.1677 159.726 51.8951 159.331 51.3788L158.254 49.9699ZM164.797 52.0924L161.358 54.1851L161.052 53.681L165.088 51.2247L165.565 52.0083L163.085 54.8876C163.015 54.9702 162.96 55.0331 162.92 55.0762C162.88 55.1194 162.844 55.1558 162.812 55.1853C162.889 55.1588 162.958 55.1367 163.02 55.1191C163.082 55.1014 163.141 55.0864 163.199 55.0739L166.917 54.2302L167.396 55.0165L163.36 57.4728L163.036 56.9413L166.475 54.8486C166.409 54.8713 166.341 54.8926 166.272 54.9123C166.202 54.932 166.133 54.9505 166.063 54.9678L162.346 55.8071L162.031 55.2893L164.499 52.3979C164.539 52.3485 164.584 52.2987 164.633 52.2485C164.683 52.1983 164.737 52.1463 164.797 52.0924ZM163.798 58.4045L168.008 56.2591L168.299 56.8306L164.09 58.976L163.798 58.4045ZM164.575 59.8898L168.921 58.0354L169.197 58.6814L166.906 62.058C166.857 62.1326 166.809 62.1996 166.762 62.2591C166.715 62.3186 166.669 62.3694 166.625 62.4118L170.147 60.9086L170.388 61.4721L166.042 63.3264L165.769 62.6863L168.085 59.2466C168.121 59.1941 168.159 59.1433 168.201 59.0941C168.243 59.0449 168.288 58.9959 168.337 58.9471L164.815 60.4503L164.575 59.8898ZM166.36 64.2942L170.822 62.7402L171.033 63.3459L166.571 64.9L166.36 64.2942ZM168.361 65.2517L168.528 65.8479C168.2 65.946 167.968 66.129 167.832 66.3967C167.695 66.6645 167.677 66.9765 167.776 67.3328C167.875 67.685 168.026 67.9418 168.231 68.1033C168.436 68.2648 168.666 68.3099 168.922 68.2387C169.27 68.1416 169.428 67.6867 169.397 66.8741C169.394 66.8259 169.393 66.7886 169.392 66.7622C169.366 66.1035 169.415 65.6497 169.54 65.4006C169.665 65.1516 169.893 64.9808 170.225 64.8883C170.631 64.7751 170.998 64.8325 171.327 65.0604C171.656 65.2883 171.889 65.6484 172.026 66.1406C172.166 66.6431 172.147 67.0746 171.969 67.4351C171.791 67.7955 171.477 68.0407 171.027 68.1707L170.86 67.5815C171.159 67.4758 171.364 67.3071 171.474 67.0754C171.585 66.8436 171.595 66.566 171.505 66.2426C171.421 65.9399 171.287 65.7164 171.103 65.5723C170.92 65.4281 170.718 65.3867 170.498 65.4482C170.145 65.5465 169.987 65.9946 170.023 66.7925C170.028 66.9112 170.031 67.0024 170.033 67.0662C170.035 67.0791 170.035 67.1022 170.036 67.1354C170.055 67.6583 170.019 68.019 169.928 68.2176C169.859 68.3679 169.76 68.4954 169.63 68.6004C169.501 68.7053 169.346 68.7831 169.164 68.8336C168.726 68.956 168.333 68.8964 167.985 68.6547C167.638 68.413 167.39 68.0244 167.241 67.4889C167.087 66.937 167.106 66.4681 167.299 66.0824C167.493 65.6966 167.847 65.4197 168.361 65.2517ZM168.205 71.0088L172.283 70.236L172.006 68.7707L172.57 68.6638L173.245 72.2278L172.681 72.3347L172.403 70.8694L168.325 71.6421L168.205 71.0088ZM172.891 73.8741L171.299 74.0366L171.41 75.1278C171.45 75.5214 171.542 75.793 171.687 75.9427C171.831 76.0924 172.052 76.152 172.35 76.1216C172.629 76.0932 172.818 75.9965 172.917 75.8316C173.016 75.6668 173.045 75.378 173.002 74.9653L172.891 73.8741ZM173.379 73.1923L173.565 75.0143C173.595 75.3099 173.605 75.5287 173.594 75.6707C173.582 75.8126 173.552 75.9419 173.504 76.0586C173.416 76.2675 173.28 76.4334 173.097 76.5564C172.914 76.6793 172.692 76.7541 172.43 76.7808C172.177 76.8066 171.955 76.7745 171.764 76.6844C171.573 76.5942 171.416 76.4469 171.292 76.2425C171.259 76.4307 171.186 76.5697 171.073 76.6598C170.96 76.7498 170.759 76.8191 170.472 76.8678L169.702 77.0012C169.537 77.0288 169.416 77.0632 169.337 77.1045C169.259 77.1459 169.206 77.2013 169.178 77.2707L169.048 77.284L168.972 76.547C169.064 76.4774 169.269 76.4145 169.588 76.3584C169.597 76.3575 169.603 76.3568 169.607 76.3564L170.216 76.2556C170.529 76.2022 170.726 76.1143 170.808 75.992C170.89 75.8697 170.908 75.5831 170.862 75.1322L170.757 74.0984L168.743 74.3039L168.679 73.6721L173.379 73.1923ZM171.046 78.8329L171.064 80.3049L173.14 79.5476L171.046 78.8329ZM169.066 77.4912L173.812 79.1863L173.821 79.8951L169.119 81.715L169.11 81.019L170.515 80.501L170.491 78.6409L169.074 78.1551L169.066 77.4912ZM169.001 83.2399L173.142 83.5299L173.246 82.0421L173.819 82.0822L173.565 85.7008L172.993 85.6607L173.097 84.173L168.956 83.883L169.001 83.2399ZM168.753 85.9448L173.44 86.5434L173.358 87.1796L168.672 86.5811L168.753 85.9448ZM170.785 88.5322C170.191 88.4128 169.7 88.4562 169.311 88.6624C168.921 88.8687 168.678 89.2139 168.58 89.6981C168.483 90.1802 168.574 90.5907 168.854 90.9294C169.134 91.2682 169.57 91.4973 170.164 91.6167C170.759 91.7366 171.251 91.6943 171.639 91.49C172.027 91.2856 172.269 90.9424 172.366 90.4603C172.464 89.9761 172.373 89.5636 172.095 89.223C171.817 88.8823 171.38 88.6521 170.785 88.5322ZM170.916 87.8814C171.681 88.0354 172.24 88.3502 172.592 88.8258C172.945 89.3013 173.052 89.8829 172.913 90.5704C172.775 91.2559 172.452 91.7487 171.945 92.0489C171.437 92.3491 170.8 92.422 170.032 92.2676C169.267 92.1135 168.708 91.7998 168.355 91.3263C168.002 90.8528 167.895 90.2734 168.033 89.588C168.171 88.9004 168.495 88.4056 169.004 88.1035C169.513 87.8014 170.15 87.7273 170.916 87.8814ZM167.502 92.5807L172.012 93.9896L171.803 94.6601L167.868 95.7428C167.782 95.7674 167.702 95.7872 167.628 95.8021C167.554 95.817 167.486 95.8261 167.425 95.8293L171.08 96.9714L170.898 97.5561L166.388 96.1472L166.595 95.4828L170.59 94.3685C170.651 94.3518 170.713 94.3383 170.777 94.328C170.841 94.3176 170.907 94.3098 170.976 94.3044L167.32 93.1623L167.502 92.5807Z" fill="#E1E7ED"/>
<path d="M77.2599 104.349L79.7804 102.852L80.1081 103.403L77.5821 104.904C77.2016 105.13 76.9703 105.381 76.8882 105.657C76.8062 105.934 76.87 106.248 77.0798 106.601C77.2873 106.951 77.5346 107.156 77.8215 107.218C78.1083 107.28 78.4393 107.2 78.8143 106.977L81.3403 105.476L81.6696 106.031L79.1492 107.528C78.605 107.852 78.11 107.956 77.6639 107.842C77.2179 107.727 76.8332 107.398 76.5099 106.854C76.2084 106.347 76.1201 105.884 76.2451 105.467C76.3702 105.049 76.7084 104.677 77.2599 104.349ZM78.3069 109.446L78.8969 109.042L79.2687 109.584L78.6788 109.988L78.3069 109.446ZM80.4763 109.889L80.8568 110.378C80.5908 110.593 80.4457 110.85 80.4215 111.15C80.3973 111.449 80.4989 111.745 80.7263 112.037C80.951 112.325 81.1889 112.505 81.4398 112.576C81.6907 112.648 81.9207 112.602 82.1299 112.439C82.415 112.217 82.3886 111.736 82.0507 110.997C82.0302 110.953 82.0146 110.919 82.0039 110.895C81.7294 110.295 81.6025 109.857 81.6233 109.579C81.644 109.301 81.7902 109.057 82.0618 108.845C82.3941 108.586 82.7557 108.5 83.1465 108.586C83.5374 108.671 83.8899 108.916 84.204 109.319C84.5247 109.731 84.6712 110.137 84.6435 110.538C84.6158 110.939 84.4186 111.285 84.0518 111.576L83.6727 111.095C83.9092 110.884 84.0346 110.65 84.0489 110.393C84.0632 110.137 83.9672 109.876 83.7609 109.611C83.5677 109.363 83.3588 109.208 83.1344 109.144C82.9099 109.08 82.7074 109.119 82.5269 109.259C82.2385 109.484 82.2626 109.959 82.5993 110.683C82.6484 110.791 82.686 110.874 82.7124 110.932C82.7186 110.944 82.7281 110.965 82.7411 110.995C82.9578 111.472 83.0617 111.819 83.0529 112.037C83.0461 112.203 83.0028 112.358 82.9229 112.505C82.843 112.651 82.7289 112.782 82.5804 112.897C82.2211 113.177 81.835 113.272 81.422 113.18C81.009 113.088 80.6317 112.823 80.2899 112.385C79.9377 111.933 79.7776 111.491 79.8097 111.061C79.8418 110.631 80.064 110.24 80.4763 109.889ZM82.1983 114.505L82.7348 114.032L83.1697 114.525L82.6332 114.998L82.1983 114.505ZM88.9438 115.466L88.1337 114.717L85.6879 117.362L86.4981 118.111C86.845 118.432 87.2114 118.561 87.5972 118.5C87.9829 118.439 88.3798 118.188 88.7878 117.747C89.1784 117.324 89.3872 116.918 89.4142 116.526C89.4413 116.135 89.2845 115.781 88.9438 115.466ZM84.8249 117.35L88.0329 113.881L89.3541 115.103C89.8376 115.55 90.0742 116.037 90.0638 116.563C90.0533 117.089 89.7962 117.625 89.2923 118.17C88.7711 118.733 88.2326 119.048 87.6768 119.116C87.1211 119.183 86.6045 118.996 86.1273 118.554L84.8249 117.35ZM88.4029 120.575L91.2962 116.84L93.9589 118.902L93.5994 119.366L91.4388 117.693L90.5746 118.808L92.5703 120.354L92.2325 120.79L90.2367 119.244L89.2664 120.497L91.4701 122.204L91.1087 122.67L88.4029 120.575ZM93.8209 121.41L94.7246 121.997C95.0384 122.201 95.2902 122.293 95.4801 122.274C95.67 122.255 95.8442 122.123 96.0026 121.879C96.1553 121.644 96.2029 121.436 96.1456 121.253C96.0883 121.07 95.9153 120.885 95.6267 120.698L94.6826 120.084L93.8209 121.41ZM91.8864 123.209L94.461 119.248L95.9188 120.195C96.1555 120.349 96.3281 120.478 96.4367 120.581C96.5453 120.685 96.6305 120.795 96.6924 120.912C96.7967 121.105 96.8359 121.315 96.8101 121.543C96.7843 121.771 96.6963 122.001 96.5459 122.232C96.4026 122.453 96.2331 122.619 96.0376 122.732C95.8419 122.844 95.629 122.897 95.3988 122.891C95.2665 122.886 95.1284 122.854 94.9844 122.795C94.8405 122.736 94.6215 122.611 94.3274 122.42L93.5098 121.889L92.4244 123.559L91.8864 123.209ZM97.2018 124.19L98.4986 124.887L98.8418 122.704L97.2018 124.19ZM95.0686 125.272L98.8515 121.941L99.4759 122.277L98.7894 127.272L98.1763 126.942L98.404 125.462L96.7654 124.581L95.6534 125.586L95.0686 125.272ZM101.621 123.964L100.986 125.433L101.993 125.868C102.356 126.025 102.639 126.077 102.84 126.024C103.041 125.971 103.201 125.808 103.319 125.533C103.431 125.276 103.438 125.064 103.343 124.896C103.247 124.729 103.009 124.564 102.628 124.399L101.621 123.964ZM101.264 123.205L102.946 123.932C103.218 124.05 103.414 124.148 103.533 124.227C103.651 124.306 103.749 124.395 103.828 124.495C103.967 124.674 104.045 124.873 104.063 125.093C104.081 125.312 104.038 125.543 103.934 125.784C103.833 126.018 103.697 126.196 103.525 126.319C103.353 126.441 103.148 126.507 102.909 126.515C103.057 126.635 103.143 126.767 103.166 126.91C103.19 127.052 103.152 127.261 103.055 127.536L102.795 128.273C102.739 128.43 102.71 128.553 102.707 128.642C102.705 128.731 102.728 128.804 102.775 128.861L102.723 128.982L102.043 128.688C102.027 128.574 102.072 128.364 102.179 128.059C102.182 128.051 102.185 128.045 102.186 128.041L102.395 127.46C102.501 127.161 102.521 126.946 102.454 126.815C102.387 126.684 102.146 126.528 101.73 126.348L100.776 125.936L99.9728 127.794L99.3898 127.542L101.264 123.205ZM104.563 129.619L105.895 125.688L104.482 125.21L104.666 124.666L108.102 125.829L107.918 126.373L106.505 125.895L105.174 129.826L104.563 129.619ZM108.804 126.75L107.868 130.665L107.294 130.528L108.392 125.933L109.285 126.146L109.583 129.933C109.592 130.041 109.598 130.125 109.601 130.183C109.603 130.242 109.604 130.293 109.602 130.337C109.637 130.264 109.67 130.199 109.701 130.143C109.732 130.087 109.764 130.034 109.795 129.984L111.815 126.75L112.71 126.964L111.612 131.559L111.007 131.415L111.942 127.5C111.912 127.563 111.879 127.626 111.844 127.689C111.809 127.752 111.774 127.814 111.737 127.876L109.715 131.106L109.125 130.965L108.811 127.177C108.804 127.114 108.8 127.047 108.799 126.976C108.798 126.906 108.8 126.83 108.804 126.75ZM112.785 131.749L113.437 127.07L116.773 127.535L116.692 128.117L113.985 127.739L113.79 129.137L116.29 129.486L116.214 130.032L113.714 129.683L113.495 131.253L116.256 131.637L116.174 132.222L112.785 131.749ZM117.11 132.311L117.347 127.593L118.049 127.628L120.081 131.166C120.126 131.244 120.166 131.316 120.199 131.384C120.232 131.452 120.257 131.516 120.276 131.574L120.468 127.75L121.08 127.78L120.843 132.499L120.148 132.464L118.07 128.875C118.038 128.82 118.01 128.763 117.984 128.704C117.958 128.645 117.934 128.583 117.911 128.517L117.719 132.342L117.11 132.311ZM123.062 132.453L122.925 128.305L121.434 128.355L121.415 127.781L125.041 127.661L125.06 128.235L123.569 128.284L123.706 132.432L123.062 132.453ZM127.979 129.739C128.074 130.337 128.286 130.782 128.615 131.075C128.945 131.368 129.353 131.476 129.841 131.398C130.327 131.321 130.679 131.092 130.899 130.711C131.119 130.331 131.181 129.842 131.086 129.245C130.991 128.645 130.78 128.199 130.453 127.907C130.126 127.614 129.719 127.507 129.234 127.584C128.746 127.662 128.391 127.891 128.169 128.27C127.946 128.65 127.883 129.14 127.979 129.739ZM127.323 129.844C127.2 129.073 127.3 128.439 127.623 127.943C127.945 127.447 128.453 127.144 129.146 127.033C129.836 126.923 130.411 127.054 130.869 127.425C131.328 127.795 131.619 128.367 131.742 129.14C131.865 129.911 131.766 130.544 131.445 131.04C131.125 131.536 130.619 131.839 129.929 131.949C129.236 132.059 128.659 131.929 128.198 131.557C127.738 131.186 127.446 130.614 127.323 129.844ZM133.07 131.234L131.915 126.653L134.991 125.878L135.136 126.453L132.682 127.072L133.029 128.446L135.172 127.906L135.313 128.466L133.17 129.006L133.693 131.078L133.07 131.234ZM141.266 126.779L141.846 126.554C142.029 127.1 142.012 127.598 141.795 128.048C141.579 128.498 141.201 128.828 140.663 129.037C140.043 129.277 139.475 129.255 138.959 128.969C138.443 128.683 138.04 128.166 137.75 127.419C137.482 126.729 137.454 126.11 137.665 125.561C137.876 125.012 138.295 124.616 138.921 124.373C139.419 124.18 139.877 124.15 140.295 124.283C140.713 124.417 141.033 124.696 141.256 125.122L140.669 125.349C140.501 125.08 140.281 124.908 140.011 124.832C139.741 124.757 139.439 124.785 139.104 124.915C138.657 125.088 138.372 125.379 138.247 125.787C138.122 126.196 138.171 126.685 138.392 127.255C138.601 127.794 138.897 128.175 139.279 128.401C139.661 128.626 140.064 128.657 140.486 128.493C140.847 128.353 141.099 128.126 141.242 127.812C141.385 127.499 141.393 127.154 141.266 126.779ZM142.678 125.497C142.951 126.037 143.288 126.396 143.691 126.575C144.094 126.754 144.516 126.732 144.957 126.509C145.396 126.287 145.662 125.962 145.756 125.533C145.849 125.104 145.76 124.619 145.487 124.079C145.213 123.537 144.876 123.176 144.476 122.998C144.075 122.819 143.655 122.84 143.216 123.062C142.775 123.285 142.507 123.611 142.411 124.04C142.315 124.469 142.404 124.955 142.678 125.497ZM142.085 125.796C141.733 125.099 141.635 124.466 141.791 123.895C141.947 123.323 142.339 122.88 142.965 122.564C143.589 122.249 144.176 122.198 144.726 122.411C145.275 122.625 145.727 123.081 146.08 123.779C146.431 124.476 146.53 125.109 146.376 125.68C146.222 126.25 145.833 126.692 145.209 127.007C144.582 127.323 143.993 127.375 143.441 127.161C142.889 126.948 142.437 126.493 142.085 125.796ZM146.316 121.688L148.494 125.074L147.998 125.393L145.442 121.42L146.213 120.923L149.154 123.33C149.238 123.398 149.302 123.451 149.346 123.49C149.39 123.529 149.428 123.564 149.458 123.596C149.43 123.52 149.406 123.451 149.387 123.39C149.368 123.328 149.351 123.269 149.337 123.212L148.401 119.516L149.175 119.018L151.731 122.991L151.208 123.328L149.03 119.943C149.054 120.008 149.077 120.076 149.099 120.144C149.12 120.213 149.14 120.282 149.16 120.351L150.091 124.046L149.581 124.374L146.629 121.979C146.579 121.94 146.528 121.897 146.476 121.849C146.425 121.8 146.372 121.747 146.316 121.688ZM150.627 118.792L153.155 121.925L152.695 122.295L149.728 118.618L150.442 118.042L153.623 120.12C153.715 120.179 153.784 120.225 153.832 120.259C153.88 120.293 153.921 120.324 153.955 120.352C153.918 120.28 153.887 120.214 153.862 120.155C153.836 120.096 153.813 120.039 153.793 119.983L152.467 116.409L153.183 115.831L156.15 119.508L155.666 119.898L153.138 116.766C153.169 116.828 153.199 116.893 153.228 116.959C153.257 117.025 153.284 117.092 153.311 117.158L154.632 120.732L154.161 121.113L150.969 119.047C150.915 119.014 150.859 118.976 150.803 118.934C150.747 118.891 150.688 118.844 150.627 118.792ZM157.018 118.697L153.716 115.318L156.125 112.964L156.535 113.384L154.581 115.294L155.567 116.303L157.372 114.539L157.758 114.933L155.953 116.698L157.06 117.831L159.054 115.883L159.466 116.305L157.018 118.697ZM157.365 112.41L158.576 113.456L159.293 112.626C159.552 112.327 159.686 112.073 159.696 111.865C159.706 111.658 159.597 111.456 159.371 111.26C159.159 111.077 158.959 111.006 158.771 111.047C158.583 111.088 158.353 111.266 158.082 111.58L157.365 112.41ZM156.534 112.523L157.731 111.137C157.925 110.912 158.078 110.755 158.189 110.666C158.3 110.577 158.414 110.509 158.532 110.464C158.745 110.385 158.959 110.37 159.174 110.419C159.389 110.467 159.596 110.578 159.795 110.75C159.988 110.916 160.117 111.099 160.182 111.3C160.248 111.501 160.249 111.716 160.185 111.947C160.344 111.841 160.495 111.799 160.638 111.819C160.782 111.84 160.97 111.938 161.202 112.113L161.828 112.582C161.961 112.682 162.07 112.747 162.154 112.776C162.238 112.805 162.314 112.805 162.384 112.777L162.483 112.863L161.999 113.424C161.885 113.405 161.699 113.299 161.439 113.106C161.432 113.1 161.427 113.096 161.424 113.093L160.933 112.72C160.679 112.529 160.48 112.446 160.335 112.47C160.189 112.494 159.969 112.678 159.672 113.021L158.993 113.808L160.525 115.13L160.11 115.611L156.534 112.523ZM163.542 108.443L163.905 107.938C164.356 108.296 164.614 108.722 164.678 109.217C164.742 109.713 164.606 110.195 164.269 110.663C163.881 111.203 163.393 111.494 162.804 111.536C162.216 111.578 161.596 111.365 160.945 110.898C160.344 110.466 159.982 109.962 159.86 109.387C159.737 108.812 159.872 108.252 160.264 107.707C160.576 107.273 160.943 106.997 161.366 106.881C161.789 106.765 162.21 106.825 162.629 107.06L162.262 107.57C161.973 107.437 161.695 107.412 161.428 107.496C161.161 107.581 160.922 107.769 160.712 108.061C160.433 108.45 160.352 108.849 160.471 109.26C160.59 109.67 160.897 110.054 161.394 110.41C161.863 110.747 162.319 110.906 162.762 110.886C163.206 110.866 163.56 110.672 163.824 110.304C164.05 109.99 164.137 109.662 164.086 109.321C164.035 108.98 163.854 108.688 163.542 108.443ZM165.821 108.171L161.757 105.762L163.474 102.865L163.979 103.164L162.585 105.515L163.8 106.234L165.087 104.063L165.561 104.344L164.274 106.516L165.637 107.323L167.059 104.926L167.566 105.227L165.821 108.171Z" fill="#E1E7ED"/>
</g>
<defs>
<clipPath id="clip0_8449_6587">
<rect width="105" height="105" fill="white" transform="translate(69 28)"/>
</clipPath>
</defs>
</svg>
